#N struct text float x float y text t;
#N canvas 2523 195 594 566 10;
#N canvas 1123 387 617 594 memory 0;
#X obj 57 35 inlet;
#X obj 160 171 text delete \$0-memory;
#X obj 160 151 text search \$0-memory;
#N canvas 1280 511 550 436 change 0;
#X obj 253 85 text search \$0-memory;
#X msg 253 62 \$1;
#X obj 83 158 list split 1;
#X obj 117 181 list trim;
#X obj 253 159 text get \$0-memory;
#X obj 253 135 t f f;
#N canvas 637 476 395 464 change_vol 0;
#X obj 77 54 inlet vol;
#X obj 214 54 inlet text_line_nr;
#X obj 143 54 inlet list;
#X obj 77 146 list;
#X obj 77 221 text set \$0-memory;
#X obj 77 195 list append;
#X obj 77 93 t b f;
#X obj 77 171 list split 8;
#X connect 0 0 6 0;
#X connect 1 0 4 1;
#X connect 2 0 3 1;
#X connect 3 0 7 0;
#X connect 5 0 4 0;
#X connect 6 0 3 0;
#X connect 6 1 5 1;
#X connect 7 0 5 0;
#X restore 118 234 pd change_vol;
#N canvas 1153 425 578 487 change_row 0;
#X obj 77 54 inlet vol;
#X obj 214 54 inlet text_line_nr;
#X obj 143 54 inlet list;
#X obj 77 146 list;
#X obj 77 305 text set \$0-memory;
#X obj 77 237 list append;
#X obj 77 276 list append;
#X obj 77 171 list split 2;
#X msg 77 199 \$1;
#X obj 77 93 t b f;
#X connect 0 0 9 0;
#X connect 1 0 4 1;
#X connect 2 0 3 1;
#X connect 3 0 7 0;
#X connect 5 0 6 0;
#X connect 6 0 4 0;
#X connect 7 0 8 0;
#X connect 7 1 6 1;
#X connect 8 0 5 0;
#X connect 9 0 3 0;
#X connect 9 1 5 1;
#X restore 148 259 pd change_row;
#X obj 118 206 route vol row pos len;
#N canvas 2806 419 380 400 change_pos 0;
#X obj 214 54 inlet text_line_nr;
#X obj 143 54 inlet list;
#X obj 96 169 list;
#X obj 96 346 text set \$0-memory;
#X obj 96 260 list append;
#X obj 96 299 list append;
#X obj 77 54 inlet pos;
#X obj 96 194 list split 5;
#X msg 96 222 \$1 \$2;
#X obj 143 91 t a a;
#N canvas 1997 69 512 730 exchange_pos_of_values_in_memory 0;
#X obj 142 70 inlet new_values;
#X obj 219 114 inlet text_line_nr;
#X floatatom 204 200 5 0 0 0 - - -, f 5;
#X obj 57 263 - 1;
#X obj 57 286 text get \$0-memory;
#X obj 58 306 route bang;
#N canvas 714 144 826 747 compare 0;
#X obj 119 41 inlet list1;
#X obj 298 41 inlet list2;
#X obj 119 88 unpack f f f f;
#X obj 297 92 unpack f f f f;
#X obj 119 608 outlet;
#X floatatom 119 188 5 0 0 0 - - -, f 5;
#X floatatom 157 188 5 0 0 0 - - -, f 5;
#X floatatom 216 188 5 0 0 0 - - -, f 5;
#X floatatom 253 188 5 0 0 0 - - -, f 5;
#X floatatom 312 188 5 0 0 0 - - -, f 5;
#X floatatom 349 188 5 0 0 0 - - -, f 5;
#X floatatom 412 188 5 0 0 0 - - -, f 5;
#X floatatom 449 188 5 0 0 0 - - -, f 5;
#X msg 119 565 1;
#X msg 162 565 0;
#X floatatom 580 186 5 0 0 0 - - -, f 5;
#N canvas 2994 267 614 490 comp 0;
#X obj 94 41 inlet trigger;
#X obj 195 41 inlet nr1;
#X obj 272 41 inlet nr2;
#X obj 349 41 inlet amount;
#X obj 139 199 f;
#X obj 176 199 f;
#X obj 139 178 t b b;
#X obj 139 221 <;
#N canvas 1473 691 290 262 mucks 0;
#X obj 83 9 inlet;
#X obj 83 117 outlet;
#X obj 134 117 outlet;
#X obj 128 9 inlet;
#X obj 83 89 sel 0;
#X obj 83 61 f;
#X floatatom 118 62 5 0 0 0 - - -, f 5;
#X obj 83 31 bng 15 250 50 0 empty empty empty 17 7 0 10 -262144 -1
-1;
#X connect 0 0 7 0;
#X connect 3 0 5 1;
#X connect 3 0 6 0;
#X connect 4 0 1 0;
#X connect 4 1 2 0;
#X connect 5 0 4 0;
#X connect 7 0 5 0;
#X restore 94 158 pd mucks;
#X obj 139 137 > 1;
#X obj 139 248 sel 1;
#X obj 164 292 f;
#X obj 193 293 f;
#X obj 164 314 ==;
#X obj 165 271 t b b;
#X obj 164 336 sel 0;
#X obj 444 41 inlet order;
#X obj 87 424 outlet one;
#X obj 166 425 outlet zero;
#X obj 258 425 outlet next;
#X connect 0 0 8 0;
#X connect 1 0 4 1;
#X connect 1 0 11 1;
#X connect 2 0 5 1;
#X connect 2 0 12 1;
#X connect 3 0 9 0;
#X connect 4 0 7 0;
#X connect 5 0 7 1;
#X connect 6 0 4 0;
#X connect 6 1 5 0;
#X connect 7 0 10 0;
#X connect 8 0 18 0;
#X connect 8 1 6 0;
#X connect 9 0 8 1;
#X connect 10 0 17 0;
#X connect 10 1 14 0;
#X connect 11 0 13 0;
#X connect 12 0 13 1;
#X connect 13 0 15 0;
#X connect 14 0 11 0;
#X connect 14 1 12 0;
#X connect 15 0 18 0;
#X connect 15 1 19 0;
#X connect 16 0 9 1;
#X restore 202 275 pd comp;
#X msg 258 247 1;
#N canvas 1233 401 614 559 comp 0;
#X obj 94 41 inlet trigger;
#X obj 195 41 inlet nr1;
#X obj 272 41 inlet nr2;
#X obj 349 41 inlet amount;
#X obj 139 199 f;
#X obj 176 199 f;
#X obj 139 178 t b b;
#X obj 139 221 <;
#N canvas 1473 691 290 262 mucks 0;
#X obj 83 9 inlet;
#X obj 83 117 outlet;
#X obj 134 117 outlet;
#X obj 128 9 inlet;
#X obj 83 89 sel 0;
#X obj 83 61 f;
#X floatatom 118 62 5 0 0 0 - - -, f 5;
#X obj 83 31 bng 15 250 50 0 empty empty empty 17 7 0 10 -262144 -1
-1;
#X connect 0 0 7 0;
#X connect 3 0 5 1;
#X connect 3 0 6 0;
#X connect 4 0 1 0;
#X connect 4 1 2 0;
#X connect 5 0 4 0;
#X connect 7 0 5 0;
#X restore 94 158 pd mucks;
#X obj 139 137 > 1;
#X obj 139 248 sel 1;
#X obj 164 292 f;
#X obj 193 293 f;
#X obj 164 314 ==;
#X obj 165 271 t b b;
#X obj 164 336 sel 0;
#X obj 444 41 inlet order;
#X obj 87 424 outlet one;
#X obj 166 425 outlet zero;
#X obj 258 425 outlet next;
#X connect 0 0 8 0;
#X connect 1 0 4 1;
#X connect 1 0 11 1;
#X connect 2 0 5 1;
#X connect 2 0 12 1;
#X connect 3 0 9 0;
#X connect 4 0 7 0;
#X connect 5 0 7 1;
#X connect 6 0 4 0;
#X connect 6 1 5 0;
#X connect 7 0 10 0;
#X connect 8 0 18 0;
#X connect 8 1 6 0;
#X connect 9 0 8 1;
#X connect 10 0 17 0;
#X connect 10 1 14 0;
#X connect 11 0 13 0;
#X connect 12 0 13 1;
#X connect 13 0 15 0;
#X connect 14 0 11 0;
#X connect 14 1 12 0;
#X connect 15 0 18 0;
#X connect 15 1 19 0;
#X connect 16 0 9 1;
#X restore 298 310 pd comp;
#X msg 355 287 2;
#N canvas 873 296 614 536 comp 0;
#X obj 94 41 inlet trigger;
#X obj 215 40 inlet nr1;
#X obj 302 40 inlet nr2;
#X obj 389 40 inlet amount;
#X obj 139 199 f;
#X obj 176 199 f;
#X obj 139 178 t b b;
#X obj 139 221 <;
#N canvas 1473 691 290 262 mucks 0;
#X obj 83 9 inlet;
#X obj 83 117 outlet;
#X obj 134 117 outlet;
#X obj 128 9 inlet;
#X obj 83 89 sel 0;
#X obj 83 61 f;
#X floatatom 118 62 5 0 0 0 - - -, f 5;
#X obj 83 31 bng 15 250 50 0 empty empty empty 17 7 0 10 -262144 -1
-1;
#X connect 0 0 7 0;
#X connect 3 0 5 1;
#X connect 3 0 6 0;
#X connect 4 0 1 0;
#X connect 4 1 2 0;
#X connect 5 0 4 0;
#X connect 7 0 5 0;
#X restore 94 158 pd mucks;
#X obj 139 248 sel 1;
#X obj 164 292 f;
#X obj 193 293 f;
#X obj 164 314 ==;
#X obj 165 271 t b b;
#X obj 164 336 sel 0;
#X obj 484 40 inlet order;
#X obj 87 424 outlet one;
#X obj 166 425 outlet zero;
#X obj 258 425 outlet next;
#X obj 139 137 > 0;
#X connect 0 0 8 0;
#X connect 1 0 4 1;
#X connect 1 0 10 1;
#X connect 2 0 5 1;
#X connect 2 0 11 1;
#X connect 3 0 19 0;
#X connect 4 0 7 0;
#X connect 5 0 7 1;
#X connect 6 0 4 0;
#X connect 6 1 5 0;
#X connect 7 0 9 0;
#X connect 8 0 17 0;
#X connect 8 1 6 0;
#X connect 9 0 16 0;
#X connect 9 1 13 0;
#X connect 10 0 12 0;
#X connect 11 0 12 1;
#X connect 12 0 14 0;
#X connect 13 0 10 0;
#X connect 13 1 11 0;
#X connect 14 0 17 0;
#X connect 14 1 18 0;
#X connect 15 0 19 1;
#X connect 19 0 8 1;
#X restore 119 243 pd comp;
#X obj 119 209 t b f;
#X obj 581 137 bng 15 250 50 0 empty empty empty 17 7 0 10 -262144
-1 -1;
#X obj 581 114 loadbang;
#X msg 581 159 3;
#X connect 0 0 2 0;
#X connect 1 0 3 0;
#X connect 2 0 5 0;
#X connect 2 1 7 0;
#X connect 2 2 9 0;
#X connect 2 3 11 0;
#X connect 3 0 6 0;
#X connect 3 1 8 0;
#X connect 3 2 10 0;
#X connect 3 3 12 0;
#X connect 5 0 21 0;
#X connect 6 0 20 2;
#X connect 7 0 16 1;
#X connect 8 0 16 2;
#X connect 9 0 18 1;
#X connect 10 0 18 2;
#X connect 13 0 4 0;
#X connect 14 0 4 0;
#X connect 15 0 16 3;
#X connect 15 0 18 3;
#X connect 15 0 20 3;
#X connect 16 0 13 0;
#X connect 16 1 14 0;
#X connect 16 2 18 0;
#X connect 17 0 16 4;
#X connect 18 0 13 0;
#X connect 18 1 14 0;
#X connect 18 2 14 0;
#X connect 19 0 18 4;
#X connect 20 0 13 0;
#X connect 20 1 14 0;
#X connect 20 2 16 0;
#X connect 21 0 20 0;
#X connect 21 1 20 1;
#X connect 22 0 17 0;
#X connect 22 0 19 0;
#X connect 23 0 22 0;
#X connect 23 0 24 0;
#X connect 24 0 15 0;
#X restore 115 349 pd compare;
#X msg 115 328 \$3 \$4 \$5;
#X msg 173 328 \$3 \$4 \$5;
#X floatatom 115 371 5 0 0 0 - - -, f 5;
#X obj 165 635 text set \$0-memory;
#X obj 300 646 text set \$0-memory;
#X obj 243 436 t f;
#X obj 121 149 t b a;
#X obj 204 177 f;
#X obj 121 37 inlet trigger;
#X obj 121 125 list;
#X obj 278 277 text get \$0-memory;
#X obj 279 297 route bang;
#N canvas 714 144 826 747 compare 0;
#X obj 119 41 inlet list1;
#X obj 298 41 inlet list2;
#X obj 119 88 unpack f f f f;
#X obj 297 92 unpack f f f f;
#X obj 119 608 outlet;
#X floatatom 119 188 5 0 0 0 - - -, f 5;
#X floatatom 157 188 5 0 0 0 - - -, f 5;
#X floatatom 216 188 5 0 0 0 - - -, f 5;
#X floatatom 253 188 5 0 0 0 - - -, f 5;
#X floatatom 312 188 5 0 0 0 - - -, f 5;
#X floatatom 349 188 5 0 0 0 - - -, f 5;
#X floatatom 412 188 5 0 0 0 - - -, f 5;
#X floatatom 449 188 5 0 0 0 - - -, f 5;
#X msg 119 565 1;
#X msg 162 565 0;
#X floatatom 580 186 5 0 0 0 - - -, f 5;
#N canvas 2994 267 614 490 comp 0;
#X obj 94 41 inlet trigger;
#X obj 195 41 inlet nr1;
#X obj 272 41 inlet nr2;
#X obj 349 41 inlet amount;
#X obj 139 199 f;
#X obj 176 199 f;
#X obj 139 178 t b b;
#X obj 139 221 <;
#N canvas 1473 691 290 262 mucks 0;
#X obj 83 9 inlet;
#X obj 83 117 outlet;
#X obj 134 117 outlet;
#X obj 128 9 inlet;
#X obj 83 89 sel 0;
#X obj 83 61 f;
#X floatatom 118 62 5 0 0 0 - - -, f 5;
#X obj 83 31 bng 15 250 50 0 empty empty empty 17 7 0 10 -262144 -1
-1;
#X connect 0 0 7 0;
#X connect 3 0 5 1;
#X connect 3 0 6 0;
#X connect 4 0 1 0;
#X connect 4 1 2 0;
#X connect 5 0 4 0;
#X connect 7 0 5 0;
#X restore 94 158 pd mucks;
#X obj 139 137 > 1;
#X obj 139 248 sel 1;
#X obj 164 292 f;
#X obj 193 293 f;
#X obj 164 314 ==;
#X obj 165 271 t b b;
#X obj 164 336 sel 0;
#X obj 444 41 inlet order;
#X obj 87 424 outlet one;
#X obj 166 425 outlet zero;
#X obj 258 425 outlet next;
#X connect 0 0 8 0;
#X connect 1 0 4 1;
#X connect 1 0 11 1;
#X connect 2 0 5 1;
#X connect 2 0 12 1;
#X connect 3 0 9 0;
#X connect 4 0 7 0;
#X connect 5 0 7 1;
#X connect 6 0 4 0;
#X connect 6 1 5 0;
#X connect 7 0 10 0;
#X connect 8 0 18 0;
#X connect 8 1 6 0;
#X connect 9 0 8 1;
#X connect 10 0 17 0;
#X connect 10 1 14 0;
#X connect 11 0 13 0;
#X connect 12 0 13 1;
#X connect 13 0 15 0;
#X connect 14 0 11 0;
#X connect 14 1 12 0;
#X connect 15 0 18 0;
#X connect 15 1 19 0;
#X connect 16 0 9 1;
#X restore 202 275 pd comp;
#X msg 258 247 1;
#N canvas 1233 401 614 559 comp 0;
#X obj 94 41 inlet trigger;
#X obj 195 41 inlet nr1;
#X obj 272 41 inlet nr2;
#X obj 349 41 inlet amount;
#X obj 139 199 f;
#X obj 176 199 f;
#X obj 139 178 t b b;
#X obj 139 221 <;
#N canvas 1473 691 290 262 mucks 0;
#X obj 83 9 inlet;
#X obj 83 117 outlet;
#X obj 134 117 outlet;
#X obj 128 9 inlet;
#X obj 83 89 sel 0;
#X obj 83 61 f;
#X floatatom 118 62 5 0 0 0 - - -, f 5;
#X obj 83 31 bng 15 250 50 0 empty empty empty 17 7 0 10 -262144 -1
-1;
#X connect 0 0 7 0;
#X connect 3 0 5 1;
#X connect 3 0 6 0;
#X connect 4 0 1 0;
#X connect 4 1 2 0;
#X connect 5 0 4 0;
#X connect 7 0 5 0;
#X restore 94 158 pd mucks;
#X obj 139 137 > 1;
#X obj 139 248 sel 1;
#X obj 164 292 f;
#X obj 193 293 f;
#X obj 164 314 ==;
#X obj 165 271 t b b;
#X obj 164 336 sel 0;
#X obj 444 41 inlet order;
#X obj 87 424 outlet one;
#X obj 166 425 outlet zero;
#X obj 258 425 outlet next;
#X connect 0 0 8 0;
#X connect 1 0 4 1;
#X connect 1 0 11 1;
#X connect 2 0 5 1;
#X connect 2 0 12 1;
#X connect 3 0 9 0;
#X connect 4 0 7 0;
#X connect 5 0 7 1;
#X connect 6 0 4 0;
#X connect 6 1 5 0;
#X connect 7 0 10 0;
#X connect 8 0 18 0;
#X connect 8 1 6 0;
#X connect 9 0 8 1;
#X connect 10 0 17 0;
#X connect 10 1 14 0;
#X connect 11 0 13 0;
#X connect 12 0 13 1;
#X connect 13 0 15 0;
#X connect 14 0 11 0;
#X connect 14 1 12 0;
#X connect 15 0 18 0;
#X connect 15 1 19 0;
#X connect 16 0 9 1;
#X restore 298 310 pd comp;
#X msg 355 287 2;
#N canvas 873 296 614 536 comp 0;
#X obj 94 41 inlet trigger;
#X obj 215 40 inlet nr1;
#X obj 302 40 inlet nr2;
#X obj 389 40 inlet amount;
#X obj 139 199 f;
#X obj 176 199 f;
#X obj 139 178 t b b;
#X obj 139 221 <;
#N canvas 1473 691 290 262 mucks 0;
#X obj 83 9 inlet;
#X obj 83 117 outlet;
#X obj 134 117 outlet;
#X obj 128 9 inlet;
#X obj 83 89 sel 0;
#X obj 83 61 f;
#X floatatom 118 62 5 0 0 0 - - -, f 5;
#X obj 83 31 bng 15 250 50 0 empty empty empty 17 7 0 10 -262144 -1
-1;
#X connect 0 0 7 0;
#X connect 3 0 5 1;
#X connect 3 0 6 0;
#X connect 4 0 1 0;
#X connect 4 1 2 0;
#X connect 5 0 4 0;
#X connect 7 0 5 0;
#X restore 94 158 pd mucks;
#X obj 139 248 sel 1;
#X obj 164 292 f;
#X obj 193 293 f;
#X obj 164 314 ==;
#X obj 165 271 t b b;
#X obj 164 336 sel 0;
#X obj 484 40 inlet order;
#X obj 87 424 outlet one;
#X obj 166 425 outlet zero;
#X obj 258 425 outlet next;
#X obj 139 137 > 0;
#X connect 0 0 8 0;
#X connect 1 0 4 1;
#X connect 1 0 10 1;
#X connect 2 0 5 1;
#X connect 2 0 11 1;
#X connect 3 0 19 0;
#X connect 4 0 7 0;
#X connect 5 0 7 1;
#X connect 6 0 4 0;
#X connect 6 1 5 0;
#X connect 7 0 9 0;
#X connect 8 0 17 0;
#X connect 8 1 6 0;
#X connect 9 0 16 0;
#X connect 9 1 13 0;
#X connect 10 0 12 0;
#X connect 11 0 12 1;
#X connect 12 0 14 0;
#X connect 13 0 10 0;
#X connect 13 1 11 0;
#X connect 14 0 17 0;
#X connect 14 1 18 0;
#X connect 15 0 19 1;
#X connect 19 0 8 1;
#X restore 119 243 pd comp;
#X obj 119 209 t b f;
#X obj 581 137 bng 15 250 50 0 empty empty empty 17 7 0 10 -262144
-1 -1;
#X obj 581 114 loadbang;
#X msg 581 159 3;
#X connect 0 0 2 0;
#X connect 1 0 3 0;
#X connect 2 0 5 0;
#X connect 2 1 7 0;
#X connect 2 2 9 0;
#X connect 2 3 11 0;
#X connect 3 0 6 0;
#X connect 3 1 8 0;
#X connect 3 2 10 0;
#X connect 3 3 12 0;
#X connect 5 0 21 0;
#X connect 6 0 20 2;
#X connect 7 0 16 1;
#X connect 8 0 16 2;
#X connect 9 0 18 1;
#X connect 10 0 18 2;
#X connect 13 0 4 0;
#X connect 14 0 4 0;
#X connect 15 0 16 3;
#X connect 15 0 18 3;
#X connect 15 0 20 3;
#X connect 16 0 13 0;
#X connect 16 1 14 0;
#X connect 16 2 18 0;
#X connect 17 0 16 4;
#X connect 18 0 13 0;
#X connect 18 1 14 0;
#X connect 18 2 14 0;
#X connect 19 0 18 4;
#X connect 20 0 13 0;
#X connect 20 1 14 0;
#X connect 20 2 16 0;
#X connect 21 0 20 0;
#X connect 21 1 20 1;
#X connect 22 0 17 0;
#X connect 22 0 19 0;
#X connect 23 0 22 0;
#X connect 23 0 24 0;
#X connect 24 0 15 0;
#X restore 336 340 pd compare;
#X msg 336 319 \$3 \$4 \$5;
#X msg 394 319 \$3 \$4 \$5;
#X floatatom 336 362 5 0 0 0 - - -, f 5;
#X obj 278 254 + 1;
#X obj 204 223 t f f f;
#X obj 187 543 +;
#X obj 187 568 text get \$0-memory;
#X obj 165 591 list;
#X obj 321 568 text get \$0-memory;
#X obj 300 598 list;
#X obj 138 512 t b b;
#X obj 300 622 list trim;
#X obj 165 613 list trim;
#X obj 115 392 sel 0;
#X obj 336 383 sel 1;
#X msg 363 431 1;
#X obj 336 409 t b b;
#X obj 115 414 t b b;
#X msg 142 436 -1;
#X connect 0 0 16 1;
#X connect 1 0 14 1;
#X connect 2 0 24 0;
#X connect 3 0 4 0;
#X connect 4 0 5 0;
#X connect 5 1 7 0;
#X connect 6 0 9 0;
#X connect 7 0 6 0;
#X connect 8 0 6 1;
#X connect 9 0 33 0;
#X connect 12 0 25 1;
#X connect 12 0 10 1;
#X connect 12 0 28 0;
#X connect 13 0 14 0;
#X connect 13 1 8 0;
#X connect 13 1 21 0;
#X connect 14 0 2 0;
#X connect 15 0 16 0;
#X connect 16 0 13 0;
#X connect 17 0 18 0;
#X connect 18 1 20 0;
#X connect 19 0 22 0;
#X connect 20 0 19 0;
#X connect 21 0 19 1;
#X connect 22 0 34 0;
#X connect 23 0 17 0;
#X connect 24 0 3 0;
#X connect 24 1 23 0;
#X connect 24 2 12 0;
#X connect 25 0 26 0;
#X connect 25 0 11 1;
#X connect 26 0 27 1;
#X connect 27 0 32 0;
#X connect 28 0 29 1;
#X connect 29 0 31 0;
#X connect 30 0 29 0;
#X connect 30 1 27 0;
#X connect 31 0 11 0;
#X connect 32 0 10 0;
#X connect 33 0 37 0;
#X connect 34 0 36 0;
#X connect 35 0 25 0;
#X connect 36 0 30 0;
#X connect 36 1 35 0;
#X connect 37 0 30 0;
#X connect 37 1 38 0;
#X connect 38 0 25 0;
#X restore 77 141 pd exchange_pos_of_values_in_memory;
#X obj 77 93 t b b a;
#X connect 0 0 3 1;
#X connect 0 0 10 2;
#X connect 1 0 9 0;
#X connect 2 0 7 0;
#X connect 4 0 5 0;
#X connect 5 0 3 0;
#X connect 6 0 11 0;
#X connect 7 0 8 0;
#X connect 7 1 5 1;
#X connect 8 0 4 0;
#X connect 9 0 10 1;
#X connect 9 1 2 1;
#X connect 11 0 10 0;
#X connect 11 1 2 0;
#X connect 11 2 4 1;
#X restore 179 283 pd change_pos;
#N canvas 879 365 578 533 change_len 0;
#X obj 214 54 inlet text_line_nr;
#X obj 143 54 inlet list;
#X obj 77 146 list;
#X obj 77 305 text set \$0-memory;
#X obj 77 237 list append;
#X obj 77 276 list append;
#X obj 77 54 inlet pos;
#X obj 77 171 list split 5;
#X obj 77 93 t b a;
#X msg 110 195 \$4;
#X connect 0 0 3 1;
#X connect 1 0 2 1;
#X connect 2 0 7 0;
#X connect 4 0 5 0;
#X connect 5 0 3 0;
#X connect 6 0 8 0;
#X connect 7 0 4 0;
#X connect 7 1 9 0;
#X connect 8 0 2 0;
#X connect 8 1 4 1;
#X connect 9 0 5 1;
#X restore 210 307 pd change_len;
#X obj 83 27 inlet;
#X obj 83 125 spigot;
#X obj 122 101 tgl 15 0 empty empty empty 17 7 0 10 -262144 -1 -1 0
1;
#X obj 83 49 t a a 1;
#X obj 253 107 route -1;
#X msg 137 81 0;
#X obj 51 290 spigot;
#X obj 51 312 print;
#X obj 79 264 tgl 15 0 empty empty empty 17 7 0 10 -262144 -1 -1 0
1;
#X connect 0 0 15 0;
#X connect 1 0 0 0;
#X connect 2 1 3 0;
#X connect 2 1 17 0;
#X connect 3 0 8 0;
#X connect 4 0 6 1;
#X connect 4 0 7 1;
#X connect 4 0 9 1;
#X connect 4 0 10 1;
#X connect 5 0 4 0;
#X connect 5 1 6 2;
#X connect 5 1 7 2;
#X connect 5 1 9 2;
#X connect 5 1 10 2;
#X connect 8 0 6 0;
#X connect 8 1 7 0;
#X connect 8 2 9 0;
#X connect 8 3 10 0;
#X connect 11 0 14 0;
#X connect 12 0 2 0;
#X connect 13 0 12 1;
#X connect 14 0 12 0;
#X connect 14 1 1 0;
#X connect 14 2 13 0;
#X connect 15 0 16 0;
#X connect 15 1 5 0;
#X connect 16 0 13 0;
#X connect 17 0 18 0;
#X connect 19 0 17 1;
#X restore 95 101 pd change;
#X obj 423 107 symbol;
#X symbolatom 423 129 10 0 0 0 - - -, f 10;
#X obj 390 151 symbol;
#X msg 342 271 line 0;
#X obj 315 397 outlet loaded_values;
#X text 224 426 id row pos0 pos1 pos2 len0 len1 len2 vol;
#X obj 315 363 list trim;
#X obj 171 283 text define \$0-memory;
#X msg 171 260 clear;
#N canvas 1459 101 461 859 insert_new_item 0;
#X obj 61 17 inlet new_item;
#N canvas 714 144 826 747 compare 0;
#X obj 119 41 inlet list1;
#X obj 298 41 inlet list2;
#X obj 119 88 unpack f f f f;
#X obj 297 92 unpack f f f f;
#X obj 119 608 outlet;
#X floatatom 119 188 5 0 0 0 - - -, f 5;
#X floatatom 157 188 5 0 0 0 - - -, f 5;
#X floatatom 216 188 5 0 0 0 - - -, f 5;
#X floatatom 253 188 5 0 0 0 - - -, f 5;
#X floatatom 312 188 5 0 0 0 - - -, f 5;
#X floatatom 349 188 5 0 0 0 - - -, f 5;
#X floatatom 412 188 5 0 0 0 - - -, f 5;
#X floatatom 449 188 5 0 0 0 - - -, f 5;
#X msg 119 565 1;
#X msg 162 565 0;
#X floatatom 580 186 5 0 0 0 - - -, f 5;
#N canvas 2994 267 614 490 comp 0;
#X obj 94 41 inlet trigger;
#X obj 195 41 inlet nr1;
#X obj 272 41 inlet nr2;
#X obj 349 41 inlet amount;
#X obj 139 199 f;
#X obj 176 199 f;
#X obj 139 178 t b b;
#X obj 139 221 <;
#N canvas 1473 691 290 262 mucks 0;
#X obj 83 9 inlet;
#X obj 83 117 outlet;
#X obj 134 117 outlet;
#X obj 128 9 inlet;
#X obj 83 89 sel 0;
#X obj 83 61 f;
#X floatatom 118 62 5 0 0 0 - - -, f 5;
#X obj 83 31 bng 15 250 50 0 empty empty empty 17 7 0 10 -262144 -1
-1;
#X connect 0 0 7 0;
#X connect 3 0 5 1;
#X connect 3 0 6 0;
#X connect 4 0 1 0;
#X connect 4 1 2 0;
#X connect 5 0 4 0;
#X connect 7 0 5 0;
#X restore 94 158 pd mucks;
#X obj 139 137 > 1;
#X obj 139 248 sel 1;
#X obj 164 292 f;
#X obj 193 293 f;
#X obj 164 314 ==;
#X obj 165 271 t b b;
#X obj 164 336 sel 0;
#X obj 444 41 inlet order;
#X obj 87 424 outlet one;
#X obj 166 425 outlet zero;
#X obj 258 425 outlet next;
#X connect 0 0 8 0;
#X connect 1 0 4 1;
#X connect 1 0 11 1;
#X connect 2 0 5 1;
#X connect 2 0 12 1;
#X connect 3 0 9 0;
#X connect 4 0 7 0;
#X connect 5 0 7 1;
#X connect 6 0 4 0;
#X connect 6 1 5 0;
#X connect 7 0 10 0;
#X connect 8 0 18 0;
#X connect 8 1 6 0;
#X connect 9 0 8 1;
#X connect 10 0 17 0;
#X connect 10 1 14 0;
#X connect 11 0 13 0;
#X connect 12 0 13 1;
#X connect 13 0 15 0;
#X connect 14 0 11 0;
#X connect 14 1 12 0;
#X connect 15 0 18 0;
#X connect 15 1 19 0;
#X connect 16 0 9 1;
#X restore 202 275 pd comp;
#X msg 258 247 1;
#N canvas 1233 401 614 559 comp 0;
#X obj 94 41 inlet trigger;
#X obj 195 41 inlet nr1;
#X obj 272 41 inlet nr2;
#X obj 349 41 inlet amount;
#X obj 139 199 f;
#X obj 176 199 f;
#X obj 139 178 t b b;
#X obj 139 221 <;
#N canvas 1473 691 290 262 mucks 0;
#X obj 83 9 inlet;
#X obj 83 117 outlet;
#X obj 134 117 outlet;
#X obj 128 9 inlet;
#X obj 83 89 sel 0;
#X obj 83 61 f;
#X floatatom 118 62 5 0 0 0 - - -, f 5;
#X obj 83 31 bng 15 250 50 0 empty empty empty 17 7 0 10 -262144 -1
-1;
#X connect 0 0 7 0;
#X connect 3 0 5 1;
#X connect 3 0 6 0;
#X connect 4 0 1 0;
#X connect 4 1 2 0;
#X connect 5 0 4 0;
#X connect 7 0 5 0;
#X restore 94 158 pd mucks;
#X obj 139 137 > 1;
#X obj 139 248 sel 1;
#X obj 164 292 f;
#X obj 193 293 f;
#X obj 164 314 ==;
#X obj 165 271 t b b;
#X obj 164 336 sel 0;
#X obj 444 41 inlet order;
#X obj 87 424 outlet one;
#X obj 166 425 outlet zero;
#X obj 258 425 outlet next;
#X connect 0 0 8 0;
#X connect 1 0 4 1;
#X connect 1 0 11 1;
#X connect 2 0 5 1;
#X connect 2 0 12 1;
#X connect 3 0 9 0;
#X connect 4 0 7 0;
#X connect 5 0 7 1;
#X connect 6 0 4 0;
#X connect 6 1 5 0;
#X connect 7 0 10 0;
#X connect 8 0 18 0;
#X connect 8 1 6 0;
#X connect 9 0 8 1;
#X connect 10 0 17 0;
#X connect 10 1 14 0;
#X connect 11 0 13 0;
#X connect 12 0 13 1;
#X connect 13 0 15 0;
#X connect 14 0 11 0;
#X connect 14 1 12 0;
#X connect 15 0 18 0;
#X connect 15 1 19 0;
#X connect 16 0 9 1;
#X restore 298 310 pd comp;
#X msg 355 287 2;
#N canvas 873 296 614 536 comp 0;
#X obj 94 41 inlet trigger;
#X obj 215 40 inlet nr1;
#X obj 302 40 inlet nr2;
#X obj 389 40 inlet amount;
#X obj 139 199 f;
#X obj 176 199 f;
#X obj 139 178 t b b;
#X obj 139 221 <;
#N canvas 1473 691 290 262 mucks 0;
#X obj 83 9 inlet;
#X obj 83 117 outlet;
#X obj 134 117 outlet;
#X obj 128 9 inlet;
#X obj 83 89 sel 0;
#X obj 83 61 f;
#X floatatom 118 62 5 0 0 0 - - -, f 5;
#X obj 83 31 bng 15 250 50 0 empty empty empty 17 7 0 10 -262144 -1
-1;
#X connect 0 0 7 0;
#X connect 3 0 5 1;
#X connect 3 0 6 0;
#X connect 4 0 1 0;
#X connect 4 1 2 0;
#X connect 5 0 4 0;
#X connect 7 0 5 0;
#X restore 94 158 pd mucks;
#X obj 139 248 sel 1;
#X obj 164 292 f;
#X obj 193 293 f;
#X obj 164 314 ==;
#X obj 165 271 t b b;
#X obj 164 336 sel 0;
#X obj 484 40 inlet order;
#X obj 87 424 outlet one;
#X obj 166 425 outlet zero;
#X obj 258 425 outlet next;
#X obj 139 137 > 0;
#X connect 0 0 8 0;
#X connect 1 0 4 1;
#X connect 1 0 10 1;
#X connect 2 0 5 1;
#X connect 2 0 11 1;
#X connect 3 0 19 0;
#X connect 4 0 7 0;
#X connect 5 0 7 1;
#X connect 6 0 4 0;
#X connect 6 1 5 0;
#X connect 7 0 9 0;
#X connect 8 0 17 0;
#X connect 8 1 6 0;
#X connect 9 0 16 0;
#X connect 9 1 13 0;
#X connect 10 0 12 0;
#X connect 11 0 12 1;
#X connect 12 0 14 0;
#X connect 13 0 10 0;
#X connect 13 1 11 0;
#X connect 14 0 17 0;
#X connect 14 1 18 0;
#X connect 15 0 19 1;
#X connect 19 0 8 1;
#X restore 119 243 pd comp;
#X obj 119 209 t b f;
#X obj 581 137 bng 15 250 50 0 empty empty empty 17 7 0 10 -262144
-1 -1;
#X obj 581 114 loadbang;
#X msg 581 159 3;
#X connect 0 0 2 0;
#X connect 1 0 3 0;
#X connect 2 0 5 0;
#X connect 2 1 7 0;
#X connect 2 2 9 0;
#X connect 2 3 11 0;
#X connect 3 0 6 0;
#X connect 3 1 8 0;
#X connect 3 2 10 0;
#X connect 3 3 12 0;
#X connect 5 0 21 0;
#X connect 6 0 20 2;
#X connect 7 0 16 1;
#X connect 8 0 16 2;
#X connect 9 0 18 1;
#X connect 10 0 18 2;
#X connect 13 0 4 0;
#X connect 14 0 4 0;
#X connect 15 0 16 3;
#X connect 15 0 18 3;
#X connect 15 0 20 3;
#X connect 16 0 13 0;
#X connect 16 1 14 0;
#X connect 16 2 18 0;
#X connect 17 0 16 4;
#X connect 18 0 13 0;
#X connect 18 1 14 0;
#X connect 18 2 14 0;
#X connect 19 0 18 4;
#X connect 20 0 13 0;
#X connect 20 1 14 0;
#X connect 20 2 16 0;
#X connect 21 0 20 0;
#X connect 21 1 20 1;
#X connect 22 0 17 0;
#X connect 22 0 19 0;
#X connect 23 0 22 0;
#X connect 23 0 24 0;
#X connect 24 0 15 0;
#X restore 154 372 pd compare;
#X floatatom 154 393 5 0 0 0 - - -, f 5;
#X obj 127 269 text sequence \$0-memory;
#X msg 154 243 line 0;
#X obj 127 221 t b b;
#X obj 154 455 list;
#X obj 154 476 list trim;
#X obj 112 747 text set \$0-memory;
#X msg 147 722 1500;
#X obj 147 699 loadbang;
#X obj 219 240 text define \$0-txt_tmp;
#X msg 162 527 1500;
#X obj 162 504 loadbang;
#X obj 127 552 text set \$0-txt_tmp;
#X msg 220 219 clear;
#X obj 154 330 spigot;
#X obj 154 434 t b 0;
#X floatatom 187 309 5 0 0 0 - - -, f 5;
#X obj 127 291 t a a a;
#X obj 154 413 sel 0;
#X msg 149 602 clear;
#X obj 149 624 s \$0-memory;
#X msg 129 649 line 0;
#X obj 112 670 text sequence \$0-txt_tmp;
#X obj 112 167 t b b a a 1 b;
#X obj 112 65 text size \$0-memory;
#X floatatom 112 85 5 0 0 0 - - -, f 5;
#X obj 112 104 > 0;
#X obj 61 126 demux . .;
#X obj 61 39 t a b;
#X obj 112 578 t b b b b;
#X floatatom 344 452 5 0 0 0 - - -, f 5;
#X obj 328 517 list;
#X obj 328 473 f;
#X obj 328 495 sel 1;
#X msg 154 351 \$3 \$4 \$5;
#X msg 212 351 \$3 \$4 \$5;
#X connect 0 0 30 0;
#X connect 1 0 2 0;
#X connect 2 0 20 0;
#X connect 3 0 19 0;
#X connect 4 0 3 0;
#X connect 5 0 3 0;
#X connect 5 1 4 0;
#X connect 6 0 7 0;
#X connect 7 0 14 0;
#X connect 9 0 8 1;
#X connect 10 0 9 0;
#X connect 12 0 14 1;
#X connect 13 0 12 0;
#X connect 15 0 11 0;
#X connect 16 0 36 0;
#X connect 17 0 6 0;
#X connect 17 1 18 0;
#X connect 18 0 16 1;
#X connect 18 0 32 0;
#X connect 19 0 14 0;
#X connect 19 1 16 0;
#X connect 20 0 17 0;
#X connect 21 0 22 0;
#X connect 23 0 24 0;
#X connect 24 0 8 0;
#X connect 25 0 31 0;
#X connect 25 1 5 0;
#X connect 25 2 37 0;
#X connect 25 3 6 1;
#X connect 25 3 33 1;
#X connect 25 4 18 0;
#X connect 25 5 15 0;
#X connect 26 0 27 0;
#X connect 27 0 28 0;
#X connect 28 0 29 1;
#X connect 29 0 8 0;
#X connect 29 1 25 0;
#X connect 30 0 29 0;
#X connect 30 1 26 0;
#X connect 31 0 24 0;
#X connect 31 1 23 0;
#X connect 31 2 21 0;
#X connect 31 3 34 0;
#X connect 32 0 34 1;
#X connect 33 0 14 0;
#X connect 34 0 35 0;
#X connect 35 0 33 0;
#X connect 36 0 1 0;
#X connect 37 0 1 1;
#X restore 84 204 pd insert_new_item;
#X obj 315 297 text sequence \$0-memory;
#X obj 390 201 symbol;
#X msg 390 221 read presets/\$1.txt;
#X obj 315 248 t b b;
#X obj 315 161 t b b;
#X obj 140 326 loadbang;
#X msg 57 326 size_change;
#X obj 57 173 t b a;
#X obj 133 129 t b a;
#X obj 171 231 t b a;
#N canvas 157 355 606 635 save 0;
#X obj 118 176 text define \$0-mem_temp;
#X obj 118 55 inlet symbol;
#X msg 118 119 write presets/\$1.txt;
#X msg 382 154 line 0;
#X obj 355 180 text sequence \$0-memory;
#X obj 355 131 t b b;
#X obj 355 232 math/list_sort;
#X scalar text 327 206 \; \;;
#X obj 506 182 loadbang;
#X msg 506 204 3;
#X msg 316 204 sort;
#X obj 355 280 t a b;
#X obj 383 306 f;
#X obj 415 307 + 1;
#X obj 318 106 t b b 0;
#X obj 355 332 list prepend;
#X obj 355 412 text set \$0-mem_temp;
#X obj 395 367 loadbang;
#X msg 395 389 10000;
#X obj 118 87 t a b b;
#X msg 157 146 clear;
#X msg 355 204 \$3 \$4 \$5 \$6 \$7 \$8 \$9 \$2;
#X msg 355 256 \$8 \$1 \$2 \$3 \$4 \$5 \$6 \$7;
#X connect 1 0 19 0;
#X connect 2 0 0 0;
#X connect 3 0 4 0;
#X connect 4 0 21 0;
#X connect 5 0 4 0;
#X connect 5 1 3 0;
#X connect 6 0 22 0;
#X connect 8 0 9 0;
#X connect 9 0 6 1;
#X connect 10 0 6 0;
#X connect 11 0 15 0;
#X connect 11 1 12 0;
#X connect 12 0 13 0;
#X connect 12 0 15 1;
#X connect 13 0 12 1;
#X connect 14 0 10 0;
#X connect 14 1 5 0;
#X connect 14 2 12 1;
#X connect 15 0 16 0;
#X connect 17 0 18 0;
#X connect 18 0 16 1;
#X connect 19 0 2 0;
#X connect 19 1 14 0;
#X connect 19 2 20 0;
#X connect 20 0 0 0;
#X connect 21 0 6 0;
#X connect 22 0 11 0;
#X restore 390 174 pd save;
#X obj 57 69 route new change del clear save load pre_name init;
#X obj 489 163 bng 15 250 50 0 empty empty empty 17 7 0 10 -262144
-1 -1;
#X obj 315 342 list prepend set_item;
#X obj 57 391 outlet to_player;
#X obj 141 345 \$0;
#X msg 140 363 dollar_null \$1;
#X connect 0 0 25 0;
#X connect 2 0 1 0;
#X connect 4 0 5 0;
#X connect 5 0 6 1;
#X connect 5 0 15 1;
#X connect 6 0 24 0;
#X connect 7 0 14 0;
#X connect 10 0 8 0;
#X connect 12 0 11 0;
#X connect 14 0 27 0;
#X connect 14 1 20 0;
#X connect 15 0 16 0;
#X connect 16 0 11 0;
#X connect 17 0 14 0;
#X connect 17 1 7 0;
#X connect 18 0 17 0;
#X connect 18 1 15 0;
#X connect 19 0 29 0;
#X connect 20 0 28 0;
#X connect 21 0 20 0;
#X connect 21 1 13 0;
#X connect 22 0 20 0;
#X connect 22 1 2 0;
#X connect 23 0 20 0;
#X connect 23 1 12 0;
#X connect 25 0 21 0;
#X connect 25 1 3 0;
#X connect 25 2 22 0;
#X connect 25 3 23 0;
#X connect 25 4 6 0;
#X connect 25 5 18 0;
#X connect 25 6 4 0;
#X connect 25 7 29 0;
#X connect 26 0 15 0;
#X connect 27 0 10 0;
#X connect 29 0 30 0;
#X connect 30 0 28 0;
#X restore 274 293 pd memory;
#X obj 53 328 player/sequencer_player;
#X obj 53 433 outlet;
#N canvas 1002 155 865 663 init_browser 0;
#X obj 267 350 t a;
#X obj 268 561 outlet to_browser;
#X msg 410 309 win_size \$1 \$2;
#X msg 70 309 amount_bars \$1;
#X msg 189 309 micro \$1;
#X obj 267 374 list prepend set_var;
#X obj 267 396 list trim;
#X msg 267 309 amount_rows \$1;
#X obj 384 166 t b b b b b b;
#X obj 383 137 bng 15 250 50 0 empty empty empty 17 7 0 10 -262144
-1 -1;
#X obj 407 285 pack;
#X msg 443 254 350;
#X msg 130 97 set \$1;
#X msg 70 254 38;
#X msg 202 97 set \$1;
#X msg 267 254 47;
#X obj 70 22 inlet from gui;
#X msg 407 254 5000;
#X obj 406 221 t b b;
#X msg 70 97 set \$1;
#X msg 191 254 4;
#X msg 273 97 set \$1;
#X msg 341 97 set \$1;
#X obj 273 121 s \$0-win_w;
#X obj 334 286 s \$0-win_w;
#X obj 617 250 route window_size_w window_size_h;
#X msg 617 289 1000;
#X msg 617 269 set \$1;
#X msg 617 309 window_w \$1;
#X msg 713 269 set \$1;
#X msg 713 309 window_h \$1;
#X obj 614 194 t b b;
#X obj 28 281 s \$0-amount_bars;
#X msg 713 289 400;
#X obj 137 282 s \$0-micro;
#X obj 70 72 route amount_bars micro amount_rows win_size_w win_size_h
init tempo, f 69;
#X obj 530 285 s \$0-tempo;
#X msg 529 258 76;
#X msg 442 100 set \$1;
#X msg 517 309 tempo \$1;
#X connect 0 0 5 0;
#X connect 2 0 0 0;
#X connect 3 0 0 0;
#X connect 4 0 0 0;
#X connect 5 0 6 0;
#X connect 6 0 1 0;
#X connect 7 0 0 0;
#X connect 8 0 13 0;
#X connect 8 1 20 0;
#X connect 8 2 15 0;
#X connect 8 3 18 0;
#X connect 8 4 37 0;
#X connect 8 5 31 0;
#X connect 9 0 8 0;
#X connect 10 0 2 0;
#X connect 11 0 10 1;
#X connect 12 0 20 0;
#X connect 13 0 3 0;
#X connect 13 0 32 0;
#X connect 14 0 15 0;
#X connect 15 0 7 0;
#X connect 16 0 35 0;
#X connect 17 0 10 0;
#X connect 17 0 24 0;
#X connect 18 0 17 0;
#X connect 18 1 11 0;
#X connect 19 0 13 0;
#X connect 20 0 4 0;
#X connect 20 0 34 0;
#X connect 21 0 17 0;
#X connect 22 0 11 0;
#X connect 25 0 27 0;
#X connect 25 1 29 0;
#X connect 26 0 28 0;
#X connect 27 0 26 0;
#X connect 28 0 0 0;
#X connect 29 0 33 0;
#X connect 30 0 0 0;
#X connect 31 0 26 0;
#X connect 31 1 33 0;
#X connect 33 0 30 0;
#X connect 35 0 19 0;
#X connect 35 0 32 0;
#X connect 35 1 12 0;
#X connect 35 1 34 0;
#X connect 35 2 14 0;
#X connect 35 3 21 0;
#X connect 35 3 23 0;
#X connect 35 4 22 0;
#X connect 35 5 9 0;
#X connect 35 6 38 0;
#X connect 35 6 36 0;
#X connect 35 7 25 0;
#X connect 37 0 36 0;
#X connect 37 0 39 0;
#X connect 38 0 37 0;
#X connect 39 0 0 0;
#X restore 406 296 pd init_browser;
#X msg 362 197 init;
#X obj 362 220 t a a;
#X obj 362 360 t a;
#X obj 362 425 outlet to_tcp;
#X obj 186 88 route player gui memory pointer init settings outlet
;
#X obj 186 42 inlet;
#N canvas 1303 468 450 323 receives_from_init 0;
#X obj 241 56 r \$0-amount_bars;
#X msg 241 78 amount_bars \$1;
#X obj 167 57 r \$0-micro;
#X msg 167 79 micro \$1;
#X obj 90 58 r \$0-tempo;
#X msg 91 80 tempo \$1;
#X obj 128 212 outlet;
#X connect 0 0 1 0;
#X connect 1 0 6 0;
#X connect 2 0 3 0;
#X connect 3 0 6 0;
#X connect 4 0 5 0;
#X connect 5 0 6 0;
#X restore 53 208 pd receives_from_init;
#X connect 0 0 1 0;
#X connect 0 1 6 0;
#X connect 1 0 2 0;
#X connect 1 1 6 0;
#X connect 3 0 6 0;
#X connect 4 0 5 0;
#X connect 5 0 6 0;
#X connect 5 1 3 0;
#X connect 5 1 0 0;
#X connect 6 0 7 0;
#X connect 8 0 1 0;
#X connect 8 1 6 0;
#X connect 8 2 0 0;
#X connect 8 3 1 0;
#X connect 8 4 4 0;
#X connect 8 5 3 0;
#X connect 8 6 2 0;
#X connect 9 0 8 0;
#X connect 10 0 1 0;
