#N canvas 19 228 575 738 10;
#N canvas 2074 116 768 700 manager 0;
#X msg 315 370 save;
#X obj 207 174 bng 13 250 50 0 empty empty l 3 5 0 10 -135137 -1 -1
;
#X obj 229 174 bng 13 250 50 0 empty empty s 3 5 0 10 -260129 -1 -1
;
#X obj 331 243 bng 15 250 50 0 empty empty open -4 -9 0 10 -262144
-1 -1;
#X symbolatom 207 189 10 0 0 0 - - -, f 10;
#X obj 232 409 t a;
#X obj 209 119 symbol;
#X obj 209 48 inlet load;
#X obj 232 432 list prepend memory;
#X obj 328 208 tgl 18 0 empty empty tcp 0 -9 0 10 -262144 -1 -1 0 1
;
#X obj 208 243 hradio 15 1 1 8 empty empty sequencer 0 -8 0 10 -262144
-1 -1 0;
#X obj 141 566 list trim;
#X obj 141 545 list prepend;
#N canvas 787 290 768 342 open_gui 0;
#X obj 88 26 inlet trigger;
#X obj 189 27 inlet seq_nr;
#X obj 88 105 f;
#X obj 505 251 sys_gui;
#X obj 76 156 cnv 15 384 88 empty empty empty 20 12 0 14 -258049 -66577
0;
#X obj 88 279 system;
#X msg 88 172 start "" C:/Users/Homer/Desktop/new_sequenzer/lua/nwjs-sdk/nw.exe
G:/Dropbox/new_sequenzer/js \$1;
#X text 183 87 replace my paths with yours;
#X text 183 109 first path is to nw.exe;
#X msg 505 169 exec C:/Users/Homer/Desktop/new_sequenzer/lua/nwjs-sdk/nw.exe
G:/Dropbox/new_sequenzer/js \$1 &, f 36;
#X text 505 148 vanilla commands;
#X obj 88 130 demux;
#X obj 125 107 tgl 15 1 empty empty empty 17 7 0 10 -262144 -1 -1 0
1;
#X text 183 131 second path to js folder inside my patch;
#X connect 0 0 2 0;
#X connect 1 0 2 1;
#X connect 2 0 11 0;
#X connect 6 0 5 0;
#X connect 9 0 3 0;
#X connect 11 0 6 0;
#X connect 11 1 9 0;
#X connect 12 0 11 1;
#X restore 331 268 pd open_gui;
#X obj 289 192 bng 13 250 50 0 empty empty gui_settings -15 -10 0 10
-262144 -1 -1;
#X obj 451 605 outlet tcp;
#X obj 141 607 outlet sequencer messages;
#X msg 451 400 tcp \$1;
#X obj 260 453 list prepend settings;
#X msg 232 370 pre_name \$1;
#X obj 209 95 route prename load;
#X msg 355 370 gui;
#X obj 537 456 bng 15 250 50 0 empty empty init -1 -8 0 10 -262144
-1 -1;
#X msg 537 476 all memory init;
#X obj 537 403 loadbang;
#X obj 537 425 pipe 50;
#N canvas 0 0 450 300 play 0;
#X obj 193 101 bng 15 250 50 0 empty empty > 4 5 0 10 -262144 -1 -1
;
#X obj 159 101 bng 15 250 50 0 empty empty < 3 5 0 10 -262144 -1 -1
;
#X obj 210 101 bng 15 250 50 0 empty empty || 2 5 0 8 -262144 -1 -1
;
#X obj 176 101 bng 15 250 50 0 empty empty o 4 4 0 10 -199729 -1 -1
;
#X obj 162 240 outlet;
#X obj 162 217 list prepend player;
#X msg 97 161 back \, pointer_start 1 1 0;
#X msg 173 133 stop;
#X msg 210 132 play;
#X msg 251 134 pause;
#X connect 0 0 8 0;
#X connect 1 0 6 0;
#X connect 2 0 9 0;
#X connect 3 0 7 0;
#X connect 5 0 4 0;
#X connect 6 0 5 0;
#X connect 7 0 5 0;
#X connect 8 0 5 0;
#X connect 9 0 5 0;
#X coords 0 -1 1 1 74 22 1 156 98;
#X restore 208 211 pd play;
#N canvas 962 309 805 644 load_preset 0;
#X msg 296 245 clear;
#X obj 357 282 t a;
#X msg 262 245 load;
#X msg 198 245 load_stop;
#X obj 198 282 t a;
#X obj 198 330 list prepend gui;
#X obj 310 330 list prepend memory;
#X obj 440 330 list prepend settings;
#X msg 336 245 pre_name \$1;
#X obj 336 220 symbol;
#X obj 274 282 t a a;
#X obj 198 141 t b b b b b;
#X msg 412 245 load_start;
#X obj 369 63 inlet symbol;
#X obj 198 390 t a;
#X obj 198 411 outlet;
#X obj 198 61 inlet trigger;
#X connect 0 0 1 0;
#X connect 1 0 6 0;
#X connect 1 0 7 0;
#X connect 2 0 10 0;
#X connect 3 0 4 0;
#X connect 4 0 5 0;
#X connect 5 0 14 0;
#X connect 6 0 14 0;
#X connect 7 0 14 0;
#X connect 8 0 1 0;
#X connect 9 0 8 0;
#X connect 10 0 6 0;
#X connect 10 1 7 0;
#X connect 11 0 3 0;
#X connect 11 1 2 0;
#X connect 11 2 0 0;
#X connect 11 3 9 0;
#X connect 11 4 12 0;
#X connect 12 0 4 0;
#X connect 13 0 9 1;
#X connect 14 0 15 0;
#X connect 16 0 11 0;
#X restore 117 370 pd load_preset;
#X connect 0 0 5 0;
#X connect 1 0 27 0;
#X connect 2 0 0 0;
#X connect 3 0 13 0;
#X connect 4 0 27 1;
#X connect 4 0 19 0;
#X connect 5 0 8 0;
#X connect 5 0 18 0;
#X connect 6 0 4 0;
#X connect 7 0 20 0;
#X connect 8 0 12 0;
#X connect 9 0 17 0;
#X connect 10 0 12 1;
#X connect 10 0 13 1;
#X connect 11 0 16 0;
#X connect 12 0 11 0;
#X connect 14 0 21 0;
#X connect 17 0 15 0;
#X connect 18 0 12 0;
#X connect 19 0 5 0;
#X connect 20 0 6 0;
#X connect 20 1 1 0;
#X connect 21 0 18 0;
#X connect 22 0 23 0;
#X connect 23 0 16 0;
#X connect 24 0 25 0;
#X connect 25 0 22 0;
#X connect 26 0 12 0;
#X connect 27 0 12 0;
#X coords 0 -1 1 1 151 105 1 202 155;
#X restore 23 141 pd manager;
#X obj 23 688 tools/pd_outlet;
#N canvas 812 262 546 474 val2midi 0;
#X obj 89 83 t a a;
#X msg 89 151 \$1;
#X obj 89 172 +;
#X floatatom 304 78 5 0 100 0 midi+ - -, f 5;
#X msg 134 190 \$3;
#X obj 89 234 pack f f;
#X obj 89 294 t a;
#X obj 87 24 inlet;
#X obj 89 321 outlet;
#X obj 383 54 loadbang;
#X msg 256 117 \$1 \$2;
#X obj 256 201 pipe;
#X obj 309 240 mtof;
#X floatatom 309 261 7 0 0 0 - - -, f 7;
#X obj 255 223 +;
#X obj 255 286 pack f 0;
#X obj 256 139 unpack f f;
#X floatatom 323 199 8 0 0 0 - - -, f 8;
#X obj 290 172 - 2;
#X msg 383 76 41;
#X obj 88 47 route lowest_note stop;
#X connect 0 0 1 0;
#X connect 0 1 4 0;
#X connect 0 1 10 0;
#X connect 1 0 2 0;
#X connect 2 0 5 0;
#X connect 3 0 2 1;
#X connect 3 0 14 1;
#X connect 4 0 5 1;
#X connect 5 0 6 0;
#X connect 6 0 8 0;
#X connect 7 0 20 0;
#X connect 9 0 19 0;
#X connect 10 0 16 0;
#X connect 11 0 14 0;
#X connect 12 0 13 0;
#X connect 14 0 12 0;
#X connect 14 0 15 0;
#X connect 15 0 6 0;
#X connect 16 0 11 0;
#X connect 16 1 18 0;
#X connect 18 0 11 1;
#X connect 18 0 17 0;
#X connect 19 0 3 0;
#X connect 20 0 3 0;
#X connect 20 2 0 0;
#X coords 0 -1 1 1 83 39 1 259 58;
#X restore 23 334 pd val2midi;
#X obj 23 377 instr/tri_ops_v2/tri_ops_v2;
#X obj 134 341 loadbang;
#N canvas 790 95 917 552 reverb 0;
#X obj 518 224 cnv 15 96 103 empty empty empty 20 12 0 14 -199729 -66577
0;
#X obj 186 236 rev3~ 112 74 3000 80;
#X obj 523 39 inlet;
#X obj 655 98 sel 0 1;
#X obj 655 120 del 20;
#X msg 655 142 0;
#X obj 647 209 switch~;
#X msg 688 140 1;
#X msg 403 105 74;
#X msg 337 105 80;
#X msg 367 105 3000;
#X obj 337 48 loadbang;
#X obj 337 70 bng 15 250 50 0 empty empty empty 17 7 0 10 -262144 -1
-1;
#X obj 84 27 inlet~;
#X obj 602 225 tgl 10 1 empty empty empty 17 7 0 10 -262144 -1 -1 1
1;
#X obj 84 506 outlet~;
#X floatatom 319 292 5 0 0 0 - - -, f 5;
#X obj 84 459 *~;
#X floatatom 319 335 5 0 0 0 - - -, f 5;
#X obj 182 462 *~;
#X obj 319 313 expr 1 - $f1;
#X obj 197 440 line~;
#X msg 197 419 \$1 20;
#X obj 100 437 line~;
#X msg 101 415 \$1 20;
#X msg 198 380 0;
#X msg 102 382 1;
#X obj 102 320 loadbang;
#X obj 523 237 hsl 80 10 0 127 0 0 empty empty mix\ 50 -2 -8 0 10 -262144
-1 -1 3110 1;
#X obj 523 256 hsl 80 10 0 127 0 0 empty empty lvl\ 100 -2 -8 0 10
-262144 -1 -1 6220 1;
#X obj 523 275 hsl 80 10 0 127 0 0 empty empty live\ 74 -2 -8 0 10
-262144 -1 -1 4603 1;
#X obj 523 294 hsl 80 10 0 127 0 0 empty empty cross\ 127 -2 -8 0 10
-262144 -1 -1 7900 1;
#X obj 523 313 hsl 80 10 0 127 0 0 empty empty damp\ 80 -2 -8 0 10
-262144 -1 -1 4976 1;
#X obj 319 272 / 100;
#X obj 720 236 l2s;
#X msg 670 236 mix \$1;
#X msg 749 236 label \$1;
#X obj 645 236 int;
#X obj 719 260 l2s;
#X msg 748 260 label \$1;
#X obj 644 260 int;
#X msg 669 260 lvl \$1;
#X obj 720 286 l2s;
#X msg 749 286 label \$1;
#X obj 645 286 int;
#X msg 670 286 live \$1;
#X obj 720 311 l2s;
#X msg 749 311 label \$1;
#X obj 645 311 int;
#X msg 670 311 cross \$1;
#X obj 721 336 l2s;
#X msg 750 336 label \$1;
#X obj 646 336 int;
#X msg 671 336 damp \$1;
#X msg 433 105 100;
#X obj 751 143 loadbang;
#X msg 751 165 50;
#X obj 523 61 route lvl live cross damp on mix;
#X connect 1 0 19 0;
#X connect 2 0 57 0;
#X connect 3 0 4 0;
#X connect 3 1 7 0;
#X connect 4 0 5 0;
#X connect 5 0 14 0;
#X connect 7 0 14 0;
#X connect 8 0 30 0;
#X connect 9 0 32 0;
#X connect 10 0 31 0;
#X connect 11 0 12 0;
#X connect 12 0 54 0;
#X connect 12 0 10 0;
#X connect 12 0 9 0;
#X connect 12 0 8 0;
#X connect 13 0 1 0;
#X connect 13 0 17 0;
#X connect 14 0 6 0;
#X connect 16 0 20 0;
#X connect 16 0 22 0;
#X connect 17 0 15 0;
#X connect 18 0 24 0;
#X connect 19 0 15 0;
#X connect 20 0 18 0;
#X connect 21 0 19 1;
#X connect 22 0 21 0;
#X connect 23 0 17 1;
#X connect 24 0 23 0;
#X connect 25 0 22 0;
#X connect 26 0 24 0;
#X connect 27 0 26 0;
#X connect 28 0 33 0;
#X connect 28 0 37 0;
#X connect 29 0 40 0;
#X connect 29 0 1 2;
#X connect 30 0 44 0;
#X connect 30 0 1 3;
#X connect 31 0 48 0;
#X connect 31 0 1 4;
#X connect 32 0 52 0;
#X connect 32 0 1 5;
#X connect 33 0 16 0;
#X connect 34 0 36 0;
#X connect 35 0 34 0;
#X connect 36 0 28 0;
#X connect 37 0 35 0;
#X connect 38 0 39 0;
#X connect 39 0 29 0;
#X connect 40 0 41 0;
#X connect 41 0 38 0;
#X connect 42 0 43 0;
#X connect 43 0 30 0;
#X connect 44 0 45 0;
#X connect 45 0 42 0;
#X connect 46 0 47 0;
#X connect 47 0 31 0;
#X connect 48 0 49 0;
#X connect 49 0 46 0;
#X connect 50 0 51 0;
#X connect 51 0 32 0;
#X connect 52 0 53 0;
#X connect 53 0 50 0;
#X connect 54 0 29 0;
#X connect 55 0 56 0;
#X connect 56 0 28 0;
#X connect 57 0 29 0;
#X connect 57 1 30 0;
#X connect 57 2 31 0;
#X connect 57 3 32 0;
#X connect 57 4 3 0;
#X connect 57 5 28 0;
#X coords 0 -1 1 1 98 105 2 517 223;
#X restore 23 576 pd reverb;
#X msg 195 360 preset 24;
#X obj 23 299 route 0 1 2 3 4 5 6 7;
#N canvas 1005 359 625 560 cpu 0;
#X floatatom 139 260 0 0 0 0 - - -;
#X obj 139 156 cputime;
#X obj 139 16 loadbang;
#X obj 139 100 metro 1000;
#X msg 139 44 1;
#X floatatom 139 72 0 0 0 0 - - -;
#X obj 139 128 t b b;
#X obj 139 216 * 0.1;
#X obj 139 185 int;
#X text 184 72 <-- on/off;
#X obj 369 298 nbx 4 20 -1e+037 1e+037 0 0 empty empty empty 0 -8 0
18 -262144 -1 -1 10.9 256 0;
#X obj 186 337 % 20;
#X floatatom 186 359 5 0 0 0 - - -, f 5;
#X obj 186 312 f;
#X obj 218 313 + 1;
#X obj 157 391 array set \$0-cpu;
#X obj 139 288 t b f b;
#X obj 139 418 array sum \$0-cpu;
#X obj 139 440 / 20;
#X obj 369 321 nbx 4 20 -1e+037 1e+037 0 0 empty empty empty 0 -8 0
18 -262144 -1 -1 20.02 256 0;
#N canvas 0 0 450 300 (subpatch) 0;
#X array \$0-cpu 20 float 5 black black;
#A 0 15.6 32.7 31.2 6.2 7.8 15.6 7.8 6.2 0 31.2 9.3 29.6 42.1 10.9
56.1 17.1 6.2 15.6 37.4 21.8;
#X coords 0 100 19 0 100 40 1;
#X restore 355 255 graph;
#X obj 138 236 min 150;
#X connect 0 0 16 0;
#X connect 1 0 8 0;
#X connect 2 0 4 0;
#X connect 3 0 6 0;
#X connect 4 0 5 0;
#X connect 5 0 3 0;
#X connect 6 0 1 0;
#X connect 6 1 1 1;
#X connect 7 0 21 0;
#X connect 8 0 7 0;
#X connect 11 0 12 0;
#X connect 12 0 15 1;
#X connect 13 0 14 0;
#X connect 13 0 11 0;
#X connect 14 0 13 1;
#X connect 16 0 17 0;
#X connect 16 1 15 0;
#X connect 16 2 13 0;
#X connect 17 0 18 0;
#X connect 18 0 19 0;
#X connect 21 0 10 0;
#X connect 21 0 0 0;
#X coords 0 -1 1 1 105 97 2 353 246;
#X restore 152 582 pd cpu;
#X msg 134 360 voices 5;
#N canvas 1576 191 250 464 presets 0;
#N canvas 1106 469 344 198 one_pre 0;
#X msg 196 86 example;
#X symbolatom 96 71 14 0 0 0 - - -, f 14;
#X msg 196 65 set \$1;
#X obj 96 123 outlet;
#X obj 215 23 inlet init;
#X obj 196 108 symbol;
#X obj 80 71 bng 16 250 50 0 empty empty empty 17 7 0 10 -262144 -1
-1;
#X msg 196 127 set \$1;
#X connect 0 0 5 0;
#X connect 1 0 2 0;
#X connect 1 0 3 0;
#X connect 2 0 0 0;
#X connect 4 0 0 0;
#X connect 5 0 7 0;
#X connect 6 0 1 0;
#X connect 7 0 1 0;
#X coords 0 -1 1 1 102 16 2 80 71;
#X restore 71 75 pd one_pre;
#N canvas 1106 469 344 198 one_pre 0;
#X msg 196 86 master;
#X symbolatom 96 71 14 0 0 0 - - -, f 14;
#X msg 196 65 set \$1;
#X obj 96 123 outlet;
#X obj 215 23 inlet init;
#X obj 196 108 symbol;
#X obj 80 71 bng 16 250 50 0 empty empty empty 17 7 0 10 -262144 -1
-1;
#X msg 196 130 set \$1;
#X connect 0 0 5 0;
#X connect 1 0 2 0;
#X connect 1 0 3 0;
#X connect 2 0 0 0;
#X connect 4 0 0 0;
#X connect 5 0 7 0;
#X connect 6 0 1 0;
#X connect 7 0 1 0;
#X coords 0 -1 1 1 102 16 2 80 71;
#X restore 71 93 pd one_pre;
#N canvas 1106 469 344 198 one_pre 0;
#X msg 196 86 example2;
#X symbolatom 96 71 14 0 0 0 - - -, f 14;
#X msg 196 65 set \$1;
#X obj 96 123 outlet;
#X obj 215 23 inlet init;
#X obj 196 108 symbol;
#X obj 80 71 bng 16 250 50 0 empty empty empty 17 7 0 10 -262144 -1
-1;
#X msg 196 130 set \$1;
#X connect 0 0 5 0;
#X connect 1 0 2 0;
#X connect 1 0 3 0;
#X connect 2 0 0 0;
#X connect 4 0 0 0;
#X connect 5 0 7 0;
#X connect 6 0 1 0;
#X connect 7 0 1 0;
#X coords 0 -1 1 1 102 16 2 80 71;
#X restore 71 111 pd one_pre;
#N canvas 1106 469 344 198 one_pre 0;
#X msg 196 86 -;
#X symbolatom 96 71 14 0 0 0 - - -, f 14;
#X msg 196 65 set \$1;
#X obj 96 123 outlet;
#X obj 215 23 inlet init;
#X obj 196 108 symbol;
#X obj 80 71 bng 16 250 50 0 empty empty empty 17 7 0 10 -262144 -1
-1;
#X msg 196 130 set \$1;
#X connect 0 0 5 0;
#X connect 1 0 2 0;
#X connect 1 0 3 0;
#X connect 2 0 0 0;
#X connect 4 0 0 0;
#X connect 5 0 7 0;
#X connect 6 0 1 0;
#X connect 7 0 1 0;
#X coords 0 -1 1 1 102 16 2 80 71;
#X restore 71 129 pd one_pre;
#X obj 72 293 t b a;
#X obj 71 242 list prepend prename;
#X obj 71 264 list trim;
#X obj 72 368 outlet;
#X msg 72 324 load;
#X obj 71 40 bng 15 250 50 0 empty empty empty 17 7 0 10 -262144 -1
-1;
#X obj 71 14 loadbang;
#N canvas 1106 469 344 198 one_pre 0;
#X msg 196 86 -;
#X symbolatom 96 71 14 0 0 0 - - -, f 14;
#X msg 196 65 set \$1;
#X obj 96 123 outlet;
#X obj 215 23 inlet init;
#X obj 196 108 symbol;
#X obj 80 71 bng 16 250 50 0 empty empty empty 17 7 0 10 -262144 -1
-1;
#X msg 196 130 set \$1;
#X connect 0 0 5 0;
#X connect 1 0 2 0;
#X connect 1 0 3 0;
#X connect 2 0 0 0;
#X connect 4 0 0 0;
#X connect 5 0 7 0;
#X connect 6 0 1 0;
#X connect 7 0 1 0;
#X coords 0 -1 1 1 102 16 2 80 71;
#X restore 71 147 pd one_pre;
#N canvas 1106 469 344 198 one_pre 0;
#X msg 196 86 -;
#X symbolatom 96 71 14 0 0 0 - - -, f 14;
#X msg 196 65 set \$1;
#X obj 96 123 outlet;
#X obj 215 23 inlet init;
#X obj 196 108 symbol;
#X obj 80 71 bng 16 250 50 0 empty empty empty 17 7 0 10 -262144 -1
-1;
#X msg 196 130 set \$1;
#X connect 0 0 5 0;
#X connect 1 0 2 0;
#X connect 1 0 3 0;
#X connect 2 0 0 0;
#X connect 4 0 0 0;
#X connect 5 0 7 0;
#X connect 6 0 1 0;
#X connect 7 0 1 0;
#X coords 0 -1 1 1 102 16 2 80 71;
#X restore 71 165 pd one_pre;
#N canvas 1106 469 344 198 one_pre 0;
#X msg 196 86 -;
#X symbolatom 96 71 14 0 0 0 - - -, f 14;
#X msg 196 65 set \$1;
#X obj 96 123 outlet;
#X obj 215 23 inlet init;
#X obj 196 108 symbol;
#X obj 80 71 bng 16 250 50 0 empty empty empty 17 7 0 10 -262144 -1
-1;
#X msg 196 130 set \$1;
#X connect 0 0 5 0;
#X connect 1 0 2 0;
#X connect 1 0 3 0;
#X connect 2 0 0 0;
#X connect 4 0 0 0;
#X connect 5 0 7 0;
#X connect 6 0 1 0;
#X connect 7 0 1 0;
#X coords 0 -1 1 1 102 16 2 80 71;
#X restore 71 183 pd one_pre;
#X connect 0 0 5 0;
#X connect 1 0 5 0;
#X connect 2 0 5 0;
#X connect 3 0 5 0;
#X connect 4 0 8 0;
#X connect 4 1 7 0;
#X connect 5 0 6 0;
#X connect 6 0 4 0;
#X connect 8 0 7 0;
#X connect 9 0 0 0;
#X connect 9 0 3 0;
#X connect 9 0 2 0;
#X connect 9 0 1 0;
#X connect 9 0 11 0;
#X connect 9 0 13 0;
#X connect 9 0 12 0;
#X connect 10 0 9 0;
#X connect 11 0 5 0;
#X connect 12 0 5 0;
#X connect 13 0 5 0;
#X coords 0 -1 1 1 108 129 2 68 72;
#X restore 23 8 pd presets;
#X obj 137 268 sequencer;
#N canvas 719 134 744 647 master_track 0;
#X obj 113 12 inlet notes;
#X obj 212 521 outlet;
#X obj 212 483 list trim;
#X msg 212 409 stop \, pointer_start \$2 \$1 0 \, play;
#X obj 482 379 list trim;
#X obj 440 88 route player;
#X msg 481 154 stop;
#X obj 440 40 inlet tcp;
#N canvas 984 508 450 300 get_parameters 0;
#X obj 86 207 outlet value;
#X obj 190 109 until;
#X obj 190 133 list append;
#X obj 190 85 t b l;
#X obj 271 157 bang;
#X obj 190 157 list split 2;
#X obj 86 33 list split 3;
#X obj 190 179 list trim;
#X obj 190 207 outlet value;
#X obj 86 5 inlet sequencer;
#X connect 1 0 2 0;
#X connect 2 0 5 0;
#X connect 3 0 1 0;
#X connect 3 1 2 1;
#X connect 4 0 1 1;
#X connect 5 0 7 0;
#X connect 5 1 2 1;
#X connect 5 2 4 0;
#X connect 6 0 0 0;
#X connect 6 1 3 0;
#X connect 7 0 8 0;
#X connect 9 0 6 0;
#X coords 0 0 1 1 68 34 0;
#X restore 113 117 pd get_parameters;
#X obj 113 41 route 1;
#X obj 440 62 route 1;
#X text 530 46 play and stop messages from the master track are catched
via the right outlet of the sequencer, f 28;
#X obj 212 145 route sel1 sel2 sel3 sel4;
#X text 480 216 change tempo;
#X msg 482 305 tempo \$1 \, init;
#X msg 482 248 60;
#X msg 509 248 76;
#X msg 536 248 92;
#X msg 563 248 120;
#X text 123 68 abstraction for separating the parameters, f 15;
#X floatatom 212 182 5 0 0 0 - - -, f 5;
#X obj 212 461 list prepend 2 player;
#X obj 482 335 list prepend 1 player;
#X obj 482 356 list prepend 2 player;
#X floatatom 248 182 5 0 0 0 - - -, f 5;
#X obj 440 110 route play stop pause;
#N canvas 292 396 450 323 beats2midi 0;
#X obj 184 100 / 4;
#X obj 157 68 t f f;
#X obj 184 122 int;
#X obj 184 144 * 4;
#X obj 157 174 -;
#X obj 156 199 pack f f;
#X obj 157 44 inlet;
#X obj 156 230 outlet;
#X connect 0 0 2 0;
#X connect 1 0 4 0;
#X connect 1 1 0 0;
#X connect 2 0 3 0;
#X connect 2 0 5 1;
#X connect 3 0 4 1;
#X connect 4 0 5 0;
#X connect 5 0 7 0;
#X connect 6 0 1 0;
#X restore 248 214 pd beats2midi;
#X floatatom 322 182 5 0 0 0 - - -, f 5;
#N canvas 292 396 450 323 beats2midi 0;
#X obj 184 100 / 4;
#X obj 157 68 t f f;
#X obj 184 122 int;
#X obj 184 144 * 4;
#X obj 157 174 -;
#X obj 156 199 pack f f;
#X obj 157 44 inlet;
#X obj 156 230 outlet;
#X connect 0 0 2 0;
#X connect 1 0 4 0;
#X connect 1 1 0 0;
#X connect 2 0 3 0;
#X connect 2 0 5 1;
#X connect 3 0 4 1;
#X connect 4 0 5 0;
#X connect 5 0 7 0;
#X connect 6 0 1 0;
#X restore 212 247 pd beats2midi;
#N canvas 1470 584 450 346 beat_pos 0;
#X obj 152 72 route 2;
#X obj 152 121 unpack f f;
#X floatatom 152 143 5 0 0 0 - - -, f 5;
#X floatatom 208 146 5 0 0 0 - - -, f 5;
#X msg 152 97 \$2 \$3;
#X obj 153 168 * 4;
#X obj 153 190 +;
#X floatatom 153 223 5 0 0 0 - - -, f 5;
#X obj 152 35 inlet;
#X connect 0 0 4 0;
#X connect 1 0 2 0;
#X connect 1 1 3 0;
#X connect 2 0 5 0;
#X connect 3 0 6 1;
#X connect 4 0 1 0;
#X connect 5 0 6 0;
#X connect 6 0 7 0;
#X connect 8 0 0 0;
#X coords 0 -1 1 1 68 32 1 148 209;
#X restore 624 145 pd beat_pos;
#X connect 0 0 9 0;
#X connect 2 0 1 0;
#X connect 3 0 21 0;
#X connect 4 0 1 0;
#X connect 5 0 25 0;
#X connect 6 0 21 0;
#X connect 7 0 10 0;
#X connect 8 1 12 0;
#X connect 9 0 8 0;
#X connect 10 0 5 0;
#X connect 12 0 20 0;
#X connect 12 1 24 0;
#X connect 12 3 27 0;
#X connect 14 0 22 0;
#X connect 14 0 23 0;
#X connect 15 0 14 0;
#X connect 16 0 14 0;
#X connect 17 0 14 0;
#X connect 18 0 14 0;
#X connect 20 0 28 0;
#X connect 21 0 2 0;
#X connect 22 0 4 0;
#X connect 23 0 4 0;
#X connect 24 0 26 0;
#X connect 25 1 6 0;
#X connect 25 2 6 0;
#X connect 26 0 3 0;
#X connect 27 0 14 0;
#X connect 28 0 3 0;
#X coords 0 0 1 1 94 60 0;
#X restore 177 299 pd master_track;
#X obj 298 60 cnv 15 251 116 empty empty start 20 12 0 14 -262113 -66577
0;
#X msg 311 132 \; pd-open_gui vis 1;
#X text 302 480 (you might have to activate tcp again \, when all sequencer
windows had been closed), f 36;
#X text 311 93 1) set paths to nw.js and js folder (click msg-box below)
, f 38;
#X obj 299 188 cnv 15 247 136 empty empty Example_1 20 12 0 14 -233017
-66577 0;
#X obj 299 336 cnv 15 258 132 empty empty Example_2 20 12 0 14 -233017
-66577 0;
#X text 138 61 presets;
#X text 317 240 2) set tcp to active;
#N canvas 1045 249 530 455 playing_examples 0;
#X msg 184 125 play;
#X msg 225 126 stop;
#X msg 124 73 stop \, pointer_start 4 3 0 \, play;
#X msg 156 97 stop \, pointer_start 8 1 0 \, play;
#X obj 168 194 t a;
#X obj 234 265 list prepend 2 player;
#X obj 168 315 t a;
#X obj 206 244 list prepend 1 player;
#X obj 168 389 outlet;
#X obj 168 222 list prepend 0 player;
#X text 113 47 play/stop multiple sequencers synchronously;
#X text 217 389 connect to sequencer;
#X connect 0 0 4 0;
#X connect 1 0 4 0;
#X connect 2 0 4 0;
#X connect 3 0 4 0;
#X connect 4 0 5 0;
#X connect 4 0 7 0;
#X connect 4 0 9 0;
#X connect 5 0 6 0;
#X connect 6 0 8 0;
#X connect 7 0 6 0;
#X connect 9 0 6 0;
#X restore 154 110 pd playing_examples;
#X text 317 221 1) press open for first editor;
#X text 317 259 3) load example;
#X text 317 278 4) start dsp / set volume;
#X text 317 297 5) use play buttons inside sequencer;
#X text 317 369 1) select 2nd radio button \, open;
#X text 317 388 2) load master;
#X text 317 407 3) select 3rd radio button \, open;
#X text 317 426 4) load example2;
#X text 317 445 5) start seq 2 \, play with mutes/solos, f 38;
#X connect 0 0 11 0;
#X connect 0 1 11 1;
#X connect 2 0 3 0;
#X connect 3 0 5 0;
#X connect 4 0 9 0;
#X connect 4 0 6 0;
#X connect 5 0 1 0;
#X connect 6 0 3 1;
#X connect 7 0 2 0;
#X connect 7 2 2 0;
#X connect 9 0 3 1;
#X connect 10 0 0 0;
#X connect 11 0 7 0;
#X connect 11 0 12 0;
#X connect 11 1 12 1;
#X connect 12 0 11 0;
