#N canvas 31 258 593 669 10;
#N canvas 472 65 874 797 manager 0;
#X msg 168 372 init;
#X msg 217 372 show_seq;
#X msg 464 342 save;
#X msg 280 250 load;
#X msg 328 300 clear;
#X obj 275 171 tgl 13 0 empty empty pos -1 -8 0 10 -262144 -1 -1 0
1;
#X obj 253 171 bng 13 250 50 0 empty empty l 3 5 0 10 -135137 -1 -1
;
#X obj 253 186 bng 13 250 50 0 empty empty s 3 5 0 10 -260129 -1 -1
;
#X obj 205 171 bng 13 250 50 0 empty empty init 17 7 0 10 -262144 -1
-1;
#X obj 205 186 bng 13 250 50 0 empty empty gui 17 7 0 10 -262144 -1
-1;
#X msg 464 286 pre_name \$1;
#X symbolatom 206 202 10 0 0 0 - - -, f 10;
#X obj 464 455 t a;
#X obj 250 134 symbol;
#X obj 205 59 inlet load;
#X obj 205 106 route init prename load;
#X msg 253 417 load;
#X msg 237 398 load_stop;
#X obj 205 442 t a;
#X obj 205 471 list prepend gui;
#X obj 462 477 list prepend memory;
#X obj 205 638 outlet to_sequencer;
#X obj 280 272 t b a b b b;
#X obj 275 196 tgl 13 0 empty empty tcp -1 -8 0 10 -262144 -1 -1 0
1;
#X msg 322 400 tcp tcp \$1;
#X obj 206 222 hradio 12 0 1 8 empty empty empty 0 -8 0 10 -262144
-1 -1 0;
#X obj 205 597 list trim;
#N canvas 865 190 575 697 set_sequencers 0;
#X obj 72 69 cnv 15 446 334 empty empty empty 20 12 0 14 -233017 -66577
0;
#N canvas 520 289 725 464 set_one_seq 0;
#X obj 145 131 nbx 3 14 1 1e+037 0 1 empty empty bars 0 -8 0 10 -262144
-1 -1 38 256 0;
#X obj 185 131 nbx 2 14 1 31 0 1 empty empty micro 0 -8 0 10 -262144
-1 -1 4 256 0;
#X obj 222 131 nbx 2 14 1 100 0 1 empty empty rows 0 -8 0 10 -262144
-1 -1 44 256 0;
#X obj 260 131 nbx 5 14 100 10000 0 1 empty empty canvas_w 0 -8 0 10
-262144 -1 -1 5000 256 0;
#X obj 316 131 nbx 5 14 100 10000 0 1 empty empty canvas_h 0 -8 0 10
-262144 -1 -1 400 256 0;
#X obj 381 131 nbx 5 14 100 10000 0 1 empty empty window_w 0 -8 0 10
-262144 -1 -1 650 256 0;
#X obj 439 131 nbx 5 14 100 2000 0 1 empty empty window_h 0 -8 0 10
-262144 -1 -1 550 256 0;
#X msg 188 183 amount_bars \$1;
#X msg 243 233 amount_rows \$1;
#X msg 222 207 micro \$1;
#X msg 281 258 win_size_w \$1;
#X msg 343 225 window_size_w \$1;
#X msg 375 256 window_size_h \$1;
#X msg 313 190 win_size_h \$1;
#X obj 296 375 list prepend;
#X obj 296 397 list trim;
#X obj 110 131 nbx 2 14 -1e+037 1e+037 0 1 empty empty nr 0 -8 0 10
-262144 -1 -1 0 256 0;
#X obj 153 39 inlet trigger;
#X obj 153 61 t b b;
#X obj 296 422 outlet;
#X obj 190 159 f;
#X obj 221 159 f;
#X obj 252 159 f;
#X obj 283 159 f;
#X obj 314 159 f;
#X obj 345 159 f;
#X obj 376 159 f;
#X connect 0 0 20 1;
#X connect 1 0 21 1;
#X connect 2 0 22 1;
#X connect 3 0 23 1;
#X connect 4 0 24 1;
#X connect 5 0 25 1;
#X connect 6 0 26 1;
#X connect 7 0 14 0;
#X connect 8 0 14 0;
#X connect 9 0 14 0;
#X connect 10 0 14 0;
#X connect 11 0 14 0;
#X connect 12 0 14 0;
#X connect 13 0 14 0;
#X connect 14 0 15 0;
#X connect 15 0 19 0;
#X connect 16 0 14 1;
#X connect 17 0 18 0;
#X connect 18 0 20 0;
#X connect 18 0 26 0;
#X connect 18 0 25 0;
#X connect 18 0 24 0;
#X connect 18 0 23 0;
#X connect 18 0 22 0;
#X connect 18 0 21 0;
#X connect 18 1 16 0;
#X connect 20 0 7 0;
#X connect 21 0 9 0;
#X connect 22 0 8 0;
#X connect 23 0 10 0;
#X connect 24 0 13 0;
#X connect 25 0 11 0;
#X connect 26 0 12 0;
#X coords 0 -1 1 1 385 27 2 109 118;
#X restore 93 86 pd set_one_seq;
#X obj 93 418 t a;
#X obj 93 39 bng 15 250 50 0 empty empty empty 17 7 0 10 -262144 -1
-1;
#X obj 93 620 outlet;
#N canvas 520 289 725 464 set_one_seq 0;
#X obj 145 131 nbx 3 14 1 1e+037 0 1 empty empty bars 0 -8 0 10 -262144
-1 -1 38 256 0;
#X obj 185 131 nbx 2 14 1 31 0 1 empty empty micro 0 -8 0 10 -262144
-1 -1 4 256 0;
#X obj 222 131 nbx 2 14 1 100 0 1 empty empty rows 0 -8 0 10 -262144
-1 -1 20 256 0;
#X obj 260 131 nbx 5 14 100 10000 0 1 empty empty canvas_w 0 -8 0 10
-262144 -1 -1 5000 256 0;
#X obj 316 131 nbx 5 14 100 10000 0 1 empty empty canvas_h 0 -8 0 10
-262144 -1 -1 250 256 0;
#X obj 381 131 nbx 5 14 100 10000 0 1 empty empty window_w 0 -8 0 10
-262144 -1 -1 650 256 0;
#X obj 439 131 nbx 5 14 100 2000 0 1 empty empty window_h 0 -8 0 10
-262144 -1 -1 300 256 0;
#X msg 188 183 amount_bars \$1;
#X msg 243 233 amount_rows \$1;
#X msg 222 207 micro \$1;
#X msg 281 258 win_size_w \$1;
#X msg 343 225 window_size_w \$1;
#X msg 375 256 window_size_h \$1;
#X msg 313 190 win_size_h \$1;
#X obj 296 375 list prepend;
#X obj 296 397 list trim;
#X obj 110 131 nbx 2 14 -1e+037 1e+037 0 1 empty empty nr 0 -8 0 10
-262144 -1 -1 1 256 0;
#X obj 153 39 inlet trigger;
#X obj 153 61 t b b;
#X obj 296 422 outlet;
#X obj 190 159 f;
#X obj 221 159 f;
#X obj 252 159 f;
#X obj 283 159 f;
#X obj 314 159 f;
#X obj 345 159 f;
#X obj 376 159 f;
#X connect 0 0 20 1;
#X connect 1 0 21 1;
#X connect 2 0 22 1;
#X connect 3 0 23 1;
#X connect 4 0 24 1;
#X connect 5 0 25 1;
#X connect 6 0 26 1;
#X connect 7 0 14 0;
#X connect 8 0 14 0;
#X connect 9 0 14 0;
#X connect 10 0 14 0;
#X connect 11 0 14 0;
#X connect 12 0 14 0;
#X connect 13 0 14 0;
#X connect 14 0 15 0;
#X connect 15 0 19 0;
#X connect 16 0 14 1;
#X connect 17 0 18 0;
#X connect 18 0 20 0;
#X connect 18 0 26 0;
#X connect 18 0 25 0;
#X connect 18 0 24 0;
#X connect 18 0 23 0;
#X connect 18 0 22 0;
#X connect 18 0 21 0;
#X connect 18 1 16 0;
#X connect 20 0 7 0;
#X connect 21 0 9 0;
#X connect 22 0 8 0;
#X connect 23 0 10 0;
#X connect 24 0 13 0;
#X connect 25 0 11 0;
#X connect 26 0 12 0;
#X coords 0 -1 1 1 385 27 2 109 118;
#X restore 93 121 pd set_one_seq;
#N canvas 520 289 725 464 set_one_seq 0;
#X obj 145 131 nbx 3 14 1 1e+037 0 1 empty empty bars 0 -8 0 10 -262144
-1 -1 38 256 0;
#X obj 185 131 nbx 2 14 1 31 0 1 empty empty micro 0 -8 0 10 -262144
-1 -1 4 256 0;
#X obj 222 131 nbx 2 14 1 100 0 1 empty empty rows 0 -8 0 10 -262144
-1 -1 48 256 0;
#X obj 260 131 nbx 5 14 100 10000 0 1 empty empty canvas_w 0 -8 0 10
-262144 -1 -1 5000 256 0;
#X obj 316 131 nbx 5 14 100 10000 0 1 empty empty canvas_h 0 -8 0 10
-262144 -1 -1 450 256 0;
#X obj 381 131 nbx 5 14 100 10000 0 1 empty empty window_w 0 -8 0 10
-262144 -1 -1 650 256 0;
#X obj 439 131 nbx 5 14 100 2000 0 1 empty empty window_h 0 -8 0 10
-262144 -1 -1 300 256 0;
#X msg 188 183 amount_bars \$1;
#X msg 243 233 amount_rows \$1;
#X msg 222 207 micro \$1;
#X msg 281 258 win_size_w \$1;
#X msg 343 225 window_size_w \$1;
#X msg 375 256 window_size_h \$1;
#X msg 313 190 win_size_h \$1;
#X obj 296 375 list prepend;
#X obj 296 397 list trim;
#X obj 110 131 nbx 2 14 -1e+037 1e+037 0 1 empty empty nr 0 -8 0 10
-262144 -1 -1 2 256 0;
#X obj 153 39 inlet trigger;
#X obj 153 61 t b b;
#X obj 296 422 outlet;
#X obj 190 159 f;
#X obj 221 159 f;
#X obj 252 159 f;
#X obj 283 159 f;
#X obj 314 159 f;
#X obj 345 159 f;
#X obj 376 159 f;
#X connect 0 0 20 1;
#X connect 1 0 21 1;
#X connect 2 0 22 1;
#X connect 3 0 23 1;
#X connect 4 0 24 1;
#X connect 5 0 25 1;
#X connect 6 0 26 1;
#X connect 7 0 14 0;
#X connect 8 0 14 0;
#X connect 9 0 14 0;
#X connect 10 0 14 0;
#X connect 11 0 14 0;
#X connect 12 0 14 0;
#X connect 13 0 14 0;
#X connect 14 0 15 0;
#X connect 15 0 19 0;
#X connect 16 0 14 1;
#X connect 17 0 18 0;
#X connect 18 0 20 0;
#X connect 18 0 26 0;
#X connect 18 0 25 0;
#X connect 18 0 24 0;
#X connect 18 0 23 0;
#X connect 18 0 22 0;
#X connect 18 0 21 0;
#X connect 18 1 16 0;
#X connect 20 0 7 0;
#X connect 21 0 9 0;
#X connect 22 0 8 0;
#X connect 23 0 10 0;
#X connect 24 0 13 0;
#X connect 25 0 11 0;
#X connect 26 0 12 0;
#X coords 0 -1 1 1 385 27 2 109 118;
#X restore 93 156 pd set_one_seq;
#N canvas 520 289 725 464 set_one_seq 0;
#X obj 145 131 nbx 3 14 1 1e+037 0 1 empty empty bars 0 -8 0 10 -262144
-1 -1 4 256 0;
#X obj 185 131 nbx 2 14 1 31 0 1 empty empty micro 0 -8 0 10 -262144
-1 -1 4 256 0;
#X obj 222 131 nbx 2 14 1 100 0 1 empty empty rows 0 -8 0 10 -262144
-1 -1 48 256 0;
#X obj 260 131 nbx 5 14 100 10000 0 1 empty empty canvas_w 0 -8 0 10
-262144 -1 -1 5000 256 0;
#X obj 316 131 nbx 5 14 100 10000 0 1 empty empty canvas_h 0 -8 0 10
-262144 -1 -1 450 256 0;
#X obj 381 131 nbx 5 14 100 10000 0 1 empty empty window_w 0 -8 0 10
-262144 -1 -1 650 256 0;
#X obj 439 131 nbx 5 14 100 2000 0 1 empty empty window_h 0 -8 0 10
-262144 -1 -1 300 256 0;
#X msg 188 183 amount_bars \$1;
#X msg 243 233 amount_rows \$1;
#X msg 222 207 micro \$1;
#X msg 281 258 win_size_w \$1;
#X msg 343 225 window_size_w \$1;
#X msg 375 256 window_size_h \$1;
#X msg 313 190 win_size_h \$1;
#X obj 296 375 list prepend;
#X obj 296 397 list trim;
#X obj 110 131 nbx 2 14 -1e+037 1e+037 0 1 empty empty nr 0 -8 0 10
-262144 -1 -1 3 256 0;
#X obj 153 39 inlet trigger;
#X obj 153 61 t b b;
#X obj 296 422 outlet;
#X obj 190 159 f;
#X obj 221 159 f;
#X obj 252 159 f;
#X obj 283 159 f;
#X obj 314 159 f;
#X obj 345 159 f;
#X obj 376 159 f;
#X connect 0 0 20 1;
#X connect 1 0 21 1;
#X connect 2 0 22 1;
#X connect 3 0 23 1;
#X connect 4 0 24 1;
#X connect 5 0 25 1;
#X connect 6 0 26 1;
#X connect 7 0 14 0;
#X connect 8 0 14 0;
#X connect 9 0 14 0;
#X connect 10 0 14 0;
#X connect 11 0 14 0;
#X connect 12 0 14 0;
#X connect 13 0 14 0;
#X connect 14 0 15 0;
#X connect 15 0 19 0;
#X connect 16 0 14 1;
#X connect 17 0 18 0;
#X connect 18 0 20 0;
#X connect 18 0 26 0;
#X connect 18 0 25 0;
#X connect 18 0 24 0;
#X connect 18 0 23 0;
#X connect 18 0 22 0;
#X connect 18 0 21 0;
#X connect 18 1 16 0;
#X connect 20 0 7 0;
#X connect 21 0 9 0;
#X connect 22 0 8 0;
#X connect 23 0 10 0;
#X connect 24 0 13 0;
#X connect 25 0 11 0;
#X connect 26 0 12 0;
#X coords 0 -1 1 1 385 27 2 109 118;
#X restore 93 191 pd set_one_seq;
#N canvas 520 289 725 464 set_one_seq 0;
#X obj 145 131 nbx 3 14 1 1e+037 0 1 empty empty bars 0 -8 0 10 -262144
-1 -1 38 256 0;
#X obj 185 131 nbx 2 14 1 31 0 1 empty empty micro 0 -8 0 10 -262144
-1 -1 4 256 0;
#X obj 222 131 nbx 2 14 1 100 0 1 empty empty rows 0 -8 0 10 -262144
-1 -1 48 256 0;
#X obj 260 131 nbx 5 14 100 10000 0 1 empty empty canvas_w 0 -8 0 10
-262144 -1 -1 5000 256 0;
#X obj 316 131 nbx 5 14 100 10000 0 1 empty empty canvas_h 0 -8 0 10
-262144 -1 -1 450 256 0;
#X obj 381 131 nbx 5 14 100 10000 0 1 empty empty window_w 0 -8 0 10
-262144 -1 -1 650 256 0;
#X obj 439 131 nbx 5 14 100 2000 0 1 empty empty window_h 0 -8 0 10
-262144 -1 -1 300 256 0;
#X msg 188 183 amount_bars \$1;
#X msg 243 233 amount_rows \$1;
#X msg 222 207 micro \$1;
#X msg 281 258 win_size_w \$1;
#X msg 343 225 window_size_w \$1;
#X msg 375 256 window_size_h \$1;
#X msg 313 190 win_size_h \$1;
#X obj 296 375 list prepend;
#X obj 296 397 list trim;
#X obj 110 131 nbx 2 14 -1e+037 1e+037 0 1 empty empty nr 0 -8 0 10
-262144 -1 -1 4 256 0;
#X obj 153 39 inlet trigger;
#X obj 153 61 t b b;
#X obj 296 422 outlet;
#X obj 190 159 f;
#X obj 221 159 f;
#X obj 252 159 f;
#X obj 283 159 f;
#X obj 314 159 f;
#X obj 345 159 f;
#X obj 376 159 f;
#X connect 0 0 20 1;
#X connect 1 0 21 1;
#X connect 2 0 22 1;
#X connect 3 0 23 1;
#X connect 4 0 24 1;
#X connect 5 0 25 1;
#X connect 6 0 26 1;
#X connect 7 0 14 0;
#X connect 8 0 14 0;
#X connect 9 0 14 0;
#X connect 10 0 14 0;
#X connect 11 0 14 0;
#X connect 12 0 14 0;
#X connect 13 0 14 0;
#X connect 14 0 15 0;
#X connect 15 0 19 0;
#X connect 16 0 14 1;
#X connect 17 0 18 0;
#X connect 18 0 20 0;
#X connect 18 0 26 0;
#X connect 18 0 25 0;
#X connect 18 0 24 0;
#X connect 18 0 23 0;
#X connect 18 0 22 0;
#X connect 18 0 21 0;
#X connect 18 1 16 0;
#X connect 20 0 7 0;
#X connect 21 0 9 0;
#X connect 22 0 8 0;
#X connect 23 0 10 0;
#X connect 24 0 13 0;
#X connect 25 0 11 0;
#X connect 26 0 12 0;
#X coords 0 -1 1 1 385 27 2 109 118;
#X restore 93 226 pd set_one_seq;
#N canvas 520 289 725 464 set_one_seq 0;
#X obj 145 131 nbx 3 14 1 1e+037 0 1 empty empty bars 0 -8 0 10 -262144
-1 -1 38 256 0;
#X obj 185 131 nbx 2 14 1 31 0 1 empty empty micro 0 -8 0 10 -262144
-1 -1 4 256 0;
#X obj 222 131 nbx 2 14 1 100 0 1 empty empty rows 0 -8 0 10 -262144
-1 -1 48 256 0;
#X obj 260 131 nbx 5 14 100 10000 0 1 empty empty canvas_w 0 -8 0 10
-262144 -1 -1 3200 256 0;
#X obj 316 131 nbx 5 14 100 10000 0 1 empty empty canvas_h 0 -8 0 10
-262144 -1 -1 450 256 0;
#X obj 381 131 nbx 5 14 100 10000 0 1 empty empty window_w 0 -8 0 10
-262144 -1 -1 650 256 0;
#X obj 439 131 nbx 5 14 100 2000 0 1 empty empty window_h 0 -8 0 10
-262144 -1 -1 300 256 0;
#X msg 188 183 amount_bars \$1;
#X msg 243 233 amount_rows \$1;
#X msg 222 207 micro \$1;
#X msg 281 258 win_size_w \$1;
#X msg 343 225 window_size_w \$1;
#X msg 375 256 window_size_h \$1;
#X msg 313 190 win_size_h \$1;
#X obj 296 375 list prepend;
#X obj 296 397 list trim;
#X obj 110 131 nbx 2 14 -1e+037 1e+037 0 1 empty empty nr 0 -8 0 10
-262144 -1 -1 5 256 0;
#X obj 153 39 inlet trigger;
#X obj 153 61 t b b;
#X obj 296 422 outlet;
#X obj 190 159 f;
#X obj 221 159 f;
#X obj 252 159 f;
#X obj 283 159 f;
#X obj 314 159 f;
#X obj 345 159 f;
#X obj 376 159 f;
#X connect 0 0 20 1;
#X connect 1 0 21 1;
#X connect 2 0 22 1;
#X connect 3 0 23 1;
#X connect 4 0 24 1;
#X connect 5 0 25 1;
#X connect 6 0 26 1;
#X connect 7 0 14 0;
#X connect 8 0 14 0;
#X connect 9 0 14 0;
#X connect 10 0 14 0;
#X connect 11 0 14 0;
#X connect 12 0 14 0;
#X connect 13 0 14 0;
#X connect 14 0 15 0;
#X connect 15 0 19 0;
#X connect 16 0 14 1;
#X connect 17 0 18 0;
#X connect 18 0 20 0;
#X connect 18 0 26 0;
#X connect 18 0 25 0;
#X connect 18 0 24 0;
#X connect 18 0 23 0;
#X connect 18 0 22 0;
#X connect 18 0 21 0;
#X connect 18 1 16 0;
#X connect 20 0 7 0;
#X connect 21 0 9 0;
#X connect 22 0 8 0;
#X connect 23 0 10 0;
#X connect 24 0 13 0;
#X connect 25 0 11 0;
#X connect 26 0 12 0;
#X coords 0 -1 1 1 385 27 2 109 118;
#X restore 93 261 pd set_one_seq;
#N canvas 520 289 725 464 set_one_seq 0;
#X obj 145 131 nbx 3 14 1 1e+037 0 1 empty empty bars 0 -8 0 10 -262144
-1 -1 38 256 0;
#X obj 185 131 nbx 2 14 1 31 0 1 empty empty micro 0 -8 0 10 -262144
-1 -1 4 256 0;
#X obj 222 131 nbx 2 14 1 100 0 1 empty empty rows 0 -8 0 10 -262144
-1 -1 48 256 0;
#X obj 260 131 nbx 5 14 100 10000 0 1 empty empty canvas_w 0 -8 0 10
-262144 -1 -1 3200 256 0;
#X obj 316 131 nbx 5 14 100 10000 0 1 empty empty canvas_h 0 -8 0 10
-262144 -1 -1 450 256 0;
#X obj 381 131 nbx 5 14 100 10000 0 1 empty empty window_w 0 -8 0 10
-262144 -1 -1 650 256 0;
#X obj 439 131 nbx 5 14 100 2000 0 1 empty empty window_h 0 -8 0 10
-262144 -1 -1 300 256 0;
#X msg 188 183 amount_bars \$1;
#X msg 243 233 amount_rows \$1;
#X msg 222 207 micro \$1;
#X msg 281 258 win_size_w \$1;
#X msg 343 225 window_size_w \$1;
#X msg 375 256 window_size_h \$1;
#X msg 313 190 win_size_h \$1;
#X obj 296 375 list prepend;
#X obj 296 397 list trim;
#X obj 110 131 nbx 2 14 -1e+037 1e+037 0 1 empty empty nr 0 -8 0 10
-262144 -1 -1 6 256 0;
#X obj 153 39 inlet trigger;
#X obj 153 61 t b b;
#X obj 296 422 outlet;
#X obj 190 159 f;
#X obj 221 159 f;
#X obj 252 159 f;
#X obj 283 159 f;
#X obj 314 159 f;
#X obj 345 159 f;
#X obj 376 159 f;
#X connect 0 0 20 1;
#X connect 1 0 21 1;
#X connect 2 0 22 1;
#X connect 3 0 23 1;
#X connect 4 0 24 1;
#X connect 5 0 25 1;
#X connect 6 0 26 1;
#X connect 7 0 14 0;
#X connect 8 0 14 0;
#X connect 9 0 14 0;
#X connect 10 0 14 0;
#X connect 11 0 14 0;
#X connect 12 0 14 0;
#X connect 13 0 14 0;
#X connect 14 0 15 0;
#X connect 15 0 19 0;
#X connect 16 0 14 1;
#X connect 17 0 18 0;
#X connect 18 0 20 0;
#X connect 18 0 26 0;
#X connect 18 0 25 0;
#X connect 18 0 24 0;
#X connect 18 0 23 0;
#X connect 18 0 22 0;
#X connect 18 0 21 0;
#X connect 18 1 16 0;
#X connect 20 0 7 0;
#X connect 21 0 9 0;
#X connect 22 0 8 0;
#X connect 23 0 10 0;
#X connect 24 0 13 0;
#X connect 25 0 11 0;
#X connect 26 0 12 0;
#X coords 0 -1 1 1 385 27 2 109 118;
#X restore 93 296 pd set_one_seq;
#N canvas 520 289 725 464 set_one_seq 0;
#X obj 145 131 nbx 3 14 1 1e+037 0 1 empty empty bars 0 -8 0 10 -262144
-1 -1 32 256 0;
#X obj 185 131 nbx 2 14 1 31 0 1 empty empty micro 0 -8 0 10 -262144
-1 -1 4 256 0;
#X obj 222 131 nbx 2 14 1 100 0 1 empty empty rows 0 -8 0 10 -262144
-1 -1 48 256 0;
#X obj 260 131 nbx 5 14 100 10000 0 1 empty empty canvas_w 0 -8 0 10
-262144 -1 -1 3200 256 0;
#X obj 316 131 nbx 5 14 100 10000 0 1 empty empty canvas_h 0 -8 0 10
-262144 -1 -1 450 256 0;
#X obj 381 131 nbx 5 14 100 10000 0 1 empty empty window_w 0 -8 0 10
-262144 -1 -1 650 256 0;
#X obj 439 131 nbx 5 14 100 2000 0 1 empty empty window_h 0 -8 0 10
-262144 -1 -1 300 256 0;
#X msg 188 183 amount_bars \$1;
#X msg 243 233 amount_rows \$1;
#X msg 222 207 micro \$1;
#X msg 281 258 win_size_w \$1;
#X msg 343 225 window_size_w \$1;
#X msg 375 256 window_size_h \$1;
#X msg 313 190 win_size_h \$1;
#X obj 296 375 list prepend;
#X obj 296 397 list trim;
#X obj 110 131 nbx 2 14 -1e+037 1e+037 0 1 empty empty nr 0 -8 0 10
-262144 -1 -1 7 256 0;
#X obj 153 39 inlet trigger;
#X obj 153 61 t b b;
#X obj 296 422 outlet;
#X obj 190 159 f;
#X obj 221 159 f;
#X obj 252 159 f;
#X obj 283 159 f;
#X obj 314 159 f;
#X obj 345 159 f;
#X obj 376 159 f;
#X connect 0 0 20 1;
#X connect 1 0 21 1;
#X connect 2 0 22 1;
#X connect 3 0 23 1;
#X connect 4 0 24 1;
#X connect 5 0 25 1;
#X connect 6 0 26 1;
#X connect 7 0 14 0;
#X connect 8 0 14 0;
#X connect 9 0 14 0;
#X connect 10 0 14 0;
#X connect 11 0 14 0;
#X connect 12 0 14 0;
#X connect 13 0 14 0;
#X connect 14 0 15 0;
#X connect 15 0 19 0;
#X connect 16 0 14 1;
#X connect 17 0 18 0;
#X connect 18 0 20 0;
#X connect 18 0 26 0;
#X connect 18 0 25 0;
#X connect 18 0 24 0;
#X connect 18 0 23 0;
#X connect 18 0 22 0;
#X connect 18 0 21 0;
#X connect 18 1 16 0;
#X connect 20 0 7 0;
#X connect 21 0 9 0;
#X connect 22 0 8 0;
#X connect 23 0 10 0;
#X connect 24 0 13 0;
#X connect 25 0 11 0;
#X connect 26 0 12 0;
#X coords 0 -1 1 1 385 27 2 109 118;
#X restore 93 331 pd set_one_seq;
#X obj 94 12 inlet;
#X obj 93 448 list split 1;
#X obj 93 503 list append;
#X obj 93 525 list prepend sequencer;
#X obj 127 474 list prepend settings;
#X connect 1 0 2 0;
#X connect 2 0 13 0;
#X connect 3 0 1 0;
#X connect 3 0 11 0;
#X connect 3 0 10 0;
#X connect 3 0 9 0;
#X connect 3 0 8 0;
#X connect 3 0 7 0;
#X connect 3 0 6 0;
#X connect 3 0 5 0;
#X connect 5 0 2 0;
#X connect 6 0 2 0;
#X connect 7 0 2 0;
#X connect 8 0 2 0;
#X connect 9 0 2 0;
#X connect 10 0 2 0;
#X connect 11 0 2 0;
#X connect 12 0 3 0;
#X connect 13 0 14 0;
#X connect 13 1 16 0;
#X connect 14 0 15 0;
#X connect 15 0 4 0;
#X connect 16 0 14 1;
#X restore 486 212 pd set_sequencers;
#X msg 60 469 pointer pointer \$1;
#X obj 673 169 loadbang;
#X obj 205 554 list prepend sequencer;
#X obj 205 531 list prepend;
#X msg 639 209 player tempo 76;
#N canvas 502 154 685 523 open_gui 0;
#X obj 42 26 inlet trigger;
#X obj 266 27 inlet seq_nr;
#X obj 247 113 f;
#X obj 428 276 sys_gui;
#X obj 420 434 system;
#X msg 430 216 exec C:/Users/Homer/Desktop/new_sequenzer/lua/nwjs-sdk/nw.exe
\$1 &, f 22;
#X msg 420 346 start "" C:/Users/Homer/Desktop/new_sequenzer/lua/nwjs-sdk/nw.exe
G:/Dropbox/new_sequenzer/js \$1, f 25;
#X msg 99 251 start "" C:/Users/xgr/Desktop/Programme/nwjs-sdk/nw.exe
C:/Users/xgr/Dropbox/new_sequenzer/js \$1, f 22;
#X obj 98 362 system;
#X connect 0 0 2 0;
#X connect 1 0 2 1;
#X connect 2 0 6 0;
#X connect 5 0 3 0;
#X connect 6 0 4 0;
#X connect 7 0 8 0;
#X restore 85 240 pd open_gui;
#X connect 0 0 31 0;
#X connect 1 0 18 0;
#X connect 2 0 12 0;
#X connect 3 0 22 0;
#X connect 4 0 12 0;
#X connect 4 0 18 0;
#X connect 5 0 28 0;
#X connect 6 0 3 0;
#X connect 7 0 2 0;
#X connect 8 0 0 0;
#X connect 8 0 27 0;
#X connect 8 0 32 0;
#X connect 9 0 1 0;
#X connect 9 0 33 0;
#X connect 10 0 12 0;
#X connect 11 0 10 0;
#X connect 12 0 20 0;
#X connect 13 0 11 0;
#X connect 14 0 15 0;
#X connect 15 0 8 0;
#X connect 15 1 13 0;
#X connect 15 2 6 0;
#X connect 16 0 18 0;
#X connect 17 0 18 0;
#X connect 18 0 19 0;
#X connect 19 0 31 0;
#X connect 20 0 31 0;
#X connect 22 0 17 0;
#X connect 22 1 12 0;
#X connect 22 2 16 0;
#X connect 22 3 4 0;
#X connect 23 0 24 0;
#X connect 24 0 21 0;
#X connect 25 0 31 1;
#X connect 25 0 33 1;
#X connect 26 0 21 0;
#X connect 27 0 26 0;
#X connect 28 0 31 0;
#X connect 29 0 32 0;
#X connect 30 0 26 0;
#X connect 31 0 30 0;
#X connect 32 0 31 0;
#X coords 0 -1 1 1 105 82 1 202 155;
#X restore 52 98 pd manager;
#X obj 52 616 tools/pd_outlet;
#N canvas 1308 249 546 451 val2midi 0;
#X obj 89 83 t a a;
#X msg 89 151 \$1;
#X obj 89 172 +;
#X floatatom 304 78 5 0 100 0 midi+ - -, f 5;
#X msg 134 190 \$3;
#X obj 89 234 pack f f;
#X obj 89 294 t a;
#X obj 87 24 inlet;
#X obj 89 321 outlet;
#X obj 383 54 loadbang;
#X msg 256 117 \$1 \$2;
#X obj 256 201 pipe;
#X obj 309 240 mtof;
#X floatatom 309 261 7 0 0 0 - - -, f 7;
#X obj 255 223 +;
#X obj 255 286 pack f 0;
#X obj 256 139 unpack f f;
#X floatatom 323 199 8 0 0 0 - - -, f 8;
#X obj 290 172 - 2;
#X obj 88 47 route lowest_note;
#X msg 383 76 41;
#X connect 0 0 1 0;
#X connect 0 1 4 0;
#X connect 0 1 10 0;
#X connect 1 0 2 0;
#X connect 2 0 5 0;
#X connect 3 0 2 1;
#X connect 3 0 14 1;
#X connect 4 0 5 1;
#X connect 5 0 6 0;
#X connect 6 0 8 0;
#X connect 7 0 19 0;
#X connect 9 0 20 0;
#X connect 10 0 16 0;
#X connect 11 0 14 0;
#X connect 12 0 13 0;
#X connect 14 0 12 0;
#X connect 14 0 15 0;
#X connect 15 0 6 0;
#X connect 16 0 11 0;
#X connect 16 1 18 0;
#X connect 18 0 11 1;
#X connect 18 0 17 0;
#X connect 19 0 3 0;
#X connect 19 1 0 0;
#X connect 20 0 3 0;
#X coords 0 -1 1 1 83 39 1 259 58;
#X restore 52 231 pd val2midi;
#X obj 52 295 instr/tri_ops_v2/tri_ops_v2;
#X obj 163 259 loadbang;
#N canvas 790 95 917 552 reverb 0;
#X obj 518 224 cnv 15 96 103 empty empty empty 20 12 0 14 -199729 -66577
0;
#X obj 186 236 rev3~ 112 74 3000 80;
#X obj 523 39 inlet;
#X obj 523 61 route lvl live cross damp on;
#X obj 655 98 sel 0 1;
#X obj 655 120 del 20;
#X msg 655 142 0;
#X obj 647 209 switch~;
#X msg 688 140 1;
#X msg 403 105 74;
#X msg 337 105 80;
#X msg 367 105 3000;
#X obj 337 48 loadbang;
#X obj 337 70 bng 15 250 50 0 empty empty empty 17 7 0 10 -262144 -1
-1;
#X obj 84 27 inlet~;
#X obj 602 225 tgl 10 1 empty empty empty 17 7 0 10 -262144 -1 -1 1
1;
#X obj 84 506 outlet~;
#X floatatom 319 292 5 0 0 0 - - -, f 5;
#X obj 84 459 *~;
#X floatatom 319 335 5 0 0 0 - - -, f 5;
#X obj 182 462 *~;
#X obj 319 313 expr 1 - $f1;
#X obj 197 440 line~;
#X msg 197 419 \$1 20;
#X obj 100 437 line~;
#X msg 101 415 \$1 20;
#X msg 198 380 0;
#X msg 102 382 1;
#X obj 102 320 loadbang;
#X obj 523 237 hsl 80 8 0 100 0 0 empty empty mix\ 50 2 -8 1 10 -99865
-260097 -1 3950 1;
#X obj 523 256 hsl 80 8 0 120 0 0 empty empty lvl\ 100 2 -8 1 10 -99865
-260097 -1 6583 1;
#X obj 523 275 hsl 80 8 0 98 0 0 empty empty live\ 74 2 -8 1 10 -99865
-260097 -1 5965 1;
#X obj 523 294 hsl 80 8 160 16000 1 0 empty empty cross\ 2999 2 -8
1 10 -99865 -260097 -1 5028 1;
#X obj 523 313 hsl 80 8 0 100 0 0 empty empty damp\ 80 2 -8 1 10 -99865
-260097 -1 6320 1;
#X obj 319 272 / 100;
#X obj 720 236 l2s;
#X msg 670 236 mix \$1;
#X msg 749 236 label \$1;
#X obj 645 236 int;
#X obj 719 260 l2s;
#X msg 748 260 label \$1;
#X obj 644 260 int;
#X msg 669 260 lvl \$1;
#X obj 720 286 l2s;
#X msg 749 286 label \$1;
#X obj 645 286 int;
#X msg 670 286 live \$1;
#X obj 720 311 l2s;
#X msg 749 311 label \$1;
#X obj 645 311 int;
#X msg 670 311 cross \$1;
#X obj 721 336 l2s;
#X msg 750 336 label \$1;
#X obj 646 336 int;
#X msg 671 336 damp \$1;
#X msg 433 105 100;
#X obj 751 143 loadbang;
#X msg 751 165 50;
#X connect 1 0 20 0;
#X connect 2 0 3 0;
#X connect 3 0 30 0;
#X connect 3 1 31 0;
#X connect 3 2 32 0;
#X connect 3 3 33 0;
#X connect 3 4 4 0;
#X connect 4 0 5 0;
#X connect 4 1 8 0;
#X connect 5 0 6 0;
#X connect 6 0 15 0;
#X connect 8 0 15 0;
#X connect 9 0 31 0;
#X connect 10 0 33 0;
#X connect 11 0 32 0;
#X connect 12 0 13 0;
#X connect 13 0 55 0;
#X connect 13 0 11 0;
#X connect 13 0 10 0;
#X connect 13 0 9 0;
#X connect 14 0 1 0;
#X connect 14 0 18 0;
#X connect 15 0 7 0;
#X connect 17 0 21 0;
#X connect 17 0 23 0;
#X connect 18 0 16 0;
#X connect 19 0 25 0;
#X connect 20 0 16 0;
#X connect 21 0 19 0;
#X connect 22 0 20 1;
#X connect 23 0 22 0;
#X connect 24 0 18 1;
#X connect 25 0 24 0;
#X connect 26 0 23 0;
#X connect 27 0 25 0;
#X connect 28 0 27 0;
#X connect 29 0 34 0;
#X connect 29 0 38 0;
#X connect 30 0 41 0;
#X connect 30 0 1 2;
#X connect 31 0 45 0;
#X connect 31 0 1 3;
#X connect 32 0 49 0;
#X connect 32 0 1 4;
#X connect 33 0 53 0;
#X connect 33 0 1 5;
#X connect 34 0 17 0;
#X connect 35 0 37 0;
#X connect 36 0 35 0;
#X connect 37 0 29 0;
#X connect 38 0 36 0;
#X connect 39 0 40 0;
#X connect 40 0 30 0;
#X connect 41 0 42 0;
#X connect 42 0 39 0;
#X connect 43 0 44 0;
#X connect 44 0 31 0;
#X connect 45 0 46 0;
#X connect 46 0 43 0;
#X connect 47 0 48 0;
#X connect 48 0 32 0;
#X connect 49 0 50 0;
#X connect 50 0 47 0;
#X connect 51 0 52 0;
#X connect 52 0 33 0;
#X connect 53 0 54 0;
#X connect 54 0 51 0;
#X connect 55 0 30 0;
#X connect 56 0 57 0;
#X connect 57 0 29 0;
#X coords 0 -1 1 1 98 105 2 517 223;
#X restore 52 501 pd reverb;
#X msg 224 278 preset 24;
#X obj 53 208 route 0 1 2 3 4 5 6 7;
#N canvas 1005 359 625 560 cpu 0;
#X floatatom 139 260 0 0 0 0 - - -;
#X obj 139 156 cputime;
#X obj 139 16 loadbang;
#X obj 139 100 metro 1000;
#X msg 139 44 1;
#X floatatom 139 72 0 0 0 0 - - -;
#X obj 139 128 t b b;
#X obj 139 216 * 0.1;
#X obj 139 185 int;
#X text 184 72 <-- on/off;
#X obj 369 298 nbx 4 20 -1e+037 1e+037 0 0 empty empty empty 0 -8 0
18 -262144 -1 -1 0 256 0;
#X obj 186 337 % 20;
#X floatatom 186 359 5 0 0 0 - - -, f 5;
#X obj 186 312 f;
#X obj 218 313 + 1;
#X obj 157 391 array set \$0-cpu;
#X obj 139 288 t b f b;
#X obj 139 418 array sum \$0-cpu;
#X obj 139 440 / 20;
#X obj 369 321 nbx 4 20 -1e+037 1e+037 0 0 empty empty empty 0 -8 0
18 -262144 -1 -1 0.075 256 0;
#N canvas 0 0 450 300 (subpatch) 0;
#X array \$0-cpu 20 float 5 black black;
#A 0 0 0 0 1.5 0 0 0 0 0 0 0 0 0 0 0 0 0 0 0 0;
#X coords 0 100 19 0 100 40 1;
#X restore 355 255 graph;
#X obj 138 236 min 150;
#X connect 0 0 16 0;
#X connect 1 0 8 0;
#X connect 2 0 4 0;
#X connect 3 0 6 0;
#X connect 4 0 5 0;
#X connect 5 0 3 0;
#X connect 6 0 1 0;
#X connect 6 1 1 1;
#X connect 7 0 21 0;
#X connect 8 0 7 0;
#X connect 11 0 12 0;
#X connect 12 0 15 1;
#X connect 13 0 14 0;
#X connect 13 0 11 0;
#X connect 14 0 13 1;
#X connect 16 0 17 0;
#X connect 16 1 15 0;
#X connect 16 2 13 0;
#X connect 17 0 18 0;
#X connect 18 0 19 0;
#X connect 21 0 10 0;
#X connect 21 0 0 0;
#X coords 0 -1 1 1 105 97 2 353 246;
#X restore 167 508 pd cpu;
#X msg 163 278 voices 5;
#N canvas 874 153 546 389 set_loop 0;
#N canvas 1444 529 356 336 micro2midi 0;
#X obj 109 18 inlet;
#X obj 207 18 inlet micro;
#X obj 109 257 outlet;
#X obj 138 68 /;
#X obj 138 90 int;
#X obj 216 112 *;
#X floatatom 216 134 5 0 0 0 - - -, f 5;
#X obj 109 47 t f f;
#X obj 138 112 + 1;
#X obj 109 155 expr $f1 - $f2 + 1;
#X obj 109 199 pack f f;
#X connect 0 0 7 0;
#X connect 1 0 5 1;
#X connect 1 0 3 1;
#X connect 3 0 4 0;
#X connect 4 0 5 0;
#X connect 4 0 8 0;
#X connect 5 0 6 0;
#X connect 6 0 9 1;
#X connect 7 0 9 0;
#X connect 7 1 3 0;
#X connect 8 0 10 1;
#X connect 9 0 10 0;
#X connect 10 0 2 0;
#X restore 199 102 pd micro2midi;
#X msg 293 79 4;
#X floatatom 200 42 5 0 0 0 - - -, f 5;
#N canvas 1444 529 356 336 micro2midi 0;
#X obj 109 18 inlet;
#X obj 207 18 inlet micro;
#X obj 109 257 outlet;
#X obj 138 68 /;
#X obj 138 90 int;
#X obj 216 112 *;
#X floatatom 216 134 5 0 0 0 - - -, f 5;
#X obj 109 47 t f f;
#X obj 138 112 + 1;
#X obj 109 155 expr $f1 - $f2 + 1;
#X obj 109 199 pack f f;
#X connect 0 0 7 0;
#X connect 1 0 5 1;
#X connect 1 0 3 1;
#X connect 3 0 4 0;
#X connect 4 0 5 0;
#X connect 4 0 8 0;
#X connect 5 0 6 0;
#X connect 6 0 9 1;
#X connect 7 0 9 0;
#X connect 7 1 3 0;
#X connect 8 0 10 1;
#X connect 9 0 10 0;
#X connect 10 0 2 0;
#X restore 243 131 pd micro2midi;
#X msg 319 108 4;
#X obj 217 69 + 1;
#X msg 199 161 loop_start \$2 \$1 0;
#X msg 196 187 loop_end \$2 \$1 0;
#X obj 172 232 list prepend sequencer 0 player;
#X obj 169 275 list trim;
#X obj 169 328 outlet;
#X obj 365 56 loadbang;
#X connect 0 0 6 0;
#X connect 1 0 0 1;
#X connect 2 0 0 0;
#X connect 2 0 5 0;
#X connect 3 0 7 0;
#X connect 4 0 3 1;
#X connect 5 0 3 0;
#X connect 6 0 8 0;
#X connect 7 0 8 0;
#X connect 8 0 9 0;
#X connect 9 0 10 0;
#X connect 11 0 1 0;
#X connect 11 0 4 0;
#X coords 0 -1 1 1 73 29 1 195 31;
#X restore 44 55 pd set_loop;
#N canvas 929 241 250 418 presets 0;
#N canvas 1106 469 344 198 one_pre 0;
#X msg 196 86 example;
#X symbolatom 96 71 14 0 0 0 - - -, f 14;
#X msg 196 65 set \$1;
#X obj 96 123 outlet;
#X obj 215 23 inlet init;
#X obj 196 108 symbol;
#X obj 80 71 bng 16 250 50 0 empty empty empty 17 7 0 10 -262144 -1
-1;
#X msg 196 127 set \$1;
#X connect 0 0 5 0;
#X connect 1 0 2 0;
#X connect 1 0 3 0;
#X connect 2 0 0 0;
#X connect 4 0 0 0;
#X connect 5 0 7 0;
#X connect 6 0 1 0;
#X connect 7 0 1 0;
#X coords 0 -1 1 1 102 16 2 80 71;
#X restore 71 75 pd one_pre;
#N canvas 1106 469 344 198 one_pre 0;
#X msg 196 86 -;
#X symbolatom 96 71 14 0 0 0 - - -, f 14;
#X msg 196 65 set \$1;
#X obj 96 123 outlet;
#X obj 215 23 inlet init;
#X obj 196 108 symbol;
#X obj 80 71 bng 16 250 50 0 empty empty empty 17 7 0 10 -262144 -1
-1;
#X msg 196 130 set \$1;
#X connect 0 0 5 0;
#X connect 1 0 2 0;
#X connect 1 0 3 0;
#X connect 2 0 0 0;
#X connect 4 0 0 0;
#X connect 5 0 7 0;
#X connect 6 0 1 0;
#X connect 7 0 1 0;
#X coords 0 -1 1 1 102 16 2 80 71;
#X restore 71 93 pd one_pre;
#N canvas 1106 469 344 198 one_pre 0;
#X msg 196 86 -;
#X symbolatom 96 71 14 0 0 0 - - -, f 14;
#X msg 196 65 set \$1;
#X obj 96 123 outlet;
#X obj 215 23 inlet init;
#X obj 196 108 symbol;
#X obj 80 71 bng 16 250 50 0 empty empty empty 17 7 0 10 -262144 -1
-1;
#X msg 196 130 set \$1;
#X connect 0 0 5 0;
#X connect 1 0 2 0;
#X connect 1 0 3 0;
#X connect 2 0 0 0;
#X connect 4 0 0 0;
#X connect 5 0 7 0;
#X connect 6 0 1 0;
#X connect 7 0 1 0;
#X coords 0 -1 1 1 102 16 2 80 71;
#X restore 71 111 pd one_pre;
#N canvas 1106 469 344 198 one_pre 0;
#X msg 196 86 -;
#X symbolatom 96 71 14 0 0 0 - - -, f 14;
#X msg 196 65 set \$1;
#X obj 96 123 outlet;
#X obj 215 23 inlet init;
#X obj 196 108 symbol;
#X obj 80 71 bng 16 250 50 0 empty empty empty 17 7 0 10 -262144 -1
-1;
#X msg 196 130 set \$1;
#X connect 0 0 5 0;
#X connect 1 0 2 0;
#X connect 1 0 3 0;
#X connect 2 0 0 0;
#X connect 4 0 0 0;
#X connect 5 0 7 0;
#X connect 6 0 1 0;
#X connect 7 0 1 0;
#X coords 0 -1 1 1 102 16 2 80 71;
#X restore 71 129 pd one_pre;
#N canvas 1106 469 344 198 one_pre 0;
#X msg 196 86 -;
#X symbolatom 96 71 14 0 0 0 - - -, f 14;
#X msg 196 65 set \$1;
#X obj 96 123 outlet;
#X obj 215 23 inlet init;
#X obj 196 108 symbol;
#X obj 80 71 bng 16 250 50 0 empty empty empty 17 7 0 10 -262144 -1
-1;
#X msg 196 130 set \$1;
#X connect 0 0 5 0;
#X connect 1 0 2 0;
#X connect 1 0 3 0;
#X connect 2 0 0 0;
#X connect 4 0 0 0;
#X connect 5 0 7 0;
#X connect 6 0 1 0;
#X connect 7 0 1 0;
#X coords 0 -1 1 1 102 16 2 80 71;
#X restore 71 147 pd one_pre;
#N canvas 1106 469 344 198 one_pre 0;
#X msg 196 86 -;
#X symbolatom 96 71 14 0 0 0 - - -, f 14;
#X msg 196 65 set \$1;
#X obj 96 123 outlet;
#X obj 215 23 inlet init;
#X obj 196 108 symbol;
#X obj 80 71 bng 16 250 50 0 empty empty empty 17 7 0 10 -262144 -1
-1;
#X msg 196 130 set \$1;
#X connect 0 0 5 0;
#X connect 1 0 2 0;
#X connect 1 0 3 0;
#X connect 2 0 0 0;
#X connect 4 0 0 0;
#X connect 5 0 7 0;
#X connect 6 0 1 0;
#X connect 7 0 1 0;
#X coords 0 -1 1 1 102 16 2 80 71;
#X restore 71 165 pd one_pre;
#N canvas 1106 469 344 198 one_pre 0;
#X msg 196 86 -;
#X symbolatom 96 71 14 0 0 0 - - -, f 14;
#X msg 196 65 set \$1;
#X obj 96 123 outlet;
#X obj 215 23 inlet init;
#X obj 196 108 symbol;
#X obj 80 71 bng 16 250 50 0 empty empty empty 17 7 0 10 -262144 -1
-1;
#X msg 196 130 set \$1;
#X connect 0 0 5 0;
#X connect 1 0 2 0;
#X connect 1 0 3 0;
#X connect 2 0 0 0;
#X connect 4 0 0 0;
#X connect 5 0 7 0;
#X connect 6 0 1 0;
#X connect 7 0 1 0;
#X coords 0 -1 1 1 102 16 2 80 71;
#X restore 71 183 pd one_pre;
#N canvas 1106 469 344 198 one_pre 0;
#X msg 196 86 -;
#X symbolatom 96 71 14 0 0 0 - - -, f 14;
#X msg 196 65 set \$1;
#X obj 96 123 outlet;
#X obj 215 23 inlet init;
#X obj 196 108 symbol;
#X obj 80 71 bng 16 250 50 0 empty empty empty 17 7 0 10 -262144 -1
-1;
#X msg 196 130 set \$1;
#X connect 0 0 5 0;
#X connect 1 0 2 0;
#X connect 1 0 3 0;
#X connect 2 0 0 0;
#X connect 4 0 0 0;
#X connect 5 0 7 0;
#X connect 6 0 1 0;
#X connect 7 0 1 0;
#X coords 0 -1 1 1 102 16 2 80 71;
#X restore 71 201 pd one_pre;
#N canvas 1106 469 344 198 one_pre 0;
#X msg 196 86 -;
#X symbolatom 96 71 14 0 0 0 - - -, f 14;
#X msg 196 65 set \$1;
#X obj 96 123 outlet;
#X obj 215 23 inlet init;
#X obj 196 108 symbol;
#X obj 80 71 bng 16 250 50 0 empty empty empty 17 7 0 10 -262144 -1
-1;
#X msg 196 130 set \$1;
#X connect 0 0 5 0;
#X connect 1 0 2 0;
#X connect 1 0 3 0;
#X connect 2 0 0 0;
#X connect 4 0 0 0;
#X connect 5 0 7 0;
#X connect 6 0 1 0;
#X connect 7 0 1 0;
#X coords 0 -1 1 1 102 16 2 80 71;
#X restore 71 219 pd one_pre;
#X obj 72 293 t b a;
#X obj 71 242 list prepend prename;
#X obj 71 264 list trim;
#X obj 72 368 outlet;
#X msg 72 324 load;
#X obj 71 37 bng 15 250 50 0 empty empty empty 17 7 0 10 -262144 -1
-1;
#X obj 74 14 loadbang;
#X connect 0 0 10 0;
#X connect 1 0 10 0;
#X connect 2 0 10 0;
#X connect 3 0 10 0;
#X connect 4 0 10 0;
#X connect 5 0 10 0;
#X connect 6 0 10 0;
#X connect 7 0 10 0;
#X connect 8 0 10 0;
#X connect 9 0 13 0;
#X connect 9 1 12 0;
#X connect 10 0 11 0;
#X connect 11 0 9 0;
#X connect 13 0 12 0;
#X connect 14 0 0 0;
#X connect 14 0 8 0;
#X connect 14 0 7 0;
#X connect 14 0 6 0;
#X connect 14 0 5 0;
#X connect 14 0 4 0;
#X connect 14 0 3 0;
#X connect 14 0 2 0;
#X connect 14 0 1 0;
#X connect 15 0 14 0;
#X coords 0 -1 1 1 108 166 2 68 72;
#X restore 175 15 pd presets;
#X msg 326 234 \; pd-open_gui vis 1;
#X text 326 207 1) set paths to nw.js and js folder;
#X text 326 274 2) press gui to open first editor;
#X text 326 301 3) set tcp to active;
#X text 326 328 4) press init;
#X text 326 355 5) load example;
#X text 326 409 7) use play buttons from the editor;
#X text 326 382 6) start dsp / set volume;
#X obj 53 186 sequencer;
#X connect 0 0 20 0;
#X connect 2 0 3 0;
#X connect 3 0 5 0;
#X connect 4 0 9 0;
#X connect 4 0 6 0;
#X connect 5 0 1 0;
#X connect 5 0 1 1;
#X connect 6 0 3 1;
#X connect 7 0 2 0;
#X connect 9 0 3 1;
#X connect 10 0 20 0;
#X connect 11 0 0 0;
#X connect 20 0 7 0;
