#N canvas 31 241 627 672 10;
#N canvas 942 114 874 759 manager 0;
#X msg 214 417 init;
#X msg 462 417 save;
#X msg 248 343 load;
#X msg 346 417 clear;
#X obj 207 177 bng 13 250 50 0 empty empty l 3 5 0 10 -135137 -1 -1
;
#X obj 229 177 bng 13 250 50 0 empty empty s 3 5 0 10 -260129 -1 -1
;
#X obj 279 198 bng 13 250 50 0 empty empty init 17 7 0 10 -262144 -1
-1;
#X obj 331 226 bng 15 250 50 0 empty empty open\ gui -14 -9 0 10 -262144
-1 -1;
#X msg 386 417 pre_name \$1;
#X symbolatom 207 196 10 0 0 0 - - -, f 10;
#X obj 365 479 t a;
#X obj 250 134 symbol;
#X obj 205 59 inlet load;
#X obj 205 106 route init prename load;
#X msg 312 417 load;
#X msg 248 417 load_stop;
#X obj 248 454 t a;
#X obj 248 502 list prepend gui;
#X obj 365 502 list prepend memory;
#X obj 331 198 tgl 13 0 empty empty tcp 15 6 0 10 -262144 -1 -1 1 1
;
#X obj 208 228 hradio 14 0 1 8 empty empty sequencer\ nr 0 -8 0 10
-262144 -1 -1 0;
#X obj 248 628 list trim;
#N canvas 1080 368 575 604 set_sequencers 0;
#X obj 72 69 cnv 15 446 334 empty empty empty 20 12 0 14 -233017 -66577
0;
#N canvas 520 289 725 464 set_one_seq 0;
#X obj 145 131 nbx 3 14 1 1e+037 0 1 empty empty bars 0 -8 0 10 -262144
-1 -1 38 256 0;
#X obj 185 131 nbx 2 14 1 31 0 1 empty empty micro 0 -8 0 10 -262144
-1 -1 4 256 0;
#X obj 222 131 nbx 2 14 1 100 0 1 empty empty rows 0 -8 0 10 -262144
-1 -1 47 256 0;
#X obj 260 131 nbx 5 14 100 10000 0 1 empty empty canvas_w 0 -8 0 10
-262144 -1 -1 5000 256 0;
#X obj 316 131 nbx 5 14 10 10000 0 1 empty empty canvas_h 0 -8 0 10
-262144 -1 -1 350 256 0;
#X obj 381 131 nbx 5 14 100 10000 0 1 empty empty window_w 0 -8 0 10
-262144 -1 -1 1000 256 0;
#X obj 439 131 nbx 5 14 20 2000 0 1 empty empty window_h 0 -8 0 10
-262144 -1 -1 400 256 0;
#X msg 188 183 amount_bars \$1;
#X msg 243 233 amount_rows \$1;
#X msg 222 207 micro \$1;
#X msg 281 258 win_size_w \$1;
#X msg 343 225 window_size_w \$1;
#X msg 375 256 window_size_h \$1;
#X msg 313 190 win_size_h \$1;
#X obj 296 375 list prepend;
#X obj 296 397 list trim;
#X obj 110 131 nbx 2 14 -1e+037 1e+037 0 1 empty empty nr 0 -8 0 10
-262144 -1 -1 0 256 0;
#X obj 153 39 inlet trigger;
#X obj 153 61 t b b;
#X obj 296 422 outlet;
#X obj 190 159 f;
#X obj 221 159 f;
#X obj 252 159 f;
#X obj 283 159 f;
#X obj 314 159 f;
#X obj 345 159 f;
#X obj 376 159 f;
#X connect 0 0 20 1;
#X connect 1 0 21 1;
#X connect 2 0 22 1;
#X connect 3 0 23 1;
#X connect 4 0 24 1;
#X connect 5 0 25 1;
#X connect 6 0 26 1;
#X connect 7 0 14 0;
#X connect 8 0 14 0;
#X connect 9 0 14 0;
#X connect 10 0 14 0;
#X connect 11 0 14 0;
#X connect 12 0 14 0;
#X connect 13 0 14 0;
#X connect 14 0 15 0;
#X connect 15 0 19 0;
#X connect 16 0 14 1;
#X connect 17 0 18 0;
#X connect 18 0 20 0;
#X connect 18 0 26 0;
#X connect 18 0 25 0;
#X connect 18 0 24 0;
#X connect 18 0 23 0;
#X connect 18 0 22 0;
#X connect 18 0 21 0;
#X connect 18 1 16 0;
#X connect 20 0 7 0;
#X connect 21 0 9 0;
#X connect 22 0 8 0;
#X connect 23 0 10 0;
#X connect 24 0 13 0;
#X connect 25 0 11 0;
#X connect 26 0 12 0;
#X coords 0 -1 1 1 385 27 2 109 118;
#X restore 93 86 pd set_one_seq;
#X obj 93 418 t a;
#X obj 93 39 bng 15 250 50 0 empty empty empty 17 7 0 10 -262144 -1
-1;
#X obj 93 531 outlet;
#N canvas 520 289 725 464 set_one_seq 0;
#X obj 145 131 nbx 3 14 1 1e+037 0 1 empty empty bars 0 -8 0 10 -262144
-1 -1 8 256 0;
#X obj 185 131 nbx 2 14 1 31 0 1 empty empty micro 0 -8 0 10 -262144
-1 -1 4 256 0;
#X obj 222 131 nbx 2 14 1 100 0 1 empty empty rows 0 -8 0 10 -262144
-1 -1 1 256 0;
#X obj 260 131 nbx 5 14 100 10000 0 1 empty empty canvas_w 0 -8 0 10
-262144 -1 -1 1000 256 0;
#X obj 316 131 nbx 5 14 10 10000 0 1 empty empty canvas_h 0 -8 0 10
-262144 -1 -1 20 256 0;
#X obj 381 131 nbx 5 14 100 10000 0 1 empty empty window_w 0 -8 0 10
-262144 -1 -1 800 256 0;
#X obj 439 131 nbx 5 14 20 2000 0 1 empty empty window_h 0 -8 0 10
-262144 -1 -1 200 256 0;
#X msg 188 183 amount_bars \$1;
#X msg 243 233 amount_rows \$1;
#X msg 222 207 micro \$1;
#X msg 281 258 win_size_w \$1;
#X msg 343 225 window_size_w \$1;
#X msg 375 256 window_size_h \$1;
#X msg 313 190 win_size_h \$1;
#X obj 296 375 list prepend;
#X obj 296 397 list trim;
#X obj 110 131 nbx 2 14 -1e+037 1e+037 0 1 empty empty nr 0 -8 0 10
-262144 -1 -1 1 256 0;
#X obj 153 39 inlet trigger;
#X obj 153 61 t b b;
#X obj 296 422 outlet;
#X obj 190 159 f;
#X obj 221 159 f;
#X obj 252 159 f;
#X obj 283 159 f;
#X obj 314 159 f;
#X obj 345 159 f;
#X obj 376 159 f;
#X connect 0 0 20 1;
#X connect 1 0 21 1;
#X connect 2 0 22 1;
#X connect 3 0 23 1;
#X connect 4 0 24 1;
#X connect 5 0 25 1;
#X connect 6 0 26 1;
#X connect 7 0 14 0;
#X connect 8 0 14 0;
#X connect 9 0 14 0;
#X connect 10 0 14 0;
#X connect 11 0 14 0;
#X connect 12 0 14 0;
#X connect 13 0 14 0;
#X connect 14 0 15 0;
#X connect 15 0 19 0;
#X connect 16 0 14 1;
#X connect 17 0 18 0;
#X connect 18 0 20 0;
#X connect 18 0 26 0;
#X connect 18 0 25 0;
#X connect 18 0 24 0;
#X connect 18 0 23 0;
#X connect 18 0 22 0;
#X connect 18 0 21 0;
#X connect 18 1 16 0;
#X connect 20 0 7 0;
#X connect 21 0 9 0;
#X connect 22 0 8 0;
#X connect 23 0 10 0;
#X connect 24 0 13 0;
#X connect 25 0 11 0;
#X connect 26 0 12 0;
#X coords 0 -1 1 1 385 27 2 109 118;
#X restore 93 121 pd set_one_seq;
#N canvas 520 289 725 464 set_one_seq 0;
#X obj 145 131 nbx 3 14 1 1e+037 0 1 empty empty bars 0 -8 0 10 -262144
-1 -1 38 256 0;
#X obj 185 131 nbx 2 14 1 31 0 1 empty empty micro 0 -8 0 10 -262144
-1 -1 4 256 0;
#X obj 222 131 nbx 2 14 1 100 0 1 empty empty rows 0 -8 0 10 -262144
-1 -1 48 256 0;
#X obj 260 131 nbx 5 14 100 10000 0 1 empty empty canvas_w 0 -8 0 10
-262144 -1 -1 5000 256 0;
#X obj 316 131 nbx 5 14 100 10000 0 1 empty empty canvas_h 0 -8 0 10
-262144 -1 -1 450 256 0;
#X obj 381 131 nbx 5 14 100 10000 0 1 empty empty window_w 0 -8 0 10
-262144 -1 -1 650 256 0;
#X obj 439 131 nbx 5 14 100 2000 0 1 empty empty window_h 0 -8 0 10
-262144 -1 -1 300 256 0;
#X msg 188 183 amount_bars \$1;
#X msg 243 233 amount_rows \$1;
#X msg 222 207 micro \$1;
#X msg 281 258 win_size_w \$1;
#X msg 343 225 window_size_w \$1;
#X msg 375 256 window_size_h \$1;
#X msg 313 190 win_size_h \$1;
#X obj 296 375 list prepend;
#X obj 296 397 list trim;
#X obj 110 131 nbx 2 14 -1e+037 1e+037 0 1 empty empty nr 0 -8 0 10
-262144 -1 -1 2 256 0;
#X obj 153 39 inlet trigger;
#X obj 153 61 t b b;
#X obj 296 422 outlet;
#X obj 190 159 f;
#X obj 221 159 f;
#X obj 252 159 f;
#X obj 283 159 f;
#X obj 314 159 f;
#X obj 345 159 f;
#X obj 376 159 f;
#X connect 0 0 20 1;
#X connect 1 0 21 1;
#X connect 2 0 22 1;
#X connect 3 0 23 1;
#X connect 4 0 24 1;
#X connect 5 0 25 1;
#X connect 6 0 26 1;
#X connect 7 0 14 0;
#X connect 8 0 14 0;
#X connect 9 0 14 0;
#X connect 10 0 14 0;
#X connect 11 0 14 0;
#X connect 12 0 14 0;
#X connect 13 0 14 0;
#X connect 14 0 15 0;
#X connect 15 0 19 0;
#X connect 16 0 14 1;
#X connect 17 0 18 0;
#X connect 18 0 20 0;
#X connect 18 0 26 0;
#X connect 18 0 25 0;
#X connect 18 0 24 0;
#X connect 18 0 23 0;
#X connect 18 0 22 0;
#X connect 18 0 21 0;
#X connect 18 1 16 0;
#X connect 20 0 7 0;
#X connect 21 0 9 0;
#X connect 22 0 8 0;
#X connect 23 0 10 0;
#X connect 24 0 13 0;
#X connect 25 0 11 0;
#X connect 26 0 12 0;
#X coords 0 -1 1 1 385 27 2 109 118;
#X restore 93 156 pd set_one_seq;
#N canvas 520 289 725 464 set_one_seq 0;
#X obj 145 131 nbx 3 14 1 1e+037 0 1 empty empty bars 0 -8 0 10 -262144
-1 -1 4 256 0;
#X obj 185 131 nbx 2 14 1 31 0 1 empty empty micro 0 -8 0 10 -262144
-1 -1 4 256 0;
#X obj 222 131 nbx 2 14 1 100 0 1 empty empty rows 0 -8 0 10 -262144
-1 -1 48 256 0;
#X obj 260 131 nbx 5 14 100 10000 0 1 empty empty canvas_w 0 -8 0 10
-262144 -1 -1 5000 256 0;
#X obj 316 131 nbx 5 14 100 10000 0 1 empty empty canvas_h 0 -8 0 10
-262144 -1 -1 450 256 0;
#X obj 381 131 nbx 5 14 100 10000 0 1 empty empty window_w 0 -8 0 10
-262144 -1 -1 650 256 0;
#X obj 439 131 nbx 5 14 100 2000 0 1 empty empty window_h 0 -8 0 10
-262144 -1 -1 300 256 0;
#X msg 188 183 amount_bars \$1;
#X msg 243 233 amount_rows \$1;
#X msg 222 207 micro \$1;
#X msg 281 258 win_size_w \$1;
#X msg 343 225 window_size_w \$1;
#X msg 375 256 window_size_h \$1;
#X msg 313 190 win_size_h \$1;
#X obj 296 375 list prepend;
#X obj 296 397 list trim;
#X obj 110 131 nbx 2 14 -1e+037 1e+037 0 1 empty empty nr 0 -8 0 10
-262144 -1 -1 3 256 0;
#X obj 153 39 inlet trigger;
#X obj 153 61 t b b;
#X obj 296 422 outlet;
#X obj 190 159 f;
#X obj 221 159 f;
#X obj 252 159 f;
#X obj 283 159 f;
#X obj 314 159 f;
#X obj 345 159 f;
#X obj 376 159 f;
#X connect 0 0 20 1;
#X connect 1 0 21 1;
#X connect 2 0 22 1;
#X connect 3 0 23 1;
#X connect 4 0 24 1;
#X connect 5 0 25 1;
#X connect 6 0 26 1;
#X connect 7 0 14 0;
#X connect 8 0 14 0;
#X connect 9 0 14 0;
#X connect 10 0 14 0;
#X connect 11 0 14 0;
#X connect 12 0 14 0;
#X connect 13 0 14 0;
#X connect 14 0 15 0;
#X connect 15 0 19 0;
#X connect 16 0 14 1;
#X connect 17 0 18 0;
#X connect 18 0 20 0;
#X connect 18 0 26 0;
#X connect 18 0 25 0;
#X connect 18 0 24 0;
#X connect 18 0 23 0;
#X connect 18 0 22 0;
#X connect 18 0 21 0;
#X connect 18 1 16 0;
#X connect 20 0 7 0;
#X connect 21 0 9 0;
#X connect 22 0 8 0;
#X connect 23 0 10 0;
#X connect 24 0 13 0;
#X connect 25 0 11 0;
#X connect 26 0 12 0;
#X coords 0 -1 1 1 385 27 2 109 118;
#X restore 93 191 pd set_one_seq;
#N canvas 520 289 725 464 set_one_seq 0;
#X obj 145 131 nbx 3 14 1 1e+037 0 1 empty empty bars 0 -8 0 10 -262144
-1 -1 38 256 0;
#X obj 185 131 nbx 2 14 1 31 0 1 empty empty micro 0 -8 0 10 -262144
-1 -1 4 256 0;
#X obj 222 131 nbx 2 14 1 100 0 1 empty empty rows 0 -8 0 10 -262144
-1 -1 48 256 0;
#X obj 260 131 nbx 5 14 100 10000 0 1 empty empty canvas_w 0 -8 0 10
-262144 -1 -1 5000 256 0;
#X obj 316 131 nbx 5 14 100 10000 0 1 empty empty canvas_h 0 -8 0 10
-262144 -1 -1 450 256 0;
#X obj 381 131 nbx 5 14 100 10000 0 1 empty empty window_w 0 -8 0 10
-262144 -1 -1 650 256 0;
#X obj 439 131 nbx 5 14 100 2000 0 1 empty empty window_h 0 -8 0 10
-262144 -1 -1 300 256 0;
#X msg 188 183 amount_bars \$1;
#X msg 243 233 amount_rows \$1;
#X msg 222 207 micro \$1;
#X msg 281 258 win_size_w \$1;
#X msg 343 225 window_size_w \$1;
#X msg 375 256 window_size_h \$1;
#X msg 313 190 win_size_h \$1;
#X obj 296 375 list prepend;
#X obj 296 397 list trim;
#X obj 110 131 nbx 2 14 -1e+037 1e+037 0 1 empty empty nr 0 -8 0 10
-262144 -1 -1 4 256 0;
#X obj 153 39 inlet trigger;
#X obj 153 61 t b b;
#X obj 296 422 outlet;
#X obj 190 159 f;
#X obj 221 159 f;
#X obj 252 159 f;
#X obj 283 159 f;
#X obj 314 159 f;
#X obj 345 159 f;
#X obj 376 159 f;
#X connect 0 0 20 1;
#X connect 1 0 21 1;
#X connect 2 0 22 1;
#X connect 3 0 23 1;
#X connect 4 0 24 1;
#X connect 5 0 25 1;
#X connect 6 0 26 1;
#X connect 7 0 14 0;
#X connect 8 0 14 0;
#X connect 9 0 14 0;
#X connect 10 0 14 0;
#X connect 11 0 14 0;
#X connect 12 0 14 0;
#X connect 13 0 14 0;
#X connect 14 0 15 0;
#X connect 15 0 19 0;
#X connect 16 0 14 1;
#X connect 17 0 18 0;
#X connect 18 0 20 0;
#X connect 18 0 26 0;
#X connect 18 0 25 0;
#X connect 18 0 24 0;
#X connect 18 0 23 0;
#X connect 18 0 22 0;
#X connect 18 0 21 0;
#X connect 18 1 16 0;
#X connect 20 0 7 0;
#X connect 21 0 9 0;
#X connect 22 0 8 0;
#X connect 23 0 10 0;
#X connect 24 0 13 0;
#X connect 25 0 11 0;
#X connect 26 0 12 0;
#X coords 0 -1 1 1 385 27 2 109 118;
#X restore 93 226 pd set_one_seq;
#N canvas 520 289 725 464 set_one_seq 0;
#X obj 145 131 nbx 3 14 1 1e+037 0 1 empty empty bars 0 -8 0 10 -262144
-1 -1 38 256 0;
#X obj 185 131 nbx 2 14 1 31 0 1 empty empty micro 0 -8 0 10 -262144
-1 -1 4 256 0;
#X obj 222 131 nbx 2 14 1 100 0 1 empty empty rows 0 -8 0 10 -262144
-1 -1 48 256 0;
#X obj 260 131 nbx 5 14 100 10000 0 1 empty empty canvas_w 0 -8 0 10
-262144 -1 -1 3200 256 0;
#X obj 316 131 nbx 5 14 100 10000 0 1 empty empty canvas_h 0 -8 0 10
-262144 -1 -1 450 256 0;
#X obj 381 131 nbx 5 14 100 10000 0 1 empty empty window_w 0 -8 0 10
-262144 -1 -1 650 256 0;
#X obj 439 131 nbx 5 14 100 2000 0 1 empty empty window_h 0 -8 0 10
-262144 -1 -1 300 256 0;
#X msg 188 183 amount_bars \$1;
#X msg 243 233 amount_rows \$1;
#X msg 222 207 micro \$1;
#X msg 281 258 win_size_w \$1;
#X msg 343 225 window_size_w \$1;
#X msg 375 256 window_size_h \$1;
#X msg 313 190 win_size_h \$1;
#X obj 296 375 list prepend;
#X obj 296 397 list trim;
#X obj 110 131 nbx 2 14 -1e+037 1e+037 0 1 empty empty nr 0 -8 0 10
-262144 -1 -1 5 256 0;
#X obj 153 39 inlet trigger;
#X obj 153 61 t b b;
#X obj 296 422 outlet;
#X obj 190 159 f;
#X obj 221 159 f;
#X obj 252 159 f;
#X obj 283 159 f;
#X obj 314 159 f;
#X obj 345 159 f;
#X obj 376 159 f;
#X connect 0 0 20 1;
#X connect 1 0 21 1;
#X connect 2 0 22 1;
#X connect 3 0 23 1;
#X connect 4 0 24 1;
#X connect 5 0 25 1;
#X connect 6 0 26 1;
#X connect 7 0 14 0;
#X connect 8 0 14 0;
#X connect 9 0 14 0;
#X connect 10 0 14 0;
#X connect 11 0 14 0;
#X connect 12 0 14 0;
#X connect 13 0 14 0;
#X connect 14 0 15 0;
#X connect 15 0 19 0;
#X connect 16 0 14 1;
#X connect 17 0 18 0;
#X connect 18 0 20 0;
#X connect 18 0 26 0;
#X connect 18 0 25 0;
#X connect 18 0 24 0;
#X connect 18 0 23 0;
#X connect 18 0 22 0;
#X connect 18 0 21 0;
#X connect 18 1 16 0;
#X connect 20 0 7 0;
#X connect 21 0 9 0;
#X connect 22 0 8 0;
#X connect 23 0 10 0;
#X connect 24 0 13 0;
#X connect 25 0 11 0;
#X connect 26 0 12 0;
#X coords 0 -1 1 1 385 27 2 109 118;
#X restore 93 261 pd set_one_seq;
#N canvas 520 289 725 464 set_one_seq 0;
#X obj 145 131 nbx 3 14 1 1e+037 0 1 empty empty bars 0 -8 0 10 -262144
-1 -1 38 256 0;
#X obj 185 131 nbx 2 14 1 31 0 1 empty empty micro 0 -8 0 10 -262144
-1 -1 4 256 0;
#X obj 222 131 nbx 2 14 1 100 0 1 empty empty rows 0 -8 0 10 -262144
-1 -1 48 256 0;
#X obj 260 131 nbx 5 14 100 10000 0 1 empty empty canvas_w 0 -8 0 10
-262144 -1 -1 3200 256 0;
#X obj 316 131 nbx 5 14 100 10000 0 1 empty empty canvas_h 0 -8 0 10
-262144 -1 -1 450 256 0;
#X obj 381 131 nbx 5 14 100 10000 0 1 empty empty window_w 0 -8 0 10
-262144 -1 -1 650 256 0;
#X obj 439 131 nbx 5 14 100 2000 0 1 empty empty window_h 0 -8 0 10
-262144 -1 -1 300 256 0;
#X msg 188 183 amount_bars \$1;
#X msg 243 233 amount_rows \$1;
#X msg 222 207 micro \$1;
#X msg 281 258 win_size_w \$1;
#X msg 343 225 window_size_w \$1;
#X msg 375 256 window_size_h \$1;
#X msg 313 190 win_size_h \$1;
#X obj 296 375 list prepend;
#X obj 296 397 list trim;
#X obj 110 131 nbx 2 14 -1e+037 1e+037 0 1 empty empty nr 0 -8 0 10
-262144 -1 -1 6 256 0;
#X obj 153 39 inlet trigger;
#X obj 153 61 t b b;
#X obj 296 422 outlet;
#X obj 190 159 f;
#X obj 221 159 f;
#X obj 252 159 f;
#X obj 283 159 f;
#X obj 314 159 f;
#X obj 345 159 f;
#X obj 376 159 f;
#X connect 0 0 20 1;
#X connect 1 0 21 1;
#X connect 2 0 22 1;
#X connect 3 0 23 1;
#X connect 4 0 24 1;
#X connect 5 0 25 1;
#X connect 6 0 26 1;
#X connect 7 0 14 0;
#X connect 8 0 14 0;
#X connect 9 0 14 0;
#X connect 10 0 14 0;
#X connect 11 0 14 0;
#X connect 12 0 14 0;
#X connect 13 0 14 0;
#X connect 14 0 15 0;
#X connect 15 0 19 0;
#X connect 16 0 14 1;
#X connect 17 0 18 0;
#X connect 18 0 20 0;
#X connect 18 0 26 0;
#X connect 18 0 25 0;
#X connect 18 0 24 0;
#X connect 18 0 23 0;
#X connect 18 0 22 0;
#X connect 18 0 21 0;
#X connect 18 1 16 0;
#X connect 20 0 7 0;
#X connect 21 0 9 0;
#X connect 22 0 8 0;
#X connect 23 0 10 0;
#X connect 24 0 13 0;
#X connect 25 0 11 0;
#X connect 26 0 12 0;
#X coords 0 -1 1 1 385 27 2 109 118;
#X restore 93 296 pd set_one_seq;
#N canvas 520 289 725 464 set_one_seq 0;
#X obj 145 131 nbx 3 14 1 1e+037 0 1 empty empty bars 0 -8 0 10 -262144
-1 -1 32 256 0;
#X obj 185 131 nbx 2 14 1 31 0 1 empty empty micro 0 -8 0 10 -262144
-1 -1 4 256 0;
#X obj 222 131 nbx 2 14 1 100 0 1 empty empty rows 0 -8 0 10 -262144
-1 -1 48 256 0;
#X obj 260 131 nbx 5 14 100 10000 0 1 empty empty canvas_w 0 -8 0 10
-262144 -1 -1 3200 256 0;
#X obj 316 131 nbx 5 14 100 10000 0 1 empty empty canvas_h 0 -8 0 10
-262144 -1 -1 450 256 0;
#X obj 381 131 nbx 5 14 100 10000 0 1 empty empty window_w 0 -8 0 10
-262144 -1 -1 650 256 0;
#X obj 439 131 nbx 5 14 100 2000 0 1 empty empty window_h 0 -8 0 10
-262144 -1 -1 300 256 0;
#X msg 188 183 amount_bars \$1;
#X msg 243 233 amount_rows \$1;
#X msg 222 207 micro \$1;
#X msg 281 258 win_size_w \$1;
#X msg 343 225 window_size_w \$1;
#X msg 375 256 window_size_h \$1;
#X msg 313 190 win_size_h \$1;
#X obj 296 375 list prepend;
#X obj 296 397 list trim;
#X obj 110 131 nbx 2 14 -1e+037 1e+037 0 1 empty empty nr 0 -8 0 10
-262144 -1 -1 7 256 0;
#X obj 153 39 inlet trigger;
#X obj 153 61 t b b;
#X obj 296 422 outlet;
#X obj 190 159 f;
#X obj 221 159 f;
#X obj 252 159 f;
#X obj 283 159 f;
#X obj 314 159 f;
#X obj 345 159 f;
#X obj 376 159 f;
#X connect 0 0 20 1;
#X connect 1 0 21 1;
#X connect 2 0 22 1;
#X connect 3 0 23 1;
#X connect 4 0 24 1;
#X connect 5 0 25 1;
#X connect 6 0 26 1;
#X connect 7 0 14 0;
#X connect 8 0 14 0;
#X connect 9 0 14 0;
#X connect 10 0 14 0;
#X connect 11 0 14 0;
#X connect 12 0 14 0;
#X connect 13 0 14 0;
#X connect 14 0 15 0;
#X connect 15 0 19 0;
#X connect 16 0 14 1;
#X connect 17 0 18 0;
#X connect 18 0 20 0;
#X connect 18 0 26 0;
#X connect 18 0 25 0;
#X connect 18 0 24 0;
#X connect 18 0 23 0;
#X connect 18 0 22 0;
#X connect 18 0 21 0;
#X connect 18 1 16 0;
#X connect 20 0 7 0;
#X connect 21 0 9 0;
#X connect 22 0 8 0;
#X connect 23 0 10 0;
#X connect 24 0 13 0;
#X connect 25 0 11 0;
#X connect 26 0 12 0;
#X coords 0 -1 1 1 385 27 2 109 118;
#X restore 93 331 pd set_one_seq;
#X obj 93 12 inlet;
#X obj 93 448 list split 1;
#X obj 93 503 list append;
#X obj 127 474 list prepend settings;
#X connect 1 0 2 0;
#X connect 2 0 13 0;
#X connect 3 0 1 0;
#X connect 3 0 11 0;
#X connect 3 0 10 0;
#X connect 3 0 9 0;
#X connect 3 0 8 0;
#X connect 3 0 7 0;
#X connect 3 0 6 0;
#X connect 3 0 5 0;
#X connect 5 0 2 0;
#X connect 6 0 2 0;
#X connect 7 0 2 0;
#X connect 8 0 2 0;
#X connect 9 0 2 0;
#X connect 10 0 2 0;
#X connect 11 0 2 0;
#X connect 12 0 3 0;
#X connect 13 0 14 0;
#X connect 13 1 15 0;
#X connect 14 0 4 0;
#X connect 15 0 14 1;
#X restore 66 374 pd set_sequencers;
#X obj 495 382 loadbang;
#X obj 248 562 list prepend;
#X msg 496 417 player tempo 76;
#N canvas 502 154 546 489 open_gui 0;
#X obj 88 26 inlet trigger;
#X obj 189 27 inlet seq_nr;
#X obj 88 132 f;
#X obj 347 393 sys_gui;
#X msg 347 333 exec C:/Users/Homer/Desktop/new_sequenzer/lua/nwjs-sdk/nw.exe
\$1 &, f 22;
#X msg 89 318 start "" C:/Users/xgr/Desktop/Programme/nwjs-sdk/nw.exe
C:/Users/xgr/Dropbox/new_sequenzer/js \$1, f 22;
#X obj 88 429 system;
#X obj 76 156 cnv 15 384 88 empty empty empty 20 12 0 14 -258049 -66577
0;
#X obj 88 279 system;
#X msg 88 172 start "" C:/Users/Homer/Desktop/new_sequenzer/lua/nwjs-sdk/nw.exe
G:/Dropbox/new_sequenzer/js \$1;
#X text 183 87 replace my paths with yours;
#X text 183 109 first path is to nw.exe;
#X text 183 131 seceond path to js folder inside my patch;
#X text 347 312 vanilla commands/not used;
#X connect 0 0 2 0;
#X connect 1 0 2 1;
#X connect 2 0 9 0;
#X connect 4 0 3 0;
#X connect 5 0 6 0;
#X connect 9 0 8 0;
#X restore 331 261 pd open_gui;
#X obj 279 174 bng 13 250 50 0 empty empty gui_settings 19 4 0 10 -262144
-1 -1;
#X msg 67 329 \; pd-set_sequencers vis 1;
#X obj 672 666 outlet tcp;
#X obj 248 669 outlet sequencer messages;
#X msg 672 416 tcp \$1;
#X obj 248 365 t b a b b;
#X connect 0 0 24 0;
#X connect 1 0 10 0;
#X connect 2 0 32 0;
#X connect 3 0 10 0;
#X connect 3 0 16 0;
#X connect 4 0 2 0;
#X connect 5 0 1 0;
#X connect 6 0 0 0;
#X connect 6 0 22 0;
#X connect 6 0 25 0;
#X connect 7 0 26 0;
#X connect 8 0 10 0;
#X connect 9 0 8 0;
#X connect 10 0 18 0;
#X connect 11 0 9 0;
#X connect 12 0 13 0;
#X connect 13 0 6 0;
#X connect 13 1 11 0;
#X connect 13 2 4 0;
#X connect 14 0 16 0;
#X connect 15 0 16 0;
#X connect 16 0 17 0;
#X connect 17 0 24 0;
#X connect 18 0 24 0;
#X connect 19 0 31 0;
#X connect 20 0 24 1;
#X connect 20 0 26 1;
#X connect 21 0 30 0;
#X connect 22 0 21 0;
#X connect 23 0 25 0;
#X connect 24 0 21 0;
#X connect 25 0 24 0;
#X connect 27 0 28 0;
#X connect 31 0 29 0;
#X connect 32 0 15 0;
#X connect 32 1 10 0;
#X connect 32 2 14 0;
#X connect 32 3 3 0;
#X coords 0 -1 1 1 173 90 1 202 155;
#X restore 23 36 pd manager;
#X obj 23 624 tools/pd_outlet;
#N canvas 1308 249 546 451 val2midi 0;
#X obj 89 83 t a a;
#X msg 89 151 \$1;
#X obj 89 172 +;
#X floatatom 304 78 5 0 100 0 midi+ - -, f 5;
#X msg 134 190 \$3;
#X obj 89 234 pack f f;
#X obj 89 294 t a;
#X obj 87 24 inlet;
#X obj 89 321 outlet;
#X obj 383 54 loadbang;
#X msg 256 117 \$1 \$2;
#X obj 256 201 pipe;
#X obj 309 240 mtof;
#X floatatom 309 261 7 0 0 0 - - -, f 7;
#X obj 255 223 +;
#X obj 255 286 pack f 0;
#X obj 256 139 unpack f f;
#X floatatom 323 199 8 0 0 0 - - -, f 8;
#X obj 290 172 - 2;
#X msg 383 76 41;
#X obj 88 47 route lowest_note stop;
#X connect 0 0 1 0;
#X connect 0 1 4 0;
#X connect 0 1 10 0;
#X connect 1 0 2 0;
#X connect 2 0 5 0;
#X connect 3 0 2 1;
#X connect 3 0 14 1;
#X connect 4 0 5 1;
#X connect 5 0 6 0;
#X connect 6 0 8 0;
#X connect 7 0 20 0;
#X connect 9 0 19 0;
#X connect 10 0 16 0;
#X connect 11 0 14 0;
#X connect 12 0 13 0;
#X connect 14 0 12 0;
#X connect 14 0 15 0;
#X connect 15 0 6 0;
#X connect 16 0 11 0;
#X connect 16 1 18 0;
#X connect 18 0 11 1;
#X connect 18 0 17 0;
#X connect 19 0 3 0;
#X connect 20 0 3 0;
#X connect 20 2 0 0;
#X coords 0 -1 1 1 83 39 1 259 58;
#X restore 23 260 pd val2midi;
#X obj 23 303 instr/tri_ops_v2/tri_ops_v2;
#X obj 134 267 loadbang;
#N canvas 790 95 917 552 reverb 0;
#X obj 518 224 cnv 15 96 103 empty empty empty 20 12 0 14 -199729 -66577
0;
#X obj 186 236 rev3~ 112 74 3000 80;
#X obj 523 39 inlet;
#X obj 523 61 route lvl live cross damp on;
#X obj 655 98 sel 0 1;
#X obj 655 120 del 20;
#X msg 655 142 0;
#X obj 647 209 switch~;
#X msg 688 140 1;
#X msg 403 105 74;
#X msg 337 105 80;
#X msg 367 105 3000;
#X obj 337 48 loadbang;
#X obj 337 70 bng 15 250 50 0 empty empty empty 17 7 0 10 -262144 -1
-1;
#X obj 84 27 inlet~;
#X obj 602 225 tgl 10 1 empty empty empty 17 7 0 10 -262144 -1 -1 1
1;
#X obj 84 506 outlet~;
#X floatatom 319 292 5 0 0 0 - - -, f 5;
#X obj 84 459 *~;
#X floatatom 319 335 5 0 0 0 - - -, f 5;
#X obj 182 462 *~;
#X obj 319 313 expr 1 - $f1;
#X obj 197 440 line~;
#X msg 197 419 \$1 20;
#X obj 100 437 line~;
#X msg 101 415 \$1 20;
#X msg 198 380 0;
#X msg 102 382 1;
#X obj 102 320 loadbang;
#X obj 523 237 hsl 80 8 0 100 0 0 empty empty mix\ 50 2 -8 1 10 -99865
-260097 -1 3950 1;
#X obj 523 256 hsl 80 8 0 120 0 0 empty empty lvl\ 100 2 -8 1 10 -99865
-260097 -1 6583 1;
#X obj 523 275 hsl 80 8 0 98 0 0 empty empty live\ 74 2 -8 1 10 -99865
-260097 -1 5965 1;
#X obj 523 294 hsl 80 8 160 16000 1 0 empty empty cross\ 2999 2 -8
1 10 -99865 -260097 -1 5028 1;
#X obj 523 313 hsl 80 8 0 100 0 0 empty empty damp\ 80 2 -8 1 10 -99865
-260097 -1 6320 1;
#X obj 319 272 / 100;
#X obj 720 236 l2s;
#X msg 670 236 mix \$1;
#X msg 749 236 label \$1;
#X obj 645 236 int;
#X obj 719 260 l2s;
#X msg 748 260 label \$1;
#X obj 644 260 int;
#X msg 669 260 lvl \$1;
#X obj 720 286 l2s;
#X msg 749 286 label \$1;
#X obj 645 286 int;
#X msg 670 286 live \$1;
#X obj 720 311 l2s;
#X msg 749 311 label \$1;
#X obj 645 311 int;
#X msg 670 311 cross \$1;
#X obj 721 336 l2s;
#X msg 750 336 label \$1;
#X obj 646 336 int;
#X msg 671 336 damp \$1;
#X msg 433 105 100;
#X obj 751 143 loadbang;
#X msg 751 165 50;
#X connect 1 0 20 0;
#X connect 2 0 3 0;
#X connect 3 0 30 0;
#X connect 3 1 31 0;
#X connect 3 2 32 0;
#X connect 3 3 33 0;
#X connect 3 4 4 0;
#X connect 4 0 5 0;
#X connect 4 1 8 0;
#X connect 5 0 6 0;
#X connect 6 0 15 0;
#X connect 8 0 15 0;
#X connect 9 0 31 0;
#X connect 10 0 33 0;
#X connect 11 0 32 0;
#X connect 12 0 13 0;
#X connect 13 0 55 0;
#X connect 13 0 11 0;
#X connect 13 0 10 0;
#X connect 13 0 9 0;
#X connect 14 0 1 0;
#X connect 14 0 18 0;
#X connect 15 0 7 0;
#X connect 17 0 21 0;
#X connect 17 0 23 0;
#X connect 18 0 16 0;
#X connect 19 0 25 0;
#X connect 20 0 16 0;
#X connect 21 0 19 0;
#X connect 22 0 20 1;
#X connect 23 0 22 0;
#X connect 24 0 18 1;
#X connect 25 0 24 0;
#X connect 26 0 23 0;
#X connect 27 0 25 0;
#X connect 28 0 27 0;
#X connect 29 0 34 0;
#X connect 29 0 38 0;
#X connect 30 0 41 0;
#X connect 30 0 1 2;
#X connect 31 0 45 0;
#X connect 31 0 1 3;
#X connect 32 0 49 0;
#X connect 32 0 1 4;
#X connect 33 0 53 0;
#X connect 33 0 1 5;
#X connect 34 0 17 0;
#X connect 35 0 37 0;
#X connect 36 0 35 0;
#X connect 37 0 29 0;
#X connect 38 0 36 0;
#X connect 39 0 40 0;
#X connect 40 0 30 0;
#X connect 41 0 42 0;
#X connect 42 0 39 0;
#X connect 43 0 44 0;
#X connect 44 0 31 0;
#X connect 45 0 46 0;
#X connect 46 0 43 0;
#X connect 47 0 48 0;
#X connect 48 0 32 0;
#X connect 49 0 50 0;
#X connect 50 0 47 0;
#X connect 51 0 52 0;
#X connect 52 0 33 0;
#X connect 53 0 54 0;
#X connect 54 0 51 0;
#X connect 55 0 30 0;
#X connect 56 0 57 0;
#X connect 57 0 29 0;
#X coords 0 -1 1 1 98 105 2 517 223;
#X restore 23 509 pd reverb;
#X msg 195 286 preset 24;
#X obj 23 183 route 0 1 2 3 4 5 6 7;
#N canvas 1005 359 625 560 cpu 0;
#X floatatom 139 260 0 0 0 0 - - -;
#X obj 139 156 cputime;
#X obj 139 16 loadbang;
#X obj 139 100 metro 1000;
#X msg 139 44 1;
#X floatatom 139 72 0 0 0 0 - - -;
#X obj 139 128 t b b;
#X obj 139 216 * 0.1;
#X obj 139 185 int;
#X text 184 72 <-- on/off;
#X obj 369 298 nbx 4 20 -1e+037 1e+037 0 0 empty empty empty 0 -8 0
18 -262144 -1 -1 45.2 256 0;
#X obj 186 337 % 20;
#X floatatom 186 359 5 0 0 0 - - -, f 5;
#X obj 186 312 f;
#X obj 218 313 + 1;
#X obj 157 391 array set \$0-cpu;
#X obj 139 288 t b f b;
#X obj 139 418 array sum \$0-cpu;
#X obj 139 440 / 20;
#X obj 369 321 nbx 4 20 -1e+037 1e+037 0 0 empty empty empty 0 -8 0
18 -262144 -1 -1 32.405 256 0;
#N canvas 0 0 450 300 (subpatch) 0;
#X array \$0-cpu 20 float 5 black black;
#A 0 17.1 45.2 12.4 67 46.8 14 15.6 15.6 40.5 37.4 40.5 32.7 32.7 60.8
21.8 26.5 43.6 17.1 34.3 26.5;
#X coords 0 100 19 0 100 40 1;
#X restore 355 255 graph;
#X obj 138 236 min 150;
#X connect 0 0 16 0;
#X connect 1 0 8 0;
#X connect 2 0 4 0;
#X connect 3 0 6 0;
#X connect 4 0 5 0;
#X connect 5 0 3 0;
#X connect 6 0 1 0;
#X connect 6 1 1 1;
#X connect 7 0 21 0;
#X connect 8 0 7 0;
#X connect 11 0 12 0;
#X connect 12 0 15 1;
#X connect 13 0 14 0;
#X connect 13 0 11 0;
#X connect 14 0 13 1;
#X connect 16 0 17 0;
#X connect 16 1 15 0;
#X connect 16 2 13 0;
#X connect 17 0 18 0;
#X connect 18 0 19 0;
#X connect 21 0 10 0;
#X connect 21 0 0 0;
#X coords 0 -1 1 1 105 97 2 353 246;
#X restore 138 516 pd cpu;
#X msg 134 286 voices 5;
#N canvas 929 241 250 418 presets 0;
#N canvas 1106 469 344 198 one_pre 0;
#X msg 196 86 example;
#X symbolatom 96 71 14 0 0 0 - - -, f 14;
#X msg 196 65 set \$1;
#X obj 96 123 outlet;
#X obj 215 23 inlet init;
#X obj 196 108 symbol;
#X obj 80 71 bng 16 250 50 0 empty empty empty 17 7 0 10 -262144 -1
-1;
#X msg 196 127 set \$1;
#X connect 0 0 5 0;
#X connect 1 0 2 0;
#X connect 1 0 3 0;
#X connect 2 0 0 0;
#X connect 4 0 0 0;
#X connect 5 0 7 0;
#X connect 6 0 1 0;
#X connect 7 0 1 0;
#X coords 0 -1 1 1 102 16 2 80 71;
#X restore 71 75 pd one_pre;
#N canvas 1106 469 344 198 one_pre 0;
#X msg 196 86 master;
#X symbolatom 96 71 14 0 0 0 - - -, f 14;
#X msg 196 65 set \$1;
#X obj 96 123 outlet;
#X obj 215 23 inlet init;
#X obj 196 108 symbol;
#X obj 80 71 bng 16 250 50 0 empty empty empty 17 7 0 10 -262144 -1
-1;
#X msg 196 130 set \$1;
#X connect 0 0 5 0;
#X connect 1 0 2 0;
#X connect 1 0 3 0;
#X connect 2 0 0 0;
#X connect 4 0 0 0;
#X connect 5 0 7 0;
#X connect 6 0 1 0;
#X connect 7 0 1 0;
#X coords 0 -1 1 1 102 16 2 80 71;
#X restore 71 93 pd one_pre;
#N canvas 1106 469 344 198 one_pre 0;
#X msg 196 86 -;
#X symbolatom 96 71 14 0 0 0 - - -, f 14;
#X msg 196 65 set \$1;
#X obj 96 123 outlet;
#X obj 215 23 inlet init;
#X obj 196 108 symbol;
#X obj 80 71 bng 16 250 50 0 empty empty empty 17 7 0 10 -262144 -1
-1;
#X msg 196 130 set \$1;
#X connect 0 0 5 0;
#X connect 1 0 2 0;
#X connect 1 0 3 0;
#X connect 2 0 0 0;
#X connect 4 0 0 0;
#X connect 5 0 7 0;
#X connect 6 0 1 0;
#X connect 7 0 1 0;
#X coords 0 -1 1 1 102 16 2 80 71;
#X restore 71 111 pd one_pre;
#N canvas 1106 469 344 198 one_pre 0;
#X msg 196 86 -;
#X symbolatom 96 71 14 0 0 0 - - -, f 14;
#X msg 196 65 set \$1;
#X obj 96 123 outlet;
#X obj 215 23 inlet init;
#X obj 196 108 symbol;
#X obj 80 71 bng 16 250 50 0 empty empty empty 17 7 0 10 -262144 -1
-1;
#X msg 196 130 set \$1;
#X connect 0 0 5 0;
#X connect 1 0 2 0;
#X connect 1 0 3 0;
#X connect 2 0 0 0;
#X connect 4 0 0 0;
#X connect 5 0 7 0;
#X connect 6 0 1 0;
#X connect 7 0 1 0;
#X coords 0 -1 1 1 102 16 2 80 71;
#X restore 71 129 pd one_pre;
#X obj 72 293 t b a;
#X obj 71 242 list prepend prename;
#X obj 71 264 list trim;
#X obj 72 368 outlet;
#X msg 72 324 load;
#X obj 71 37 bng 15 250 50 0 empty empty empty 17 7 0 10 -262144 -1
-1;
#X obj 74 14 loadbang;
#X connect 0 0 5 0;
#X connect 1 0 5 0;
#X connect 2 0 5 0;
#X connect 3 0 5 0;
#X connect 4 0 8 0;
#X connect 4 1 7 0;
#X connect 5 0 6 0;
#X connect 6 0 4 0;
#X connect 8 0 7 0;
#X connect 9 0 0 0;
#X connect 9 0 3 0;
#X connect 9 0 2 0;
#X connect 9 0 1 0;
#X connect 10 0 9 0;
#X coords 0 -1 1 1 108 76 2 68 72;
#X restore 202 36 pd presets;
#X obj 23 149 sequencer;
#N canvas 1038 403 856 578 master_track 0;
#X obj 65 46 inlet notes;
#X obj 132 446 outlet;
#X obj 132 408 list trim;
#X msg 395 286 play;
#X msg 395 313 stop;
#X msg 395 236 stop \, pointer_start 4 3 0 \, play;
#X msg 395 262 stop \, pointer_start 8 1 0 \, play;
#X obj 132 173 * 0.25;
#X obj 65 125 unpack f f f;
#X floatatom 132 151 5 0 0 0 - - -, f 5;
#X obj 132 196 t f f;
#X obj 159 222 int;
#X obj 132 246 -;
#X obj 132 267 / 0.25;
#X floatatom 132 289 5 0 0 0 - - -, f 5;
#X obj 132 309 pack f f;
#X msg 132 334 stop \, pointer_start \$2 \$1 0 \, play;
#X obj 607 381 list trim;
#X text 607 202 change tempo (has some issues);
#X text 213 48 messages from the sequencer have three values: row \,
length \, volume. Here the volume from seq1 is used for controlling
the start positions of seq0;
#X obj 379 355 t a;
#X msg 607 234 tempo 50 \, init;
#X msg 613 262 tempo 90 \, init;
#X msg 622 290 tempo 120 \, init;
#X obj 607 337 list prepend 0 player;
#X obj 607 358 list prepend 1 player;
#X obj 132 386 list prepend 0 player;
#X obj 608 69 route player;
#X obj 608 91 route play stop;
#X msg 651 115 stop;
#X obj 608 46 inlet tcp;
#X connect 0 0 8 0;
#X connect 2 0 1 0;
#X connect 3 0 20 0;
#X connect 4 0 20 0;
#X connect 5 0 20 0;
#X connect 6 0 20 0;
#X connect 7 0 10 0;
#X connect 8 2 9 0;
#X connect 9 0 7 0;
#X connect 10 0 12 0;
#X connect 10 1 11 0;
#X connect 11 0 12 1;
#X connect 11 0 15 1;
#X connect 12 0 13 0;
#X connect 13 0 14 0;
#X connect 14 0 15 0;
#X connect 15 0 16 0;
#X connect 16 0 26 0;
#X connect 17 0 1 0;
#X connect 20 0 26 0;
#X connect 21 0 24 0;
#X connect 21 0 25 0;
#X connect 22 0 24 0;
#X connect 22 0 25 0;
#X connect 23 0 24 0;
#X connect 23 0 25 0;
#X connect 24 0 17 0;
#X connect 25 0 17 0;
#X connect 26 0 2 0;
#X connect 27 0 28 0;
#X connect 28 1 29 0;
#X connect 29 0 26 0;
#X connect 30 0 27 0;
#X coords 0 0 1 1 94 60 0;
#X restore 38 228 pd master_track;
#X obj 329 88 cnv 15 270 85 empty empty start\ here 137 58 0 20 -180204
-66577 0;
#X msg 340 129 \; pd-open_gui vis 1;
#X text 333 597 (you might have to activate tcp again \, when all sequencer
windows had been closed), f 36;
#X text 340 92 1) set paths to nw.js and js folder (click msg-box below)
, f 38;
#X obj 329 204 cnv 15 251 185 empty empty Example\ 1 20 12 0 14 -233017
-66577 0;
#X text 347 237 1) press gui to open first editor;
#X obj 329 404 cnv 15 250 173 empty empty Example\ 2 20 12 0 14 -233017
-66577 0;
#X text 347 464 2) press init;
#X text 347 437 1) select 2nd radio button;
#X text 347 490 3) load master;
#X text 347 518 4) set inner loop-regions by dragging (use Q works
as well), f 38;
#X text 347 554 5) set loop on (circled array) \, play;
#X text 222 14 presets;
#X text 347 262 2) set tcp to active;
#X text 347 287 3) press init;
#X text 347 312 4) load example;
#X text 348 337 5) start dsp / set volume;
#X text 347 362 6) use play buttons inside sequencer;
#X obj 73 206 route 0 1 2 3 4 5 6 7;
#X connect 0 0 11 0;
#X connect 0 1 11 1;
#X connect 2 0 3 0;
#X connect 3 0 5 0;
#X connect 4 0 9 0;
#X connect 4 0 6 0;
#X connect 5 0 1 0;
#X connect 5 0 1 1;
#X connect 6 0 3 1;
#X connect 7 0 2 0;
#X connect 7 1 12 0;
#X connect 9 0 3 1;
#X connect 10 0 0 0;
#X connect 11 0 7 0;
#X connect 11 1 31 0;
#X connect 12 0 11 0;
#X connect 31 1 12 1;
