#N canvas 1974 425 507 390 10;
#X obj 104 296 outlet;
#N canvas 751 75 625 440 tcp_connections 0;
#X obj 95 350 netsend;
#X msg 150 324 send foo \$1;
#X floatatom 150 297 0 0 0 0 - - -;
#X msg 95 272 disconnect;
#X floatatom 95 377 0 0 0 0 - - -;
#X floatatom 350 125 3 0 0 0 - - -, f 3;
#X floatatom 377 125 3 0 0 0 - - -, f 3;
#X floatatom 404 125 3 0 0 0 - - -, f 3;
#X floatatom 431 125 3 0 0 0 - - -, f 3;
#X text 307 124 from;
#X floatatom 467 97 5 0 0 0 - - -, f 5;
#X text 507 97 connections;
#X floatatom 459 125 5 0 0 0 - - -, f 5;
#X obj 350 98 unpack 0 0 0 0 0;
#X obj 283 157 moocow/bytes2any;
#X obj 191 89 tgl 15 1 empty empty empty 17 7 0 10 -262144 -1 -1 1
1;
#X obj 95 155 sel 0 1;
#X obj 22 20 inlet to_gui;
#X obj 302 402 outlet;
#X obj 53 184 list prepend send;
#X obj 53 208 list trim;
#X obj 22 42 route tcp;
#X text 413 236 separating synchron received messages, f 25;
#X floatatom 350 125 3 0 0 0 - - -, f 3;
#X floatatom 377 125 3 0 0 0 - - -, f 3;
#X floatatom 404 125 3 0 0 0 - - -, f 3;
#X floatatom 431 125 3 0 0 0 - - -, f 3;
#X text 307 124 from;
#X floatatom 467 97 5 0 0 0 - - -, f 5;
#X text 507 97 connections;
#X floatatom 459 125 5 0 0 0 - - -, f 5;
#X obj 350 98 unpack 0 0 0 0 0;
#X msg 112 247 connect localhost \$1;
#X msg 176 215 8132;
#X msg 114 219 8150;
#X obj 283 58 mrpeach/tcpreceive 8151;
#X obj 283 282 list split 1;
#X obj 283 244 until;
#X obj 283 263 list append;
#X obj 366 283 bang;
#X obj 283 306 sel # *;
#X obj 322 337 list prepend;
#X obj 407 337 list;
#X obj 302 366 list;
#X text 413 266 messages from the gui start with # and end with *,
f 22;
#X obj 283 225 t b a;
#X connect 0 0 4 0;
#X connect 1 0 0 0;
#X connect 2 0 1 0;
#X connect 3 0 0 0;
#X connect 13 0 5 0;
#X connect 13 1 6 0;
#X connect 13 2 7 0;
#X connect 13 3 8 0;
#X connect 13 4 12 0;
#X connect 14 0 45 0;
#X connect 15 0 16 0;
#X connect 16 0 3 0;
#X connect 16 1 34 0;
#X connect 17 0 21 0;
#X connect 19 0 20 0;
#X connect 20 0 0 0;
#X connect 21 0 15 0;
#X connect 21 1 19 0;
#X connect 31 0 23 0;
#X connect 31 1 24 0;
#X connect 31 2 25 0;
#X connect 31 3 26 0;
#X connect 31 4 30 0;
#X connect 32 0 0 0;
#X connect 33 0 32 0;
#X connect 34 0 32 0;
#X connect 35 0 14 0;
#X connect 35 1 13 0;
#X connect 35 2 10 0;
#X connect 36 0 40 0;
#X connect 36 1 38 1;
#X connect 36 2 39 0;
#X connect 37 0 38 0;
#X connect 38 0 36 0;
#X connect 39 0 37 1;
#X connect 40 0 41 1;
#X connect 40 1 43 0;
#X connect 40 2 41 0;
#X connect 41 0 42 0;
#X connect 41 0 43 1;
#X connect 42 0 41 1;
#X connect 43 0 18 0;
#X connect 45 0 37 0;
#X connect 45 1 38 1;
#X coords 0 -1 1 1 134 18 1 75 87;
#X restore 308 222 pd tcp_connections;
#X obj 407 279 spigot;
#X obj 407 301 print;
#X obj 437 259 tgl 15 0 empty empty empty 17 7 0 10 -262144 -1 -1 0
1;
#X msg 37 166 vis 1 1;
#X obj 308 301 outlet tcp;
#X obj 308 63 inlet tcp;
#X obj 104 62 inlet seq_messages;
#X obj 229 281 spigot;
#X obj 229 303 print;
#X obj 259 261 tgl 15 0 empty empty empty 17 7 0 10 -262144 -1 -1 0
1;
#X obj 104 192 clone player_pointer_memory 8;
#X obj 165 270 spigot;
#X obj 165 292 print;
#X obj 195 250 tgl 15 0 empty empty empty 17 7 0 10 -262144 -1 -1 1
1;
#X connect 1 0 2 0;
#X connect 1 0 6 0;
#X connect 1 0 12 0;
#X connect 2 0 3 0;
#X connect 4 0 2 1;
#X connect 5 0 12 0;
#X connect 7 0 1 0;
#X connect 8 0 12 0;
#X connect 9 0 10 0;
#X connect 11 0 9 1;
#X connect 12 0 0 0;
#X connect 12 0 13 0;
#X connect 12 1 1 0;
#X connect 12 1 9 0;
#X connect 13 0 14 0;
#X connect 15 0 13 1;
