#N canvas 773 80 661 884 10;
#X obj 358 213 loadbang;
#X msg 470 117 clear;
#X floatatom 112 192 5 0 0 0 - - -, f 5;
#X obj 139 260 until;
#X obj 139 282 f;
#X obj 169 283 + 1;
#X obj 139 235 t f b;
#X msg 180 259 0;
#X obj 139 414 t f f f;
#X obj 140 529 sel 1;
#X obj 470 138 text define \$0-sort;
#X obj 470 159 text define \$0-temp;
#X obj 470 180 text define \$0-temp2;
#X obj 328 256 text set \$0-sort;
#X obj 112 170 text size \$0-sort;
#N canvas 70 482 574 496 tausch_mit_vorgaenger 0;
#X obj 315 172 + 1;
#X obj 187 249 t f f;
#X obj 317 312 t b f;
#X msg 317 332 0;
#X obj 317 290 + 1;
#X obj 187 317 t b f;
#X msg 187 337 0;
#X obj 187 52 inlet index;
#X obj 206 194 text get \$0-sort;
#X obj 206 221 text set \$0-temp;
#X obj 316 194 text get \$0-sort;
#X obj 317 220 text set \$0-temp2;
#X obj 318 355 text get \$0-temp;
#X obj 318 379 text set \$0-sort;
#X obj 187 360 text get \$0-temp2;
#X obj 187 384 text set \$0-sort;
#X obj 187 109 t f f f;
#X obj 187 74 - 1;
#X connect 0 0 10 0;
#X connect 1 0 5 0;
#X connect 1 1 4 0;
#X connect 2 0 3 0;
#X connect 2 1 13 1;
#X connect 3 0 12 0;
#X connect 4 0 2 0;
#X connect 5 0 6 0;
#X connect 5 1 15 1;
#X connect 6 0 14 0;
#X connect 7 0 17 0;
#X connect 8 0 9 0;
#X connect 10 0 11 0;
#X connect 12 0 13 0;
#X connect 14 0 15 0;
#X connect 16 0 1 0;
#X connect 16 1 8 0;
#X connect 16 2 0 0;
#X connect 17 0 16 0;
#X restore 140 577 pd tausch_mit_vorgaenger;
#X obj 139 339 until;
#X obj 139 361 f;
#X obj 175 363 + 1;
#X msg 186 339 0;
#X obj 139 390 expr $f2 - $f1;
#X obj 140 553 f;
#X obj 139 457 text get \$0-sort;
#X obj 256 457 text get \$0-sort;
#X obj 206 523 bng 15 250 50 0 empty empty empty 17 7 0 10 -262144
-1 -1;
#X obj 254 437 - 1;
#X obj 139 312 t f b f;
#X msg 358 235 100000;
#X obj 290 35 inlet list;
#X obj 309 124 t b l b;
#X obj 112 213 t f f;
#X obj 131 633 until;
#X obj 131 655 f;
#X obj 161 659 + 1;
#X msg 172 635 0;
#X obj 131 677 text get \$0-sort;
#X obj 112 806 outlet;
#N canvas 992 126 681 728 compare 0;
#X obj 92 36 inlet list1;
#X obj 271 36 inlet list2;
#X obj 92 83 unpack f f f f;
#X obj 270 87 unpack f f f f;
#X obj 92 603 outlet;
#X floatatom 92 183 5 0 0 0 - - -, f 5;
#X floatatom 130 183 5 0 0 0 - - -, f 5;
#X floatatom 189 183 5 0 0 0 - - -, f 5;
#X floatatom 226 183 5 0 0 0 - - -, f 5;
#X floatatom 285 183 5 0 0 0 - - -, f 5;
#X floatatom 322 183 5 0 0 0 - - -, f 5;
#X floatatom 385 183 5 0 0 0 - - -, f 5;
#X floatatom 422 183 5 0 0 0 - - -, f 5;
#X msg 92 560 1;
#X msg 135 560 0;
#X obj 553 39 inlet amount;
#X floatatom 553 181 5 0 0 0 - - -, f 5;
#N canvas 2994 267 614 490 comp 0;
#X obj 94 41 inlet trigger;
#X obj 195 41 inlet nr1;
#X obj 272 41 inlet nr2;
#X obj 349 41 inlet amount;
#X obj 139 199 f;
#X obj 176 199 f;
#X obj 139 178 t b b;
#X obj 139 221 <;
#N canvas 1473 691 290 262 mucks 0;
#X obj 83 9 inlet;
#X obj 83 117 outlet;
#X obj 134 117 outlet;
#X obj 128 9 inlet;
#X obj 83 89 sel 0;
#X obj 83 61 f;
#X floatatom 118 62 5 0 0 0 - - -, f 5;
#X obj 83 31 bng 15 250 50 0 empty empty empty 17 7 0 10 -262144 -1
-1;
#X connect 0 0 7 0;
#X connect 3 0 5 1;
#X connect 3 0 6 0;
#X connect 4 0 1 0;
#X connect 4 1 2 0;
#X connect 5 0 4 0;
#X connect 7 0 5 0;
#X restore 94 158 pd mucks;
#X obj 139 137 > 1;
#X obj 139 248 sel 1;
#X obj 164 292 f;
#X obj 193 293 f;
#X obj 164 314 ==;
#X obj 165 271 t b b;
#X obj 164 336 sel 0;
#X obj 444 41 inlet order;
#X obj 87 424 outlet one;
#X obj 166 425 outlet zero;
#X obj 258 425 outlet next;
#X connect 0 0 8 0;
#X connect 1 0 4 1;
#X connect 1 0 11 1;
#X connect 2 0 5 1;
#X connect 2 0 12 1;
#X connect 3 0 9 0;
#X connect 4 0 7 0;
#X connect 5 0 7 1;
#X connect 6 0 4 0;
#X connect 6 1 5 0;
#X connect 7 0 10 0;
#X connect 8 0 18 0;
#X connect 8 1 6 0;
#X connect 9 0 8 1;
#X connect 10 0 17 0;
#X connect 10 1 14 0;
#X connect 11 0 13 0;
#X connect 12 0 13 1;
#X connect 13 0 15 0;
#X connect 14 0 11 0;
#X connect 14 1 12 0;
#X connect 15 0 18 0;
#X connect 15 1 19 0;
#X connect 16 0 9 1;
#X restore 175 270 pd comp;
#X msg 231 242 1;
#N canvas 1031 351 614 513 comp 0;
#X obj 94 41 inlet trigger;
#X obj 195 41 inlet nr1;
#X obj 272 41 inlet nr2;
#X obj 349 41 inlet amount;
#X obj 139 199 f;
#X obj 176 199 f;
#X obj 139 178 t b b;
#X obj 139 221 <;
#N canvas 1473 691 290 262 mucks 0;
#X obj 83 9 inlet;
#X obj 83 117 outlet;
#X obj 134 117 outlet;
#X obj 128 9 inlet;
#X obj 83 89 sel 0;
#X obj 83 61 f;
#X floatatom 118 62 5 0 0 0 - - -, f 5;
#X obj 83 31 bng 15 250 50 0 empty empty empty 17 7 0 10 -262144 -1
-1;
#X connect 0 0 7 0;
#X connect 3 0 5 1;
#X connect 3 0 6 0;
#X connect 4 0 1 0;
#X connect 4 1 2 0;
#X connect 5 0 4 0;
#X connect 7 0 5 0;
#X restore 94 158 pd mucks;
#X obj 139 137 > 1;
#X obj 139 248 sel 1;
#X obj 164 292 f;
#X obj 193 293 f;
#X obj 164 314 ==;
#X obj 165 271 t b b;
#X obj 164 336 sel 0;
#X obj 444 41 inlet order;
#X obj 87 424 outlet one;
#X obj 166 425 outlet zero;
#X obj 258 425 outlet next;
#X connect 0 0 8 0;
#X connect 1 0 4 1;
#X connect 1 0 11 1;
#X connect 2 0 5 1;
#X connect 2 0 12 1;
#X connect 3 0 9 0;
#X connect 4 0 7 0;
#X connect 5 0 7 1;
#X connect 6 0 4 0;
#X connect 6 1 5 0;
#X connect 7 0 10 0;
#X connect 8 0 18 0;
#X connect 8 1 6 0;
#X connect 9 0 8 1;
#X connect 10 0 17 0;
#X connect 10 1 14 0;
#X connect 11 0 13 0;
#X connect 12 0 13 1;
#X connect 13 0 15 0;
#X connect 14 0 11 0;
#X connect 14 1 12 0;
#X connect 15 0 18 0;
#X connect 15 1 19 0;
#X connect 16 0 9 1;
#X restore 271 305 pd comp;
#X msg 328 282 2;
#N canvas 3074 367 614 513 comp 0;
#X obj 94 41 inlet trigger;
#X obj 215 40 inlet nr1;
#X obj 302 40 inlet nr2;
#X obj 389 40 inlet amount;
#X obj 139 199 f;
#X obj 176 199 f;
#X obj 139 178 t b b;
#X obj 139 221 <;
#N canvas 1473 691 290 262 mucks 0;
#X obj 83 9 inlet;
#X obj 83 117 outlet;
#X obj 134 117 outlet;
#X obj 128 9 inlet;
#X obj 83 89 sel 0;
#X obj 83 61 f;
#X floatatom 118 62 5 0 0 0 - - -, f 5;
#X obj 83 31 bng 15 250 50 0 empty empty empty 17 7 0 10 -262144 -1
-1;
#X connect 0 0 7 0;
#X connect 3 0 5 1;
#X connect 3 0 6 0;
#X connect 4 0 1 0;
#X connect 4 1 2 0;
#X connect 5 0 4 0;
#X connect 7 0 5 0;
#X restore 94 158 pd mucks;
#X obj 139 248 sel 1;
#X obj 164 292 f;
#X obj 193 293 f;
#X obj 164 314 ==;
#X obj 165 271 t b b;
#X obj 164 336 sel 0;
#X obj 484 40 inlet order;
#X obj 87 424 outlet one;
#X obj 166 425 outlet zero;
#X obj 258 425 outlet next;
#X obj 139 137 > 0;
#X connect 0 0 8 0;
#X connect 1 0 4 1;
#X connect 1 0 10 1;
#X connect 2 0 5 1;
#X connect 2 0 11 1;
#X connect 3 0 19 0;
#X connect 4 0 7 0;
#X connect 5 0 7 1;
#X connect 6 0 4 0;
#X connect 6 1 5 0;
#X connect 7 0 9 0;
#X connect 8 0 17 0;
#X connect 8 1 6 0;
#X connect 9 0 16 0;
#X connect 9 1 13 0;
#X connect 10 0 12 0;
#X connect 11 0 12 1;
#X connect 12 0 14 0;
#X connect 13 0 10 0;
#X connect 13 1 11 0;
#X connect 14 0 17 0;
#X connect 14 1 18 0;
#X connect 15 0 19 1;
#X connect 19 0 8 1;
#X restore 92 238 pd comp;
#X obj 92 204 t b f;
#N canvas 3074 367 614 513 comp 0;
#X obj 94 41 inlet trigger;
#X obj 215 40 inlet nr1;
#X obj 302 40 inlet nr2;
#X obj 389 40 inlet amount;
#X obj 139 199 f;
#X obj 176 199 f;
#X obj 139 178 t b b;
#X obj 139 221 <;
#N canvas 1473 691 290 262 mucks 0;
#X obj 83 9 inlet;
#X obj 83 117 outlet;
#X obj 134 117 outlet;
#X obj 128 9 inlet;
#X obj 83 89 sel 0;
#X obj 83 61 f;
#X floatatom 118 62 5 0 0 0 - - -, f 5;
#X obj 83 31 bng 15 250 50 0 empty empty empty 17 7 0 10 -262144 -1
-1;
#X connect 0 0 7 0;
#X connect 3 0 5 1;
#X connect 3 0 6 0;
#X connect 4 0 1 0;
#X connect 4 1 2 0;
#X connect 5 0 4 0;
#X connect 7 0 5 0;
#X restore 94 158 pd mucks;
#X obj 139 137 > 1;
#X obj 139 248 sel 1;
#X obj 164 292 f;
#X obj 193 293 f;
#X obj 164 314 ==;
#X obj 165 271 t b b;
#X obj 164 336 sel 0;
#X obj 484 40 inlet order;
#X obj 87 424 outlet one;
#X obj 166 425 outlet zero;
#X obj 258 425 outlet next;
#X connect 0 0 8 0;
#X connect 1 0 4 1;
#X connect 1 0 11 1;
#X connect 2 0 5 1;
#X connect 2 0 12 1;
#X connect 3 0 9 0;
#X connect 4 0 7 0;
#X connect 5 0 7 1;
#X connect 6 0 4 0;
#X connect 6 1 5 0;
#X connect 7 0 10 0;
#X connect 8 0 18 0;
#X connect 8 1 6 0;
#X connect 9 0 8 1;
#X connect 10 0 17 0;
#X connect 10 1 14 0;
#X connect 11 0 13 0;
#X connect 12 0 13 1;
#X connect 13 0 15 0;
#X connect 14 0 11 0;
#X connect 14 1 12 0;
#X connect 15 0 18 0;
#X connect 15 1 19 0;
#X connect 16 0 9 1;
#X restore 371 348 pd comp;
#X msg 428 325 3;
#X obj 555 259 bng 15 250 50 0 empty empty empty 17 7 0 10 -262144
-1 -1;
#X obj 555 236 loadbang;
#X connect 0 0 2 0;
#X connect 1 0 3 0;
#X connect 2 0 5 0;
#X connect 2 1 7 0;
#X connect 2 2 9 0;
#X connect 2 3 11 0;
#X connect 3 0 6 0;
#X connect 3 1 8 0;
#X connect 3 2 10 0;
#X connect 3 3 12 0;
#X connect 5 0 22 0;
#X connect 6 0 21 2;
#X connect 7 0 17 1;
#X connect 8 0 17 2;
#X connect 9 0 19 1;
#X connect 10 0 19 2;
#X connect 11 0 23 1;
#X connect 12 0 23 2;
#X connect 13 0 4 0;
#X connect 14 0 4 0;
#X connect 15 0 16 0;
#X connect 16 0 17 3;
#X connect 16 0 19 3;
#X connect 16 0 21 3;
#X connect 16 0 23 3;
#X connect 17 0 13 0;
#X connect 17 1 14 0;
#X connect 17 2 19 0;
#X connect 18 0 17 4;
#X connect 19 0 13 0;
#X connect 19 1 14 0;
#X connect 19 2 23 0;
#X connect 20 0 19 4;
#X connect 21 0 13 0;
#X connect 21 1 14 0;
#X connect 21 2 17 0;
#X connect 22 0 21 0;
#X connect 22 1 21 1;
#X connect 23 0 13 0;
#X connect 23 1 14 0;
#X connect 23 2 14 0;
#X connect 24 0 23 4;
#X connect 25 0 18 0;
#X connect 25 0 20 0;
#X connect 25 0 24 0;
#X connect 26 0 25 0;
#X restore 140 505 pd compare;
#X obj 425 35 inlet settings;
#X obj 501 296 loadbang;
#X obj 501 318 \$1;
#X floatatom 501 340 5 0 0 0 - - -, f 5;
#X obj 478 305 bng 15 250 50 0 empty empty empty 17 7 0 10 -262144
-1 -1;
#X obj 501 361 t f f;
#X obj 501 384 == 0;
#X obj 501 406 sel 1;
#X floatatom 500 463 5 0 0 0 - - -, f 5;
#X msg 501 428 1;
#X obj 290 61 t l l b;
#N canvas 1318 137 273 301 set_text 0;
#X obj 63 113 ../loops/loop;
#X obj 63 157 list;
#X obj 63 24 inlet list;
#X obj 91 241 outlet element;
#X obj 63 70 list length;
#X obj 63 46 t l l;
#X floatatom 63 92 5 0 0 0 - - -, f 5;
#X obj 63 135 t b f;
#X obj 63 179 list split;
#X msg 91 204 \$1;
#X connect 0 0 7 0;
#X connect 1 0 8 0;
#X connect 2 0 5 0;
#X connect 4 0 6 0;
#X connect 5 0 4 0;
#X connect 5 1 1 1;
#X connect 6 0 0 0;
#X connect 7 0 1 0;
#X connect 7 1 8 1;
#X connect 8 1 9 0;
#X connect 9 0 3 0;
#X restore 327 158 pd set_text;
#X obj 112 603 t b f b;
#X obj 131 703 list prepend;
#X obj 220 703 list;
#X obj 112 733 list;
#X connect 0 0 27 0;
#X connect 1 0 10 0;
#X connect 1 0 11 0;
#X connect 1 0 12 0;
#X connect 2 0 30 0;
#X connect 3 0 4 0;
#X connect 4 0 5 0;
#X connect 4 0 26 0;
#X connect 5 0 4 1;
#X connect 6 0 3 0;
#X connect 6 1 7 0;
#X connect 7 0 4 1;
#X connect 8 0 22 0;
#X connect 8 1 25 0;
#X connect 8 2 21 1;
#X connect 9 0 21 0;
#X connect 9 1 24 0;
#X connect 14 0 2 0;
#X connect 16 0 17 0;
#X connect 17 0 18 0;
#X connect 17 0 20 0;
#X connect 18 0 17 1;
#X connect 19 0 17 1;
#X connect 20 0 8 0;
#X connect 21 0 15 0;
#X connect 22 0 37 0;
#X connect 23 0 37 1;
#X connect 24 0 16 1;
#X connect 25 0 23 0;
#X connect 26 0 16 0;
#X connect 26 1 19 0;
#X connect 26 2 20 1;
#X connect 27 0 13 1;
#X connect 28 0 48 0;
#X connect 29 0 14 0;
#X connect 29 1 49 0;
#X connect 30 0 50 0;
#X connect 30 1 6 0;
#X connect 31 0 32 0;
#X connect 32 0 33 0;
#X connect 32 0 35 0;
#X connect 33 0 32 1;
#X connect 34 0 32 1;
#X connect 35 0 51 0;
#X connect 37 0 9 0;
#X connect 38 0 37 2;
#X connect 39 0 40 0;
#X connect 40 0 41 0;
#X connect 41 0 43 0;
#X connect 42 0 40 0;
#X connect 43 0 44 0;
#X connect 43 1 46 0;
#X connect 44 0 45 0;
#X connect 45 0 47 0;
#X connect 46 0 37 2;
#X connect 47 0 46 0;
#X connect 48 1 29 0;
#X connect 48 2 1 0;
#X connect 49 0 13 0;
#X connect 50 0 53 0;
#X connect 50 1 31 0;
#X connect 50 2 34 0;
#X connect 50 2 51 1;
#X connect 51 0 52 0;
#X connect 51 0 53 1;
#X connect 52 0 51 1;
#X connect 53 0 36 0;
