#N canvas 884 229 549 514 10;
#X obj 179 173 until;
#X obj 179 196 list append;
#X obj 179 150 t b l;
#X obj 263 219 bang;
#X obj 179 219 list split 2;
#X obj 206 268 f;
#X obj 238 268 + 1;
#X msg 239 247 0;
#X obj 179 244 t a b;
#X obj 179 332 route;
#X obj 179 310 list trim;
#X obj 179 376 f;
#X obj 179 354 t b;
#X obj 162 113 t b a b b;
#X obj 251 309 symbol;
#X obj 210 375 - 1;
#X obj 162 403 f;
#X obj 162 73 inlet list;
#X obj 304 72 inlet symbol;
#X obj 162 442 outlet index;
#X connect 0 0 1 0;
#X connect 1 0 4 0;
#X connect 2 0 0 0;
#X connect 2 1 1 1;
#X connect 3 0 0 1;
#X connect 4 0 8 0;
#X connect 4 1 1 1;
#X connect 4 2 3 0;
#X connect 5 0 6 0;
#X connect 5 0 11 1;
#X connect 6 0 5 1;
#X connect 7 0 5 1;
#X connect 8 0 10 0;
#X connect 8 1 5 0;
#X connect 9 0 12 0;
#X connect 10 0 9 0;
#X connect 11 0 16 1;
#X connect 12 0 11 0;
#X connect 13 0 16 0;
#X connect 13 1 2 0;
#X connect 13 2 7 0;
#X connect 13 3 15 0;
#X connect 14 0 9 1;
#X connect 15 0 16 1;
#X connect 16 0 19 0;
#X connect 17 0 13 0;
#X connect 18 0 14 0;
