#N canvas 646 103 711 750 10;
#X obj 323 47 bng 15 250 50 0 empty empty empty 17 7 0 10 -262144 -1
-1;
#X obj 378 166 loadbang;
#X msg 512 298 clear;
#X floatatom 132 145 5 0 0 0 - - -, f 5;
#X obj 159 213 until;
#X obj 159 235 f;
#X obj 189 236 + 1;
#X obj 159 188 t f b;
#X msg 200 212 0;
#X obj 159 367 t f f f;
#X msg 159 436 \$1;
#X msg 277 435 \$1;
#X obj 159 481 sel 1;
#X obj 512 319 text define \$0-sort;
#X obj 512 340 text define \$0-temp;
#X obj 512 361 text define \$0-temp2;
#X obj 348 209 text set \$0-sort;
#X obj 132 123 text size \$0-sort;
#N canvas 70 482 574 496 tausch_mit_vorgaenger 0;
#X obj 315 172 + 1;
#X obj 187 249 t f f;
#X obj 317 312 t b f;
#X msg 317 332 0;
#X obj 317 290 + 1;
#X obj 187 317 t b f;
#X msg 187 337 0;
#X obj 187 52 inlet index;
#X obj 206 194 text get \$0-sort;
#X obj 206 221 text set \$0-temp;
#X obj 316 194 text get \$0-sort;
#X obj 317 220 text set \$0-temp2;
#X obj 318 355 text get \$0-temp;
#X obj 318 379 text set \$0-sort;
#X obj 187 360 text get \$0-temp2;
#X obj 187 384 text set \$0-sort;
#X obj 187 109 t f f f;
#X obj 187 74 - 1;
#X connect 0 0 10 0;
#X connect 1 0 5 0;
#X connect 1 1 4 0;
#X connect 2 0 3 0;
#X connect 2 1 13 1;
#X connect 3 0 12 0;
#X connect 4 0 2 0;
#X connect 5 0 6 0;
#X connect 5 1 15 1;
#X connect 6 0 14 0;
#X connect 7 0 17 0;
#X connect 8 0 9 0;
#X connect 10 0 11 0;
#X connect 12 0 13 0;
#X connect 14 0 15 0;
#X connect 16 0 1 0;
#X connect 16 1 8 0;
#X connect 16 2 0 0;
#X connect 17 0 16 0;
#X restore 159 532 pd tausch_mit_vorgaenger;
#X obj 159 292 until;
#X obj 159 314 f;
#X obj 195 316 + 1;
#X msg 206 292 0;
#X obj 159 343 expr $f2 - $f1;
#X obj 159 505 f;
#X obj 159 414 text get \$0-sort;
#X obj 276 414 text get \$0-sort;
#X obj 226 476 bng 15 250 50 0 empty empty empty 17 7 0 10 -262144
-1 -1;
#X obj 159 459 <;
#X obj 274 394 - 1;
#X obj 159 265 t f b f;
#X msg 378 188 100000;
#X obj 381 35 inlet list;
#X obj 329 77 t b l b;
#X obj 471 139 spigot;
#X obj 471 161 t b b b;
#X msg 521 112 1;
#X msg 531 138 0;
#X obj 521 89 loadbang;
#X obj 535 192 del 1;
#X obj 132 101 del 1;
#X obj 132 166 t f f;
#X obj 132 586 until;
#X obj 132 608 f;
#X obj 162 612 + 1;
#X obj 132 564 t f b;
#X msg 173 588 0;
#X obj 132 630 text get \$0-sort;
#X obj 132 697 outlet;
#X connect 0 0 33 0;
#X connect 1 0 31 0;
#X connect 2 0 13 0;
#X connect 2 0 14 0;
#X connect 2 0 15 0;
#X connect 3 0 41 0;
#X connect 4 0 5 0;
#X connect 5 0 6 0;
#X connect 5 0 30 0;
#X connect 6 0 5 1;
#X connect 7 0 4 0;
#X connect 7 1 8 0;
#X connect 8 0 5 1;
#X connect 9 0 25 0;
#X connect 9 1 29 0;
#X connect 9 2 24 1;
#X connect 10 0 28 0;
#X connect 11 0 28 1;
#X connect 12 0 24 0;
#X connect 12 1 27 0;
#X connect 17 0 3 0;
#X connect 19 0 20 0;
#X connect 20 0 21 0;
#X connect 20 0 23 0;
#X connect 21 0 20 1;
#X connect 22 0 20 1;
#X connect 23 0 9 0;
#X connect 24 0 18 0;
#X connect 25 0 10 0;
#X connect 26 0 11 0;
#X connect 27 0 19 1;
#X connect 28 0 12 0;
#X connect 29 0 26 0;
#X connect 30 0 19 0;
#X connect 30 1 22 0;
#X connect 30 2 23 1;
#X connect 31 0 16 1;
#X connect 32 0 33 0;
#X connect 33 0 40 0;
#X connect 33 1 16 0;
#X connect 33 2 34 0;
#X connect 34 0 35 0;
#X connect 35 0 2 0;
#X connect 35 1 39 0;
#X connect 35 2 37 0;
#X connect 36 0 34 1;
#X connect 37 0 34 1;
#X connect 38 0 36 0;
#X connect 39 0 36 0;
#X connect 40 0 17 0;
#X connect 41 0 45 0;
#X connect 41 1 7 0;
#X connect 42 0 43 0;
#X connect 43 0 44 0;
#X connect 43 0 47 0;
#X connect 44 0 43 1;
#X connect 45 0 42 0;
#X connect 45 1 46 0;
#X connect 46 0 43 1;
#X connect 47 0 48 0;
