#N canvas 881 159 794 701 10;
#X obj 274 105 cnv 15 167 68 empty 143 empty 10 12 0 12 -262127 -66577
0;
#X obj 277 109 bng 22 250 50 0 empty \$0-recording rec 1 8 0 10 -4033
-258053 -1;
#X obj 498 80 text define \$0-midi_rec;
#X msg 498 55 clear;
#X floatatom 74 172 8 0 0 0 length - -, f 8;
#X obj 276 300 text sequence \$0-midi_rec;
#X obj 259 232 bng 15 250 50 0 empty empty empty 17 7 0 10 -262144
-1 -1;
#X msg 284 274 line 0;
#X obj 107 223 expr $f1 / $f2;
#X floatatom 107 245 5 0 0 0 bar - -, f 5;
#X obj 107 269 expr $f1 / $f2;
#X floatatom 107 291 5 0 0 0 beat - -, f 5;
#X obj 80 193 t b f;
#X obj 498 100 text define \$0-midi_rec2;
#N canvas 1164 276 513 610 ms2midi 0;
#X obj 74 20 inlet values;
#X obj 157 19 inlet bar;
#X obj 222 19 inlet beat;
#X obj 123 140 /;
#X floatatom 123 216 5 0 0 1 bar - -, f 5;
#X obj 74 86 t f f;
#X obj 123 162 int;
#X obj 74 220 -;
#X obj 96 199 *;
#X obj 74 242 t f f;
#X obj 122 265 /;
#X obj 122 287 int;
#X obj 92 330 *;
#X floatatom 123 342 5 0 0 1 beat - -, f 5;
#X obj 123 194 + 1;
#X obj 122 319 + 1;
#X obj 74 365 -;
#X obj 74 489 outlet;
#X msg 74 64 \$4;
#X obj 74 387 /;
#X obj 189 297 / 100;
#X floatatom 189 263 5 0 0 0 - - -, f 5;
#X floatatom 157 118 5 0 0 0 - - -, f 5;
#X msg 295 67 \$3;
#X obj 344 140 /;
#X floatatom 344 216 5 0 0 1 bar - -, f 5;
#X obj 295 86 t f f;
#X obj 344 162 int;
#X obj 295 220 -;
#X obj 317 199 *;
#X obj 295 242 t f f;
#X obj 343 265 /;
#X obj 343 287 int;
#X obj 313 330 *;
#X floatatom 345 327 5 0 0 1 beat - -, f 5;
#X obj 295 365 -;
#X obj 295 387 /;
#X obj 410 297 / 100;
#X floatatom 410 263 5 0 0 0 - - -, f 5;
#X floatatom 378 118 5 0 0 0 - - -, f 5;
#N canvas 1165 384 255 350 round 0;
#X obj 106 68 t f f;
#X obj 132 92 int;
#X obj 106 114 -;
#X obj 106 158 sel 0 1;
#X obj 104 211 +;
#X msg 105 181 0;
#X msg 134 180 1;
#X obj 106 38 inlet;
#X obj 104 245 outlet;
#X obj 106 136 >= 0.5;
#X connect 0 0 2 0;
#X connect 0 1 1 0;
#X connect 1 0 2 1;
#X connect 1 0 4 1;
#X connect 2 0 9 0;
#X connect 3 0 5 0;
#X connect 3 1 6 0;
#X connect 4 0 8 0;
#X connect 5 0 4 0;
#X connect 6 0 4 0;
#X connect 7 0 0 0;
#X connect 9 0 3 0;
#X restore 295 410 pd round;
#N canvas 1165 384 255 350 round 0;
#X obj 106 68 t f f;
#X obj 132 92 int;
#X obj 106 114 -;
#X obj 106 158 sel 0 1;
#X obj 104 211 +;
#X msg 105 181 0;
#X msg 134 180 1;
#X obj 106 38 inlet;
#X obj 104 245 outlet;
#X obj 106 136 >= 0.5;
#X connect 0 0 2 0;
#X connect 0 1 1 0;
#X connect 1 0 2 1;
#X connect 1 0 4 1;
#X connect 2 0 9 0;
#X connect 3 0 5 0;
#X connect 3 1 6 0;
#X connect 4 0 8 0;
#X connect 5 0 4 0;
#X connect 6 0 4 0;
#X connect 7 0 0 0;
#X connect 9 0 3 0;
#X restore 74 413 pd round;
#X obj 74 445 pack f f f f f f f f;
#X obj 74 42 t a a a;
#X msg 179 375 \$1 \$2;
#X obj 179 397 unpack f f;
#X msg 74 467 \$3 \$2 \$1 \$4 \$5 \$6 \$7 \$8;
#X connect 0 0 43 0;
#X connect 1 0 22 0;
#X connect 1 0 39 0;
#X connect 2 0 21 0;
#X connect 2 0 38 0;
#X connect 3 0 6 0;
#X connect 4 0 42 2;
#X connect 5 0 7 0;
#X connect 5 1 3 0;
#X connect 6 0 8 0;
#X connect 6 0 14 0;
#X connect 7 0 9 0;
#X connect 8 0 7 1;
#X connect 9 0 16 0;
#X connect 9 1 10 0;
#X connect 10 0 11 0;
#X connect 11 0 12 0;
#X connect 11 0 15 0;
#X connect 12 0 16 1;
#X connect 13 0 42 1;
#X connect 14 0 4 0;
#X connect 15 0 13 0;
#X connect 16 0 19 0;
#X connect 18 0 5 0;
#X connect 19 0 41 0;
#X connect 20 0 19 1;
#X connect 21 0 10 1;
#X connect 21 0 12 1;
#X connect 21 0 20 0;
#X connect 22 0 3 1;
#X connect 22 0 8 1;
#X connect 23 0 26 0;
#X connect 24 0 27 0;
#X connect 25 0 42 3;
#X connect 26 0 28 0;
#X connect 26 1 24 0;
#X connect 27 0 29 0;
#X connect 27 0 25 0;
#X connect 28 0 30 0;
#X connect 29 0 28 1;
#X connect 30 0 35 0;
#X connect 30 1 31 0;
#X connect 31 0 32 0;
#X connect 32 0 33 0;
#X connect 32 0 34 0;
#X connect 33 0 35 1;
#X connect 34 0 42 4;
#X connect 35 0 36 0;
#X connect 36 0 40 0;
#X connect 37 0 36 1;
#X connect 38 0 31 1;
#X connect 38 0 33 1;
#X connect 38 0 37 0;
#X connect 39 0 24 1;
#X connect 39 0 29 1;
#X connect 40 0 42 5;
#X connect 41 0 42 0;
#X connect 42 0 46 0;
#X connect 43 0 18 0;
#X connect 43 1 23 0;
#X connect 43 2 44 0;
#X connect 44 0 45 0;
#X connect 45 0 42 6;
#X connect 45 1 42 7;
#X connect 46 0 17 0;
#X restore 276 399 pd ms2midi;
#X obj 258 612 text set \$0-midi_rec2;
#X obj 299 570 loadbang;
#X msg 299 592 2000;
#X obj 303 40 loadbang;
#X msg 303 62 4;
#X obj 259 420 ../math/list_sort;
#X obj 358 377 loadbang;
#X msg 358 399 3;
#X msg 259 342 sort;
#X msg 259 468 \$7 \$1 \$2 \$3 \$4 \$5 \$6 \$8;
#X obj 498 120 text define \$0-appearing_numbers;
#X obj 481 383 text search \$0-appearing_numbers;
#X obj 457 361 t f f;
#X obj 481 408 == -1;
#X obj 457 430 spigot;
#X obj 514 456 loadbang;
#X msg 514 478 2000;
#X obj 457 501 text set \$0-appearing_numbers;
#N canvas 885 147 857 717 midi_rec 0;
#X obj 88 114 del 25;
#X obj 88 192 seq;
#X obj 88 291 midiparse;
#X obj 88 318 unpack f f;
#X floatatom 88 345 5 0 0 0 - - -, f 5;
#X floatatom 145 345 5 0 0 0 - - -, f 5;
#X text 87 361 pitch;
#X text 144 362 velocity;
#X obj 87 417 pack f f f;
#X obj 86 646 text set \$0-midi_rec;
#X obj 127 598 loadbang;
#X msg 127 620 2000;
#N canvas 962 266 450 346 one_event 0;
#X obj 67 53 inlet;
#X obj 97 263 outlet;
#X obj 97 145 timer;
#X obj 67 84 unpack f f;
#X obj 124 112 sel 0;
#X floatatom 97 167 5 0 0 0 - - -, f 5;
#X obj 239 56 inlet timer;
#X obj 239 161 timer;
#X obj 97 190 pack f f f f;
#X obj 151 136 t b f b;
#X msg 97 212 \$2 \$3 \$1 \$4;
#X obj 239 78 t b b;
#X connect 0 0 3 0;
#X connect 2 0 5 0;
#X connect 3 0 8 1;
#X connect 3 1 4 0;
#X connect 4 0 2 1;
#X connect 4 1 9 0;
#X connect 5 0 8 0;
#X connect 6 0 11 0;
#X connect 7 0 8 3;
#X connect 8 0 10 0;
#X connect 9 0 2 0;
#X connect 9 1 8 2;
#X connect 9 2 7 1;
#X connect 10 0 1 0;
#X connect 11 0 7 1;
#X connect 11 1 7 0;
#X restore 86 491 pd one_event;
#X obj 288 253 timer;
#X floatatom 288 275 8 0 0 0 - - -, f 8;
#X obj 89 160 t a b;
#N canvas 962 266 450 346 one_event 0;
#X obj 67 53 inlet;
#X obj 97 263 outlet;
#X obj 97 145 timer;
#X obj 67 84 unpack f f;
#X obj 124 112 sel 0;
#X floatatom 97 167 5 0 0 0 - - -, f 5;
#X obj 239 56 inlet timer;
#X obj 239 161 timer;
#X obj 97 190 pack f f f f;
#X obj 151 136 t b f b;
#X msg 97 212 \$2 \$3 \$1 \$4;
#X connect 0 0 3 0;
#X connect 2 0 5 0;
#X connect 3 0 8 1;
#X connect 3 1 4 0;
#X connect 4 0 2 1;
#X connect 4 1 9 0;
#X connect 5 0 8 0;
#X connect 6 0 7 0;
#X connect 7 0 8 3;
#X connect 8 0 10 0;
#X connect 9 0 2 0;
#X connect 9 1 8 2;
#X connect 9 2 7 1;
#X connect 10 0 1 0;
#X restore 96 501 pd one_event;
#N canvas 962 266 450 346 one_event 0;
#X obj 67 53 inlet;
#X obj 97 263 outlet;
#X obj 97 145 timer;
#X obj 67 84 unpack f f;
#X obj 124 112 sel 0;
#X floatatom 97 167 5 0 0 0 - - -, f 5;
#X obj 239 56 inlet timer;
#X obj 239 161 timer;
#X obj 97 190 pack f f f f;
#X obj 151 136 t b f b;
#X msg 97 212 \$2 \$3 \$1 \$4;
#X connect 0 0 3 0;
#X connect 2 0 5 0;
#X connect 3 0 8 1;
#X connect 3 1 4 0;
#X connect 4 0 2 1;
#X connect 4 1 9 0;
#X connect 5 0 8 0;
#X connect 6 0 7 0;
#X connect 7 0 8 3;
#X connect 8 0 10 0;
#X connect 9 0 2 0;
#X connect 9 1 8 2;
#X connect 9 2 7 1;
#X connect 10 0 1 0;
#X restore 106 511 pd one_event;
#N canvas 962 266 450 346 one_event 0;
#X obj 67 53 inlet;
#X obj 97 263 outlet;
#X obj 97 145 timer;
#X obj 67 84 unpack f f;
#X obj 124 112 sel 0;
#X floatatom 97 167 5 0 0 0 - - -, f 5;
#X obj 239 56 inlet timer;
#X obj 239 161 timer;
#X obj 97 190 pack f f f f;
#X obj 151 136 t b f b;
#X msg 97 212 \$2 \$3 \$1 \$4;
#X connect 0 0 3 0;
#X connect 2 0 5 0;
#X connect 3 0 8 1;
#X connect 3 1 4 0;
#X connect 4 0 2 1;
#X connect 4 1 9 0;
#X connect 5 0 8 0;
#X connect 6 0 7 0;
#X connect 7 0 8 3;
#X connect 8 0 10 0;
#X connect 9 0 2 0;
#X connect 9 1 8 2;
#X connect 9 2 7 1;
#X connect 10 0 1 0;
#X restore 116 521 pd one_event;
#X obj 254 463 t b;
#X msg 193 346 clear;
#X obj 136 77 s \$0-start_rec;
#X obj 88 25 inlet;
#X obj 288 597 outlet time;
#X obj 378 496 s \$0-recording;
#X msg 389 446 -65281;
#X obj 378 236 tgl 15 0 empty empty empty 17 7 0 10 -262144 -1 -1 0
1;
#X obj 378 256 metro 250;
#X obj 378 295 f;
#X obj 405 295 + 1;
#X obj 378 317 % 2;
#X floatatom 378 339 5 0 0 0 - - -, f 5;
#X obj 378 362 sel 0 1;
#X obj 298 370 t b 0;
#X msg 407 382 200;
#X obj 378 404 * -65536;
#X obj 378 426 - 1;
#X msg 378 382 255;
#X msg 378 471 color \$1 -1.67117e+007 -1;
#X obj 88 47 t b a b 1;
#X msg 133 113 read \$1;
#X obj 88 383 poly 8;
#X obj 87 449 route 1 2 3 4 5 6 7 8;
#N canvas 962 266 450 346 one_event 0;
#X obj 67 53 inlet;
#X obj 97 263 outlet;
#X obj 97 145 timer;
#X obj 67 84 unpack f f;
#X obj 124 112 sel 0;
#X floatatom 97 167 5 0 0 0 - - -, f 5;
#X obj 239 56 inlet timer;
#X obj 239 161 timer;
#X obj 97 190 pack f f f f;
#X obj 151 136 t b f b;
#X msg 97 212 \$2 \$3 \$1 \$4;
#X obj 239 78 t b b;
#X connect 0 0 3 0;
#X connect 2 0 5 0;
#X connect 3 0 8 1;
#X connect 3 1 4 0;
#X connect 4 0 2 1;
#X connect 4 1 9 0;
#X connect 5 0 8 0;
#X connect 6 0 11 0;
#X connect 7 0 8 3;
#X connect 8 0 10 0;
#X connect 9 0 2 0;
#X connect 9 1 8 2;
#X connect 9 2 7 1;
#X connect 10 0 1 0;
#X connect 11 0 7 1;
#X connect 11 1 7 0;
#X restore 122 531 pd one_event;
#N canvas 962 266 450 346 one_event 0;
#X obj 67 53 inlet;
#X obj 97 263 outlet;
#X obj 97 145 timer;
#X obj 67 84 unpack f f;
#X obj 124 112 sel 0;
#X floatatom 97 167 5 0 0 0 - - -, f 5;
#X obj 239 56 inlet timer;
#X obj 239 161 timer;
#X obj 97 190 pack f f f f;
#X obj 151 136 t b f b;
#X msg 97 212 \$2 \$3 \$1 \$4;
#X connect 0 0 3 0;
#X connect 2 0 5 0;
#X connect 3 0 8 1;
#X connect 3 1 4 0;
#X connect 4 0 2 1;
#X connect 4 1 9 0;
#X connect 5 0 8 0;
#X connect 6 0 7 0;
#X connect 7 0 8 3;
#X connect 8 0 10 0;
#X connect 9 0 2 0;
#X connect 9 1 8 2;
#X connect 9 2 7 1;
#X connect 10 0 1 0;
#X restore 132 541 pd one_event;
#N canvas 962 266 450 346 one_event 0;
#X obj 67 53 inlet;
#X obj 97 263 outlet;
#X obj 97 145 timer;
#X obj 67 84 unpack f f;
#X obj 124 112 sel 0;
#X floatatom 97 167 5 0 0 0 - - -, f 5;
#X obj 239 56 inlet timer;
#X obj 239 161 timer;
#X obj 97 190 pack f f f f;
#X obj 151 136 t b f b;
#X msg 97 212 \$2 \$3 \$1 \$4;
#X connect 0 0 3 0;
#X connect 2 0 5 0;
#X connect 3 0 8 1;
#X connect 3 1 4 0;
#X connect 4 0 2 1;
#X connect 4 1 9 0;
#X connect 5 0 8 0;
#X connect 6 0 7 0;
#X connect 7 0 8 3;
#X connect 8 0 10 0;
#X connect 9 0 2 0;
#X connect 9 1 8 2;
#X connect 9 2 7 1;
#X connect 10 0 1 0;
#X restore 142 551 pd one_event;
#N canvas 962 266 450 346 one_event 0;
#X obj 67 53 inlet;
#X obj 97 263 outlet;
#X obj 97 145 timer;
#X obj 67 84 unpack f f;
#X obj 124 112 sel 0;
#X floatatom 97 167 5 0 0 0 - - -, f 5;
#X obj 239 56 inlet timer;
#X obj 239 161 timer;
#X obj 97 190 pack f f f f;
#X obj 151 136 t b f b;
#X msg 97 212 \$2 \$3 \$1 \$4;
#X connect 0 0 3 0;
#X connect 2 0 5 0;
#X connect 3 0 8 1;
#X connect 3 1 4 0;
#X connect 4 0 2 1;
#X connect 4 1 9 0;
#X connect 5 0 8 0;
#X connect 6 0 7 0;
#X connect 7 0 8 3;
#X connect 8 0 10 0;
#X connect 9 0 2 0;
#X connect 9 1 8 2;
#X connect 9 2 7 1;
#X connect 10 0 1 0;
#X restore 152 561 pd one_event;
#X msg 323 99 stop;
#X connect 0 0 15 0;
#X connect 1 0 2 0;
#X connect 1 1 13 1;
#X connect 1 1 33 0;
#X connect 2 0 3 0;
#X connect 3 0 4 0;
#X connect 3 1 5 0;
#X connect 4 0 41 0;
#X connect 5 0 41 1;
#X connect 8 0 42 0;
#X connect 10 0 11 0;
#X connect 11 0 9 1;
#X connect 12 0 9 0;
#X connect 13 0 14 0;
#X connect 14 0 23 0;
#X connect 15 0 1 0;
#X connect 15 1 13 0;
#X connect 15 1 19 0;
#X connect 15 1 20 0;
#X connect 16 0 9 0;
#X connect 17 0 9 0;
#X connect 18 0 9 0;
#X connect 19 0 46 1;
#X connect 19 0 45 1;
#X connect 19 0 44 1;
#X connect 19 0 43 1;
#X connect 19 0 18 1;
#X connect 19 0 17 1;
#X connect 19 0 16 1;
#X connect 19 0 12 1;
#X connect 20 0 41 0;
#X connect 22 0 39 0;
#X connect 25 0 38 0;
#X connect 26 0 27 0;
#X connect 27 0 28 0;
#X connect 28 0 29 0;
#X connect 28 0 30 0;
#X connect 29 0 28 1;
#X connect 30 0 31 0;
#X connect 31 0 32 0;
#X connect 32 0 37 0;
#X connect 32 1 34 0;
#X connect 33 0 25 0;
#X connect 33 1 26 0;
#X connect 34 0 35 0;
#X connect 35 0 36 0;
#X connect 36 0 38 0;
#X connect 37 0 35 0;
#X connect 38 0 24 0;
#X connect 39 0 0 0;
#X connect 39 1 40 0;
#X connect 39 2 21 0;
#X connect 39 3 26 0;
#X connect 40 0 1 0;
#X connect 41 0 8 0;
#X connect 41 1 8 1;
#X connect 41 2 8 2;
#X connect 42 0 12 0;
#X connect 42 1 16 0;
#X connect 42 2 17 0;
#X connect 42 3 18 0;
#X connect 42 4 43 0;
#X connect 42 5 44 0;
#X connect 42 6 45 0;
#X connect 42 7 46 0;
#X connect 43 0 9 0;
#X connect 44 0 9 0;
#X connect 45 0 9 0;
#X connect 46 0 9 0;
#X connect 47 0 1 0;
#X restore 74 149 pd midi_rec;
#X obj 497 32 r \$0-start_rec;
#N canvas 359 503 268 304 \$0-mapping 1;
#X obj 33 50 inlet;
#X obj 33 74 outlet;
#N canvas 926 449 450 484 \$0-map_gui 0;
#X obj 41 29 inlet;
#X obj 41 83 outlet;
#X msg 41 67 iter;
#X msg 164 67 ok;
#X msg 127 67 reset;
#X msg 72 67 shift \$1;
#X obj 31 26 cnv 15 205 143 empty empty Midi-Mapping 10 12 0 12 -262127
-66577 0;
#X obj 41 49 bng 14 250 50 0 empty empty iter 17 7 0 10 -262144 -1
-1;
#X obj 87 49 nbx 3 14 -1e+037 1e+037 0 0 empty empty shift 38 8 0 10
-262144 -1 -1 0 256 0;
#X obj 199 49 bng 14 250 50 0 empty empty OK 17 7 0 10 -262144 -1 -1
;
#X obj 159 49 bng 14 250 50 0 empty empty res 17 7 0 10 -262144 -1
-1;
#X obj 41 80 map_line 0;
#X obj 41 96 map_line 1;
#X obj 41 112 map_line 2;
#X obj 41 128 map_line 3;
#X obj 41 144 map_line 4;
#X connect 0 0 11 0;
#X connect 0 0 12 0;
#X connect 0 0 13 0;
#X connect 0 0 14 0;
#X connect 0 0 15 0;
#X connect 2 0 1 0;
#X connect 3 0 1 0;
#X connect 4 0 1 0;
#X connect 5 0 1 0;
#X connect 7 0 2 0;
#X connect 8 0 5 0;
#X connect 9 0 3 0;
#X connect 10 0 4 0;
#X connect 11 0 1 0;
#X connect 12 0 1 0;
#X connect 13 0 1 0;
#X connect 14 0 1 0;
#X connect 15 0 1 0;
#X coords 0 -1 1 1 207 145 2 30 25;
#X restore 33 43 pd \$0-map_gui;
#X connect 0 0 2 0;
#X connect 2 0 1 0;
#X restore 540 348 pd \$0-mapping;
#N canvas 1987 242 997 736 create_mapping_gui 0;
#X obj 117 27 bng 15 250 50 0 empty empty empty 17 7 0 10 -262144 -1
-1;
#X floatatom 394 153 5 0 0 0 - - -, f 5;
#X msg 507 263 clear;
#X obj 473 306 until;
#X obj 473 326 f;
#X obj 501 326 + 1;
#X obj 473 415 pack f f;
#X obj 473 346 t f f;
#X msg 413 492 connect 0 0 \$1 0 \, connect \$1 0 1 0;
#X obj 413 430 until;
#X obj 413 450 f;
#X obj 441 450 + 1;
#X obj 413 408 t f 0;
#X obj 580 662 s pd-\$0-map_gui;
#X msg 168 212 connect 0 0 2 0 \, connect 2 0 1 0;
#X obj 169 233 s pd-\$0-mapping;
#X text 393 606 left up right down width height gop x y;
#X obj 473 366 * 16;
#X obj 394 174 t f f f b;
#X obj 555 255 s pd-\$0-mapping;
#X msg 555 233 disconnect 0 0 2 0 \, disconnect 2 0 1 0;
#X obj 394 533 * 16;
#X obj 135 508 outlet;
#X msg 151 260 init;
#N canvas 1131 207 523 511 sort_appearing_numbers 0;
#X obj 120 25 inlet trigger;
#X obj 137 153 text sequence \$0-appearing_numbers;
#X obj 137 174 list append;
#X obj 211 174 list;
#X msg 154 131 line 0;
#X obj 120 198 list;
#X obj 120 109 t b b b b;
#X obj 120 226 ../math/list_sort2;
#X obj 120 292 list length;
#X floatatom 120 314 5 0 0 0 - - -, f 5;
#X obj 120 360 outlet list_len;
#X obj 292 442 text set \$0-appearing_numbers;
#X obj 120 335 t f f;
#X obj 264 305 until;
#X obj 264 327 f;
#X obj 292 328 + 1;
#X obj 264 285 t f 0;
#X obj 120 248 t a a;
#X obj 264 376 list;
#X obj 120 47 bng 15 250 50 0 empty empty empty 17 7 0 10 -262144 -1
-1;
#X obj 264 399 list split;
#X msg 292 420 \$1;
#X obj 264 349 t b f;
#X connect 0 0 19 0;
#X connect 1 0 2 0;
#X connect 2 0 3 0;
#X connect 2 0 5 1;
#X connect 3 0 2 1;
#X connect 4 0 1 0;
#X connect 5 0 7 0;
#X connect 6 0 5 0;
#X connect 6 1 1 0;
#X connect 6 2 4 0;
#X connect 6 3 2 1;
#X connect 7 0 17 0;
#X connect 8 0 9 0;
#X connect 9 0 12 0;
#X connect 12 0 10 0;
#X connect 12 1 16 0;
#X connect 13 0 14 0;
#X connect 14 0 15 0;
#X connect 14 0 22 0;
#X connect 15 0 14 1;
#X connect 16 0 13 0;
#X connect 16 1 14 1;
#X connect 17 0 8 0;
#X connect 17 1 18 1;
#X connect 18 0 20 0;
#X connect 19 0 6 0;
#X connect 20 1 21 0;
#X connect 21 0 11 0;
#X connect 22 0 18 0;
#X connect 22 1 11 1;
#X connect 22 1 20 1;
#X restore 117 77 pd sort_appearing_numbers;
#X obj 117 125 t f f;
#X obj 161 380 text get \$0-appearing_numbers;
#X obj 134 312 until;
#X obj 134 334 f;
#X obj 160 335 + 1;
#X obj 134 290 t f 0;
#X obj 117 183 t f f b b;
#X obj 134 407 pack f f;
#X obj 134 356 t f f;
#X msg 134 434 \$1 orig \$2;
#X msg 394 584 coords 0 -1 1 1 207 \$1 2 30 25;
#X msg 473 442 obj 41 \$1 map_line \$2;
#X obj 473 388 + 80;
#X obj 394 555 + 65;
#X obj 473 231 t f f b 0;
#X obj 722 273 * 16;
#X obj 141 27 inlet;
#X obj 414 472 + 11;
#X msg 117 607 vis 1;
#X obj 117 638 s pd-\$0-mapping;
#X obj 117 561 del 250;
#X obj 799 234 loadbang;
#X msg 799 256 $;
#X obj 799 278 symbol;
#X obj 722 317 pack f s 1;
#X obj 141 49 delay 25;
#X msg 722 346 obj 41 29 inlet \, obj 41 83 outlet \, msg 41 67 iter
\, msg 164 67 ok \, msg 127 67 reset \, msg 72 67 shift \$2\$3 \, obj
31 26 cnv 15 205 \$1 empty empty Midi-Mapping 10 12 0 12 -262127 -66577
0 \, obj 41 49 bng 14 250 50 0 empty empty iter 17 7 0 10 -262144 -1
-1 \, obj 87 49 nbx 3 14 -1e+037 1e+037 0 0 empty empty shift 38 8
0 10 -262144 -1 -1 0 256 0 \, obj 199 49 bng 14 250 50 0 empty empty
OK 17 7 0 10 -262144 -1 -1 \, obj 159 49 bng 14 250 50 0 empty empty
res 17 7 0 10 -262144 -1 -1 \, connect 2 0 1 0 \, connect 3 0 1 0 \,
connect 4 0 1 0 \, connect 5 0 1 0 \, connect 7 0 2 0 \, connect 8
0 5 0 \, connect 9 0 3 0 \, connect 10 0 4 0 \, coords 0 -1 1 1 207
144 2 30 25 \,, f 34;
#X obj 722 295 + 63;
#X connect 0 0 24 0;
#X connect 1 0 18 0;
#X connect 2 0 13 0;
#X connect 3 0 4 0;
#X connect 4 0 5 0;
#X connect 4 0 7 0;
#X connect 5 0 4 1;
#X connect 6 0 36 0;
#X connect 7 0 17 0;
#X connect 7 1 6 1;
#X connect 8 0 13 0;
#X connect 9 0 10 0;
#X connect 10 0 11 0;
#X connect 10 0 42 0;
#X connect 11 0 10 1;
#X connect 12 0 9 0;
#X connect 12 1 10 1;
#X connect 14 0 15 0;
#X connect 17 0 37 0;
#X connect 18 0 21 0;
#X connect 18 1 12 0;
#X connect 18 2 39 0;
#X connect 18 3 20 0;
#X connect 20 0 19 0;
#X connect 21 0 38 0;
#X connect 23 0 22 0;
#X connect 24 0 25 0;
#X connect 25 0 31 0;
#X connect 25 1 1 0;
#X connect 26 0 32 1;
#X connect 27 0 28 0;
#X connect 28 0 29 0;
#X connect 28 0 33 0;
#X connect 29 0 28 1;
#X connect 30 0 27 0;
#X connect 30 1 28 1;
#X connect 31 0 45 0;
#X connect 31 1 30 0;
#X connect 31 2 23 0;
#X connect 31 3 14 0;
#X connect 32 0 34 0;
#X connect 33 0 32 0;
#X connect 33 1 26 0;
#X connect 34 0 22 0;
#X connect 35 0 13 0;
#X connect 36 0 13 0;
#X connect 37 0 6 0;
#X connect 38 0 35 0;
#X connect 39 0 3 0;
#X connect 39 1 40 0;
#X connect 39 2 2 0;
#X connect 39 3 4 1;
#X connect 40 0 52 0;
#X connect 41 0 50 0;
#X connect 42 0 8 0;
#X connect 43 0 44 0;
#X connect 45 0 43 0;
#X connect 46 0 47 0;
#X connect 47 0 48 0;
#X connect 48 0 49 1;
#X connect 49 0 51 0;
#X connect 50 0 24 0;
#X connect 51 0 13 0;
#X connect 52 0 49 0;
#X restore 541 315 pd create_mapping_gui;
#X msg 457 297 \$7;
#N canvas 479 173 1015 726 set_mapping 0;
#X obj 131 62 inlet;
#X obj 131 416 outlet;
#X obj 131 127 text size \$0-appearing_numbers;
#X obj 131 92 route iter shift ok reset;
#X floatatom 131 149 5 0 0 0 - - -, f 5;
#X obj 131 172 t f 0;
#X obj 131 194 until;
#X obj 131 216 f;
#X obj 159 217 + 1;
#X msg 131 241 \$1 nr \$1;
#X obj 207 153 t b f;
#X msg 205 306 \$1 plus \$2;
#X obj 206 284 pack f f;
#X obj 207 176 text size \$0-appearing_numbers;
#X floatatom 207 198 5 0 0 0 - - -, f 5;
#X obj 206 217 t f 0;
#X obj 206 239 until;
#X obj 206 261 f;
#X obj 234 262 + 1;
#X floatatom 289 229 5 0 0 0 - - -, f 5;
#X obj 289 252 t f 0;
#X obj 289 274 until;
#X obj 289 296 f;
#X obj 317 297 + 1;
#X msg 289 321 \$1 clear;
#X obj 289 207 text size \$0-appearing_numbers;
#X obj 661 162 s pd-\$0-mapping;
#X msg 661 140 vis 0;
#X obj 505 170 t b f;
#X obj 505 193 text size \$0-appearing_numbers;
#X floatatom 505 215 5 0 0 0 - - -, f 5;
#X obj 504 234 t f 0;
#X obj 504 256 until;
#X obj 504 278 f;
#X obj 532 279 + 1;
#X msg 751 277 line 0;
#X obj 743 303 text sequence \$0-midi_rec2;
#X obj 660 100 text define \$0-exchange;
#X msg 660 78 clear;
#X obj 486 121 t b b b;
#X obj 505 377 pack f f;
#X obj 505 303 t f f;
#X msg 355 349 \$1 get;
#X msg 549 352 \$2;
#X obj 505 445 text set \$0-exchange;
#X obj 544 400 loadbang;
#X msg 544 422 10000;
#X obj 782 351 f;
#X obj 810 352 + 1;
#X obj 743 325 t a a b;
#X obj 762 405 text search \$0-exchange;
#X msg 762 378 \$2;
#X obj 762 429 text get \$0-exchange;
#X msg 762 451 \$2;
#X obj 743 480 list split 1;
#X obj 777 505 list split 1;
#X obj 744 528 list append;
#X obj 744 553 list append;
#X obj 743 251 t b b 0;
#X obj 582 239 bng 15 250 50 0 empty empty empty 17 7 0 10 -262144
-1 -1;
#X obj 505 328 text get \$0-appearing_numbers;
#X obj 744 607 text set \$0-midi_rec3;
#X obj 821 555 loadbang;
#X msg 821 577 10000;
#X connect 0 0 3 0;
#X connect 2 0 4 0;
#X connect 3 0 2 0;
#X connect 3 1 10 0;
#X connect 3 2 39 0;
#X connect 3 3 25 0;
#X connect 3 4 43 0;
#X connect 4 0 5 0;
#X connect 5 0 6 0;
#X connect 5 1 7 1;
#X connect 6 0 7 0;
#X connect 7 0 8 0;
#X connect 7 0 9 0;
#X connect 8 0 7 1;
#X connect 9 0 1 0;
#X connect 10 0 13 0;
#X connect 10 1 12 1;
#X connect 11 0 1 0;
#X connect 12 0 11 0;
#X connect 13 0 14 0;
#X connect 14 0 15 0;
#X connect 15 0 16 0;
#X connect 15 1 17 1;
#X connect 16 0 17 0;
#X connect 17 0 18 0;
#X connect 17 0 12 0;
#X connect 18 0 17 1;
#X connect 19 0 20 0;
#X connect 20 0 21 0;
#X connect 20 1 22 1;
#X connect 21 0 22 0;
#X connect 22 0 23 0;
#X connect 22 0 24 0;
#X connect 23 0 22 1;
#X connect 24 0 1 0;
#X connect 25 0 19 0;
#X connect 27 0 26 0;
#X connect 28 0 29 0;
#X connect 29 0 30 0;
#X connect 30 0 31 0;
#X connect 31 0 32 0;
#X connect 31 1 33 1;
#X connect 32 0 33 0;
#X connect 33 0 34 0;
#X connect 33 0 41 0;
#X connect 34 0 33 1;
#X connect 35 0 36 0;
#X connect 36 0 49 0;
#X connect 38 0 37 0;
#X connect 39 0 58 0;
#X connect 39 1 28 0;
#X connect 39 2 38 0;
#X connect 39 2 27 0;
#X connect 40 0 44 0;
#X connect 41 0 60 0;
#X connect 41 1 42 0;
#X connect 42 0 1 0;
#X connect 43 0 40 1;
#X connect 45 0 46 0;
#X connect 46 0 44 1;
#X connect 47 0 48 0;
#X connect 47 0 61 1;
#X connect 48 0 47 1;
#X connect 49 0 54 0;
#X connect 49 1 51 0;
#X connect 49 2 47 0;
#X connect 50 0 52 0;
#X connect 51 0 50 0;
#X connect 52 0 53 0;
#X connect 53 0 56 1;
#X connect 54 0 56 0;
#X connect 54 1 55 0;
#X connect 55 1 57 1;
#X connect 56 0 57 0;
#X connect 57 0 61 0;
#X connect 58 0 36 0;
#X connect 58 1 35 0;
#X connect 58 2 47 1;
#X connect 59 0 30 0;
#X connect 60 0 40 0;
#X connect 62 0 63 0;
#X connect 63 0 61 1;
#X restore 630 347 pd set_mapping;
#X obj 457 325 t b f;
#X symbolatom 303 134 22 0 0 0 file - -, f 22;
#X symbolatom 303 153 14 0 0 0 name - -, f 14;
#X obj 303 117 nbx 2 14 -1e+037 1e+037 0 0 empty empty bars 0 -8 0
10 -262144 -1 -1 4 256 0;
#X obj 335 117 nbx 2 14 -1e+037 1e+037 0 0 empty empty beats 0 -8 0
10 -262144 -1 -1 4 256 0;
#X obj 395 116 bng 15 250 50 0 empty empty open 17 7 0 10 -262144 -1
-1;
#X obj 395 179 openpanel;
#X msg 395 201 set \$1;
#X obj 259 494 t b a;
#X obj 258 518 f;
#X obj 285 518 + 1;
#X obj 258 543 list append;
#X obj 259 252 t b b b 0;
#X obj 395 153 bng 15 250 50 0 empty empty save 17 7 0 10 -262144 -1
-1;
#X msg 503 237 write ../presets/\$1.txt;
#X obj 503 216 symbol;
#X obj 499 145 loadbang;
#X msg 499 167 symbol temp;
#X obj 277 209 s pd-\$0-mapping;
#X msg 277 187 vis 0;
#X obj 503 260 text define \$0-midi_rec3;
#X obj 259 443 t a a;
#X msg 585 192 wer;
#X connect 1 0 40 0;
#X connect 1 0 58 0;
#X connect 3 0 2 0;
#X connect 3 0 13 0;
#X connect 3 0 25 0;
#X connect 4 0 12 0;
#X connect 5 0 14 0;
#X connect 6 0 51 0;
#X connect 7 0 5 0;
#X connect 8 0 9 0;
#X connect 9 0 10 0;
#X connect 9 0 14 1;
#X connect 10 0 11 0;
#X connect 11 0 14 2;
#X connect 12 0 6 0;
#X connect 12 1 8 0;
#X connect 14 0 20 0;
#X connect 16 0 17 0;
#X connect 17 0 15 1;
#X connect 18 0 19 0;
#X connect 19 0 42 0;
#X connect 19 0 43 0;
#X connect 20 0 60 0;
#X connect 21 0 22 0;
#X connect 22 0 20 1;
#X connect 23 0 20 0;
#X connect 24 0 47 0;
#X connect 26 0 28 0;
#X connect 27 0 29 0;
#X connect 27 1 26 0;
#X connect 28 0 29 1;
#X connect 29 0 32 0;
#X connect 30 0 31 0;
#X connect 31 0 32 1;
#X connect 33 0 4 0;
#X connect 34 0 3 0;
#X connect 35 0 38 0;
#X connect 36 0 35 0;
#X connect 37 0 39 0;
#X connect 38 0 35 0;
#X connect 39 0 36 0;
#X connect 39 1 27 0;
#X connect 40 0 33 0;
#X connect 41 0 54 1;
#X connect 42 0 8 1;
#X connect 43 0 10 1;
#X connect 44 0 45 0;
#X connect 45 0 46 0;
#X connect 46 0 40 0;
#X connect 47 0 48 0;
#X connect 47 1 50 1;
#X connect 48 0 49 0;
#X connect 48 0 50 0;
#X connect 49 0 48 1;
#X connect 50 0 15 0;
#X connect 51 0 23 0;
#X connect 51 1 5 0;
#X connect 51 2 7 0;
#X connect 51 3 48 1;
#X connect 52 0 54 0;
#X connect 53 0 59 0;
#X connect 54 0 53 0;
#X connect 55 0 56 0;
#X connect 56 0 41 0;
#X connect 58 0 57 0;
#X connect 60 0 37 0;
#X connect 60 1 24 0;
#X connect 61 0 54 0;
#X coords 0 -1 1 1 169 70 2 273 104;
