#N struct 5601-col_0 float x float y float col;
#N canvas 1126 292 794 614 10;
#X obj 524 341 pointer;
#X obj 408 258 t f b b b;
#X obj 408 228 bng 15 250 50 0 empty empty empty 17 7 0 10 -262144
-1 -1;
#X obj 408 368 append \$0-col_0 col;
#X msg 408 316 34;
#N canvas 55 575 433 369 \$0-color 0;
#X scalar 5601-col_0 0 0 34 \;;
#X coords 0 0 100 100 100 20 1 100 100;
#X restore 74 155 pd \$0-color;
#X obj 60 110 inlet color;
#X msg 495 264 \; pd-\$0-color clear;
#X msg 524 317 traverse pd-\$0-color \, bang;
#X obj 62 338 draw rect 100 100;
#X obj 418 58 struct \$0-col_0 float x float y float col;
#X msg 63 315 fill \$1 \$2 \$3;
#X obj 409 199 loadbang;
#X connect 0 0 3 1;
#X connect 1 0 4 0;
#X connect 1 2 8 0;
#X connect 1 3 7 0;
#X connect 2 0 1 0;
#X connect 4 0 3 0;
#X connect 6 0 11 0;
#X connect 8 0 0 0;
#X connect 11 0 9 0;
#X connect 12 0 2 0;
#X coords 0 -1 1 1 100 20 2 74 155;
