#N canvas 1151 195 630 670 10;
#X obj 121 97 inlet;
#X obj 121 496 outlet;
#N canvas 952 258 577 716 calc_colors_and_show 0;
#X obj 90 600 spigot;
#N canvas 2013 100 1002 763 calc_color 0;
#X floatatom 291 596 3 0 255 1 red - -, f 3;
#X floatatom 338 597 3 0 255 1 green - -, f 3;
#X floatatom 393 597 3 0 255 1 blue - -, f 3;
#X floatatom 275 305 3 0 255 1 red - -, f 3;
#X floatatom 340 306 3 0 255 1 green - -, f 3;
#X floatatom 409 307 3 0 255 1 blue - -, f 3;
#X obj 169 279 expr 1 - $f1;
#X floatatom 169 301 5 0 0 0 - - -, f 5;
#X floatatom 226 303 5 0 0 0 - - -, f 5;
#X obj 169 352 expr $f1 * $f2 \; $f1 * $f3 \; $f1 * $f4, f 16;
#X floatatom 466 310 3 0 255 1 red - -, f 3;
#X floatatom 531 311 3 0 255 1 green - -, f 3;
#X floatatom 600 312 3 0 255 1 blue - -, f 3;
#X obj 360 357 expr $f1 * $f2 \; $f1 * $f3 \; $f1 * $f4, f 16;
#X obj 171 244 t f f;
#X obj 169 424 +;
#X obj 196 424 +;
#X obj 223 424 +;
#X floatatom 169 466 3 0 255 1 red - -, f 3;
#X floatatom 213 467 3 0 255 1 green - -, f 3;
#X floatatom 268 468 3 0 255 1 blue - -, f 3;
#X obj 169 446 int;
#X obj 196 446 int;
#X obj 223 446 int;
#X obj 169 497 pack f f f;
#X floatatom 731 311 3 0 255 1 red - -, f 3;
#X floatatom 796 312 3 0 255 1 green - -, f 3;
#X floatatom 865 313 3 0 255 1 blue - -, f 3;
#X obj 493 359 expr $f1 * $f2 \; $f1 * $f3 \; $f1 * $f4, f 16;
#X obj 714 364 expr $f1 * $f2 \; $f1 * $f3 \; $f1 * $f4, f 16;
#X obj 493 431 +;
#X obj 520 431 +;
#X obj 547 431 +;
#X floatatom 493 473 3 0 255 1 red - -, f 3;
#X floatatom 537 474 3 0 255 1 green - -, f 3;
#X floatatom 592 475 3 0 255 1 blue - -, f 3;
#X obj 493 453 int;
#X obj 520 453 int;
#X obj 547 453 int;
#X obj 493 504 pack f f f;
#X obj 169 542 mux . .;
#X obj 171 152 t f f f;
#X obj 293 567 unpack f f f;
#X obj 493 224 expr 1 - $f1;
#X floatatom 493 246 5 0 0 0 - - -, f 5;
#X floatatom 530 247 5 0 0 0 - - -, f 5;
#X obj 493 202 t f f;
#X obj 279 259 unpack f f f;
#X obj 535 286 unpack f f f;
#X obj 730 285 unpack f f f;
#X obj 198 180 expr if($f1 < 64 \, 0 \, 1);
#X obj 171 200 % 64;
#X obj 171 222 / 63;
#X obj 492 182 / 63;
#X obj 171 65 inlet nr;
#X obj 277 89 inlet r;
#X obj 533 87 inlet g;
#X obj 726 85 inlet b;
#X obj 169 648 outlet;
#X connect 3 0 9 1;
#X connect 4 0 9 2;
#X connect 5 0 9 3;
#X connect 6 0 7 0;
#X connect 7 0 9 0;
#X connect 8 0 13 0;
#X connect 9 0 15 0;
#X connect 9 1 16 0;
#X connect 9 2 17 0;
#X connect 10 0 13 1;
#X connect 10 0 28 1;
#X connect 11 0 13 2;
#X connect 11 0 28 2;
#X connect 12 0 13 3;
#X connect 12 0 28 3;
#X connect 13 0 15 1;
#X connect 13 1 16 1;
#X connect 13 2 17 1;
#X connect 14 0 6 0;
#X connect 14 1 8 0;
#X connect 15 0 21 0;
#X connect 16 0 22 0;
#X connect 17 0 23 0;
#X connect 18 0 24 0;
#X connect 19 0 24 1;
#X connect 20 0 24 2;
#X connect 21 0 18 0;
#X connect 22 0 19 0;
#X connect 23 0 20 0;
#X connect 24 0 40 0;
#X connect 25 0 29 1;
#X connect 26 0 29 2;
#X connect 27 0 29 3;
#X connect 28 0 30 0;
#X connect 28 1 31 0;
#X connect 28 2 32 0;
#X connect 29 0 30 1;
#X connect 29 1 31 1;
#X connect 29 2 32 1;
#X connect 30 0 36 0;
#X connect 31 0 37 0;
#X connect 32 0 38 0;
#X connect 33 0 39 0;
#X connect 34 0 39 1;
#X connect 35 0 39 2;
#X connect 36 0 33 0;
#X connect 37 0 34 0;
#X connect 38 0 35 0;
#X connect 39 0 40 1;
#X connect 40 0 42 0;
#X connect 40 0 58 0;
#X connect 41 0 51 0;
#X connect 41 1 50 0;
#X connect 42 0 0 0;
#X connect 42 1 1 0;
#X connect 42 2 2 0;
#X connect 43 0 44 0;
#X connect 44 0 28 0;
#X connect 45 0 29 0;
#X connect 46 0 43 0;
#X connect 46 1 45 0;
#X connect 47 0 3 0;
#X connect 47 1 4 0;
#X connect 47 2 5 0;
#X connect 48 0 10 0;
#X connect 48 1 11 0;
#X connect 48 2 12 0;
#X connect 49 0 25 0;
#X connect 49 1 26 0;
#X connect 49 2 27 0;
#X connect 50 0 40 2;
#X connect 51 0 52 0;
#X connect 51 0 53 0;
#X connect 52 0 14 0;
#X connect 53 0 46 0;
#X connect 54 0 41 0;
#X connect 55 0 47 0;
#X connect 56 0 48 0;
#X connect 57 0 49 0;
#X restore 90 540 pd calc_color;
#N canvas 990 139 579 573 17_colors 0;
#X obj 62 71 route 0 1 2 3 4 5 6 7 8 9 10 11 12 13 14 15 16;
#X obj 62 33 inlet;
#X obj 338 100 show_color;
#X obj 338 122 show_color;
#X obj 338 144 show_color;
#X obj 338 166 show_color;
#X obj 338 188 show_color;
#X obj 338 210 show_color;
#X obj 338 232 show_color;
#X obj 338 254 show_color;
#X obj 338 276 show_color;
#X obj 338 298 show_color;
#X obj 338 320 show_color;
#X obj 338 342 show_color;
#X obj 338 364 show_color;
#X obj 338 386 show_color;
#X obj 338 408 show_color;
#X obj 338 430 show_color;
#X obj 338 452 show_color;
#X connect 0 0 2 0;
#X connect 0 1 3 0;
#X connect 0 2 4 0;
#X connect 0 3 5 0;
#X connect 0 4 6 0;
#X connect 0 5 7 0;
#X connect 0 6 8 0;
#X connect 0 7 9 0;
#X connect 0 8 10 0;
#X connect 0 9 11 0;
#X connect 0 10 12 0;
#X connect 0 11 13 0;
#X connect 0 12 14 0;
#X connect 0 13 15 0;
#X connect 0 14 16 0;
#X connect 0 15 17 0;
#X connect 0 16 18 0;
#X connect 1 0 0 0;
#X coords 0 -1 1 1 100 372 2 338 100;
#X restore 398 84 pd 17_colors;
#N canvas 2040 345 554 586 update_colors 0;
#X obj 42 187 spigot;
#X obj 145 100 t 1 0 b 0 1;
#X obj 285 174 until;
#X obj 285 194 f;
#X obj 313 194 + 1;
#X obj 285 132 bng 15 250 50 0 empty empty empty 17 7 0 10 -262144
-1 -1;
#X obj 145 67 bng 15 250 50 0 empty empty empty 17 7 0 10 -262144 -1
-1;
#X obj 42 229 list prepend;
#X obj 43 251 list trim;
#X obj 285 214 t f f;
#X obj 285 234 * 8;
#X obj 285 274 t f f;
#X obj 42 209 list prepend;
#X obj 285 154 t 17 0;
#X obj 285 254 min 127;
#X obj 145 41 inlet trigger;
#X obj 145 467 outlet to_spigot;
#X obj 285 467 outlet to_calc;
#X obj 393 466 outlet to_color_bar;
#X obj 42 41 inlet color;
#X connect 0 0 12 0;
#X connect 1 0 16 0;
#X connect 1 1 0 1;
#X connect 1 2 5 0;
#X connect 1 3 16 0;
#X connect 1 4 0 1;
#X connect 2 0 3 0;
#X connect 3 0 4 0;
#X connect 3 0 9 0;
#X connect 4 0 3 1;
#X connect 5 0 13 0;
#X connect 6 0 1 0;
#X connect 7 0 8 0;
#X connect 8 0 18 0;
#X connect 9 0 10 0;
#X connect 9 1 7 1;
#X connect 10 0 14 0;
#X connect 11 0 17 0;
#X connect 11 1 12 1;
#X connect 12 0 7 0;
#X connect 13 0 2 0;
#X connect 13 1 3 1;
#X connect 14 0 11 0;
#X connect 15 0 6 0;
#X connect 19 0 0 0;
#X restore 256 563 pd update_colors;
#X obj 193 461 t b a;
#X obj 194 479 t b a;
#X obj 194 497 t b a;
#X obj 90 45 inlet;
#X obj 90 649 outlet;
#X msg 185 67 205 213 229;
#X msg 195 225 255 255 197;
#X msg 185 387 107 31 69;
#X obj 194 17 inlet colors;
#X obj 194 39 route 0 1 2;
#X obj 294 664 outlet set_colors;
#N canvas 583 263 540 518 set_col_msg 0;
#X msg 244 214 set;
#X obj 142 213 list;
#X obj 175 213 list;
#X obj 208 213 list;
#X obj 188 140 t b a;
#X obj 128 168 t b b b b b b b;
#X msg 277 246 addcomma;
#X obj 141 238 list prepend 0;
#X obj 208 286 list prepend 2;
#X obj 174 261 list prepend 1;
#X obj 151 140 t b a;
#X obj 113 139 t b a;
#X obj 81 48 inlet r;
#X obj 132 48 inlet g;
#X obj 183 48 inlet b;
#X obj 141 434 outlet;
#X obj 141 332 t a;
#X obj 141 354 list prepend add2;
#X obj 141 376 list trim;
#X obj 141 404 t a;
#X connect 0 0 19 0;
#X connect 1 0 7 0;
#X connect 2 0 9 0;
#X connect 3 0 8 0;
#X connect 4 0 5 0;
#X connect 4 1 3 1;
#X connect 5 0 19 0;
#X connect 5 1 1 0;
#X connect 5 2 6 0;
#X connect 5 3 2 0;
#X connect 5 4 6 0;
#X connect 5 5 3 0;
#X connect 5 6 0 0;
#X connect 6 0 19 0;
#X connect 7 0 16 0;
#X connect 8 0 16 0;
#X connect 9 0 16 0;
#X connect 10 0 5 0;
#X connect 10 1 2 1;
#X connect 11 0 5 0;
#X connect 11 1 1 1;
#X connect 12 0 11 0;
#X connect 13 0 10 0;
#X connect 14 0 4 0;
#X connect 16 0 17 0;
#X connect 17 0 18 0;
#X connect 18 0 19 0;
#X connect 19 0 15 0;
#X restore 294 637 pd set_col_msg;
#X obj 195 385 cnv 15 94 17 empty empty color\ vol\ 127 14 6 1 14 -233017
-66577 0;
#X obj 195 224 cnv 15 94 17 empty empty color\ vol\ 64 14 6 1 14 -233017
-66577 0;
#X obj 195 86 cnv 15 94 17 empty empty color\ vol\ 0 14 6 1 14 -233017
-66577 0;
#X obj 193 106 color2;
#X obj 193 245 color2;
#X obj 194 405 color2;
#X connect 0 0 8 0;
#X connect 1 0 0 0;
#X connect 1 0 3 0;
#X connect 3 0 0 1;
#X connect 3 1 1 0;
#X connect 3 2 2 0;
#X connect 4 0 3 1;
#X connect 4 1 1 1;
#X connect 4 1 15 0;
#X connect 5 0 3 1;
#X connect 5 1 1 2;
#X connect 5 1 15 1;
#X connect 6 0 3 1;
#X connect 6 1 1 3;
#X connect 6 1 15 2;
#X connect 7 0 1 0;
#X connect 9 0 19 0;
#X connect 10 0 20 0;
#X connect 11 0 21 0;
#X connect 12 0 13 0;
#X connect 13 0 19 0;
#X connect 13 1 20 0;
#X connect 13 2 21 0;
#X connect 15 0 14 0;
#X connect 19 0 4 0;
#X connect 20 0 5 0;
#X connect 21 0 6 0;
#X coords 0 -1 1 1 311 379 2 190 81;
#X restore 120 116 pd calc_colors_and_show;
#X obj 326 496 outlet set_colors;
#X obj 423 96 inlet;
#X connect 0 0 2 0;
#X connect 2 0 1 0;
#X connect 2 1 3 0;
#X connect 4 0 2 1;
