#N struct 1044-element float x float y float h float w;
#N canvas 2064 201 585 587 10;
#X obj 54 42 inlet;
#X obj 149 313 draw rect w h;
#N canvas 1471 363 292 341 mouseevents 0;
#X msg 98 97 mousedown \$1;
#X obj 98 78 tgl 15 0 empty empty empty 17 7 0 10 -262144 -1 -1 1 1
;
#X msg 98 57 1;
#X msg 98 118 drag \$1;
#X msg 98 139 mouseout \$1;
#X msg 98 160 mousemove \$1;
#X obj 98 200 t a;
#X obj 98 11 inlet;
#X obj 98 221 outlet;
#X obj 98 33 t b;
#X connect 0 0 6 0;
#X connect 1 0 0 0;
#X connect 1 0 5 0;
#X connect 1 0 4 0;
#X connect 1 0 3 0;
#X connect 2 0 1 0;
#X connect 3 0 6 0;
#X connect 4 0 6 0;
#X connect 5 0 6 0;
#X connect 6 0 8 0;
#X connect 7 0 9 0;
#X connect 9 0 2 0;
#X restore 160 291 pd mouseevents;
#X obj 150 481 outlet;
#N canvas 1463 333 457 429 initial_pos 1;
#X obj 80 19 inlet;
#X floatatom 126 125 3 0 0 2 w - -, f 3;
#X floatatom 80 125 3 0 0 2 x - -, f 3;
#X floatatom 149 125 3 0 0 2 h - -, f 3;
#X floatatom 103 125 3 0 0 2 y - -, f 3;
#X obj 80 277 outlet;
#X obj 80 252 pack f f f f;
#X obj 103 182 +;
#X obj 126 216 -;
#X obj 259 108 expr 1 / $f1;
#X obj 153 224 -;
#X obj 255 170 expr 2 / $f1;
#X obj 167 19 inlet scale;
#X obj 347 276 outlet;
#X obj 80 76 unpack f f f f, f 12;
#X obj 237 58 loadbang;
#X msg 204 171 0.2;
#X msg 204 196 0.4;
#X connect 0 0 13 0;
#X connect 0 0 14 0;
#X connect 1 0 8 0;
#X connect 2 0 6 0;
#X connect 3 0 10 0;
#X connect 4 0 7 0;
#X connect 6 0 5 0;
#X connect 7 0 6 1;
#X connect 8 0 6 2;
#X connect 10 0 6 3;
#X connect 12 0 9 0;
#X connect 12 0 11 0;
#X connect 14 0 2 0;
#X connect 14 1 4 0;
#X connect 14 2 1 0;
#X connect 14 3 3 0;
#X connect 15 0 16 0;
#X connect 15 0 17 0;
#X connect 16 0 7 1;
#X connect 16 0 8 1;
#X connect 17 0 10 1;
#X restore 54 176 pd initial_pos;
#X obj 150 399 t a;
#X obj 54 262 t b p;
#X msg 54 283 created_el;
#X obj 54 217 append \$0-element x y w h;
#X floatatom 306 315 4 0 0 2 x - -, f 4;
#X floatatom 338 315 4 0 0 2 y - -, f 4;
#X floatatom 370 315 4 0 0 2 w - -, f 4;
#X floatatom 402 315 4 0 0 2 h - -, f 4;
#X floatatom 466 315 4 0 0 2 vol - -, f 4;
#X floatatom 434 315 4 0 0 2 row - -, f 4;
#X obj 150 425 list append;
#X obj 306 354 pack f f f f f f;
#X obj 186 43 struct \$0-element float x float y float h float w,
f 51;
#X floatatom 196 119 3 0 0 1 scale - -, f 3;
#X obj 54 88 route append pointer rect scale set_el get_props;
#X obj 225 426 list;
#X obj 225 448 list prepend props;
#X obj 306 280 unpack f f f f f f, f 27;
#N canvas 2703 158 642 373 set_element 0;
#X obj 142 228 set \$0-element x;
#X obj 360 228 set \$0-element w;
#X obj 251 228 set \$0-element y;
#X obj 469 228 set \$0-element h;
#X obj 100 211 t p;
#X obj 251 202 +;
#X obj 360 202 -;
#X obj 375 169 expr 1 / $f1;
#X obj 469 197 -;
#X obj 484 169 expr 2 / $f1;
#X floatatom 484 120 3 0 0 1 scale - -, f 3;
#X obj 100 36 inlet pointer;
#X obj 484 34 inlet scale;
#X obj 218 35 inlet set;
#X obj 245 84 route x y w h;
#X obj 218 276 outlet;
#X obj 218 57 t a a;
#X connect 4 0 0 1;
#X connect 4 0 3 1;
#X connect 4 0 2 1;
#X connect 4 0 1 1;
#X connect 5 0 2 0;
#X connect 6 0 1 0;
#X connect 7 0 5 1;
#X connect 7 0 6 1;
#X connect 8 0 3 0;
#X connect 9 0 8 1;
#X connect 10 0 9 0;
#X connect 10 0 7 0;
#X connect 11 0 4 0;
#X connect 12 0 10 0;
#X connect 13 0 16 0;
#X connect 14 0 0 0;
#X connect 14 1 5 0;
#X connect 14 2 6 0;
#X connect 14 3 8 0;
#X connect 16 0 15 0;
#X connect 16 1 14 0;
#X restore 204 183 pd set_element;
#X obj 308 255 route x y w h row vol, f 32;
#X obj 281 227 t b a;
#X obj 268 279 t b a;
#X obj 149 346 route drag;
#X msg 149 366 drag -99 \$2 \$3;
#X connect 0 0 19 0;
#X connect 1 0 27 0;
#X connect 2 0 1 0;
#X connect 4 0 8 0;
#X connect 4 1 26 0;
#X connect 5 0 15 0;
#X connect 6 0 7 0;
#X connect 7 0 5 0;
#X connect 8 0 6 0;
#X connect 8 0 23 0;
#X connect 8 0 2 0;
#X connect 9 0 16 0;
#X connect 10 0 16 1;
#X connect 11 0 16 2;
#X connect 12 0 16 3;
#X connect 13 0 16 5;
#X connect 14 0 16 4;
#X connect 15 0 3 0;
#X connect 16 0 15 1;
#X connect 16 0 20 1;
#X connect 18 0 4 1;
#X connect 18 0 23 2;
#X connect 19 0 4 0;
#X connect 19 1 8 4;
#X connect 19 2 1 0;
#X connect 19 3 18 0;
#X connect 19 4 23 1;
#X connect 19 5 20 0;
#X connect 20 0 21 0;
#X connect 21 0 3 0;
#X connect 22 0 9 0;
#X connect 22 1 10 0;
#X connect 22 2 11 0;
#X connect 22 3 12 0;
#X connect 22 4 14 0;
#X connect 22 5 13 0;
#X connect 23 0 25 0;
#X connect 24 0 9 0;
#X connect 24 1 10 0;
#X connect 24 2 11 0;
#X connect 24 3 12 0;
#X connect 24 4 14 0;
#X connect 24 5 13 0;
#X connect 25 0 16 0;
#X connect 25 1 24 0;
#X connect 26 0 16 0;
#X connect 26 1 22 0;
#X connect 27 0 28 0;
#X connect 27 1 5 0;
#X connect 28 0 5 0;
