#N struct 1323-col_0 float x float y float col;
#N canvas 2327 426 526 381 10;
#X obj 174 79 color_draw2;
#X floatatom 317 81 3 0 255 1 - - -, f 3;
#X floatatom 339 81 3 0 255 1 - - -, f 3;
#X floatatom 361 81 3 0 255 1 - - -, f 3;
#X obj 204 206 pack f f f;
#X obj 227 139 t b f;
#X obj 272 140 t b f;
#X obj 204 182 f;
#X obj 183 18 inlet;
#X obj 183 40 unpack f f f f;
#X floatatom 178 81 3 0 0 0 - - -, f 3;
#X obj 220 84 cnv 10 50 10 empty \$0-col 229\ 255\ 255 0 4 1 9 -233017
-66577 0;
#X obj 204 283 s \$0-col;
#X obj 204 228 l2s;
#X msg 204 250 label \$1;
#X connect 1 0 7 0;
#X connect 2 0 5 0;
#X connect 3 0 6 0;
#X connect 4 0 0 0;
#X connect 4 0 13 0;
#X connect 5 0 7 0;
#X connect 5 1 4 1;
#X connect 6 0 7 0;
#X connect 6 1 4 2;
#X connect 7 0 4 0;
#X connect 8 0 9 0;
#X connect 9 0 10 0;
#X connect 9 1 1 0;
#X connect 9 2 2 0;
#X connect 9 3 3 0;
#X connect 13 0 14 0;
#X connect 14 0 12 0;
#X coords 0 -1 1 1 100 20 2 174 79;
