#N canvas 571 88 1349 683 10;
#X msg 571 67 open_scopes;
#X obj 91 10 inlet~;
#X obj 158 10 inlet~;
#X obj 227 10 inlet~;
#X obj 295 10 inlet~;
#X msg 6 53 reload;
#X msg 7 75 \; pd dsp \$0;
#X obj 364 8 inlet~;
#X obj 51 202 cnv 15 210 72 empty empty empty 20 12 0 14 -261682 -66577
0;
#X obj 54 206 bng 30 250 50 0 \$0-open \$0-open_r Open 0 40 0 15 -262130
-86277 -1;
#X obj 145 222 hradio 15 0 1 6 \$0-scopes \$0-scopes_r Scopes -44 7
0 10 -262144 -1 -1 4;
#X obj 145 240 tgl 15 0 \$0-spectro \$0-spectro_r Spectro -44 7 0 10
-262144 -1 -1 0 1;
#X floatatom 941 201 5 0 0 1 Amount_Scopes #0-scopes2 -, f 5;
#X floatatom 936 81 5 0 0 1 FFT_Window #0-fft -, f 5;
#X floatatom 936 99 5 0 0 1 Cut_Freq #0-cut -, f 5;
#X floatatom 936 15 12 0 0 1 Samples #0-samp -, f 12;
#X floatatom 939 153 5 0 0 1 Use_Spectrogram #0-spectro -, f 5;
#X obj 1145 248 until;
#X msg 1145 269 add2 scope;
#X msg 1103 165 add2 spectro -win \$1 -cut \$2;
#X obj 240 205 tgl 15 1 \$0-top empty On_Top -40 5 0 10 -262144 -1
-1 1 1;
#X floatatom 937 40 5 0 0 1 On_Top #0-top -, f 5;
#X msg 1078 44 set \$1;
#X obj 1103 191 spigot;
#X obj 1088 73 sel 1;
#X msg 1088 95 add2 on_top;
#X obj 704 38 t b b b b b b b, f 16;
#X msg 1145 229 \$1;
#X obj 1102 147 pack f f;
#X obj 58 321 + 1;
#X msg 1092 405 441000;
#X msg 1190 353 add;
#X obj 1154 353 bang;
#X floatatom 57 303 5 0 0 0 - - -, f 5;
#X obj 704 12 r \$0-open;
#X obj 794 82 s \$0-top;
#X obj 776 100 s \$0-spectro;
#X obj 722 154 s \$0-finish;
#X obj 1154 309 r \$0-finish;
#X obj 1154 331 t b b;
#X obj 740 136 s \$0-scopes2;
#X obj 58 340 s \$0-scopes2;
#X obj 1102 127 r \$0-win_cut;
#X obj 759 118 s \$0-win_cut;
#X obj 57 282 r \$0-scopes;
#X msg 430 284 -color 0.7 0.2 0 -bg-color 0.9 0.9 0.9;
#X msg 430 323 -scope-color 1 1 0 -scope-bg-color 1 0.8 0.8;
#X msg 430 304 -spectro-color 0 0 0 -spectro-bg-color 1 1 1;
#X obj 407 353 s \$0-msg;
#X obj 542 40 r \$0-msg;
#X msg 410 140 on_top 220500 scope specto -win 4096 -cut 2000 scope
specto -win 4096 -cut 5000, f 10;
#X obj 90 124 outlet~;
#X obj 104 204 hsl 84 15 1 20 1 1 \$0-val-samp \$0-lbl-samp Samples 441000
0 8 0 10 -262144 -1 -1 6500 1;
#X obj 169 240 hsl 84 15 7 16 1 1 \$0-val-win \$0-lbl-win FFT-Win 4096
0 8 0 10 -262144 -1 -1 5900 1;
#X obj 220 433 r \$0-val-win;
#X obj 220 554 s \$0-lbl-win;
#X obj 220 455 expr pow(2 \, int($f1));
#X msg 220 533 label FFT-Win \$1;
#X obj 235 512 s \$0-fft;
#X obj 48 432 r \$0-val-samp;
#X obj 48 454 expr int($f1) * 44100;
#X msg 48 532 label Samples \$1;
#X obj 48 553 s \$0-lbl-samp;
#X obj 63 511 s \$0-samp;
#X obj 169 257 hsl 84 15 1 200 1 1 \$0-val-cut \$0-lbl-cut Cut-Freq 2000
0 8 0 10 -262144 -1 -1 4700 1;
#X obj 388 432 r \$0-val-cut;
#X obj 388 455 expr int($f1) * 100;
#X msg 388 534 label Cut-Freq \$1;
#X obj 403 513 s \$0-cut;
#X obj 388 555 s \$0-lbl-cut;
#X text 46 404 Samples;
#X text 217 402 FFT-Window;
#X text 383 401 Cut-Frequency;
#X obj 813 65 s \$0-samp;
#X obj 61 257 tgl 15 0 empty \$0-on empty 17 7 0 10 -262144 -1 -1 0
1;
#X obj 137 284 switch~;
#X obj 612 408 inlet;
#X obj 612 482 s \$0-on;
#X obj 696 483 min 5;
#X obj 696 504 max 1;
#X obj 696 527 s \$0-scopes_r;
#X obj 781 483 s \$0-spectro_r;
#X obj 70 484 r \$0-len;
#X obj 241 484 r \$0-fft_r;
#X obj 405 484 r \$0-cut_freq_r;
#X obj 739 505 s \$0-len;
#X obj 823 509 s \$0-fft_r;
#X obj 866 533 s \$0-cut_freq_r;
#X obj 654 530 bng 15 250 50 0 empty empty empty 17 7 0 10 -262144
-1 -1;
#X obj 654 549 s \$0-open_r;
#X obj 432 8 inlet~;
#N canvas 1025 281 790 657 control 0;
#X obj 265 435 list;
#X obj 449 108 inlet list;
#X obj 69 58 inlet~ phase;
#X obj 165 525 outlet~ bang;
#X obj 164 104 bang~;
#X obj 164 126 snapshot~;
#X floatatom 164 148 9 0 0 0 - - -, f 9;
#X obj 164 284 expr $f1 > $f2;
#X obj 294 129 f;
#X obj 254 103 t f f b;
#X obj 277 152 <;
#X obj 164 361 f;
#X obj 197 360 + 1;
#X obj 277 174 sel 1;
#X msg 277 196 0;
#X obj 164 306 == 1;
#X obj 164 328 sel 1;
#X floatatom 164 383 6 0 0 0 - - -, f 6;
#X obj 265 462 list split;
#X msg 293 487 \$1;
#X obj 164 404 t b f;
#X obj 165 444 t b b;
#X obj 165 466 del 2;
#X msg 165 488 0;
#X msg 201 488 1;
#X msg 385 225 \$1;
#X obj 356 184 list split 0;
#X floatatom 387 253 8 0 0 0 - - -, f 8;
#X floatatom 247 261 9 0 0 0 - - -, f 9;
#X obj 667 121 tgl 15 0 empty empty empty 17 7 0 10 -262144 -1 -1 0
1;
#X obj 645 183 switch~;
#X obj 260 405 bng 15 250 50 0 empty empty empty 17 7 0 10 -262144
-1 -1;
#X connect 0 0 18 0;
#X connect 1 0 0 1;
#X connect 1 0 26 0;
#X connect 2 0 5 0;
#X connect 4 0 5 0;
#X connect 5 0 6 0;
#X connect 6 0 7 0;
#X connect 6 0 9 0;
#X connect 7 0 15 0;
#X connect 8 0 10 1;
#X connect 9 0 8 1;
#X connect 9 1 10 0;
#X connect 9 2 8 0;
#X connect 10 0 13 0;
#X connect 11 0 12 0;
#X connect 11 0 17 0;
#X connect 12 0 11 1;
#X connect 13 0 14 0;
#X connect 14 0 11 1;
#X connect 15 0 16 0;
#X connect 16 0 11 0;
#X connect 17 0 20 0;
#X connect 18 1 19 0;
#X connect 19 0 28 0;
#X connect 20 0 0 0;
#X connect 20 0 21 0;
#X connect 20 1 18 1;
#X connect 21 0 22 0;
#X connect 21 1 24 0;
#X connect 22 0 23 0;
#X connect 23 0 3 0;
#X connect 24 0 3 0;
#X connect 25 0 7 1;
#X connect 25 0 27 0;
#X connect 26 1 25 0;
#X connect 28 0 7 1;
#X connect 29 0 30 0;
#X connect 31 0 0 0;
#X coords 0 -1 1 1 93 22 1 594 118;
#X restore 558 198 pd control;
#X obj 612 456 route on open scopes len spectro fft-win cut-freq samples
;
#X obj 908 484 s \$0-amount-samp;
#X obj 105 407 r \$0-amount-samp;
#X msg 704 250 -scope-color 1 1 0;
#X obj 90 92 pyext~ 1 0 6 1 pd_scopes3 Scopes @detach 2, f 69;
#X obj 160 139 *~;
#X obj 145 179 dac~;
#X obj 80 260 hsl 80 12 0 1 0 0 empty empty empty -2 -8 0 10 -262144
-1 -1 0 1;
#X obj 501 120 print scope...;
#X connect 0 0 96 6;
#X connect 1 0 96 0;
#X connect 2 0 96 1;
#X connect 3 0 96 2;
#X connect 4 0 96 3;
#X connect 5 0 6 0;
#X connect 5 0 96 0;
#X connect 7 0 96 4;
#X connect 12 0 27 0;
#X connect 13 0 28 0;
#X connect 14 0 28 1;
#X connect 15 0 22 0;
#X connect 16 0 23 1;
#X connect 17 0 18 0;
#X connect 18 0 30 0;
#X connect 19 0 23 0;
#X connect 21 0 24 0;
#X connect 22 0 30 0;
#X connect 23 0 30 0;
#X connect 24 0 25 0;
#X connect 25 0 30 0;
#X connect 26 0 0 0;
#X connect 26 1 37 0;
#X connect 26 2 40 0;
#X connect 26 3 43 0;
#X connect 26 4 36 0;
#X connect 26 5 35 0;
#X connect 26 6 73 0;
#X connect 27 0 17 0;
#X connect 28 0 19 0;
#X connect 29 0 41 0;
#X connect 30 0 96 6;
#X connect 31 0 30 0;
#X connect 32 0 30 0;
#X connect 33 0 29 0;
#X connect 34 0 26 0;
#X connect 38 0 39 0;
#X connect 39 0 32 0;
#X connect 39 1 31 0;
#X connect 42 0 28 0;
#X connect 44 0 33 0;
#X connect 45 0 48 0;
#X connect 46 0 48 0;
#X connect 47 0 48 0;
#X connect 49 0 96 6;
#X connect 50 0 48 0;
#X connect 54 0 56 0;
#X connect 56 0 57 0;
#X connect 56 0 58 0;
#X connect 57 0 55 0;
#X connect 59 0 60 0;
#X connect 60 0 61 0;
#X connect 60 0 63 0;
#X connect 61 0 62 0;
#X connect 65 0 66 0;
#X connect 66 0 67 0;
#X connect 66 0 68 0;
#X connect 67 0 69 0;
#X connect 74 0 75 0;
#X connect 76 0 92 0;
#X connect 78 0 79 0;
#X connect 79 0 80 0;
#X connect 82 0 63 0;
#X connect 82 0 61 0;
#X connect 83 0 58 0;
#X connect 83 0 57 0;
#X connect 84 0 68 0;
#X connect 84 0 67 0;
#X connect 88 0 89 0;
#X connect 90 0 96 5;
#X connect 92 0 77 0;
#X connect 92 1 88 0;
#X connect 92 2 78 0;
#X connect 92 3 85 0;
#X connect 92 4 81 0;
#X connect 92 5 86 0;
#X connect 92 6 87 0;
#X connect 92 7 93 0;
#X connect 94 0 63 0;
#X connect 94 0 61 0;
#X connect 95 0 48 0;
#X connect 96 0 51 0;
#X connect 96 0 97 0;
#X connect 96 1 100 0;
#X connect 97 0 98 0;
#X connect 97 0 98 1;
#X connect 99 0 97 1;
#X coords 0 -1 1 1 212 76 2 50 200;
