#N canvas 819 291 895 586.063 10;
#X obj 377 171 vu 8 80 empty empty -1 -8 0 10 -66577 -1 0 0;
#X obj 383 49 inlet~;
#X obj 389 171 vu 8 80 empty empty -1 -8 0 10 -66577 -1 0 0;
#X obj 435 49 inlet~;
#X obj 383 100 - 100;
#X obj 435 100 - 100;
#X obj 708 190 v \$0-old;
#X obj 708 222 expr $f2 > $f1;
#X obj 671 252 spigot;
#X obj 671 276 v \$0-old;
#X obj 551 252 v \$0-old;
#X msg 612 302 -99;
#X obj 637 128 t b b f f;
#X obj 612 252 spigot;
#X obj 612 277 del 1500;
#X obj 612 327 v \$0-old;
#X obj 708 158 t b f;
#X obj 637 102 pvu~ 50 50;
#X obj 249 190 expr $f2 > $f1;
#X obj 212 220 spigot;
#X msg 153 270 -99;
#X obj 178 96 t b b f f;
#X obj 153 220 spigot;
#X obj 153 245 del 1500;
#X obj 249 126 t b f;
#X obj 178 70 pvu~ 50 50;
#X obj 249 158 v \$0-old2;
#X obj 92 220 v \$0-old2;
#X obj 212 244 v \$0-old2;
#X obj 153 295 v \$0-old2;
#X obj 743 276 loadbang;
#X obj 214 269 loadbang;
#X obj 435 78 env~ 1024;
#X obj 383 78 env~ 1024;
#X obj 478 338 switch~;
#X obj 404 246 tgl 10 0 empty empty empty 17 7 0 10 -262144 -1 -1 0
1;
#X text 398 185 -0;
#X text 398 201 -6;
#X connect 1 0 25 0;
#X connect 1 0 33 0;
#X connect 3 0 17 0;
#X connect 3 0 32 0;
#X connect 4 0 0 0;
#X connect 5 0 2 0;
#X connect 6 0 7 0;
#X connect 7 0 8 1;
#X connect 7 0 13 1;
#X connect 8 0 9 0;
#X connect 10 0 2 1;
#X connect 11 0 15 0;
#X connect 12 0 10 0;
#X connect 12 1 13 0;
#X connect 12 2 8 0;
#X connect 12 3 16 0;
#X connect 13 0 14 0;
#X connect 14 0 11 0;
#X connect 16 0 6 0;
#X connect 16 1 7 1;
#X connect 17 0 12 0;
#X connect 18 0 19 1;
#X connect 18 0 22 1;
#X connect 19 0 28 0;
#X connect 20 0 29 0;
#X connect 21 0 27 0;
#X connect 21 1 22 0;
#X connect 21 2 19 0;
#X connect 21 3 24 0;
#X connect 22 0 23 0;
#X connect 23 0 20 0;
#X connect 24 0 26 0;
#X connect 24 1 18 1;
#X connect 25 0 21 0;
#X connect 26 0 18 0;
#X connect 27 0 0 1;
#X connect 30 0 11 0;
#X connect 31 0 20 0;
#X connect 32 0 5 0;
#X connect 33 0 4 0;
#X connect 35 0 34 0;
#X coords 0 -1 1 1 37 85 2 377 171;
