#N canvas 888 189 611 402 10;
#X obj 229 150 v sequencer_number;
#X obj 230 69 loadbang;
#X obj 229 172 + 1;
#X obj 229 194 v sequencer_number;
#X floatatom 229 216 5 0 0 0 - - -, f 5;
#X obj 180 90 bng 15 250 50 0 empty empty empty 17 7 0 10 -262144 -1
-1;
#X obj 202 118 t b b;
#X obj 93 291 netreceive;
#X obj 93 316 print rec;
#N canvas 775 577 385 236 \$0-netreceive 0;
#X obj 115 50 mrpeach/tcpreceive 8154;
#X obj 115 72 outlet;
#X connect 0 0 1 0;
#X restore 247 345 pd \$0-netreceive;
#X connect 0 0 2 0;
#X connect 1 0 5 0;
#X connect 2 0 3 0;
#X connect 3 0 4 0;
#X connect 5 0 6 0;
#X connect 6 0 3 0;
#X connect 6 1 0 0;
#X connect 7 0 8 0;
