#N canvas 387 245 545 739 10;
#X obj 109 112 cnv 15 233 192 empty \$0-background empty 20 12 0 14
-145896 -262144 0;
#X obj 191 67 bendin;
#N canvas 719 193 1171 740 tri_ops4p 0;
#X obj 119 680 outlet~;
#X obj 181 135 clip 0 1;
#X obj 119 91 inlet;
#X text 120 69 pitch;
#X obj 181 89 inlet;
#X text 220 91 gate;
#X obj 119 157 pack 0 0;
#X obj 273 119 - 8192;
#X obj 273 161 clip -1 1;
#X obj 273 140 / 8192;
#X obj 273 182 * 2;
#X text 333 152 bend range;
#X obj 273 98 inlet;
#X text 273 77 bend;
#X obj 181 112 / 128;
#X obj 181 158 t b;
#X obj 385 100 inlet;
#X obj 441 99 inlet;
#X text 445 83 fb mod;
#X text 383 83 fma mod;
#X obj 386 127 / 128;
#X obj 503 175 *;
#X obj 503 154 * 1;
#X obj 503 49 metro 5;
#X obj 503 70 float;
#X obj 503 91 + 1;
#X obj 557 68 wrap;
#X obj 503 133 cos;
#X obj 503 112 * 6.28319;
#X text 503 28 vibrato lfo;
#X obj 273 203 +;
#X obj 308 184 t b f;
#X obj 532 156 *;
#X obj 588 -1 inlet;
#X obj 443 123 / 128;
#X obj 593 624 outlet;
#X text 590 642 preset;
#X msg 181 181 trigger;
#X obj 181 204 s \$0-from_gui;
#X obj 386 388 pack f f;
#X obj 386 366 t b f;
#X obj 386 410 list prepend mod;
#X obj 593 439 pack f f;
#X obj 601 415 t b f;
#X obj 593 463 list prepend vibAm;
#X obj 592 511 r \$0-from_gui;
#X obj 593 533 t a;
#X obj 681 511 r \$0-vol;
#X obj 723 84 unpack f f;
#N canvas 2041 265 557 426 adsr 0;
#X obj 87 117 vsl 15 81 0.1 1 0 1 empty empty a 3 5 0 10 -158047 -1
-262144 0 1;
#X obj 102 117 vsl 15 81 0.1 1 0 1 empty empty d 3 5 0 10 -158047 -1
-262144 2278 1;
#X obj 132 117 vsl 15 81 0.2 1 0 1 empty empty r 3 5 0 10 -158047 -1
-262144 1800 1;
#X obj 117 117 vsl 15 81 0 1 0 1 empty empty s 3 5 0 10 -158047 -1
-262144 4000 1;
#X obj 87 72 unpack f f f f;
#X obj 87 36 inlet;
#X obj 88 266 pack f f f f;
#X obj 88 295 list prepend adsr0;
#X obj 88 237 t b f;
#X obj 122 237 t b f;
#X obj 156 237 t b f;
#X obj 190 237 t b f;
#X obj 88 326 s \$0-from_gui;
#X obj 222 33 inlet;
#X connect 0 0 8 0;
#X connect 1 0 9 0;
#X connect 2 0 11 0;
#X connect 3 0 10 0;
#X connect 4 0 0 0;
#X connect 4 1 1 0;
#X connect 4 2 3 0;
#X connect 4 3 2 0;
#X connect 5 0 4 0;
#X connect 6 0 7 0;
#X connect 7 0 12 0;
#X connect 8 0 6 0;
#X connect 8 1 6 0;
#X connect 9 0 6 0;
#X connect 9 1 6 1;
#X connect 10 0 6 0;
#X connect 10 1 6 2;
#X connect 11 0 6 0;
#X connect 11 1 6 3;
#X connect 13 0 0 0;
#X connect 13 0 3 0;
#X connect 13 0 2 0;
#X connect 13 0 1 0;
#X coords 0 -1 1 1 60 86 2 87 117;
#X restore 588 149 pd adsr;
#N canvas 2041 265 557 426 adsr 0;
#X obj 87 117 vsl 15 81 0.1 1 0 1 empty empty a 3 5 0 10 -258034 -1
-1 400 1;
#X obj 102 117 vsl 15 81 0.1 1 0 1 empty empty d 3 5 0 10 -258034 -1
-1 1467 1;
#X obj 132 117 vsl 15 81 0.2 1 0 1 empty empty r 3 5 0 10 -258034 -1
-1 1300 1;
#X obj 117 117 vsl 15 81 0 1 0 1 empty empty s 3 5 0 10 -258034 -1
-1 2600 1;
#X obj 87 72 unpack f f f f;
#X obj 87 36 inlet;
#X obj 88 266 pack f f f f;
#X obj 88 237 t b f;
#X obj 122 237 t b f;
#X obj 156 237 t b f;
#X obj 190 237 t b f;
#X obj 88 326 s \$0-from_gui;
#X obj 222 33 inlet;
#X obj 88 295 list prepend adsr1;
#X connect 0 0 7 0;
#X connect 1 0 8 0;
#X connect 2 0 10 0;
#X connect 3 0 9 0;
#X connect 4 0 0 0;
#X connect 4 1 1 0;
#X connect 4 2 3 0;
#X connect 4 3 2 0;
#X connect 5 0 4 0;
#X connect 6 0 13 0;
#X connect 7 0 6 0;
#X connect 7 1 6 0;
#X connect 8 0 6 0;
#X connect 8 1 6 1;
#X connect 9 0 6 0;
#X connect 9 1 6 2;
#X connect 10 0 6 0;
#X connect 10 1 6 3;
#X connect 12 0 0 0;
#X connect 12 0 3 0;
#X connect 12 0 2 0;
#X connect 12 0 1 0;
#X connect 13 0 11 0;
#X coords 0 -1 1 1 60 86 2 87 117;
#X restore 655 149 pd adsr;
#N canvas 1273 278 557 449 adsr 0;
#X obj 87 117 vsl 15 81 0.1 1 0 1 empty empty a 3 5 0 10 -120084 -1
-262144 0 1;
#X obj 102 117 vsl 15 81 0.1 1 0 1 empty empty d 3 5 0 10 -120084 -1
-262144 3111 1;
#X obj 132 117 vsl 15 81 0.2 1 0 1 empty empty r 3 5 0 10 -120084 -1
-262144 1800 1;
#X obj 117 117 vsl 15 81 0 1 0 1 empty empty s 3 5 0 10 -120084 -1
-262144 4000 1;
#X obj 87 72 unpack f f f f;
#X obj 87 36 inlet;
#X obj 88 266 pack f f f f;
#X obj 88 237 t b f;
#X obj 122 237 t b f;
#X obj 156 237 t b f;
#X obj 190 237 t b f;
#X obj 88 326 s \$0-from_gui;
#X obj 222 33 inlet;
#X obj 88 295 list prepend adsr2;
#X connect 0 0 7 0;
#X connect 1 0 8 0;
#X connect 2 0 10 0;
#X connect 3 0 9 0;
#X connect 4 0 0 0;
#X connect 4 1 1 0;
#X connect 4 2 3 0;
#X connect 4 3 2 0;
#X connect 5 0 4 0;
#X connect 6 0 13 0;
#X connect 7 0 6 0;
#X connect 7 1 6 0;
#X connect 8 0 6 0;
#X connect 8 1 6 1;
#X connect 9 0 6 0;
#X connect 9 1 6 2;
#X connect 10 0 6 0;
#X connect 10 1 6 3;
#X connect 12 0 0 0;
#X connect 12 0 3 0;
#X connect 12 0 2 0;
#X connect 12 0 1 0;
#X connect 13 0 11 0;
#X coords 0 -1 1 1 60 86 2 87 117;
#X restore 722 149 pd adsr;
#X msg 831 49 color \$1 \$2;
#X obj 519 358 expr (pow($f1 \, 2) * 20 + 0.5) / 200;
#X obj 386 432 s \$0-from_gui;
#X obj 202 329 t a;
#N canvas 635 77 1285 748 fms 0;
#X obj 531 187 vradio 15 0 1 5 empty empty empty 0 -8 0 10 -158047
-1 -262144 0;
#X obj 598 187 vradio 15 1 1 5 empty empty empty 0 -8 0 10 -258034
-1 -1 0;
#X obj 516 265 nbx 3 14 0.25 16 0 0 empty empty empty 0 -8 0 10 -158047
-262144 -262144 1 256 0;
#X obj 516 187 vsl 15 70 0 0.5 0 1 empty empty fb 2 6 0 10 -158047
-1 -262144 1100 1;
#X obj 583 187 vsl 15 70 0 0.5 0 1 empty empty fb 2 6 0 10 -258034
-1 -1 2700 1;
#X obj 613 187 vsl 15 70 0 1 0 1 empty empty l 2 6 0 10 -258034 -1
-1 1400 1;
#X obj 665 187 vradio 15 0 1 5 empty empty empty 0 -8 0 10 -120084
-1 -262144 0;
#X obj 650 187 vsl 15 70 0 0.5 0 1 empty empty fb 2 6 0 10 -120084
-1 -262144 1100 1;
#X obj 546 187 vsl 15 70 0 1 0 1 empty empty l 2 6 0 10 -158047 -1
-262144 5350 1;
#X obj 680 187 vsl 15 70 0 1 0 1 empty empty l 2 6 0 10 -120084 -1
-262144 4050 1;
#X obj 584 265 nbx 3 14 0.25 16 0 0 empty empty empty 0 -8 0 10 -258034
-1 -1 2 256 0;
#X obj 628 187 vsl 15 70 0 1 0 1 empty empty fm 0 6 0 10 -158047 -1
-262144 3450 1;
#X obj 710 187 vsl 15 70 0 1 0 1 empty empty fm 0 6 0 10 -258034 -1
-1 1300 1;
#X obj 695 187 vsl 15 70 0 1 0 1 empty empty fm 0 6 0 10 -158047 -1
-262144 3450 1;
#X obj 372 17 inlet;
#X obj 333 636 outlet;
#X obj 793 460 pack f f f f;
#X obj 793 485 list prepend ktLfoFmFb;
#X obj 664 458 list prepend wave;
#X obj 664 436 pack f f f;
#X msg 121 515 detune \$1;
#X obj 201 488 pack f f;
#X obj 201 515 list prepend rat;
#X obj 833 349 pack f f f;
#X obj 833 371 list prepend vol;
#X obj 834 393 s \$0-vol;
#X obj 833 326 t b f;
#X obj 871 326 t b f;
#X obj 310 487 pack f f f;
#X obj 310 515 list prepend fb;
#X obj 219 472 t b f;
#X obj 310 463 t b f;
#X obj 350 463 t b f;
#X obj 415 482 pack f f f;
#X obj 415 458 t b f;
#X obj 455 458 t b f;
#X obj 415 515 list prepend fm;
#X obj 516 481 pack f f;
#X obj 517 459 t b f;
#X obj 516 515 list prepend mod;
#X obj 644 532 t a;
#X obj 702 413 t b f;
#X obj 665 413 t b f;
#X obj 732 510 r \$0-vol;
#X obj 380 91 unpack f f f;
#X obj 460 91 unpack f f f f;
#X obj 552 91 unpack f f;
#X obj 620 91 unpack f f f;
#X obj 700 91 unpack f f f;
#X obj 780 91 unpack f f f;
#X obj 333 596 t a;
#X obj 644 625 outlet to_presets;
#X obj 516 626 outlet from_gui;
#X obj 372 42 route wave ktLfoFmFb vibAm detune rat fb fm vol, f 49
;
#X msg 876 170 color \$1 \$2;
#X msg 971 170 color \$1 \$2;
#X msg 1066 170 color \$1 \$2;
#X obj 877 443 t b f;
#X obj 843 443 t b f;
#X obj 809 443 t b f;
#X obj 627 274 mknob 17 200 0 1 0 0 empty empty lfo -2 -7 0 10 -262144
-260097 -262144 6456 1;
#X obj 665 274 mknob 17 200 0 1 0 0 empty empty fb 1 -7 0 10 -262144
-260097 -262144 14700 1;
#X obj 646 274 mknob 17 200 0 1 0 0 empty empty fm 1 -7 0 10 -262144
-260097 -262144 12400 1;
#X obj 684 274 mknob 17 200 -1 1 0 0 empty empty kt 1 -7 0 10 -262144
-260097 -262144 5150 1;
#X obj 708 274 mknob 17 200 0 1 0 0 empty empty dt 1 -7 0 10 -262144
-1 -262144 3300 1;
#X obj 876 35 inlet colors;
#X obj 876 57 route col0 col1 col2;
#X connect 0 0 19 0;
#X connect 1 0 42 0;
#X connect 2 0 21 0;
#X connect 3 0 28 0;
#X connect 4 0 31 0;
#X connect 5 0 26 0;
#X connect 6 0 41 0;
#X connect 7 0 32 0;
#X connect 8 0 23 0;
#X connect 9 0 27 0;
#X connect 10 0 30 0;
#X connect 11 0 33 0;
#X connect 12 0 34 0;
#X connect 13 0 35 0;
#X connect 14 0 53 0;
#X connect 16 0 17 0;
#X connect 17 0 40 0;
#X connect 17 0 52 0;
#X connect 18 0 40 0;
#X connect 18 0 52 0;
#X connect 19 0 18 0;
#X connect 20 0 40 0;
#X connect 20 0 50 0;
#X connect 21 0 22 0;
#X connect 22 0 40 0;
#X connect 22 0 50 0;
#X connect 23 0 24 0;
#X connect 24 0 25 0;
#X connect 26 0 23 0;
#X connect 26 1 23 1;
#X connect 27 0 23 0;
#X connect 27 1 23 2;
#X connect 28 0 29 0;
#X connect 29 0 40 0;
#X connect 29 0 50 0;
#X connect 30 0 21 0;
#X connect 30 1 21 1;
#X connect 31 0 28 0;
#X connect 31 1 28 1;
#X connect 32 0 28 0;
#X connect 32 1 28 2;
#X connect 33 0 36 0;
#X connect 34 0 33 0;
#X connect 34 1 33 1;
#X connect 35 0 33 0;
#X connect 35 1 33 2;
#X connect 36 0 40 0;
#X connect 36 0 50 0;
#X connect 37 0 39 0;
#X connect 38 0 37 0;
#X connect 38 1 37 1;
#X connect 39 0 40 0;
#X connect 39 0 52 0;
#X connect 40 0 51 0;
#X connect 41 0 19 0;
#X connect 41 1 19 2;
#X connect 42 0 19 0;
#X connect 42 1 19 1;
#X connect 43 0 40 0;
#X connect 44 0 0 0;
#X connect 44 1 6 0;
#X connect 44 2 1 0;
#X connect 45 0 63 0;
#X connect 45 1 60 0;
#X connect 45 2 62 0;
#X connect 45 3 61 0;
#X connect 46 0 2 0;
#X connect 46 1 10 0;
#X connect 47 0 3 0;
#X connect 47 1 4 0;
#X connect 47 2 7 0;
#X connect 48 0 11 0;
#X connect 48 1 12 0;
#X connect 48 2 13 0;
#X connect 49 0 8 0;
#X connect 49 1 5 0;
#X connect 49 2 9 0;
#X connect 50 0 15 0;
#X connect 53 0 44 0;
#X connect 53 1 45 0;
#X connect 53 3 64 0;
#X connect 53 4 46 0;
#X connect 53 5 47 0;
#X connect 53 6 48 0;
#X connect 53 7 49 0;
#X connect 54 0 3 0;
#X connect 54 0 0 0;
#X connect 54 0 8 0;
#X connect 54 0 11 0;
#X connect 54 0 2 0;
#X connect 54 0 13 0;
#X connect 55 0 4 0;
#X connect 55 0 1 0;
#X connect 55 0 5 0;
#X connect 55 0 10 0;
#X connect 55 0 12 0;
#X connect 56 0 7 0;
#X connect 56 0 6 0;
#X connect 56 0 9 0;
#X connect 57 0 16 0;
#X connect 57 1 16 3;
#X connect 58 0 16 0;
#X connect 58 1 16 2;
#X connect 59 0 16 0;
#X connect 59 1 16 1;
#X connect 60 0 59 0;
#X connect 61 0 57 0;
#X connect 62 0 58 0;
#X connect 63 0 16 0;
#X connect 64 0 20 0;
#X connect 65 0 66 0;
#X connect 66 0 54 0;
#X connect 66 1 55 0;
#X connect 66 2 56 0;
#X coords 0 -1 1 1 209 105 2 516 187;
#X restore 588 238 pd fms;
#X obj 689 395 s \$0-from_gui;
#X obj 215 403 r \$0-from_gui;
#X obj 215 425 list prepend all;
#X obj 215 447 list trim;
#X obj 201 353 list prepend all;
#X obj 201 375 list trim;
#X obj 502 17 tgl 15 1 empty empty empty 17 7 0 10 -262144 -1 -1 1
1;
#X obj 119 581 *~;
#X obj 195 581 *~;
#X obj 157 581 *~;
#X obj 290 500 r \$0-vol;
#X obj 290 564 unpack f f f;
#X obj 290 542 route vol;
#X obj 290 522 list trim;
#N canvas 410 526 311 381 router 0;
#X obj 123 65 t b f;
#X obj 79 244 outlet;
#X obj 158 244 outlet;
#X obj 79 34 inlet;
#X obj 123 34 inlet;
#X msg 158 126 \$1 \$3;
#X msg 79 104 \$2 \$1;
#X obj 79 148 +;
#X obj 79 170 pack f f;
#X obj 79 126 unpack f f;
#X msg 79 192 \$2 \$1;
#X connect 0 0 7 0;
#X connect 0 1 7 1;
#X connect 3 0 5 0;
#X connect 3 0 6 0;
#X connect 4 0 0 0;
#X connect 5 0 2 0;
#X connect 6 0 9 0;
#X connect 7 0 8 0;
#X connect 8 0 10 0;
#X connect 9 0 7 0;
#X connect 9 1 8 1;
#X connect 10 0 1 0;
#X restore 119 448 pd router;
#X msg 46 429 vis 1 1;
#X msg 43 461 vis 2 1;
#X msg 46 489 vis 3 1;
#X obj 273 225 change;
#X obj 785 162 mknob 17 200 0 1 0 0 empty empty vib 0 -7 0 10 -262144
-64 -262144 13300 1;
#X obj 785 188 mknob 17 200 0 1 0 0 empty empty am 1 -7 0 10 -262144
-64 -262144 3400 1;
#X obj 831 5 inlet colors;
#X msg 870 73 color \$1 \$2;
#X msg 909 95 color \$1 \$2;
#X obj 831 27 route col0 col1 col2 voices;
#N canvas 1132 242 714 609 poly 0;
#X obj 92 94 inlet pitch;
#X obj 239 94 inlet poly;
#X obj 92 161 demux . . . . . . . . . .;
#X obj 92 205 poly 1 1;
#X obj 149 205 poly 2 1;
#X obj 206 205 poly 3 1;
#X obj 263 205 poly 4 1;
#X obj 320 205 poly 5 1;
#X obj 377 205 poly 6 1;
#X obj 434 205 poly 7 1;
#X obj 491 205 poly 8 1;
#X obj 548 205 poly 9 1;
#X obj 605 205 poly 10 1;
#X obj 92 316 pack 0 0 0;
#X obj 92 287 - 1;
#X obj 239 116 change;
#X obj 239 138 t f b;
#X msg 319 161 clear;
#X obj 92 338 outlet;
#X connect 0 0 2 0;
#X connect 1 0 15 0;
#X connect 2 0 3 0;
#X connect 2 1 4 0;
#X connect 2 2 5 0;
#X connect 2 3 6 0;
#X connect 2 4 7 0;
#X connect 2 5 8 0;
#X connect 2 6 9 0;
#X connect 2 7 10 0;
#X connect 2 8 11 0;
#X connect 2 9 12 0;
#X connect 3 0 14 0;
#X connect 3 1 13 1;
#X connect 3 2 13 2;
#X connect 4 0 14 0;
#X connect 4 1 13 1;
#X connect 4 2 13 2;
#X connect 5 0 14 0;
#X connect 5 1 13 1;
#X connect 5 2 13 2;
#X connect 6 0 14 0;
#X connect 6 1 13 1;
#X connect 6 2 13 2;
#X connect 7 0 14 0;
#X connect 7 1 13 1;
#X connect 7 2 13 2;
#X connect 8 0 14 0;
#X connect 8 1 13 1;
#X connect 8 2 13 2;
#X connect 9 0 14 0;
#X connect 9 1 13 1;
#X connect 9 2 13 2;
#X connect 10 0 14 0;
#X connect 10 1 13 1;
#X connect 10 2 13 2;
#X connect 11 0 14 0;
#X connect 11 1 13 1;
#X connect 11 2 13 2;
#X connect 12 0 14 0;
#X connect 12 1 13 1;
#X connect 12 2 13 2;
#X connect 13 0 18 0;
#X connect 14 0 13 0;
#X connect 15 0 16 0;
#X connect 16 0 2 1;
#X connect 16 1 17 0;
#X connect 17 0 3 0;
#X connect 17 0 12 0;
#X connect 17 0 11 0;
#X connect 17 0 10 0;
#X connect 17 0 9 0;
#X connect 17 0 8 0;
#X connect 17 0 7 0;
#X connect 17 0 6 0;
#X connect 17 0 5 0;
#X connect 17 0 4 0;
#X restore 119 276 pd poly;
#X floatatom 157 256 5 0 0 2 voices - -, f 5;
#X msg 157 307 all \$1;
#X obj 119 608 *~ 1;
#X obj 197 25 namecanvas triops;
#X obj 785 218 mknob 17 201 0 2 0 0 empty empty vol 0 -7 0 10 -262144
-64 -262144 10000 1;
#X floatatom 901 237 7 0 0 0 - - -, f 7;
#X obj 940 424 dbtorms;
#X obj 901 257 moses 1;
#X floatatom 901 280 5 0 0 0 - - -, f 5;
#X floatatom 940 280 5 0 0 0 - - -, f 5;
#X floatatom 940 445 5 0 0 0 - - -, f 5;
#X floatatom 901 478 5 0 0 0 - - -, f 5;
#X obj 940 300 - 1;
#X obj 940 321 * 100;
#X floatatom 940 342 5 0 0 0 - - -, f 5;
#X obj 940 383 + 100;
#X floatatom 940 404 5 0 0 0 - - -, f 5;
#X obj 940 362 / 5;
#X obj 119 654 *~;
#X obj 218 641 line~;
#X msg 218 614 \$1 5;
#X obj 588 24 route adsr0 adsr1 adsr2 vibAm main_vol;
#X msg 900 499 main_vol main_vol \$1;
#X obj 119 470 clone subs/tri_ops_voice 10;
#X connect 1 0 6 1;
#X connect 1 0 15 0;
#X connect 2 0 6 0;
#X connect 4 0 14 0;
#X connect 6 0 82 0;
#X connect 7 0 9 0;
#X connect 8 0 10 0;
#X connect 9 0 8 0;
#X connect 10 0 30 0;
#X connect 12 0 7 0;
#X connect 14 0 1 0;
#X connect 15 0 37 0;
#X connect 16 0 20 0;
#X connect 17 0 34 0;
#X connect 20 0 39 0;
#X connect 21 0 31 0;
#X connect 22 0 21 0;
#X connect 23 0 24 0;
#X connect 24 0 25 0;
#X connect 25 0 26 0;
#X connect 25 0 28 0;
#X connect 26 0 24 1;
#X connect 27 0 22 0;
#X connect 28 0 27 0;
#X connect 30 0 75 0;
#X connect 31 0 30 0;
#X connect 31 1 30 1;
#X connect 32 0 21 1;
#X connect 33 0 104 0;
#X connect 34 0 40 0;
#X connect 37 0 38 0;
#X connect 39 0 41 0;
#X connect 40 0 39 0;
#X connect 40 1 39 1;
#X connect 41 0 46 0;
#X connect 41 0 54 0;
#X connect 42 0 44 0;
#X connect 43 0 42 0;
#X connect 43 1 42 1;
#X connect 44 0 46 0;
#X connect 45 0 46 0;
#X connect 46 0 35 0;
#X connect 47 0 46 0;
#X connect 48 0 76 0;
#X connect 48 1 77 0;
#X connect 52 0 49 1;
#X connect 53 0 25 1;
#X connect 55 0 61 0;
#X connect 56 0 55 0;
#X connect 56 1 57 0;
#X connect 56 2 46 0;
#X connect 58 0 59 0;
#X connect 59 0 60 0;
#X connect 60 0 106 3;
#X connect 61 0 62 0;
#X connect 62 0 106 2;
#X connect 63 0 23 0;
#X connect 64 0 85 0;
#X connect 65 0 85 0;
#X connect 66 0 85 0;
#X connect 67 0 70 0;
#X connect 68 0 64 1;
#X connect 68 1 66 1;
#X connect 68 2 65 1;
#X connect 69 0 68 0;
#X connect 70 0 69 0;
#X connect 71 0 106 0;
#X connect 71 1 106 1;
#X connect 72 0 106 0;
#X connect 73 0 106 0;
#X connect 74 0 106 0;
#X connect 75 0 71 1;
#X connect 76 0 53 0;
#X connect 76 0 42 0;
#X connect 77 0 32 0;
#X connect 77 0 32 1;
#X connect 77 0 43 0;
#X connect 78 0 56 1;
#X connect 78 0 81 0;
#X connect 79 0 50 1;
#X connect 80 0 51 1;
#X connect 81 0 52 0;
#X connect 81 1 79 0;
#X connect 81 2 80 0;
#X connect 81 3 83 0;
#X connect 82 0 71 0;
#X connect 83 0 82 1;
#X connect 83 0 84 0;
#X connect 84 0 106 4;
#X connect 85 0 101 0;
#X connect 87 0 88 0;
#X connect 88 0 90 0;
#X connect 89 0 93 0;
#X connect 90 0 91 0;
#X connect 90 1 92 0;
#X connect 91 0 94 0;
#X connect 92 0 95 0;
#X connect 93 0 94 0;
#X connect 94 0 103 0;
#X connect 94 0 105 0;
#X connect 95 0 96 0;
#X connect 96 0 97 0;
#X connect 97 0 100 0;
#X connect 98 0 99 0;
#X connect 99 0 89 0;
#X connect 100 0 98 0;
#X connect 101 0 0 0;
#X connect 102 0 101 1;
#X connect 103 0 102 0;
#X connect 104 0 49 0;
#X connect 104 1 50 0;
#X connect 104 2 51 0;
#X connect 104 3 48 0;
#X connect 104 4 87 0;
#X connect 104 5 56 0;
#X connect 105 0 46 0;
#X connect 106 0 64 0;
#X connect 106 1 66 0;
#X connect 106 2 65 0;
#X coords 0 -1 1 1 216 194 2 588 149;
#X restore 108 111 pd tri_ops4p;
#X obj 233 67 ctlin 1;
#X obj 275 67 ctlin 64;
#X obj 108 363 outlet~;
#X obj 108 67 unpack f f;
#X obj 108 25 inlet;
#X obj 326 124 tgl 15 1 empty empty on 1 -8 0 10 -262144 -1 -261351
1 1;
#X obj 367 142 switch~;
#N canvas 1048 324 551 423 presets 0;
#X obj 213 140 vradio 12 0 0 8 empty empty empty 0 -8 0 10 -262144
-1 -1 4;
#X obj 209 127 nbx 1 14 0 4 0 0 empty empty pre 0 -8 0 10 -262144 -1
-261351 3 256 0;
#N canvas 1937 67 1438 953 presets 0;
#X obj 71 29 inlet;
#X obj 71 76 route 0 1 2 3 4 5 6 7 8 9 10 11 12 13 14 15 16 17 18 19
20 21 22 23 24 25 26 27 28 29 30 31 32 33 34 35 36 37 38 39;
#X msg 75 136 adsr0 0.1 0.3 0.5 0.38 \, vol 0.992754 0.057971 0.724638
\, fm 0.5 0 0.5 \, fb 0 0 0 \, rat 1 3 \, detune 0.2 \, ktLfoFmFb 0
0.309347 0 0 \, wave 0 0 0 \, adsr2 0.1 0.45 0.5 0.38 \, adsr1 0.1
0.4 0.5 0.38 \, vibAm 0.668342 0.170854 \, main_vol 1 \,;
#X msg 75 206 adsr0 0.1 0.35875 0.375 0.4 \, vol 0.42029 0.173913 0.652174
\, fm 0.391304 0.84058 0.666667 \, fb 0.166667 0.318841 0.5 \, rat
1 1.5 \, detune 0.101709 \, ktLfoFmFb -0.0126633 1 0.217387 0.333317
\, wave 0 0 2 \, adsr2 0.17875 0.505 0.4625 0.39 \, adsr1 0.13375 0.24625
0.4 0.4 \, vibAm 0.668342 0.170854 \, main_vol 1 \,;
#X msg 75 276 adsr0 0.415 0.603775 0.425 0.51 \, vol 0.289855 0 0.985507
\, fm 0.73913 0.536232 0.572464 \, fb 0.253623 0.289855 0.253623 \,
rat 1.5 3 \, detune 0.132211 \, ktLfoFmFb 0.0253266 0.478241 0.420301
0.130452 \, wave 1 1 0 \, adsr2 0.51625 0.45 0.5 0.45 \, adsr1 0.3025
0.321288 0.6625 0.52 \, vibAm 0.668342 0.170854 \, main_vol 1 \,;
#X msg 75 346 adsr0 0.1 0.37 0.2625 0.35 \, vol 0 0.275362 1 \, fm
0.550725 0.782609 0.297101 \, fb 0.333333 0 0.057971 \, rat 3 5.5 \,
detune 0.216935 \, ktLfoFmFb -0.911357 0.309347 0.608693 0.231859 \,
wave 0 0 0 \, adsr2 0.1 0.584988 0.6125 0.47 \, adsr1 0.235 0.400037
0.1875 0.38 \, vibAm 0.668342 0.170854 \, main_vol 1 \,;
#X msg 75 416 adsr0 0.1 0.401275 0.1 0.38 \, vol 0.25 0.330435 1 \,
fm 0.702899 0.565217 0.557971 \, fb 0.181159 0 0 \, rat 4 3 \, detune
0.2 \, ktLfoFmFb 0 1 0.289849 0.202915 \, wave 2 2 1 \, adsr2 0.1225
0.618738 0.4125 0.43 \, adsr1 0.22375 0.523787 0.175 0.38 \, vibAm
0.668342 0.170854 \, main_vol 1 \,;
#X msg 75 486 adsr0 0.1 0.401275 0.1 0.38 \, vol 0.307971 0.315942
0.942029 \, fm 0.65942 0.652174 0.746377 \, fb 0.173913 0.384058 0.144928
\, rat 3 0.5 \, detune 0.149146 \, ktLfoFmFb 0 1 0.637688 0.333317
\, wave 0 0 0 \, adsr2 0.1225 0.618738 0.4125 0.43 \, adsr1 0.22375
0.523787 0.175 0.38 \, vibAm 0.668342 0.170854 \, main_vol 1 \,;
#X msg 75 556 adsr0 0.1 0.435025 0.5 0.38 \, vol 0.913043 0.246377
0.478261 \, fm 0.282609 0.492754 0.782609 \, fb 0 0.224638 0 \, rat
1 2 \, detune 0.110151 \, ktLfoFmFb -0.278492 0.396482 0.478241 0.681156
\, wave 0 0 2 \, adsr2 0.330625 0.551238 0.625 0.41 \, adsr1 0.235
0.400037 0.23125 0.22 \, vibAm 0.668342 0.170854 \, main_vol 1 \,;
#X msg 75 626 adsr0 0.1 0.435025 0.5 0.38 \, vol 0.913043 0.246377
0.478261 \, fm 0.282609 0.492754 0.782609 \, fb 0 0.224638 0 \, rat
1 2 \, detune 0.110151 \, ktLfoFmFb -0.278492 0.396482 0.478241 0.681156
\, wave 0 0 2 \, adsr2 0.330625 0.551238 0.625 0.41 \, adsr1 0.235
0.400037 0.23125 0.22 \, vibAm 0.668342 0.170854 \, main_vol 0.37 \,
;
#X msg 75 696 adsr0 0.1 0.401275 0.1 0.38 \, vol 0.307971 0.315942
0.942029 \, fm 0.65942 0.652174 0.746377 \, fb 0.173913 0.384058 0.144928
\, rat 3 0.5 \, detune 0 \, ktLfoFmFb 0.125628 1 0.607538 0.582915
\, wave 0 0 0 \, adsr2 0.1225 0.618738 0.4125 0.43 \, adsr1 0.22375
0.523787 0.175 0.38 \, vibAm 0.477387 0 \, main_vol 1 \,;
#X msg 75 766 adsr0 0.1 0.3 0.5 0.38 \, vol 0.731884 0.956522 0.15942
\, fm 0.797101 0.115942 0.130435 \, fb 0.242754 0.307971 0 \, rat 0.25
0.5 \, detune 0 \, ktLfoFmFb -0.467337 0.616884 0.638191 0.723618 \,
wave 0 1 0 \, adsr2 0.1 0.45 0.5 0.38 \, adsr1 0.13375 0.400037 0.2125
0.23 \, vibAm 0.688442 0 \, main_vol 1 \,;
#X msg 455 133 adsr0 0.1 0.37 0.2625 0.35 \, vol 0.405797 0.724638
0.717391 \, fm 0.652174 0.855072 0.92029 \, fb 0.333333 0.289855 0.362319
\, rat 3 3 \, detune 0.170854 \, ktLfoFmFb -0.366834 1 0.633819 0.588643
\, wave 0 0 0 \, adsr2 0.1 0.584988 0.6125 0.47 \, adsr1 0.235 0.703788
0.1875 0.38 \, vibAm 0.346734 0.110553 \, main_vol 1 \,;
#X msg 455 203 adsr0 0.235 0.513775 0.0625 0.405 \, vol 0.869565 0
0 \, fm 0.289855 0.84058 0.724638 \, fb 0.15942 0.199275 0.0217391
\, rat 0.25 0.5 \, detune 0 \, ktLfoFmFb 0.547739 0.522613 0.869347
0.442211 \, wave 1 0 0 \, adsr2 0.1 0.45 0.5 0.38 \, adsr1 0.1 0.568788
0.15 0.23 \, vibAm 0.688442 0 \, main_vol 1 \,;
#X msg 455 273 adsr0 0.19 0.69625 0.1 0.295 \, vol 0.811594 0.434783
0.144928 \, fm 0.289855 0.362319 0.449275 \, fb 0.0652174 0.199275
0.0434783 \, rat 0.25 0.5 \, detune 0.115578 \, ktLfoFmFb -0.829146
0.296482 0.703518 0.442211 \, wave 1 1 0 \, adsr2 0.1 0.45 0.5 0.38
\, adsr1 0.1675 0.422538 0.55 0.26 \, vibAm 0.457286 0.0452261 \, main_vol
1 \,;
#X msg 455 343 adsr0 0.1 0.345025 0.4875 0.335 \, vol 0.811594 0.710145
0.231884 \, fm 0.289855 0.84058 0.724638 \, fb 0.264493 0.199275 0.0217391
\, rat 0.25 0.5 \, detune 0 \, ktLfoFmFb 0.547739 0.356784 0.869347
0.442211 \, wave 0 0 0 \, adsr2 0.1 0.45 0.5 0.38 \, adsr1 0.1675 0.422538
0.55 0.23 \, vibAm 0.688442 0 \, main_vol 1 \,;
#X msg 455 413 adsr0 0.1 0.345025 0.4875 0.335 \, vol 0.811594 0.710145
0.231884 \, fm 0.289855 0.492754 0.826087 \, fb 0.264493 0.199275 0.0217391
\, rat 0.25 0.5 \, detune 0 \, ktLfoFmFb 0.547739 0.311558 0.613065
0.442211 \, wave 0 0 0 \, adsr2 0.1 0.45 0.5 0.38 \, adsr1 0.1675 0.422538
0.55 0.23 \, vibAm 0 0 \, main_vol 1 \,;
#X msg 455 483 adsr0 0.1 0.345025 0.4875 0.335 \, vol 0.811594 0.710145
0.231884 \, fm 0.289855 0.492754 0.826087 \, fb 0.264493 0.199275 0.0217391
\, rat 0.25 0.5 \, detune 0 \, ktLfoFmFb 0.547739 0.311558 0.613065
0.442211 \, wave 0 0 0 \, adsr2 0.1 0.45 0.5 0.38 \, adsr1 0.1675 0.422538
0.55 0.23 \, vibAm 0 0 \, main_vol 1 \,;
#X msg 455 553 adsr0 0.1 0.37 0.2625 0.35 \, vol 0 0 0.724638 \, fm
0.550725 0.782609 0.297101 \, fb 0.333333 0 0.057971 \, rat 3 6 \,
detune 0.170854 \, ktLfoFmFb -0.366834 0 1 0.297186 \, wave 0 0 0 \,
adsr2 0.1 0.584988 0.6125 0.47 \, adsr1 0.235 0.400037 0.1875 0.38
\, vibAm 0.668342 0.170854 \, main_vol 1 \,;
#X msg 455 623 adsr0 0.1 0.37 0.2625 0.35 \, vol 0 0.318841 0.942029
\, fm 0.550725 0.666667 0 \, fb 0.333333 0 0.0797101 \, rat 3 4 \,
detune 0.135678 \, ktLfoFmFb -0.105528 0.331658 0.643216 0.568543 \,
wave 0 0 0 \, adsr2 0.1 0.584988 0.6125 0.47 \, adsr1 0.263125 0.400037
0.2125 0.38 \, vibAm 0.668342 0.170854 \, main_vol 1 \,;
#X msg 455 693 adsr0 0.1 0.37 0.2625 0.35 \, vol 0.833333 0.318841
0.942029 \, fm 0.550725 0.115942 0.275362 \, fb 0.101449 0.0362319
0.0797101 \, rat 3 4 \, detune 0.135678 \, ktLfoFmFb -1 0.331658 0.643216
0.568543 \, wave 0 0 0 \, adsr2 0.1 0.584988 0.6125 0.47 \, adsr1 0.263125
0.400037 0.2125 0.38 \, vibAm 0.668342 0.170854 \, main_vol 1 \,;
#X msg 455 763 adsr0 0.2125 0.37 0.2625 0.35 \, vol 0.833333 0.318841
0.942029 \, fm 0.550725 0.492754 0.275362 \, fb 0 0 0 \, rat 2 3 \,
detune 0 \, ktLfoFmFb 0.0150754 0 0.567839 0.568543 \, wave 0 0 0 \,
adsr2 0.22375 0.584988 0.6125 0.47 \, adsr1 0.263125 0.400037 0.2125
0.38 \, vibAm 0.668342 0.170854 \, main_vol 1 \,;
#X msg 809 132 adsr0 0.2125 0.40375 0.6375 0.35 \, vol 1 0.666667 1
\, fm 0.76087 0.492754 0.275362 \, fb 0.0434783 0.217391 0.231884 \,
rat 1 3 \, detune 0 \, ktLfoFmFb 0.0150754 0 0.567839 0.568543 \, wave
3 0 3 \, adsr2 0.22375 0.584988 0.6125 0.47 \, adsr1 0.150625 0.400037
0.2125 0.38 \, vibAm 0.668342 0.170854 \, main_vol 1 \,;
#X msg 809 202 adsr0 0.13375 0.2125 0.2 0.37 \, vol 0.942029 0.855072
0.507246 \, fm 0 0.608696 0.623188 \, fb 0.188406 0.0869565 0.355072
\, rat 1 1 \, detune 0.321608 \, ktLfoFmFb 0.477387 0.422111 0.58794
0.668342 \, wave 3 3 4 \, adsr2 0.22375 0.168738 0.2 0.25 \, adsr1
0.319375 0.197537 0.2375 0.38 \, vibAm 0.668342 0.0954774 \, main_vol
1 \,;
#X msg 809 272 adsr0 0.13375 0.2125 0.2 0.37 \, vol 0.942029 0.855072
0 \, fm 0 0 0 \, fb 0.188406 0.0869565 0.231884 \, rat 1 1 \, detune
0 \, ktLfoFmFb -1 0 0 0 \, wave 3 0 3 \, adsr2 0.22375 0.584988 0.6125
0.47 \, adsr1 0.319375 0.197537 0.2375 0.38 \, vibAm 0.668342 0.0954774
\, main_vol 1 \,;
#X msg 809 342;
#X msg 809 412 adsr0 0.1 0.3 0.5 0.38 \, vol 0.775362 0 0.586957 \,
fm 0.5 0 0.5 \, fb 0 0 0 \, rat 1 3 \, detune 0.165829 \, ktLfoFmFb
0.231156 0.324422 0.623116 0.472362 \, wave 0 0 0 \, adsr2 0.1 0.45
0.5 0.38 \, adsr1 0.1 0.4 0.5 0.38 \, vibAm 0.668342 0.170854 \, main_vol
1 \,;
#X msg 809 482 adsr0 0.1 0.3 0.5 0.38 \, vol 0.992754 0.15942 0.695652
\, fm 0.5 0.318841 0.5 \, fb 0.0434783 0 0 \, rat 1 3 \, detune 0.165829
\, ktLfoFmFb 0.231156 0.324422 0.623116 0.472362 \, wave 0 0 0 \, adsr2
0.1 0.45 0.5 0.38 \, adsr1 0.1 0.4 0.5 0.38 \, vibAm 0.668342 0.170854
\, main_vol 1 \,;
#X msg 809 552 adsr0 0.1 0.3 0.5 0.38 \, vol 0.818841 0.289855 0.695652
\, fm 0.5 0 0.5 \, fb 0.0434783 0 0 \, rat 1 3 \, detune 0.165829 \,
ktLfoFmFb 0.231156 0.324422 0.623116 0.472362 \, wave 0 0 0 \, adsr2
0.1 0.45 0.5 0.38 \, adsr1 0.1 0.4 0.5 0.38 \, vibAm 0.668342 0.170854
\, main_vol 1 \,;
#X msg 809 622;
#X msg 809 692 adsr0 0.1 0.356275 0.5 0.38 \, vol 0.775362 0.202899
0.586957 \, fm 0.5 0.188406 0.5 \, fb 0.0797101 0.195652 0.0797101
\, rat 1 2 \, detune 0.165829 \, ktLfoFmFb -0.482412 0.324422 0.623116
0.738693 \, wave 0 0 0 \, adsr2 0.1 0.45 0.5 0.38 \, adsr1 0.145 0.265038
0.325 0.33 \, vibAm 0.668342 0.170854 \, main_vol 1 \,;
#X msg 809 762;
#X msg 1127 127;
#X msg 1127 197;
#X msg 1127 267;
#X msg 1127 337;
#X msg 1127 407;
#X msg 1127 477;
#X msg 1127 547;
#X msg 1127 617;
#X msg 1127 687;
#X msg 1127 757;
#X obj 531 864 outlet;
#X obj 713 32 inlet;
#X obj 713 71 route 0 1 2 3 4 5 6 7 8 9 10 11 12 13 14 15 16 17 18
19 20 21 22 23 24 25 26 27 28 29 30 31 32 33 34 35 36 37 38 39;
#X connect 0 0 1 0;
#X connect 1 0 2 0;
#X connect 1 1 3 0;
#X connect 1 2 4 0;
#X connect 1 3 5 0;
#X connect 1 4 6 0;
#X connect 1 5 7 0;
#X connect 1 6 8 0;
#X connect 1 7 9 0;
#X connect 1 8 10 0;
#X connect 1 9 11 0;
#X connect 1 10 12 0;
#X connect 1 11 13 0;
#X connect 1 12 14 0;
#X connect 1 13 15 0;
#X connect 1 14 16 0;
#X connect 1 15 17 0;
#X connect 1 16 18 0;
#X connect 1 17 19 0;
#X connect 1 18 20 0;
#X connect 1 19 21 0;
#X connect 1 20 22 0;
#X connect 1 21 23 0;
#X connect 1 22 24 0;
#X connect 1 23 25 0;
#X connect 1 24 26 0;
#X connect 1 25 27 0;
#X connect 1 26 28 0;
#X connect 1 27 29 0;
#X connect 1 28 30 0;
#X connect 1 29 31 0;
#X connect 1 30 32 0;
#X connect 1 31 33 0;
#X connect 1 32 34 0;
#X connect 1 33 35 0;
#X connect 1 34 36 0;
#X connect 1 35 37 0;
#X connect 1 36 38 0;
#X connect 1 37 39 0;
#X connect 1 38 40 0;
#X connect 1 39 41 0;
#X connect 2 0 42 0;
#X connect 3 0 42 0;
#X connect 4 0 42 0;
#X connect 5 0 42 0;
#X connect 6 0 42 0;
#X connect 7 0 42 0;
#X connect 8 0 42 0;
#X connect 9 0 42 0;
#X connect 10 0 42 0;
#X connect 11 0 42 0;
#X connect 12 0 42 0;
#X connect 13 0 42 0;
#X connect 14 0 42 0;
#X connect 15 0 42 0;
#X connect 16 0 42 0;
#X connect 17 0 42 0;
#X connect 18 0 42 0;
#X connect 19 0 42 0;
#X connect 20 0 42 0;
#X connect 21 0 42 0;
#X connect 22 0 42 0;
#X connect 23 0 42 0;
#X connect 24 0 42 0;
#X connect 25 0 42 0;
#X connect 26 0 42 0;
#X connect 27 0 42 0;
#X connect 28 0 42 0;
#X connect 29 0 42 0;
#X connect 30 0 42 0;
#X connect 31 0 42 0;
#X connect 32 0 42 0;
#X connect 33 0 42 0;
#X connect 34 0 42 0;
#X connect 35 0 42 0;
#X connect 36 0 42 0;
#X connect 37 0 42 0;
#X connect 38 0 42 0;
#X connect 39 0 42 0;
#X connect 40 0 42 0;
#X connect 41 0 42 0;
#X connect 43 0 44 0;
#X connect 44 0 2 0;
#X connect 44 1 3 0;
#X connect 44 2 4 0;
#X connect 44 3 5 0;
#X connect 44 4 6 0;
#X connect 44 5 7 0;
#X connect 44 6 8 0;
#X connect 44 7 9 0;
#X connect 44 8 10 0;
#X connect 44 9 11 0;
#X connect 44 10 12 0;
#X connect 44 11 13 0;
#X connect 44 12 14 0;
#X connect 44 13 15 0;
#X connect 44 14 16 0;
#X connect 44 15 17 0;
#X connect 44 16 18 0;
#X connect 44 17 19 0;
#X connect 44 18 20 0;
#X connect 44 19 21 0;
#X connect 44 20 22 0;
#X connect 44 21 23 0;
#X connect 44 22 24 0;
#X connect 44 23 25 0;
#X connect 44 24 26 0;
#X connect 44 25 27 0;
#X connect 44 26 28 0;
#X connect 44 27 29 0;
#X connect 44 28 30 0;
#X connect 44 29 31 0;
#X connect 44 30 32 0;
#X connect 44 31 33 0;
#X connect 44 32 34 0;
#X connect 44 33 35 0;
#X connect 44 34 36 0;
#X connect 44 35 37 0;
#X connect 44 36 38 0;
#X connect 44 37 39 0;
#X connect 44 38 40 0;
#X connect 44 39 41 0;
#X restore 350 273 pd presets;
#X obj 435 171 +;
#X obj 451 150 * 8;
#X floatatom 433 195 5 0 0 0 - - -, f 5;
#X obj 350 217 list prepend;
#X obj 350 239 list trim;
#N canvas 209 240 843 737 organize_presets 0;
#X obj 128 62 inlet;
#X obj 128 109 t a a;
#X obj 155 133 unpack s;
#X obj 128 84 list trim;
#N canvas 726 344 450 300 set_msg 0;
#X obj 116 94 list prepend;
#X obj 116 116 list prepend set;
#X obj 116 138 list trim;
#X obj 116 67 inlet;
#X obj 185 66 inlet;
#X obj 116 167 outlet;
#X connect 0 0 1 0;
#X connect 1 0 2 0;
#X connect 2 0 5 0;
#X connect 3 0 0 0;
#X connect 4 0 0 1;
#X restore 128 190 pd set_msg;
#N canvas 726 344 450 300 set_msg 0;
#X obj 116 94 list prepend;
#X obj 116 116 list prepend set;
#X obj 116 138 list trim;
#X obj 116 67 inlet;
#X obj 185 66 inlet;
#X obj 116 167 outlet;
#X connect 0 0 1 0;
#X connect 1 0 2 0;
#X connect 2 0 5 0;
#X connect 3 0 0 0;
#X connect 4 0 0 1;
#X restore 165 215 pd set_msg;
#N canvas 726 344 450 300 set_msg 0;
#X obj 116 94 list prepend;
#X obj 116 116 list prepend set;
#X obj 116 138 list trim;
#X obj 116 67 inlet;
#X obj 185 66 inlet;
#X obj 116 167 outlet;
#X connect 0 0 1 0;
#X connect 1 0 2 0;
#X connect 2 0 5 0;
#X connect 3 0 0 0;
#X connect 4 0 0 1;
#X restore 201 193 pd set_msg;
#N canvas 726 344 450 300 set_msg 0;
#X obj 116 94 list prepend;
#X obj 116 116 list prepend set;
#X obj 116 138 list trim;
#X obj 116 67 inlet;
#X obj 185 66 inlet;
#X obj 116 167 outlet;
#X connect 0 0 1 0;
#X connect 1 0 2 0;
#X connect 2 0 5 0;
#X connect 3 0 0 0;
#X connect 4 0 0 1;
#X restore 239 215 pd set_msg;
#N canvas 726 344 450 300 set_msg 0;
#X obj 116 94 list prepend;
#X obj 116 116 list prepend set;
#X obj 116 138 list trim;
#X obj 116 67 inlet;
#X obj 185 66 inlet;
#X obj 116 167 outlet;
#X connect 0 0 1 0;
#X connect 1 0 2 0;
#X connect 2 0 5 0;
#X connect 3 0 0 0;
#X connect 4 0 0 1;
#X restore 277 194 pd set_msg;
#N canvas 726 344 450 300 set_msg 0;
#X obj 116 94 list prepend;
#X obj 116 116 list prepend set;
#X obj 116 138 list trim;
#X obj 116 67 inlet;
#X obj 185 66 inlet;
#X obj 116 167 outlet;
#X connect 0 0 1 0;
#X connect 1 0 2 0;
#X connect 2 0 5 0;
#X connect 3 0 0 0;
#X connect 4 0 0 1;
#X restore 313 215 pd set_msg;
#N canvas 726 344 450 300 set_msg 0;
#X obj 116 94 list prepend;
#X obj 116 116 list prepend set;
#X obj 116 138 list trim;
#X obj 116 67 inlet;
#X obj 185 66 inlet;
#X obj 116 167 outlet;
#X connect 0 0 1 0;
#X connect 1 0 2 0;
#X connect 2 0 5 0;
#X connect 3 0 0 0;
#X connect 4 0 0 1;
#X restore 351 195 pd set_msg;
#N canvas 726 344 450 300 set_msg 0;
#X obj 116 94 list prepend;
#X obj 116 116 list prepend set;
#X obj 116 138 list trim;
#X obj 116 67 inlet;
#X obj 185 66 inlet;
#X obj 116 167 outlet;
#X connect 0 0 1 0;
#X connect 1 0 2 0;
#X connect 2 0 5 0;
#X connect 3 0 0 0;
#X connect 4 0 0 1;
#X restore 387 215 pd set_msg;
#N canvas 726 344 450 300 set_msg 0;
#X obj 116 94 list prepend;
#X obj 116 116 list prepend set;
#X obj 116 138 list trim;
#X obj 116 67 inlet;
#X obj 185 66 inlet;
#X obj 116 167 outlet;
#X connect 0 0 1 0;
#X connect 1 0 2 0;
#X connect 2 0 5 0;
#X connect 3 0 0 0;
#X connect 4 0 0 1;
#X restore 429 195 pd set_msg;
#N canvas 726 344 450 300 set_msg 0;
#X obj 116 94 list prepend;
#X obj 116 116 list prepend set;
#X obj 116 138 list trim;
#X obj 116 67 inlet;
#X obj 185 66 inlet;
#X obj 116 167 outlet;
#X connect 0 0 1 0;
#X connect 1 0 2 0;
#X connect 2 0 5 0;
#X connect 3 0 0 0;
#X connect 4 0 0 1;
#X restore 464 217 pd set_msg;
#N canvas 726 344 450 300 set_msg 0;
#X obj 116 94 list prepend;
#X obj 116 116 list prepend set;
#X obj 116 138 list trim;
#X obj 116 67 inlet;
#X obj 185 66 inlet;
#X obj 116 167 outlet;
#X connect 0 0 1 0;
#X connect 1 0 2 0;
#X connect 2 0 5 0;
#X connect 3 0 0 0;
#X connect 4 0 0 1;
#X restore 502 194 pd set_msg;
#X msg 104 262 adsr0 0.1 0.356275 0.5 0.38;
#X msg 104 284 adsr1 0.145 0.265038 0.325 0.33;
#X msg 104 306 adsr2 0.1 0.45 0.5 0.38;
#X msg 104 328 wave 0 0 0;
#X msg 296 261 ktLfoFmFb -0.482412 0.324422 0.623116 0.738693;
#X msg 296 281 detune 0.165829;
#X msg 296 301 rat 1 2;
#X msg 580 259 fb 0.0797101 0.195652 0.0797101;
#X msg 581 281 fm 0.5 0.188406 0.5;
#X msg 581 304 vol 0.775362 0.202899 0.586957;
#X obj 295 56 inlet trigger-outlet;
#X obj 296 579 outlet;
#X obj 295 78 t b b;
#X msg 349 436 set;
#X obj 322 504 list trim;
#X obj 296 434 t a;
#X msg 296 529 addcomma;
#X obj 296 456 t b a;
#X obj 322 482 list prepend add2;
#X msg 296 321 vibAm 0.668342 0.170854;
#X obj 128 159 route adsr0 adsr1 adsr2 wave ktLfoFmFb vibAm detune
rat fb fm vol main_vol, f 75;
#N canvas 726 344 450 300 set_msg 0;
#X obj 116 94 list prepend;
#X obj 116 116 list prepend set;
#X obj 116 138 list trim;
#X obj 116 67 inlet;
#X obj 185 66 inlet;
#X obj 116 167 outlet;
#X connect 0 0 1 0;
#X connect 1 0 2 0;
#X connect 2 0 5 0;
#X connect 3 0 0 0;
#X connect 4 0 0 1;
#X restore 539 216 pd set_msg;
#X msg 581 326 main_vol 1;
#X connect 0 0 3 0;
#X connect 1 0 35 0;
#X connect 1 1 2 0;
#X connect 2 0 4 1;
#X connect 2 0 5 1;
#X connect 2 0 14 1;
#X connect 2 0 13 1;
#X connect 2 0 12 1;
#X connect 2 0 11 1;
#X connect 2 0 10 1;
#X connect 2 0 9 1;
#X connect 2 0 8 1;
#X connect 2 0 7 1;
#X connect 2 0 6 1;
#X connect 3 0 1 0;
#X connect 4 0 15 0;
#X connect 5 0 16 0;
#X connect 6 0 17 0;
#X connect 7 0 18 0;
#X connect 8 0 19 0;
#X connect 9 0 34 0;
#X connect 10 0 20 0;
#X connect 11 0 21 0;
#X connect 12 0 22 0;
#X connect 13 0 23 0;
#X connect 14 0 24 0;
#X connect 15 0 30 0;
#X connect 16 0 30 0;
#X connect 17 0 30 0;
#X connect 18 0 30 0;
#X connect 19 0 30 0;
#X connect 20 0 30 0;
#X connect 21 0 30 0;
#X connect 22 0 30 0;
#X connect 23 0 30 0;
#X connect 24 0 30 0;
#X connect 25 0 27 0;
#X connect 27 0 15 0;
#X connect 27 0 24 0;
#X connect 27 0 23 0;
#X connect 27 0 22 0;
#X connect 27 0 21 0;
#X connect 27 0 20 0;
#X connect 27 0 19 0;
#X connect 27 0 18 0;
#X connect 27 0 17 0;
#X connect 27 0 16 0;
#X connect 27 0 34 0;
#X connect 27 0 37 0;
#X connect 27 1 28 0;
#X connect 28 0 26 0;
#X connect 29 0 26 0;
#X connect 30 0 32 0;
#X connect 31 0 26 0;
#X connect 32 0 31 0;
#X connect 32 1 33 0;
#X connect 33 0 29 0;
#X connect 34 0 30 0;
#X connect 35 0 4 0;
#X connect 35 1 5 0;
#X connect 35 2 6 0;
#X connect 35 3 7 0;
#X connect 35 4 8 0;
#X connect 35 5 9 0;
#X connect 35 6 10 0;
#X connect 35 7 11 0;
#X connect 35 8 12 0;
#X connect 35 9 13 0;
#X connect 35 10 14 0;
#X connect 35 11 36 0;
#X connect 36 0 37 0;
#X connect 37 0 30 0;
#X restore 350 89 pd organize_presets;
#X obj 213 238 bng 12 250 50 0 empty empty s 3 4 0 9 -262144 -1 -1
;
#X obj 281 33 inlet;
#X obj 350 331 outlet;
#X obj 281 83 t f f;
#X obj 308 108 / 8;
#X obj 308 130 int;
#X obj 281 109 % 8;
#X obj 281 58 route preset;
#X connect 0 0 3 0;
#X connect 1 0 4 0;
#X connect 2 0 11 0;
#X connect 3 0 5 0;
#X connect 4 0 3 1;
#X connect 5 0 2 1;
#X connect 5 0 6 1;
#X connect 6 0 7 0;
#X connect 7 0 2 0;
#X connect 8 0 6 0;
#X connect 9 0 8 1;
#X connect 10 0 16 0;
#X connect 12 0 15 0;
#X connect 12 1 13 0;
#X connect 13 0 14 0;
#X connect 14 0 1 0;
#X connect 15 0 0 0;
#X connect 16 0 12 0;
#X connect 16 1 8 0;
#X coords 0 -1 1 1 19 136 2 209 114;
#X restore 324 165 pd presets;
#X obj 324 151 nbx 1 14 0 9 0 1 empty empty vc 2 -8 0 10 -262144 -1
-261351 5 256 0;
#N canvas 233 179 627 546 colors 0;
#X obj 262 154 s \$0-background;
#X msg 262 129 vis_size 233 192;
#N canvas 0 0 306 317 flash-time 0;
#X obj 96 521 outlet;
#X obj 162 230 t b f;
#X obj 96 268 +;
#X obj 96 293 t b f;
#X obj 96 324 +;
#X obj 19 208 * -65536;
#X obj 96 208 * -256;
#X obj 162 208 * -1;
#X obj 96 355 - 1;
#X obj 96 385 list prepend 0;
#X obj 115 456 t b a;
#X obj 104 124 vradio 15 1 0 2 empty empty empty 0 -8 0 10 -262144
-1 -1 0;
#X text 120 120 1.bg;
#X obj 103 105 nbx 3 14 0 255 0 0 \$0-dummy \$0-r empty 0 -8 0 10 -262144
-258113 -1 0 256 0;
#X obj 133 105 nbx 3 14 0 255 0 0 \$0-dummy \$0-g empty 0 -8 0 10 -262144
-13381 -1 0 256 0;
#X obj 163 105 nbx 3 14 0 255 0 0 \$0-dummy \$0-b empty 0 -8 0 10 -262144
-4160 -1 0 256 0;
#X text 120 137 2.label;
#X obj 96 410 route 0 1;
#X obj 96 497 pack 0 0;
#X connect 1 0 2 0;
#X connect 1 1 2 1;
#X connect 2 0 3 0;
#X connect 3 0 4 0;
#X connect 3 1 4 1;
#X connect 4 0 8 0;
#X connect 5 0 4 0;
#X connect 6 0 2 0;
#X connect 7 0 1 0;
#X connect 8 0 9 0;
#X connect 9 0 17 0;
#X connect 10 0 18 0;
#X connect 10 1 18 1;
#X connect 11 0 9 1;
#X connect 13 0 5 0;
#X connect 14 0 6 0;
#X connect 15 0 7 0;
#X connect 17 0 18 0;
#X connect 17 1 10 0;
#X connect 18 0 0 0;
#X coords 0 -1 1 1 102 58 2 100 100;
#X restore 264 37 pd flash-time;
#X msg 262 103 color \$1 \$2;
#N canvas 0 0 306 317 flash-time 0;
#X obj 96 521 outlet;
#X obj 162 230 t b f;
#X obj 96 268 +;
#X obj 96 293 t b f;
#X obj 96 324 +;
#X obj 19 208 * -65536;
#X obj 96 208 * -256;
#X obj 162 208 * -1;
#X obj 96 355 - 1;
#X obj 96 385 list prepend 0;
#X obj 115 456 t b a;
#X obj 104 124 vradio 15 1 0 2 empty empty empty 0 -8 0 10 -262144
-1 -1 0;
#X text 120 120 1.bg;
#X obj 103 105 nbx 3 14 0 255 0 0 \$0-dummy \$0-r empty 0 -8 0 10 -262144
-258113 -1 0 256 0;
#X obj 133 105 nbx 3 14 0 255 0 0 \$0-dummy \$0-g empty 0 -8 0 10 -262144
-13381 -1 0 256 0;
#X obj 163 105 nbx 3 14 0 255 0 0 \$0-dummy \$0-b empty 0 -8 0 10 -262144
-4160 -1 0 256 0;
#X text 120 137 2.label;
#X obj 96 410 route 0 1;
#X obj 96 497 pack 0 0;
#X connect 1 0 2 0;
#X connect 1 1 2 1;
#X connect 2 0 3 0;
#X connect 3 0 4 0;
#X connect 3 1 4 1;
#X connect 4 0 8 0;
#X connect 5 0 4 0;
#X connect 6 0 2 0;
#X connect 7 0 1 0;
#X connect 8 0 9 0;
#X connect 9 0 17 0;
#X connect 10 0 18 0;
#X connect 10 1 18 1;
#X connect 11 0 9 1;
#X connect 13 0 5 0;
#X connect 14 0 6 0;
#X connect 15 0 7 0;
#X connect 17 0 18 0;
#X connect 17 1 10 0;
#X connect 18 0 0 0;
#X coords 0 -1 1 1 102 58 2 100 100;
#X restore 111 41 pd flash-time;
#N canvas 0 0 306 317 flash-time 0;
#X obj 96 521 outlet;
#X obj 162 230 t b f;
#X obj 96 268 +;
#X obj 96 293 t b f;
#X obj 96 324 +;
#X obj 19 208 * -65536;
#X obj 96 208 * -256;
#X obj 162 208 * -1;
#X obj 96 355 - 1;
#X obj 96 385 list prepend 0;
#X obj 115 456 t b a;
#X obj 104 124 vradio 15 1 0 2 empty empty empty 0 -8 0 10 -262144
-1 -1 0;
#X text 120 120 1.bg;
#X obj 103 105 nbx 3 14 0 255 0 0 \$0-dummy \$0-r empty 0 -8 0 10 -262144
-258113 -1 0 256 0;
#X obj 133 105 nbx 3 14 0 255 0 0 \$0-dummy \$0-g empty 0 -8 0 10 -262144
-13381 -1 0 256 0;
#X obj 163 105 nbx 3 14 0 255 0 0 \$0-dummy \$0-b empty 0 -8 0 10 -262144
-4160 -1 0 256 0;
#X text 120 137 2.label;
#X obj 96 410 route 0 1;
#X obj 96 497 pack 0 0;
#X connect 1 0 2 0;
#X connect 1 1 2 1;
#X connect 2 0 3 0;
#X connect 3 0 4 0;
#X connect 3 1 4 1;
#X connect 4 0 8 0;
#X connect 5 0 4 0;
#X connect 6 0 2 0;
#X connect 7 0 1 0;
#X connect 8 0 9 0;
#X connect 9 0 17 0;
#X connect 10 0 18 0;
#X connect 10 1 18 1;
#X connect 11 0 9 1;
#X connect 13 0 5 0;
#X connect 14 0 6 0;
#X connect 15 0 7 0;
#X connect 17 0 18 0;
#X connect 17 1 10 0;
#X connect 18 0 0 0;
#X coords 0 -1 1 1 102 58 2 100 100;
#X restore 110 128 pd flash-time;
#N canvas 0 0 306 317 flash-time 0;
#X obj 96 521 outlet;
#X obj 162 230 t b f;
#X obj 96 268 +;
#X obj 96 293 t b f;
#X obj 96 324 +;
#X obj 19 208 * -65536;
#X obj 96 208 * -256;
#X obj 162 208 * -1;
#X obj 96 355 - 1;
#X obj 96 385 list prepend 0;
#X obj 115 456 t b a;
#X obj 104 124 vradio 15 1 0 2 empty empty empty 0 -8 0 10 -262144
-1 -1 0;
#X text 120 120 1.bg;
#X obj 103 105 nbx 3 14 0 255 0 0 \$0-dummy \$0-r empty 0 -8 0 10 -262144
-258113 -1 0 256 0;
#X obj 133 105 nbx 3 14 0 255 0 0 \$0-dummy \$0-g empty 0 -8 0 10 -262144
-13381 -1 0 256 0;
#X obj 163 105 nbx 3 14 0 255 0 0 \$0-dummy \$0-b empty 0 -8 0 10 -262144
-4160 -1 0 256 0;
#X text 120 137 2.label;
#X obj 96 410 route 0 1;
#X obj 96 497 pack 0 0;
#X connect 1 0 2 0;
#X connect 1 1 2 1;
#X connect 2 0 3 0;
#X connect 3 0 4 0;
#X connect 3 1 4 1;
#X connect 4 0 8 0;
#X connect 5 0 4 0;
#X connect 6 0 2 0;
#X connect 7 0 1 0;
#X connect 8 0 9 0;
#X connect 9 0 17 0;
#X connect 10 0 18 0;
#X connect 10 1 18 1;
#X connect 11 0 9 1;
#X connect 13 0 5 0;
#X connect 14 0 6 0;
#X connect 15 0 7 0;
#X connect 17 0 18 0;
#X connect 17 1 10 0;
#X connect 18 0 0 0;
#X coords 0 -1 1 1 102 58 2 100 100;
#X restore 110 214 pd flash-time;
#X msg 111 104 col0 \$1 \$2;
#X msg 110 191 col1 \$1 \$2;
#X msg 110 277 col2 \$1 \$2;
#X obj 110 302 t a;
#X obj 110 349 outlet;
#X connect 1 0 0 0;
#X connect 2 0 3 0;
#X connect 2 0 0 0;
#X connect 3 0 0 0;
#X connect 4 0 7 0;
#X connect 5 0 8 0;
#X connect 6 0 9 0;
#X connect 7 0 10 0;
#X connect 8 0 10 0;
#X connect 9 0 10 0;
#X connect 10 0 11 0;
#X restore 277 34 pd colors;
#X msg 367 164 voices \$1;
#X obj 371 29 inlet pre_and_voices;
#X obj 371 51 route voices preset;
#X msg 426 79 preset \$1;
#X text 60 417 3op fm synth;
#X text 59 435 3/2016 martin brinkmann \; reworked 3/2018 x roemer
;
#X connect 1 0 2 2;
#X connect 2 0 5 0;
#X connect 2 1 10 0;
#X connect 3 0 2 3;
#X connect 4 0 2 4;
#X connect 6 0 2 0;
#X connect 6 1 2 1;
#X connect 7 0 6 0;
#X connect 8 0 9 0;
#X connect 10 0 2 5;
#X connect 11 0 13 0;
#X connect 12 0 2 6;
#X connect 13 0 2 6;
#X connect 14 0 15 0;
#X connect 15 0 11 0;
#X connect 15 1 16 0;
#X connect 16 0 10 0;
#X coords 0 -1 1 1 235 194 2 108 111;
