#N canvas 726 344 331 218 10;
#X obj 129 51 inlet value;
#X obj 129 73 t f b;
#X obj 129 95 until;
#X obj 129 117 f;
#X obj 159 116 + 1;
#X obj 129 139 outlet;
#X msg 168 94 0;
#X connect 0 0 1 0;
#X connect 1 0 2 0;
#X connect 1 1 6 0;
#X connect 2 0 3 0;
#X connect 3 0 4 0;
#X connect 3 0 5 0;
#X connect 4 0 3 1;
#X connect 6 0 3 1;
