#N canvas 961 236 959 748 10;
#X obj 233 188 bng 15 50 20 0 empty empty empty 17 7 0 10 -262144 -1
-1;
#X obj 233 300 line~;
#X obj 218 325 *~;
#X obj 221 465 *~;
#X floatatom 269 233 5 0 0 0 - - -, f 5;
#X obj 310 374 hsl 128 15 0 1 0 0 empty empty empty -2 -8 0 10 -262144
-1 -1 10500 1;
#X obj 164 301 osc~ 330;
#X obj 240 256 delay;
#X obj 240 234 t b;
#X floatatom 275 146 5 0 0 0 - - -, f 5;
#X obj 276 121 nbx 5 14 -1e+037 1e+037 0 1 empty empty empty 0 -8 0
10 -262144 -1 -1 688.889 256 0;
#X obj 83 95 inlet;
#X floatatom 405 260 5 0 0 0 - - -, f 5;
#X obj 405 101 inlet;
#X obj 337 100 inlet vol;
#X obj 219 510 outlet~;
#X obj 406 239 mtof;
#X floatatom 360 196 5 0 0 0 - - -, f 5;
#X msg 360 176 set \$1;
#X obj 290 428 line~;
#X msg 289 406 \$1 20;
#X obj 275 99 inlet len;
#X obj 609 102 loadbang;
#X obj 609 124 bng 15 250 50 0 empty empty empty 17 7 0 10 -262144
-1 -1;
#X floatatom 609 166 5 0 0 0 - - -, f 5;
#X obj 609 144 float \$1;
#X obj 275 176 - 15;
#X msg 233 212 1 10;
#X msg 240 276 0 10;
#X obj 83 133 unpack f f f;
#X obj 84 154 t b f;
#X obj 468 297 +;
#X obj 497 102 inlet;
#X floatatom 479 195 5 0 0 0 - - -, f 5;
#X obj 479 216 t b f;
#X floatatom 469 351 5 0 0 0 - - -, f 5;
#X floatatom 148 210 5 0 0 0 - - -, f 5;
#X floatatom 104 205 5 0 0 0 - - -, f 5;
#X obj 104 226 / 127;
#X connect 0 0 27 0;
#X connect 1 0 2 1;
#X connect 2 0 3 0;
#X connect 3 0 15 0;
#X connect 4 0 7 1;
#X connect 5 0 20 0;
#X connect 6 0 2 0;
#X connect 7 0 28 0;
#X connect 8 0 7 0;
#X connect 9 0 26 0;
#X connect 10 0 9 0;
#X connect 11 0 29 0;
#X connect 12 0 31 0;
#X connect 13 0 16 0;
#X connect 13 0 18 0;
#X connect 14 0 5 0;
#X connect 16 0 12 0;
#X connect 17 0 16 0;
#X connect 18 0 17 0;
#X connect 19 0 3 1;
#X connect 20 0 19 0;
#X connect 21 0 10 0;
#X connect 22 0 23 0;
#X connect 23 0 25 0;
#X connect 25 0 24 0;
#X connect 26 0 4 0;
#X connect 27 0 1 0;
#X connect 27 0 8 0;
#X connect 28 0 1 0;
#X connect 29 0 30 0;
#X connect 29 1 37 0;
#X connect 29 2 36 0;
#X connect 30 0 0 0;
#X connect 30 1 10 0;
#X connect 31 0 6 0;
#X connect 31 0 35 0;
#X connect 32 0 33 0;
#X connect 33 0 34 0;
#X connect 34 0 12 0;
#X connect 34 1 31 1;
#X connect 37 0 38 0;
#X connect 38 0 5 0;
