#N struct text float x float y text t;
#N canvas 1343 269 460 627 10;
#N canvas 1393 356 589 593 memory 0;
#X obj 61 35 inlet;
#X obj 164 171 text delete \$0-memory;
#X obj 164 151 text search \$0-memory;
#N canvas 1436 390 550 505 change 0;
#X obj 253 85 text search \$0-memory;
#X msg 253 62 \$1;
#X obj 83 158 list split 1;
#X obj 117 181 list trim;
#X obj 253 159 text get \$0-memory;
#X obj 253 135 t f f;
#N canvas 699 467 395 487 change_vol 0;
#X obj 77 54 inlet vol;
#X obj 214 54 inlet text_line_nr;
#X obj 143 54 inlet list;
#X obj 77 146 list;
#X obj 77 288 text set \$0-memory;
#X obj 77 195 list append;
#X obj 77 93 t b f;
#X obj 77 171 list split 8;
#X obj 77 252 list append;
#X obj 111 220 list split 1;
#X connect 0 0 6 0;
#X connect 1 0 4 1;
#X connect 2 0 3 1;
#X connect 3 0 7 0;
#X connect 5 0 8 0;
#X connect 6 0 3 0;
#X connect 6 1 5 1;
#X connect 7 0 5 0;
#X connect 7 1 9 0;
#X connect 8 0 4 0;
#X connect 9 1 8 1;
#X restore 118 234 pd change_vol;
#N canvas 1153 425 578 487 change_row 0;
#X obj 77 54 inlet vol;
#X obj 214 54 inlet text_line_nr;
#X obj 143 54 inlet list;
#X obj 77 146 list;
#X obj 77 305 text set \$0-memory;
#X obj 77 237 list append;
#X obj 77 276 list append;
#X obj 77 171 list split 2;
#X msg 77 199 \$1;
#X obj 77 93 t b f;
#X connect 0 0 9 0;
#X connect 1 0 4 1;
#X connect 2 0 3 1;
#X connect 3 0 7 0;
#X connect 5 0 6 0;
#X connect 6 0 4 0;
#X connect 7 0 8 0;
#X connect 7 1 6 1;
#X connect 8 0 5 0;
#X connect 9 0 3 0;
#X connect 9 1 5 1;
#X restore 148 259 pd change_row;
#N canvas 1471 395 380 423 change_pos 0;
#X obj 214 54 inlet text_line_nr;
#X obj 143 54 inlet list;
#X obj 96 169 list;
#X obj 96 346 text set \$0-memory;
#X obj 96 260 list append;
#X obj 96 299 list append;
#X obj 77 54 inlet pos;
#X obj 96 194 list split 5;
#X msg 96 222 \$1 \$2;
#X obj 143 91 t a a;
#N canvas 1997 69 512 730 exchange_pos_of_values_in_memory 0;
#X obj 142 70 inlet new_values;
#X obj 219 114 inlet text_line_nr;
#X floatatom 204 200 5 0 0 0 - - -, f 5;
#X obj 57 263 - 1;
#X obj 57 286 text get \$0-memory;
#X obj 58 306 route bang;
#N canvas 714 144 826 747 compare 0;
#X obj 119 41 inlet list1;
#X obj 298 41 inlet list2;
#X obj 119 88 unpack f f f f;
#X obj 297 92 unpack f f f f;
#X obj 119 608 outlet;
#X floatatom 119 188 5 0 0 0 - - -, f 5;
#X floatatom 157 188 5 0 0 0 - - -, f 5;
#X floatatom 216 188 5 0 0 0 - - -, f 5;
#X floatatom 253 188 5 0 0 0 - - -, f 5;
#X floatatom 312 188 5 0 0 0 - - -, f 5;
#X floatatom 349 188 5 0 0 0 - - -, f 5;
#X floatatom 412 188 5 0 0 0 - - -, f 5;
#X floatatom 449 188 5 0 0 0 - - -, f 5;
#X msg 119 565 1;
#X msg 162 565 0;
#X floatatom 580 186 5 0 0 0 - - -, f 5;
#N canvas 2994 267 614 490 comp 0;
#X obj 94 41 inlet trigger;
#X obj 195 41 inlet nr1;
#X obj 272 41 inlet nr2;
#X obj 349 41 inlet amount;
#X obj 139 199 f;
#X obj 176 199 f;
#X obj 139 178 t b b;
#X obj 139 221 <;
#N canvas 1473 691 290 262 mucks 0;
#X obj 83 9 inlet;
#X obj 83 117 outlet;
#X obj 134 117 outlet;
#X obj 128 9 inlet;
#X obj 83 89 sel 0;
#X obj 83 61 f;
#X floatatom 118 62 5 0 0 0 - - -, f 5;
#X obj 83 31 bng 15 250 50 0 empty empty empty 17 7 0 10 -262144 -1
-1;
#X connect 0 0 7 0;
#X connect 3 0 5 1;
#X connect 3 0 6 0;
#X connect 4 0 1 0;
#X connect 4 1 2 0;
#X connect 5 0 4 0;
#X connect 7 0 5 0;
#X restore 94 158 pd mucks;
#X obj 139 137 > 1;
#X obj 139 248 sel 1;
#X obj 164 292 f;
#X obj 193 293 f;
#X obj 164 314 ==;
#X obj 165 271 t b b;
#X obj 164 336 sel 0;
#X obj 444 41 inlet order;
#X obj 87 424 outlet one;
#X obj 166 425 outlet zero;
#X obj 258 425 outlet next;
#X connect 0 0 8 0;
#X connect 1 0 4 1;
#X connect 1 0 11 1;
#X connect 2 0 5 1;
#X connect 2 0 12 1;
#X connect 3 0 9 0;
#X connect 4 0 7 0;
#X connect 5 0 7 1;
#X connect 6 0 4 0;
#X connect 6 1 5 0;
#X connect 7 0 10 0;
#X connect 8 0 18 0;
#X connect 8 1 6 0;
#X connect 9 0 8 1;
#X connect 10 0 17 0;
#X connect 10 1 14 0;
#X connect 11 0 13 0;
#X connect 12 0 13 1;
#X connect 13 0 15 0;
#X connect 14 0 11 0;
#X connect 14 1 12 0;
#X connect 15 0 18 0;
#X connect 15 1 19 0;
#X connect 16 0 9 1;
#X restore 202 275 pd comp;
#X msg 258 247 1;
#N canvas 1233 401 614 559 comp 0;
#X obj 94 41 inlet trigger;
#X obj 195 41 inlet nr1;
#X obj 272 41 inlet nr2;
#X obj 349 41 inlet amount;
#X obj 139 199 f;
#X obj 176 199 f;
#X obj 139 178 t b b;
#X obj 139 221 <;
#N canvas 1473 691 290 262 mucks 0;
#X obj 83 9 inlet;
#X obj 83 117 outlet;
#X obj 134 117 outlet;
#X obj 128 9 inlet;
#X obj 83 89 sel 0;
#X obj 83 61 f;
#X floatatom 118 62 5 0 0 0 - - -, f 5;
#X obj 83 31 bng 15 250 50 0 empty empty empty 17 7 0 10 -262144 -1
-1;
#X connect 0 0 7 0;
#X connect 3 0 5 1;
#X connect 3 0 6 0;
#X connect 4 0 1 0;
#X connect 4 1 2 0;
#X connect 5 0 4 0;
#X connect 7 0 5 0;
#X restore 94 158 pd mucks;
#X obj 139 137 > 1;
#X obj 139 248 sel 1;
#X obj 164 292 f;
#X obj 193 293 f;
#X obj 164 314 ==;
#X obj 165 271 t b b;
#X obj 164 336 sel 0;
#X obj 444 41 inlet order;
#X obj 87 424 outlet one;
#X obj 166 425 outlet zero;
#X obj 258 425 outlet next;
#X connect 0 0 8 0;
#X connect 1 0 4 1;
#X connect 1 0 11 1;
#X connect 2 0 5 1;
#X connect 2 0 12 1;
#X connect 3 0 9 0;
#X connect 4 0 7 0;
#X connect 5 0 7 1;
#X connect 6 0 4 0;
#X connect 6 1 5 0;
#X connect 7 0 10 0;
#X connect 8 0 18 0;
#X connect 8 1 6 0;
#X connect 9 0 8 1;
#X connect 10 0 17 0;
#X connect 10 1 14 0;
#X connect 11 0 13 0;
#X connect 12 0 13 1;
#X connect 13 0 15 0;
#X connect 14 0 11 0;
#X connect 14 1 12 0;
#X connect 15 0 18 0;
#X connect 15 1 19 0;
#X connect 16 0 9 1;
#X restore 298 310 pd comp;
#X msg 355 287 2;
#N canvas 873 296 614 536 comp 0;
#X obj 94 41 inlet trigger;
#X obj 215 40 inlet nr1;
#X obj 302 40 inlet nr2;
#X obj 389 40 inlet amount;
#X obj 139 199 f;
#X obj 176 199 f;
#X obj 139 178 t b b;
#X obj 139 221 <;
#N canvas 1473 691 290 262 mucks 0;
#X obj 83 9 inlet;
#X obj 83 117 outlet;
#X obj 134 117 outlet;
#X obj 128 9 inlet;
#X obj 83 89 sel 0;
#X obj 83 61 f;
#X floatatom 118 62 5 0 0 0 - - -, f 5;
#X obj 83 31 bng 15 250 50 0 empty empty empty 17 7 0 10 -262144 -1
-1;
#X connect 0 0 7 0;
#X connect 3 0 5 1;
#X connect 3 0 6 0;
#X connect 4 0 1 0;
#X connect 4 1 2 0;
#X connect 5 0 4 0;
#X connect 7 0 5 0;
#X restore 94 158 pd mucks;
#X obj 139 248 sel 1;
#X obj 164 292 f;
#X obj 193 293 f;
#X obj 164 314 ==;
#X obj 165 271 t b b;
#X obj 164 336 sel 0;
#X obj 484 40 inlet order;
#X obj 87 424 outlet one;
#X obj 166 425 outlet zero;
#X obj 258 425 outlet next;
#X obj 139 137 > 0;
#X connect 0 0 8 0;
#X connect 1 0 4 1;
#X connect 1 0 10 1;
#X connect 2 0 5 1;
#X connect 2 0 11 1;
#X connect 3 0 19 0;
#X connect 4 0 7 0;
#X connect 5 0 7 1;
#X connect 6 0 4 0;
#X connect 6 1 5 0;
#X connect 7 0 9 0;
#X connect 8 0 17 0;
#X connect 8 1 6 0;
#X connect 9 0 16 0;
#X connect 9 1 13 0;
#X connect 10 0 12 0;
#X connect 11 0 12 1;
#X connect 12 0 14 0;
#X connect 13 0 10 0;
#X connect 13 1 11 0;
#X connect 14 0 17 0;
#X connect 14 1 18 0;
#X connect 15 0 19 1;
#X connect 19 0 8 1;
#X restore 119 243 pd comp;
#X obj 119 209 t b f;
#X obj 581 137 bng 15 250 50 0 empty empty empty 17 7 0 10 -262144
-1 -1;
#X msg 581 159 3;
#X obj 581 114 r \$0-loadbang;
#X connect 0 0 2 0;
#X connect 1 0 3 0;
#X connect 2 0 5 0;
#X connect 2 1 7 0;
#X connect 2 2 9 0;
#X connect 2 3 11 0;
#X connect 3 0 6 0;
#X connect 3 1 8 0;
#X connect 3 2 10 0;
#X connect 3 3 12 0;
#X connect 5 0 21 0;
#X connect 6 0 20 2;
#X connect 7 0 16 1;
#X connect 8 0 16 2;
#X connect 9 0 18 1;
#X connect 10 0 18 2;
#X connect 13 0 4 0;
#X connect 14 0 4 0;
#X connect 15 0 16 3;
#X connect 15 0 18 3;
#X connect 15 0 20 3;
#X connect 16 0 13 0;
#X connect 16 1 14 0;
#X connect 16 2 18 0;
#X connect 17 0 16 4;
#X connect 18 0 13 0;
#X connect 18 1 14 0;
#X connect 18 2 14 0;
#X connect 19 0 18 4;
#X connect 20 0 13 0;
#X connect 20 1 14 0;
#X connect 20 2 16 0;
#X connect 21 0 20 0;
#X connect 21 1 20 1;
#X connect 22 0 17 0;
#X connect 22 0 19 0;
#X connect 23 0 15 0;
#X connect 24 0 22 0;
#X connect 24 0 23 0;
#X restore 115 349 pd compare;
#X msg 115 328 \$3 \$4 \$5;
#X msg 173 328 \$3 \$4 \$5;
#X floatatom 115 371 5 0 0 0 - - -, f 5;
#X obj 165 635 text set \$0-memory;
#X obj 300 646 text set \$0-memory;
#X obj 243 436 t f;
#X obj 121 149 t b a;
#X obj 204 177 f;
#X obj 121 37 inlet trigger;
#X obj 121 125 list;
#X obj 278 277 text get \$0-memory;
#X obj 279 297 route bang;
#N canvas 714 144 826 747 compare 0;
#X obj 119 41 inlet list1;
#X obj 298 41 inlet list2;
#X obj 119 88 unpack f f f f;
#X obj 297 92 unpack f f f f;
#X obj 119 608 outlet;
#X floatatom 119 188 5 0 0 0 - - -, f 5;
#X floatatom 157 188 5 0 0 0 - - -, f 5;
#X floatatom 216 188 5 0 0 0 - - -, f 5;
#X floatatom 253 188 5 0 0 0 - - -, f 5;
#X floatatom 312 188 5 0 0 0 - - -, f 5;
#X floatatom 349 188 5 0 0 0 - - -, f 5;
#X floatatom 412 188 5 0 0 0 - - -, f 5;
#X floatatom 449 188 5 0 0 0 - - -, f 5;
#X msg 119 565 1;
#X msg 162 565 0;
#X floatatom 580 186 5 0 0 0 - - -, f 5;
#N canvas 2994 267 614 490 comp 0;
#X obj 94 41 inlet trigger;
#X obj 195 41 inlet nr1;
#X obj 272 41 inlet nr2;
#X obj 349 41 inlet amount;
#X obj 139 199 f;
#X obj 176 199 f;
#X obj 139 178 t b b;
#X obj 139 221 <;
#N canvas 1473 691 290 262 mucks 0;
#X obj 83 9 inlet;
#X obj 83 117 outlet;
#X obj 134 117 outlet;
#X obj 128 9 inlet;
#X obj 83 89 sel 0;
#X obj 83 61 f;
#X floatatom 118 62 5 0 0 0 - - -, f 5;
#X obj 83 31 bng 15 250 50 0 empty empty empty 17 7 0 10 -262144 -1
-1;
#X connect 0 0 7 0;
#X connect 3 0 5 1;
#X connect 3 0 6 0;
#X connect 4 0 1 0;
#X connect 4 1 2 0;
#X connect 5 0 4 0;
#X connect 7 0 5 0;
#X restore 94 158 pd mucks;
#X obj 139 137 > 1;
#X obj 139 248 sel 1;
#X obj 164 292 f;
#X obj 193 293 f;
#X obj 164 314 ==;
#X obj 165 271 t b b;
#X obj 164 336 sel 0;
#X obj 444 41 inlet order;
#X obj 87 424 outlet one;
#X obj 166 425 outlet zero;
#X obj 258 425 outlet next;
#X connect 0 0 8 0;
#X connect 1 0 4 1;
#X connect 1 0 11 1;
#X connect 2 0 5 1;
#X connect 2 0 12 1;
#X connect 3 0 9 0;
#X connect 4 0 7 0;
#X connect 5 0 7 1;
#X connect 6 0 4 0;
#X connect 6 1 5 0;
#X connect 7 0 10 0;
#X connect 8 0 18 0;
#X connect 8 1 6 0;
#X connect 9 0 8 1;
#X connect 10 0 17 0;
#X connect 10 1 14 0;
#X connect 11 0 13 0;
#X connect 12 0 13 1;
#X connect 13 0 15 0;
#X connect 14 0 11 0;
#X connect 14 1 12 0;
#X connect 15 0 18 0;
#X connect 15 1 19 0;
#X connect 16 0 9 1;
#X restore 202 275 pd comp;
#X msg 258 247 1;
#N canvas 1233 401 614 559 comp 0;
#X obj 94 41 inlet trigger;
#X obj 195 41 inlet nr1;
#X obj 272 41 inlet nr2;
#X obj 349 41 inlet amount;
#X obj 139 199 f;
#X obj 176 199 f;
#X obj 139 178 t b b;
#X obj 139 221 <;
#N canvas 1473 691 290 262 mucks 0;
#X obj 83 9 inlet;
#X obj 83 117 outlet;
#X obj 134 117 outlet;
#X obj 128 9 inlet;
#X obj 83 89 sel 0;
#X obj 83 61 f;
#X floatatom 118 62 5 0 0 0 - - -, f 5;
#X obj 83 31 bng 15 250 50 0 empty empty empty 17 7 0 10 -262144 -1
-1;
#X connect 0 0 7 0;
#X connect 3 0 5 1;
#X connect 3 0 6 0;
#X connect 4 0 1 0;
#X connect 4 1 2 0;
#X connect 5 0 4 0;
#X connect 7 0 5 0;
#X restore 94 158 pd mucks;
#X obj 139 137 > 1;
#X obj 139 248 sel 1;
#X obj 164 292 f;
#X obj 193 293 f;
#X obj 164 314 ==;
#X obj 165 271 t b b;
#X obj 164 336 sel 0;
#X obj 444 41 inlet order;
#X obj 87 424 outlet one;
#X obj 166 425 outlet zero;
#X obj 258 425 outlet next;
#X connect 0 0 8 0;
#X connect 1 0 4 1;
#X connect 1 0 11 1;
#X connect 2 0 5 1;
#X connect 2 0 12 1;
#X connect 3 0 9 0;
#X connect 4 0 7 0;
#X connect 5 0 7 1;
#X connect 6 0 4 0;
#X connect 6 1 5 0;
#X connect 7 0 10 0;
#X connect 8 0 18 0;
#X connect 8 1 6 0;
#X connect 9 0 8 1;
#X connect 10 0 17 0;
#X connect 10 1 14 0;
#X connect 11 0 13 0;
#X connect 12 0 13 1;
#X connect 13 0 15 0;
#X connect 14 0 11 0;
#X connect 14 1 12 0;
#X connect 15 0 18 0;
#X connect 15 1 19 0;
#X connect 16 0 9 1;
#X restore 298 310 pd comp;
#X msg 355 287 2;
#N canvas 873 296 614 536 comp 0;
#X obj 94 41 inlet trigger;
#X obj 215 40 inlet nr1;
#X obj 302 40 inlet nr2;
#X obj 389 40 inlet amount;
#X obj 139 199 f;
#X obj 176 199 f;
#X obj 139 178 t b b;
#X obj 139 221 <;
#N canvas 1473 691 290 262 mucks 0;
#X obj 83 9 inlet;
#X obj 83 117 outlet;
#X obj 134 117 outlet;
#X obj 128 9 inlet;
#X obj 83 89 sel 0;
#X obj 83 61 f;
#X floatatom 118 62 5 0 0 0 - - -, f 5;
#X obj 83 31 bng 15 250 50 0 empty empty empty 17 7 0 10 -262144 -1
-1;
#X connect 0 0 7 0;
#X connect 3 0 5 1;
#X connect 3 0 6 0;
#X connect 4 0 1 0;
#X connect 4 1 2 0;
#X connect 5 0 4 0;
#X connect 7 0 5 0;
#X restore 94 158 pd mucks;
#X obj 139 248 sel 1;
#X obj 164 292 f;
#X obj 193 293 f;
#X obj 164 314 ==;
#X obj 165 271 t b b;
#X obj 164 336 sel 0;
#X obj 484 40 inlet order;
#X obj 87 424 outlet one;
#X obj 166 425 outlet zero;
#X obj 258 425 outlet next;
#X obj 139 137 > 0;
#X connect 0 0 8 0;
#X connect 1 0 4 1;
#X connect 1 0 10 1;
#X connect 2 0 5 1;
#X connect 2 0 11 1;
#X connect 3 0 19 0;
#X connect 4 0 7 0;
#X connect 5 0 7 1;
#X connect 6 0 4 0;
#X connect 6 1 5 0;
#X connect 7 0 9 0;
#X connect 8 0 17 0;
#X connect 8 1 6 0;
#X connect 9 0 16 0;
#X connect 9 1 13 0;
#X connect 10 0 12 0;
#X connect 11 0 12 1;
#X connect 12 0 14 0;
#X connect 13 0 10 0;
#X connect 13 1 11 0;
#X connect 14 0 17 0;
#X connect 14 1 18 0;
#X connect 15 0 19 1;
#X connect 19 0 8 1;
#X restore 119 243 pd comp;
#X obj 119 209 t b f;
#X obj 581 137 bng 15 250 50 0 empty empty empty 17 7 0 10 -262144
-1 -1;
#X msg 581 159 3;
#X obj 581 114 r \$0-loadbang;
#X connect 0 0 2 0;
#X connect 1 0 3 0;
#X connect 2 0 5 0;
#X connect 2 1 7 0;
#X connect 2 2 9 0;
#X connect 2 3 11 0;
#X connect 3 0 6 0;
#X connect 3 1 8 0;
#X connect 3 2 10 0;
#X connect 3 3 12 0;
#X connect 5 0 21 0;
#X connect 6 0 20 2;
#X connect 7 0 16 1;
#X connect 8 0 16 2;
#X connect 9 0 18 1;
#X connect 10 0 18 2;
#X connect 13 0 4 0;
#X connect 14 0 4 0;
#X connect 15 0 16 3;
#X connect 15 0 18 3;
#X connect 15 0 20 3;
#X connect 16 0 13 0;
#X connect 16 1 14 0;
#X connect 16 2 18 0;
#X connect 17 0 16 4;
#X connect 18 0 13 0;
#X connect 18 1 14 0;
#X connect 18 2 14 0;
#X connect 19 0 18 4;
#X connect 20 0 13 0;
#X connect 20 1 14 0;
#X connect 20 2 16 0;
#X connect 21 0 20 0;
#X connect 21 1 20 1;
#X connect 22 0 17 0;
#X connect 22 0 19 0;
#X connect 23 0 15 0;
#X connect 24 0 22 0;
#X connect 24 0 23 0;
#X restore 336 340 pd compare;
#X msg 336 319 \$3 \$4 \$5;
#X msg 394 319 \$3 \$4 \$5;
#X floatatom 336 362 5 0 0 0 - - -, f 5;
#X obj 278 254 + 1;
#X obj 204 223 t f f f;
#X obj 187 543 +;
#X obj 187 568 text get \$0-memory;
#X obj 165 591 list;
#X obj 321 568 text get \$0-memory;
#X obj 300 598 list;
#X obj 138 512 t b b;
#X obj 300 622 list trim;
#X obj 165 613 list trim;
#X obj 115 392 sel 0;
#X obj 336 383 sel 1;
#X msg 363 431 1;
#X obj 336 409 t b b;
#X obj 115 414 t b b;
#X msg 142 436 -1;
#X connect 0 0 16 1;
#X connect 1 0 14 1;
#X connect 2 0 24 0;
#X connect 3 0 4 0;
#X connect 4 0 5 0;
#X connect 5 1 7 0;
#X connect 6 0 9 0;
#X connect 7 0 6 0;
#X connect 8 0 6 1;
#X connect 9 0 33 0;
#X connect 12 0 25 1;
#X connect 12 0 10 1;
#X connect 12 0 28 0;
#X connect 13 0 14 0;
#X connect 13 1 8 0;
#X connect 13 1 21 0;
#X connect 14 0 2 0;
#X connect 15 0 16 0;
#X connect 16 0 13 0;
#X connect 17 0 18 0;
#X connect 18 1 20 0;
#X connect 19 0 22 0;
#X connect 20 0 19 0;
#X connect 21 0 19 1;
#X connect 22 0 34 0;
#X connect 23 0 17 0;
#X connect 24 0 3 0;
#X connect 24 1 23 0;
#X connect 24 2 12 0;
#X connect 25 0 26 0;
#X connect 25 0 11 1;
#X connect 26 0 27 1;
#X connect 27 0 32 0;
#X connect 28 0 29 1;
#X connect 29 0 31 0;
#X connect 30 0 29 0;
#X connect 30 1 27 0;
#X connect 31 0 11 0;
#X connect 32 0 10 0;
#X connect 33 0 37 0;
#X connect 34 0 36 0;
#X connect 35 0 25 0;
#X connect 36 0 30 0;
#X connect 36 1 35 0;
#X connect 37 0 30 0;
#X connect 37 1 38 0;
#X connect 38 0 25 0;
#X restore 77 141 pd exchange_pos_of_values_in_memory;
#X obj 77 93 t b b a;
#X connect 0 0 3 1;
#X connect 0 0 10 2;
#X connect 1 0 9 0;
#X connect 2 0 7 0;
#X connect 4 0 5 0;
#X connect 5 0 3 0;
#X connect 6 0 11 0;
#X connect 7 0 8 0;
#X connect 7 1 5 1;
#X connect 8 0 4 0;
#X connect 9 0 10 1;
#X connect 9 1 2 1;
#X connect 11 0 10 0;
#X connect 11 1 2 0;
#X connect 11 2 4 1;
#X restore 179 283 pd change_pos;
#N canvas 2726 310 578 533 change_len 0;
#X obj 214 54 inlet text_line_nr;
#X obj 143 54 inlet list;
#X obj 77 146 list;
#X obj 77 305 text set \$0-memory;
#X obj 77 237 list append;
#X obj 77 276 list append;
#X obj 77 54 inlet pos;
#X obj 77 171 list split 5;
#X obj 77 93 t b a;
#X obj 110 200 list split 3;
#X connect 0 0 3 1;
#X connect 1 0 2 1;
#X connect 2 0 7 0;
#X connect 4 0 5 0;
#X connect 5 0 3 0;
#X connect 6 0 8 0;
#X connect 7 0 4 0;
#X connect 7 1 9 0;
#X connect 8 0 2 0;
#X connect 8 1 4 1;
#X connect 9 1 5 1;
#X restore 210 307 pd change_len;
#X obj 83 27 inlet;
#X obj 83 125 spigot;
#X obj 122 101 tgl 15 0 empty empty empty 17 7 0 10 -262144 -1 -1 0
1;
#X obj 83 49 t a a 1;
#X obj 253 107 route -1;
#X msg 137 81 0;
#X obj 118 206 route vol row pos len par;
#N canvas 1215 127 705 727 change_par 0;
#X obj 224 63 inlet text_line_nr;
#X obj 153 63 inlet list;
#X obj 87 176 list;
#X obj 87 649 text set \$0-memory;
#X obj 87 63 inlet pos;
#X obj 87 623 list append;
#X floatatom 121 342 5 0 0 0 - - -, f 5;
#X obj 121 363 sel -1;
#X obj 121 385 list;
#X obj 292 297 unpack s f;
#X obj 121 407 list prepend;
#X obj 268 423 * 2;
#X obj 268 445 + 1;
#X obj 214 468 list split;
#X obj 214 444 list;
#X obj 121 290 t a a a;
#X obj 214 390 t b a;
#X obj 243 493 list split 1;
#X obj 277 519 list prepend;
#X obj 214 544 list append;
#X symbolatom 304 321 10 0 0 0 - - -, f 10;
#X obj 87 264 list split 9;
#X msg 444 155 \$1;
#X obj 445 182 route del;
#X obj 87 102 t b a a;
#X obj 87 221 demux;
#X obj 478 221 unpack s;
#X obj 445 246 symbol;
#X obj 447 647 text set \$0-memory;
#X obj 447 621 list append;
#X floatatom 481 383 5 0 0 0 - - -, f 5;
#X obj 481 404 sel -1;
#X obj 568 472 * 2;
#X obj 514 495 list split;
#X obj 514 471 list;
#X obj 481 331 t a a a;
#X obj 514 439 t b a;
#X obj 577 546 list prepend;
#X obj 514 571 list append;
#X obj 447 305 list split 9;
#X obj 287 107 t a a a b;
#X obj 292 273 spigot;
#X msg 338 177 1;
#X msg 344 206 0;
#X obj 543 520 list split 2;
#X obj 447 595 list append;
#X text 563 304 delete parameter;
#X text 197 349 add or change parameter;
#X obj 121 320 ../math/list_get_index_of_symbol;
#X obj 481 361 ../math/list_get_index_of_symbol;
#X connect 0 0 3 1;
#X connect 0 0 28 1;
#X connect 1 0 2 1;
#X connect 2 0 25 0;
#X connect 4 0 24 0;
#X connect 5 0 3 0;
#X connect 6 0 7 0;
#X connect 7 0 8 0;
#X connect 7 1 16 0;
#X connect 8 0 10 0;
#X connect 9 0 20 0;
#X connect 9 0 48 1;
#X connect 9 1 18 1;
#X connect 10 0 5 1;
#X connect 11 0 12 0;
#X connect 12 0 13 1;
#X connect 13 0 19 0;
#X connect 13 1 17 0;
#X connect 14 0 13 0;
#X connect 15 0 48 0;
#X connect 15 1 10 1;
#X connect 15 2 14 1;
#X connect 16 0 14 0;
#X connect 16 1 11 0;
#X connect 17 1 18 0;
#X connect 18 0 19 1;
#X connect 19 0 5 1;
#X connect 21 0 5 0;
#X connect 21 1 15 0;
#X connect 22 0 23 0;
#X connect 23 0 43 0;
#X connect 23 0 27 0;
#X connect 24 0 2 0;
#X connect 24 1 8 1;
#X connect 24 2 40 0;
#X connect 25 0 39 0;
#X connect 25 1 21 0;
#X connect 26 0 27 1;
#X connect 27 0 49 1;
#X connect 29 0 28 0;
#X connect 30 0 31 0;
#X connect 31 1 36 0;
#X connect 32 0 33 1;
#X connect 33 0 38 0;
#X connect 33 1 44 0;
#X connect 34 0 33 0;
#X connect 35 0 49 0;
#X connect 35 2 34 1;
#X connect 36 0 34 0;
#X connect 36 1 32 0;
#X connect 37 0 38 1;
#X connect 38 0 45 1;
#X connect 39 0 45 0;
#X connect 39 1 35 0;
#X connect 40 0 41 0;
#X connect 40 1 22 0;
#X connect 40 2 26 0;
#X connect 40 3 42 0;
#X connect 41 0 9 0;
#X connect 42 0 25 1;
#X connect 42 0 41 1;
#X connect 43 0 25 1;
#X connect 43 0 41 1;
#X connect 44 1 37 0;
#X connect 45 0 29 0;
#X connect 48 0 6 0;
#X connect 49 0 30 0;
#X restore 249 342 pd change_par;
#X connect 0 0 14 0;
#X connect 1 0 0 0;
#X connect 2 1 3 0;
#X connect 3 0 16 0;
#X connect 4 0 6 1;
#X connect 4 0 7 1;
#X connect 4 0 8 1;
#X connect 4 0 9 1;
#X connect 4 0 17 1;
#X connect 5 0 4 0;
#X connect 5 1 6 2;
#X connect 5 1 7 2;
#X connect 5 1 8 2;
#X connect 5 1 9 2;
#X connect 5 1 17 2;
#X connect 10 0 13 0;
#X connect 11 0 2 0;
#X connect 12 0 11 1;
#X connect 13 0 11 0;
#X connect 13 1 1 0;
#X connect 13 2 12 0;
#X connect 14 0 15 0;
#X connect 14 1 5 0;
#X connect 15 0 12 0;
#X connect 16 0 6 0;
#X connect 16 1 7 0;
#X connect 16 2 8 0;
#X connect 16 3 9 0;
#X connect 16 4 17 0;
#X restore 99 101 pd change;
#X obj 427 107 symbol;
#X symbolatom 427 129 10 0 0 0 - - -, f 10;
#X obj 394 151 symbol;
#X msg 346 271 line 0;
#X obj 319 397 outlet loaded_values;
#X text 228 426 id row pos0 pos1 pos2 len0 len1 len2 vol;
#X obj 319 363 list trim;
#X obj 175 283 text define \$0-memory;
#X msg 175 260 clear;
#N canvas 2126 113 461 882 insert_new_item 0;
#X obj 61 17 inlet new_item;
#N canvas 714 144 826 747 compare 0;
#X obj 119 41 inlet list1;
#X obj 298 41 inlet list2;
#X obj 119 88 unpack f f f f;
#X obj 297 92 unpack f f f f;
#X obj 119 608 outlet;
#X floatatom 119 188 5 0 0 0 - - -, f 5;
#X floatatom 157 188 5 0 0 0 - - -, f 5;
#X floatatom 216 188 5 0 0 0 - - -, f 5;
#X floatatom 253 188 5 0 0 0 - - -, f 5;
#X floatatom 312 188 5 0 0 0 - - -, f 5;
#X floatatom 349 188 5 0 0 0 - - -, f 5;
#X floatatom 412 188 5 0 0 0 - - -, f 5;
#X floatatom 449 188 5 0 0 0 - - -, f 5;
#X msg 119 565 1;
#X msg 162 565 0;
#X floatatom 580 186 5 0 0 0 - - -, f 5;
#N canvas 2994 267 614 490 comp 0;
#X obj 94 41 inlet trigger;
#X obj 195 41 inlet nr1;
#X obj 272 41 inlet nr2;
#X obj 349 41 inlet amount;
#X obj 139 199 f;
#X obj 176 199 f;
#X obj 139 178 t b b;
#X obj 139 221 <;
#N canvas 1473 691 290 262 mucks 0;
#X obj 83 9 inlet;
#X obj 83 117 outlet;
#X obj 134 117 outlet;
#X obj 128 9 inlet;
#X obj 83 89 sel 0;
#X obj 83 61 f;
#X floatatom 118 62 5 0 0 0 - - -, f 5;
#X obj 83 31 bng 15 250 50 0 empty empty empty 17 7 0 10 -262144 -1
-1;
#X connect 0 0 7 0;
#X connect 3 0 5 1;
#X connect 3 0 6 0;
#X connect 4 0 1 0;
#X connect 4 1 2 0;
#X connect 5 0 4 0;
#X connect 7 0 5 0;
#X restore 94 158 pd mucks;
#X obj 139 137 > 1;
#X obj 139 248 sel 1;
#X obj 164 292 f;
#X obj 193 293 f;
#X obj 164 314 ==;
#X obj 165 271 t b b;
#X obj 164 336 sel 0;
#X obj 444 41 inlet order;
#X obj 87 424 outlet one;
#X obj 166 425 outlet zero;
#X obj 258 425 outlet next;
#X connect 0 0 8 0;
#X connect 1 0 4 1;
#X connect 1 0 11 1;
#X connect 2 0 5 1;
#X connect 2 0 12 1;
#X connect 3 0 9 0;
#X connect 4 0 7 0;
#X connect 5 0 7 1;
#X connect 6 0 4 0;
#X connect 6 1 5 0;
#X connect 7 0 10 0;
#X connect 8 0 18 0;
#X connect 8 1 6 0;
#X connect 9 0 8 1;
#X connect 10 0 17 0;
#X connect 10 1 14 0;
#X connect 11 0 13 0;
#X connect 12 0 13 1;
#X connect 13 0 15 0;
#X connect 14 0 11 0;
#X connect 14 1 12 0;
#X connect 15 0 18 0;
#X connect 15 1 19 0;
#X connect 16 0 9 1;
#X restore 202 275 pd comp;
#X msg 258 247 1;
#N canvas 1233 401 614 559 comp 0;
#X obj 94 41 inlet trigger;
#X obj 195 41 inlet nr1;
#X obj 272 41 inlet nr2;
#X obj 349 41 inlet amount;
#X obj 139 199 f;
#X obj 176 199 f;
#X obj 139 178 t b b;
#X obj 139 221 <;
#N canvas 1473 691 290 262 mucks 0;
#X obj 83 9 inlet;
#X obj 83 117 outlet;
#X obj 134 117 outlet;
#X obj 128 9 inlet;
#X obj 83 89 sel 0;
#X obj 83 61 f;
#X floatatom 118 62 5 0 0 0 - - -, f 5;
#X obj 83 31 bng 15 250 50 0 empty empty empty 17 7 0 10 -262144 -1
-1;
#X connect 0 0 7 0;
#X connect 3 0 5 1;
#X connect 3 0 6 0;
#X connect 4 0 1 0;
#X connect 4 1 2 0;
#X connect 5 0 4 0;
#X connect 7 0 5 0;
#X restore 94 158 pd mucks;
#X obj 139 137 > 1;
#X obj 139 248 sel 1;
#X obj 164 292 f;
#X obj 193 293 f;
#X obj 164 314 ==;
#X obj 165 271 t b b;
#X obj 164 336 sel 0;
#X obj 444 41 inlet order;
#X obj 87 424 outlet one;
#X obj 166 425 outlet zero;
#X obj 258 425 outlet next;
#X connect 0 0 8 0;
#X connect 1 0 4 1;
#X connect 1 0 11 1;
#X connect 2 0 5 1;
#X connect 2 0 12 1;
#X connect 3 0 9 0;
#X connect 4 0 7 0;
#X connect 5 0 7 1;
#X connect 6 0 4 0;
#X connect 6 1 5 0;
#X connect 7 0 10 0;
#X connect 8 0 18 0;
#X connect 8 1 6 0;
#X connect 9 0 8 1;
#X connect 10 0 17 0;
#X connect 10 1 14 0;
#X connect 11 0 13 0;
#X connect 12 0 13 1;
#X connect 13 0 15 0;
#X connect 14 0 11 0;
#X connect 14 1 12 0;
#X connect 15 0 18 0;
#X connect 15 1 19 0;
#X connect 16 0 9 1;
#X restore 298 310 pd comp;
#X msg 355 287 2;
#N canvas 873 296 614 536 comp 0;
#X obj 94 41 inlet trigger;
#X obj 215 40 inlet nr1;
#X obj 302 40 inlet nr2;
#X obj 389 40 inlet amount;
#X obj 139 199 f;
#X obj 176 199 f;
#X obj 139 178 t b b;
#X obj 139 221 <;
#N canvas 1473 691 290 262 mucks 0;
#X obj 83 9 inlet;
#X obj 83 117 outlet;
#X obj 134 117 outlet;
#X obj 128 9 inlet;
#X obj 83 89 sel 0;
#X obj 83 61 f;
#X floatatom 118 62 5 0 0 0 - - -, f 5;
#X obj 83 31 bng 15 250 50 0 empty empty empty 17 7 0 10 -262144 -1
-1;
#X connect 0 0 7 0;
#X connect 3 0 5 1;
#X connect 3 0 6 0;
#X connect 4 0 1 0;
#X connect 4 1 2 0;
#X connect 5 0 4 0;
#X connect 7 0 5 0;
#X restore 94 158 pd mucks;
#X obj 139 248 sel 1;
#X obj 164 292 f;
#X obj 193 293 f;
#X obj 164 314 ==;
#X obj 165 271 t b b;
#X obj 164 336 sel 0;
#X obj 484 40 inlet order;
#X obj 87 424 outlet one;
#X obj 166 425 outlet zero;
#X obj 258 425 outlet next;
#X obj 139 137 > 0;
#X connect 0 0 8 0;
#X connect 1 0 4 1;
#X connect 1 0 10 1;
#X connect 2 0 5 1;
#X connect 2 0 11 1;
#X connect 3 0 19 0;
#X connect 4 0 7 0;
#X connect 5 0 7 1;
#X connect 6 0 4 0;
#X connect 6 1 5 0;
#X connect 7 0 9 0;
#X connect 8 0 17 0;
#X connect 8 1 6 0;
#X connect 9 0 16 0;
#X connect 9 1 13 0;
#X connect 10 0 12 0;
#X connect 11 0 12 1;
#X connect 12 0 14 0;
#X connect 13 0 10 0;
#X connect 13 1 11 0;
#X connect 14 0 17 0;
#X connect 14 1 18 0;
#X connect 15 0 19 1;
#X connect 19 0 8 1;
#X restore 119 243 pd comp;
#X obj 119 209 t b f;
#X obj 581 137 bng 15 250 50 0 empty empty empty 17 7 0 10 -262144
-1 -1;
#X msg 581 159 3;
#X obj 581 114 r \$0-loadbang;
#X connect 0 0 2 0;
#X connect 1 0 3 0;
#X connect 2 0 5 0;
#X connect 2 1 7 0;
#X connect 2 2 9 0;
#X connect 2 3 11 0;
#X connect 3 0 6 0;
#X connect 3 1 8 0;
#X connect 3 2 10 0;
#X connect 3 3 12 0;
#X connect 5 0 21 0;
#X connect 6 0 20 2;
#X connect 7 0 16 1;
#X connect 8 0 16 2;
#X connect 9 0 18 1;
#X connect 10 0 18 2;
#X connect 13 0 4 0;
#X connect 14 0 4 0;
#X connect 15 0 16 3;
#X connect 15 0 18 3;
#X connect 15 0 20 3;
#X connect 16 0 13 0;
#X connect 16 1 14 0;
#X connect 16 2 18 0;
#X connect 17 0 16 4;
#X connect 18 0 13 0;
#X connect 18 1 14 0;
#X connect 18 2 14 0;
#X connect 19 0 18 4;
#X connect 20 0 13 0;
#X connect 20 1 14 0;
#X connect 20 2 16 0;
#X connect 21 0 20 0;
#X connect 21 1 20 1;
#X connect 22 0 17 0;
#X connect 22 0 19 0;
#X connect 23 0 15 0;
#X connect 24 0 22 0;
#X connect 24 0 23 0;
#X restore 154 372 pd compare;
#X floatatom 154 393 5 0 0 0 - - -, f 5;
#X obj 127 269 text sequence \$0-memory;
#X msg 154 243 line 0;
#X obj 127 221 t b b;
#X obj 154 455 list;
#X obj 154 476 list trim;
#X obj 219 240 text define \$0-txt_tmp;
#X msg 220 219 clear;
#X obj 154 330 spigot;
#X obj 154 434 t b 0;
#X floatatom 187 309 5 0 0 0 - - -, f 5;
#X obj 127 291 t a a a;
#X obj 154 413 sel 0;
#X msg 149 602 clear;
#X obj 149 624 s \$0-memory;
#X msg 129 649 line 0;
#X obj 112 670 text sequence \$0-txt_tmp;
#X obj 112 167 t b b a a 1 b;
#X obj 112 65 text size \$0-memory;
#X floatatom 112 85 5 0 0 0 - - -, f 5;
#X obj 112 104 > 0;
#X obj 61 126 demux . .;
#X obj 61 39 t a b;
#X obj 112 578 t b b b b;
#X floatatom 344 452 5 0 0 0 - - -, f 5;
#X obj 328 517 list;
#X obj 328 473 f;
#X obj 328 495 sel 1;
#X msg 154 351 \$3 \$4 \$5;
#X msg 212 351 \$3 \$4 \$5;
#X obj 112 747 text set \$0-memory 1e+008;
#X obj 127 552 text set \$0-txt_tmp 1e+008;
#X connect 0 0 24 0;
#X connect 1 0 2 0;
#X connect 2 0 14 0;
#X connect 3 0 13 0;
#X connect 4 0 3 0;
#X connect 5 0 3 0;
#X connect 5 1 4 0;
#X connect 6 0 7 0;
#X connect 7 0 33 0;
#X connect 9 0 8 0;
#X connect 10 0 30 0;
#X connect 11 0 6 0;
#X connect 11 1 12 0;
#X connect 12 0 10 1;
#X connect 12 0 26 0;
#X connect 13 0 33 0;
#X connect 13 1 10 0;
#X connect 14 0 11 0;
#X connect 15 0 16 0;
#X connect 17 0 18 0;
#X connect 18 0 32 0;
#X connect 19 0 25 0;
#X connect 19 1 5 0;
#X connect 19 2 31 0;
#X connect 19 3 6 1;
#X connect 19 3 27 1;
#X connect 19 4 12 0;
#X connect 19 5 9 0;
#X connect 20 0 21 0;
#X connect 21 0 22 0;
#X connect 22 0 23 1;
#X connect 23 0 32 0;
#X connect 23 1 19 0;
#X connect 24 0 23 0;
#X connect 24 1 20 0;
#X connect 25 0 18 0;
#X connect 25 1 17 0;
#X connect 25 2 15 0;
#X connect 25 3 28 0;
#X connect 26 0 28 1;
#X connect 27 0 33 0;
#X connect 28 0 29 0;
#X connect 29 0 27 0;
#X connect 30 0 1 0;
#X connect 31 0 1 1;
#X restore 88 204 pd insert_new_item;
#X obj 319 297 text sequence \$0-memory;
#X obj 394 201 symbol;
#X msg 394 221 read presets/\$1.txt;
#X obj 319 248 t b b;
#X obj 319 161 t b b;
#X msg 61 326 size_change;
#X obj 61 173 t b a;
#X obj 137 129 t b a;
#X obj 175 231 t b a;
#N canvas 1146 315 774 627 save 0;
#X obj 118 176 text define \$0-mem_temp;
#X obj 118 55 inlet symbol;
#X msg 118 119 write presets/\$1.txt;
#X msg 382 154 line 0;
#X obj 355 176 text sequence \$0-memory;
#X obj 355 131 t b b;
#X scalar text 327 206 \; \;;
#X msg 507 240 3;
#X msg 316 204 sort;
#X obj 355 354 t a b;
#X obj 383 380 f;
#X obj 415 381 + 1;
#X obj 318 106 t b b 0;
#X obj 355 406 list prepend;
#X obj 118 87 t a b b;
#X msg 157 146 clear;
#X msg 355 218 \$3 \$4 \$5 \$6 \$7 \$8 \$9 \$2;
#X obj 507 218 r \$0-loadbang;
#X obj 355 197 list split 9;
#X obj 355 239 list append;
#X obj 355 323 list append;
#X msg 355 302 \$8 \$1 \$2 \$3 \$4 \$5 \$6 \$7;
#X obj 355 281 list split 8;
#X obj 355 486 text set \$0-mem_temp 1e+008;
#X obj 355 260 ../math/list_sort;
#X connect 1 0 14 0;
#X connect 2 0 0 0;
#X connect 3 0 4 0;
#X connect 4 0 18 0;
#X connect 5 0 4 0;
#X connect 5 1 3 0;
#X connect 7 0 24 1;
#X connect 8 0 24 0;
#X connect 9 0 13 0;
#X connect 9 1 10 0;
#X connect 10 0 11 0;
#X connect 10 0 13 1;
#X connect 11 0 10 1;
#X connect 12 0 8 0;
#X connect 12 1 5 0;
#X connect 12 2 10 1;
#X connect 13 0 23 0;
#X connect 14 0 2 0;
#X connect 14 1 12 0;
#X connect 14 2 15 0;
#X connect 15 0 0 0;
#X connect 16 0 19 0;
#X connect 17 0 7 0;
#X connect 18 0 16 0;
#X connect 18 1 19 1;
#X connect 19 0 24 0;
#X connect 20 0 9 0;
#X connect 21 0 20 0;
#X connect 22 0 21 0;
#X connect 22 1 20 1;
#X connect 24 0 22 0;
#X restore 394 174 pd save;
#X obj 319 342 list prepend set_item;
#X obj 61 391 outlet to_player;
#X obj 145 345 \$0;
#X msg 144 363 dollar_null \$1;
#X obj 144 326 r \$0-loadbang;
#X obj 61 69 route new change del clear save load pre_name;
#X connect 0 0 29 0;
#X connect 2 0 1 0;
#X connect 4 0 5 0;
#X connect 5 0 6 1;
#X connect 5 0 15 1;
#X connect 6 0 23 0;
#X connect 7 0 14 0;
#X connect 10 0 8 0;
#X connect 12 0 11 0;
#X connect 14 0 24 0;
#X connect 14 1 19 0;
#X connect 15 0 16 0;
#X connect 16 0 11 0;
#X connect 17 0 14 0;
#X connect 17 1 7 0;
#X connect 18 0 17 0;
#X connect 18 1 15 0;
#X connect 19 0 25 0;
#X connect 20 0 19 0;
#X connect 20 1 13 0;
#X connect 21 0 19 0;
#X connect 21 1 2 0;
#X connect 22 0 19 0;
#X connect 22 1 12 0;
#X connect 24 0 10 0;
#X connect 26 0 27 0;
#X connect 27 0 25 0;
#X connect 28 0 26 0;
#X connect 29 0 20 0;
#X connect 29 1 3 0;
#X connect 29 2 21 0;
#X connect 29 3 22 0;
#X connect 29 4 6 0;
#X connect 29 5 18 0;
#X connect 29 6 4 0;
#X restore 101 212 pd memory;
#X obj 54 433 outlet;
#X obj 253 357 t a;
#X obj 253 434 outlet to_tcp;
#X obj 54 42 inlet;
#X obj 54 88 route player memory settings gui;
#N canvas 774 273 663 143 \$0-settings 1;
#X obj 530 111 outlet;
#X obj 19 4 inlet;
#X obj 19 111 outlet;
#X obj 7 3 cnv 15 644 128 empty empty empty 20 12 0 14 -233017 -66577
0;
#N canvas 386 149 1196 675 set_one_seq 1;
#X obj 171 17 inlet trigger;
#X obj 169 503 outlet;
#X obj 700 236 bng 15 250 50 0 empty empty parameters 22 6 0 10 -262144
-1 -1;
#X obj 239 370 text define \$0-settings_txt;
#X obj 439 326 t a;
#X obj 439 475 text set \$0-settings_txt 1e+008;
#X obj 439 397 list;
#X obj 500 413 text search \$0-settings_txt 0;
#X obj 500 390 unpack s;
#X obj 439 366 t a a;
#X obj 795 263 bng 20 250 50 0 empty empty save -2 -8 0 10 -258049
-1 -1;
#X symbolatom 696 266 15 0 0 2 pre_name - -, f 15;
#X msg 301 102 parameters set vol 0 128 1;
#X obj 500 433 sel -1;
#X obj 500 454 text size \$0-settings_txt;
#X obj 244 506 outlet;
#X obj 695 174 symbol;
#X msg 696 293 pre_name \$1;
#N canvas 1949 298 638 600 parameters 0;
#X obj 179 147 text define \$0-parameters;
#X msg 179 123 clear;
#X obj 216 298 list;
#X obj 277 291 unpack s;
#X obj 216 267 t a a;
#X obj 277 313 text search \$0-parameters 0;
#X obj 216 426 text set \$0-parameters 1e+008;
#X obj 277 336 sel -1;
#X obj 276 368 text size \$0-parameters;
#X obj 286 247 text delete \$0-parameters;
#X obj 253 173 unpack s;
#X obj 253 195 text search \$0-parameters 0;
#X obj 253 218 sel -1;
#X obj 179 23 inlet;
#X obj 179 90 route clear set del click;
#X msg 289 117 click;
#X connect 1 0 0 0;
#X connect 2 0 6 0;
#X connect 3 0 5 0;
#X connect 4 0 2 0;
#X connect 4 1 3 0;
#X connect 5 0 7 0;
#X connect 7 0 8 0;
#X connect 7 1 6 1;
#X connect 8 0 6 1;
#X connect 10 0 11 0;
#X connect 11 0 12 0;
#X connect 12 1 9 0;
#X connect 13 0 14 0;
#X connect 14 0 1 0;
#X connect 14 1 4 0;
#X connect 14 2 10 0;
#X connect 14 3 15 0;
#X connect 15 0 0 0;
#X restore 867 302 pd parameters;
#N canvas 423 381 536 439 colors 0;
#X obj 138 153 nbx 3 14 0 255 0 0 empty empty r 0 -8 0 10 -262144 -1
-1 226 256 0;
#X obj 179 153 nbx 3 14 0 255 0 0 empty empty g 0 -8 0 10 -262144 -1
-1 226 256 0;
#X obj 220 153 nbx 3 14 0 255 0 0 empty empty b 0 -8 0 10 -262144 -1
-1 226 256 0;
#X obj 138 170 nbx 3 14 0 255 0 0 empty empty empty 0 -8 0 10 -262144
-1 -1 206 256 0;
#X obj 179 170 nbx 3 14 0 255 0 0 empty empty empty 0 -8 0 10 -262144
-1 -1 253 256 0;
#X obj 220 170 nbx 3 14 0 255 0 0 empty empty empty 0 -8 0 10 -262144
-1 -1 204 256 0;
#X obj 138 187 nbx 3 14 0 255 0 0 empty empty empty 0 -8 0 10 -262144
-1 -1 21 256 0;
#X obj 179 187 nbx 3 14 0 255 0 0 empty empty empty 0 -8 0 10 -262144
-1 -1 2 256 0;
#X obj 220 187 nbx 3 14 0 255 0 0 empty empty empty 0 -8 0 10 -262144
-1 -1 108 256 0;
#N canvas 2389 477 629 491 colors 0;
#X obj 130 85 inlet;
#X obj 130 107 route col0 col1 col2;
#X obj 129 328 outlet;
#X obj 174 328 outlet;
#X obj 219 328 outlet;
#X obj 264 328 outlet;
#X obj 309 328 outlet;
#X obj 354 328 outlet;
#X obj 399 328 outlet;
#X obj 444 328 outlet;
#X obj 489 328 outlet;
#X obj 130 142 unpack f f f;
#X obj 269 139 unpack f f f;
#X obj 408 138 unpack f f f;
#X connect 0 0 1 0;
#X connect 1 0 11 0;
#X connect 1 1 12 0;
#X connect 1 2 13 0;
#X connect 11 0 2 0;
#X connect 11 1 3 0;
#X connect 11 2 4 0;
#X connect 12 0 5 0;
#X connect 12 1 6 0;
#X connect 12 2 7 0;
#X connect 13 0 8 0;
#X connect 13 1 9 0;
#X connect 13 2 10 0;
#X restore 138 89 pd colors;
#N canvas 2004 536 450 323 pack_cols 0;
#X obj 94 92 inlet;
#X obj 133 92 inlet;
#X obj 172 92 inlet;
#X obj 94 200 pack f f f;
#X obj 172 123 t b f;
#X obj 133 123 t b f;
#X obj 94 222 list prepend col0;
#X obj 222 91 inlet;
#X obj 261 91 inlet;
#X obj 300 91 inlet;
#X obj 222 199 pack f f f;
#X obj 300 122 t b f;
#X obj 261 122 t b f;
#X obj 345 91 inlet;
#X obj 384 91 inlet;
#X obj 423 91 inlet;
#X obj 345 199 pack f f f;
#X obj 423 122 t b f;
#X obj 384 122 t b f;
#X obj 345 221 list prepend col2;
#X obj 222 221 list prepend col1;
#X obj 180 314 outlet;
#X connect 0 0 3 0;
#X connect 1 0 5 0;
#X connect 2 0 4 0;
#X connect 3 0 6 0;
#X connect 4 0 3 0;
#X connect 4 1 3 2;
#X connect 5 0 3 0;
#X connect 5 1 3 1;
#X connect 6 0 21 0;
#X connect 7 0 10 0;
#X connect 8 0 12 0;
#X connect 9 0 11 0;
#X connect 10 0 20 0;
#X connect 11 0 10 0;
#X connect 11 1 10 2;
#X connect 12 0 10 0;
#X connect 12 1 10 1;
#X connect 13 0 16 0;
#X connect 14 0 18 0;
#X connect 15 0 17 0;
#X connect 16 0 19 0;
#X connect 17 0 16 0;
#X connect 17 1 16 2;
#X connect 18 0 16 0;
#X connect 18 1 16 1;
#X connect 19 0 21 0;
#X connect 20 0 21 0;
#X restore 138 236 pd pack_cols;
#X obj 138 43 inlet;
#X obj 138 295 outlet;
#X obj 151 122 cnv 15 99 20 empty empty Item-Colors 10 8 0 11 -233017
-66577 0;
#X connect 0 0 10 0;
#X connect 1 0 10 1;
#X connect 2 0 10 2;
#X connect 3 0 10 3;
#X connect 4 0 10 4;
#X connect 5 0 10 5;
#X connect 6 0 10 6;
#X connect 7 0 10 7;
#X connect 8 0 10 8;
#X connect 9 0 0 0;
#X connect 9 1 1 0;
#X connect 9 2 2 0;
#X connect 9 3 3 0;
#X connect 9 4 4 0;
#X connect 9 5 5 0;
#X connect 9 6 6 0;
#X connect 9 7 7 0;
#X connect 9 8 8 0;
#X connect 10 0 12 0;
#X connect 11 0 9 0;
#X coords 0 -1 1 1 125 90 2 135 118;
#X restore 562 197 pd colors;
#N canvas 845 485 598 437 window_sizes 0;
#X obj 175 159 nbx 5 14 100 10000 0 1 empty empty canvas_w 0 -8 0 10
-262144 -1 -1 800 256 0;
#X obj 231 159 nbx 5 14 10 10000 0 1 empty empty canvas_h 0 -8 0 10
-262144 -1 -1 150 256 0;
#X obj 175 190 nbx 5 14 100 10000 0 1 empty empty window_w 0 -8 0 10
-262144 -1 -1 900 256 0;
#X obj 231 190 nbx 5 14 20 2000 0 1 empty empty window_h 0 -8 0 10
-262144 -1 -1 400 256 0;
#X msg 230 268 win_w \$1;
#X msg 230 288 win_h \$1;
#X obj 230 341 t a;
#X obj 230 363 outlet;
#X obj 175 49 inlet;
#X obj 175 79 route win_w win_h window_w window_h;
#X msg 230 228 window_w \$1;
#X msg 230 248 window_h \$1;
#X connect 0 0 4 0;
#X connect 1 0 5 0;
#X connect 2 0 10 0;
#X connect 3 0 11 0;
#X connect 4 0 6 0;
#X connect 5 0 6 0;
#X connect 6 0 7 0;
#X connect 8 0 9 0;
#X connect 9 0 0 0;
#X connect 9 1 1 0;
#X connect 9 2 2 0;
#X connect 9 3 3 0;
#X connect 10 0 6 0;
#X connect 11 0 6 0;
#X coords 0 -1 1 1 123 66 2 168 146;
#X restore 439 221 pd window_sizes;
#N canvas 177 383 540 471 loop 0;
#X symbolatom 176 158 7 0 0 2 loop-start - -, f 7;
#X symbolatom 176 187 7 0 0 2 loop-end - -, f 7;
#X obj 247 158 tgl 15 0 empty empty loop_on -8 -9 0 10 -262144 -1 -1
1 1;
#X obj 247 186 tgl 15 0 empty empty use_bounds -16 -9 0 10 -262144
-1 -1 0 1;
#X msg 176 246 loop_on \$1;
#X msg 176 290 loop_start \$1;
#X msg 176 312 loop_end \$1;
#X obj 176 332 t a;
#X obj 176 66 symbol;
#X obj 242 66 symbol;
#X obj 176 15 inlet;
#X obj 176 360 outlet;
#X msg 176 268 use_bounds \$1;
#X obj 176 37 route loop_start loop_end loop_on use_bounds;
#X connect 0 0 5 0;
#X connect 1 0 6 0;
#X connect 2 0 4 0;
#X connect 3 0 12 0;
#X connect 4 0 7 0;
#X connect 5 0 7 0;
#X connect 6 0 7 0;
#X connect 7 0 11 0;
#X connect 8 0 0 0;
#X connect 9 0 1 0;
#X connect 10 0 13 0;
#X connect 12 0 7 0;
#X connect 13 0 8 0;
#X connect 13 1 9 0;
#X connect 13 2 2 0;
#X connect 13 3 3 0;
#X coords 0 -1 1 1 128 66 2 171 142;
#X restore 311 221 pd loop;
#N canvas 450 501 534 501 music 0;
#X obj 145 122 nbx 3 14 1 1e+037 0 1 empty empty bars 0 -8 0 10 -262144
-1 -1 4 256 0;
#X obj 186 122 nbx 2 14 1 31 0 1 empty empty micro 0 -8 0 10 -262144
-1 -1 4 256 0;
#X obj 145 152 nbx 2 14 1 100 0 1 empty empty rows 0 -8 0 10 -262144
-1 -1 8 256 0;
#X msg 145 232 amount_bars \$1;
#X msg 145 209 amount_rows \$1;
#X msg 145 255 micro \$1;
#X obj 186 152 nbx 3 14 10 600 0 0 empty empty tempo 0 -8 0 10 -262144
-1 -1 76 256 0;
#X msg 145 278 tempo \$1;
#X obj 145 17 inlet;
#X obj 145 63 route amount_bars micro amount_rows tempo;
#X obj 145 303 t a;
#X obj 145 325 outlet;
#X connect 0 0 3 0;
#X connect 1 0 5 0;
#X connect 2 0 4 0;
#X connect 3 0 10 0;
#X connect 4 0 10 0;
#X connect 5 0 10 0;
#X connect 6 0 7 0;
#X connect 7 0 10 0;
#X connect 8 0 9 0;
#X connect 9 0 0 0;
#X connect 9 1 1 0;
#X connect 9 2 2 0;
#X connect 9 3 6 0;
#X connect 10 0 11 0;
#X coords 0 -1 1 1 91 66 2 138 109;
#X restore 220 221 pd music;
#X obj 301 120 t a;
#N canvas 917 183 924 749 read_write 0;
#X obj 80 57 inlet;
#X msg 126 193 clear;
#X obj 126 217 s \$0-settings_txt;
#X obj 126 241 s \$0-parameters;
#X obj 613 240 text sequence \$0-settings_txt;
#X obj 588 449 text define \$0-all_settings;
#X msg 588 421 clear;
#X obj 638 401 symbol;
#X msg 409 417 read presets/\$1_settings.txt;
#X msg 638 421 write presets/\$1_settings.txt;
#X symbolatom 443 368 10 0 0 0 - - -, f 10;
#X obj 410 395 symbol;
#X obj 80 79 route load save pre_name;
#X obj 443 345 symbol;
#X msg 642 214 line 0;
#X obj 613 194 t b b;
#X obj 613 354 text set \$0-all_settings 1e+008;
#X msg 576 261 line 0;
#X obj 547 241 t b b;
#X obj 547 287 text sequence \$0-parameters;
#X obj 547 309 list prepend parameter;
#X msg 136 284 line 0;
#X obj 107 264 t b b;
#X obj 107 310 text sequence \$0-all_settings;
#X obj 107 464 text set \$0-parameters 1e+008;
#X obj 107 332 list trim;
#X obj 107 172 t b b b;
#X obj 107 439 list;
#X obj 361 565 outlet;
#X obj 107 569 outlet;
#X obj 361 499 list prepend set_var;
#X obj 361 521 list trim;
#X obj 496 523 list trim;
#X obj 496 501 list prepend set_par;
#X obj 80 125 t b b;
#X msg 80 199 init;
#X obj 600 571 outlet to_settings_gui;
#N canvas 2293 429 639 503 msg_to_player 0;
#X obj 108 57 inlet;
#X obj 108 82 route loop_end loop_start use_bounds loop_on;
#X obj 369 131 route tempo micro amount_bars;
#X msg 486 151 amount_bars \$1;
#X msg 427 151 micro \$1;
#X msg 369 151 tempo \$1;
#X obj 108 377 outlet to_player;
#X obj 369 183 t a;
#X obj 108 146 s2l;
#X msg 17 120 symbol .;
#X obj 108 168 list prepend loop_end;
#X obj 108 292 list trim;
#X obj 108 124 symbol;
#X obj 173 213 s2l;
#X obj 173 191 symbol;
#X obj 173 235 list prepend loop_start;
#X obj 17 81 r \$0-loadbang;
#X obj 17 103 bng 15 250 50 0 empty empty empty 17 7 0 10 -262144 -1
-1;
#X msg 303 108 loop \$1;
#X msg 238 129 loop_bounds \$1;
#X connect 0 0 1 0;
#X connect 1 0 12 0;
#X connect 1 1 14 0;
#X connect 1 2 19 0;
#X connect 1 3 18 0;
#X connect 1 4 2 0;
#X connect 2 0 5 0;
#X connect 2 1 4 0;
#X connect 2 2 3 0;
#X connect 3 0 7 0;
#X connect 4 0 7 0;
#X connect 5 0 7 0;
#X connect 7 0 6 0;
#X connect 8 0 10 0;
#X connect 9 0 8 1;
#X connect 9 0 13 1;
#X connect 10 0 11 0;
#X connect 11 0 6 0;
#X connect 12 0 8 0;
#X connect 13 0 15 0;
#X connect 14 0 13 0;
#X connect 15 0 11 0;
#X connect 16 0 17 0;
#X connect 17 0 9 0;
#X connect 18 0 7 0;
#X connect 19 0 7 0;
#X restore 107 517 pd msg_to_player;
#X obj 530 142 t b b b b b;
#X obj 721 308 list prepend muted;
#X obj 820 351 print;
#X obj 721 286 text get \$0-muted;
#X msg 721 264 0;
#X obj 225 240 s \$0-muted;
#X obj 168 412 list;
#X obj 168 437 text set \$0-muted 1e+008;
#X obj 107 354 route parameter muted;
#X obj 221 522 list trim;
#X obj 221 500 list prepend set_muted;
#X connect 0 0 12 0;
#X connect 1 0 2 0;
#X connect 1 0 3 0;
#X connect 1 0 43 0;
#X connect 4 0 16 0;
#X connect 6 0 5 0;
#X connect 7 0 9 0;
#X connect 8 0 5 0;
#X connect 9 0 5 0;
#X connect 10 0 7 1;
#X connect 10 0 11 1;
#X connect 11 0 8 0;
#X connect 12 0 34 0;
#X connect 12 1 38 0;
#X connect 12 2 13 0;
#X connect 13 0 10 0;
#X connect 14 0 4 0;
#X connect 15 0 4 0;
#X connect 15 1 14 0;
#X connect 17 0 19 0;
#X connect 18 0 19 0;
#X connect 18 1 17 0;
#X connect 19 0 20 0;
#X connect 20 0 16 0;
#X connect 21 0 23 0;
#X connect 22 0 23 0;
#X connect 22 1 21 0;
#X connect 23 0 25 0;
#X connect 25 0 46 0;
#X connect 26 0 22 0;
#X connect 26 1 1 0;
#X connect 26 2 11 0;
#X connect 27 0 24 0;
#X connect 30 0 31 0;
#X connect 31 0 28 0;
#X connect 32 0 28 0;
#X connect 33 0 32 0;
#X connect 34 0 35 0;
#X connect 34 1 26 0;
#X connect 35 0 28 0;
#X connect 37 0 29 0;
#X connect 38 0 7 0;
#X connect 38 1 18 0;
#X connect 38 2 42 0;
#X connect 38 3 15 0;
#X connect 38 4 6 0;
#X connect 39 0 16 0;
#X connect 41 0 39 0;
#X connect 42 0 41 0;
#X connect 44 0 45 0;
#X connect 46 0 27 0;
#X connect 46 0 33 0;
#X connect 46 1 44 0;
#X connect 46 1 48 0;
#X connect 46 2 37 0;
#X connect 46 2 30 0;
#X connect 46 2 36 0;
#X connect 47 0 28 0;
#X connect 48 0 47 0;
#X restore 169 412 pd read_write;
#X obj 171 154 t a;
#X obj 945 197 \$0;
#X obj 991 179 bng 15 250 50 0 empty empty empty 17 7 0 10 -262144
-1 -1;
#X msg 946 220 \; pd-\$1-settings vis 1;
#X msg 795 349 save;
#N canvas 965 344 669 346 show_elements 0;
#X obj 101 101 cnv 15 93 22 empty empty show_elements 9 9 0 10 -233017
-66577 0;
#X obj 201 105 tgl 15 0 empty empty main 17 7 0 10 -262144 -1 -1 1
1;
#X obj 249 105 tgl 15 0 empty empty player 17 7 0 10 -262144 -1 -1
1 1;
#X obj 307 105 tgl 15 0 empty empty parameters 17 7 0 10 -262144 -1
-1 1 1;
#X obj 201 29 inlet;
#X obj 201 268 t a;
#X obj 201 296 outlet;
#X msg 201 169 show_main \$1;
#X msg 201 191 show_player \$1;
#X msg 201 213 show_parameters \$1;
#X obj 201 51 route show_main show_player show_parameters show_solo
;
#X obj 395 105 tgl 15 0 empty empty solo 17 7 0 10 -262144 -1 -1 1
1;
#X msg 201 235 show_solo \$1;
#X connect 1 0 7 0;
#X connect 2 0 8 0;
#X connect 3 0 9 0;
#X connect 4 0 10 0;
#X connect 5 0 6 0;
#X connect 7 0 5 0;
#X connect 8 0 5 0;
#X connect 9 0 5 0;
#X connect 10 0 1 0;
#X connect 10 1 2 0;
#X connect 10 2 3 0;
#X connect 10 3 11 0;
#X connect 11 0 12 0;
#X connect 12 0 5 0;
#X coords 0 -1 1 1 342 24 2 100 100;
#X restore 220 197 pd show_elements;
#X obj 798 231 bng 15 250 50 0 empty empty default -10 -8 0 10 -262144
-1 -1;
#X msg 867 273 click;
#X obj 861 360 text define \$0-muted;
#X obj 1007 315 text set \$0-muted;
#X msg 861 337 click;
#X obj 700 218 bng 15 250 50 0 empty empty muted 21 6 0 10 -262144
-1 -1;
#X obj 700 201 nbx 2 14 1 30 0 0 empty empty update_frequency 31 6
0 10 -262144 -1 -1 10 256 0;
#X msg 301 31 amount_bars 4 \, micro 4 \, amount rows 8 \, tempo 76
\, loop_start 1.1.0 \, loop_end 2.1.0 \, loop_bounds 0 \, loop_on 1
\, win_w 800 \, win_h 150 \, window_w 900 \, window_h 400 \, col0 226
226 226 \, col1 206 253 204 \, col2 21 2 108 \, show_main 1 \, show_player
1 \, show_parameters 1 \, show_solo 1 \, update_freq 10;
#X obj 695 152 route pre_name update_freq parameters show_parameters
gui muted, f 63;
#X msg 701 313 update_freq \$1;
#X obj 855 206 loadbang;
#X msg 1015 286 0 0 0 0 0 0 0 0 0 0 0 0 0;
#X msg 690 31 amount_bars 4 \, micro 4 \, amount rows 8 \, tempo 76
\, loop_bounds 0 \, loop_on 1 \, win_w 800 \, win_h 150 \, window_w
900 \, window_h 400 \, col0 226 226 226 \, col1 206 253 204 \, col2
21 2 108 \, show_main 1 \, show_player 1 \, show_parameters 1 \, show_solo
1 \, loop_start 1 1 0 \, loop_end 2 1 0 \, pointer_start 1 1 0 update_freq
10;
#X connect 0 0 25 0;
#X connect 2 0 32 0;
#X connect 4 0 9 0;
#X connect 6 0 5 0;
#X connect 7 0 13 0;
#X connect 8 0 7 0;
#X connect 9 0 6 0;
#X connect 9 1 8 0;
#X connect 10 0 29 0;
#X connect 11 0 17 0;
#X connect 12 0 23 0;
#X connect 13 0 14 0;
#X connect 13 1 5 1;
#X connect 14 0 5 1;
#X connect 16 0 11 0;
#X connect 17 0 4 0;
#X connect 19 0 4 0;
#X connect 20 0 4 0;
#X connect 21 0 4 0;
#X connect 22 0 4 0;
#X connect 23 0 25 0;
#X connect 24 0 1 0;
#X connect 24 1 15 0;
#X connect 24 2 25 0;
#X connect 25 0 24 0;
#X connect 25 0 22 0;
#X connect 25 0 21 0;
#X connect 25 0 20 0;
#X connect 25 0 19 0;
#X connect 25 0 30 0;
#X connect 25 0 39 0;
#X connect 26 0 28 0;
#X connect 27 0 26 0;
#X connect 29 0 24 0;
#X connect 30 0 4 0;
#X connect 31 0 38 0;
#X connect 31 0 43 0;
#X connect 31 0 42 0;
#X connect 32 0 18 0;
#X connect 35 0 33 0;
#X connect 36 0 35 0;
#X connect 37 0 40 0;
#X connect 38 0 23 0;
#X connect 39 0 16 0;
#X connect 39 1 37 0;
#X connect 39 2 18 0;
#X connect 39 4 26 0;
#X connect 39 5 34 0;
#X connect 40 0 4 0;
#X connect 41 0 31 0;
#X connect 42 0 34 0;
#X connect 43 0 1 0;
#X coords 0 -1 1 1 615 90 2 220 197;
#X restore 19 21 pd set_one_seq;
#X connect 1 0 4 0;
#X connect 4 0 2 0;
#X connect 4 1 0 0;
#X restore 148 179 pd \$0-settings;
#X obj 167 148 s \$0-loadbang;
#X obj 167 125 route init;
#X obj 251 128 bng 15 250 50 0 empty empty empty 17 7 0 10 -262144
-1 -1;
#X obj 54 328 sequencer_player;
#X connect 0 0 10 0;
#X connect 0 1 2 0;
#X connect 2 0 3 0;
#X connect 4 0 5 0;
#X connect 5 0 10 0;
#X connect 5 1 0 0;
#X connect 5 1 8 0;
#X connect 5 2 6 0;
#X connect 5 3 2 0;
#X connect 6 0 10 0;
#X connect 6 1 2 0;
#X connect 8 0 7 0;
#X connect 9 0 7 0;
#X connect 10 0 1 0;
#X connect 10 1 2 0;
