#N struct text float x float y text t;
#N canvas 1979 123 835 625 10;
#X obj 185 48 inlet memory;
#X scalar text 424 510 \; \;;
#N canvas 2808 129 540 875 get_items_in_micro 0;
#X obj 94 236 until;
#X msg 94 212 100;
#X obj 94 259 f;
#X obj 123 260 + 1;
#X obj 93 284 +;
#X obj 77 114 t a a;
#X obj 93 354 t a a;
#X obj 150 404 unpack f f;
#X obj 150 425 ==;
#X obj 219 405 unpack f f;
#X obj 196 426 ==;
#X obj 150 446 +;
#X obj 150 467 == 2;
#X obj 150 488 sel 0;
#X obj 93 535 spigot;
#X msg 150 509 0;
#X obj 77 5 inlet;
#X obj 93 677 outlet;
#X floatatom 77 50 5 0 0 0 - - -, f 5;
#X floatatom 111 50 5 0 0 0 - - -, f 5;
#X obj 76 158 route -1;
#X text 38 701 cent midibar midimicro midicent vol row;
#X obj 307 32 inlet text_len;
#X obj 93 306 moses;
#X obj 76 136 text search 2 3;
#X obj 93 330 text get;
#X msg 93 604 \$5 \$6 \$7 \$8 \$9 \$2;
#X msg 150 383 \$3 \$4;
#X obj 148 306 r \$0-mem_sym;
#X obj 177 85 r \$0-mem_sym;
#X symbolatom 177 107 13 0 0 0 - - -, f 13;
#X floatatom 307 133 5 0 0 0 - - -, f 5;
#X obj 307 109 text size;
#X obj 358 86 r \$0-mem_sym;
#X symbolatom 375 109 10 0 0 0 - - -, f 10;
#X floatatom 149 50 5 0 0 3 co-start - -, f 5;
#X obj 77 95 pack f f;
#N canvas 2027 274 553 429 cutoff_start 0;
#X msg 167 95 \$5;
#X obj 141 72 t a a;
#X obj 141 245 spigot;
#X obj 141 164 unpack f f f f f f f f f;
#X obj 141 210 pack f f f f f f f f f;
#X obj 205 187 -;
#X obj 141 30 inlet values;
#X obj 231 28 inlet co;
#X obj 141 314 outlet;
#X obj 231 52 unpack f f;
#X floatatom 231 74 5 0 0 0 - - -, f 5;
#X floatatom 288 74 5 0 0 0 - - -, f 5;
#X obj 167 125 expr $f2 <= $f1 && $f1 <= $f3;
#X connect 0 0 12 0;
#X connect 1 0 3 0;
#X connect 1 1 0 0;
#X connect 2 0 8 0;
#X connect 3 0 4 0;
#X connect 3 1 4 1;
#X connect 3 2 4 2;
#X connect 3 3 4 3;
#X connect 3 4 5 0;
#X connect 3 5 4 5;
#X connect 3 6 4 6;
#X connect 3 7 4 7;
#X connect 3 8 4 8;
#X connect 4 0 2 0;
#X connect 5 0 4 4;
#X connect 6 0 1 0;
#X connect 7 0 9 0;
#X connect 9 0 10 0;
#X connect 9 1 11 0;
#X connect 10 0 5 1;
#X connect 10 0 12 1;
#X connect 11 0 12 2;
#X connect 12 0 2 1;
#X restore 93 577 pd cutoff_start;
#X obj 77 28 unpack f f f f;
#X floatatom 204 49 5 0 0 3 co-end - -, f 5;
#X obj 365 335 pack f f;
#X msg 122 507 1;
#X msg 133 237 0;
#X obj 93 556 list split 9;
#X obj 93 641 list append;
#X obj 324 679 outlet reset;
#X obj 76 184 t f b 0 f b b;
#X connect 0 0 2 0;
#X connect 1 0 0 0;
#X connect 2 0 3 0;
#X connect 2 0 4 0;
#X connect 3 0 2 1;
#X connect 4 0 23 0;
#X connect 5 0 24 0;
#X connect 5 1 9 0;
#X connect 6 0 14 0;
#X connect 6 1 27 0;
#X connect 7 0 8 0;
#X connect 7 1 10 0;
#X connect 8 0 11 0;
#X connect 9 0 8 1;
#X connect 9 1 10 1;
#X connect 10 0 11 1;
#X connect 11 0 12 0;
#X connect 12 0 13 0;
#X connect 13 0 0 1;
#X connect 13 0 15 0;
#X connect 14 0 43 0;
#X connect 15 0 14 1;
#X connect 16 0 38 0;
#X connect 18 0 36 0;
#X connect 19 0 36 1;
#X connect 20 1 46 0;
#X connect 22 0 32 0;
#X connect 23 0 25 0;
#X connect 24 0 20 0;
#X connect 25 0 6 0;
#X connect 26 0 44 0;
#X connect 27 0 7 0;
#X connect 28 0 25 3;
#X connect 29 0 24 1;
#X connect 29 0 30 0;
#X connect 31 0 23 1;
#X connect 32 0 31 0;
#X connect 33 0 32 1;
#X connect 33 0 34 0;
#X connect 35 0 40 0;
#X connect 36 0 5 0;
#X connect 37 0 26 0;
#X connect 38 0 18 0;
#X connect 38 1 19 0;
#X connect 38 2 35 0;
#X connect 38 3 39 0;
#X connect 39 0 40 1;
#X connect 40 0 37 1;
#X connect 41 0 14 1;
#X connect 42 0 2 1;
#X connect 43 0 37 0;
#X connect 43 1 44 1;
#X connect 44 0 17 0;
#X connect 46 1 1 0;
#X connect 46 2 42 0;
#X connect 46 3 4 1;
#X connect 46 4 41 0;
#X connect 46 5 45 0;
#X restore 185 295 pd get_items_in_micro;
#X text 123 497 cent midibar midimicro midicent vol row;
#N canvas 2028 398 611 593 calc_pos_and_len 0;
#X obj 65 40 inlet list;
#X obj 65 106 unpack f f f f f f;
#X floatatom 100 134 3 0 0 3 bar - -, f 3;
#X floatatom 123 134 3 0 0 3 micro - -, f 3;
#X floatatom 146 134 5 0 0 3 cent - -, f 5;
#X floatatom 204 134 3 0 0 3 row - -, f 3;
#X floatatom 181 134 3 0 0 3 vol - -, f 3;
#X floatatom 65 134 5 0 0 3 cent - -, f 5;
#X obj 65 196 *;
#X obj 65 218 / 100;
#X obj 105 215 *;
#X obj 105 237 +;
#X obj 132 215 *;
#X obj 105 259 +;
#X obj 159 216 *;
#X obj 159 238 / 100;
#X floatatom 65 240 5 0 0 0 delay - -, f 5;
#X floatatom 105 281 5 0 0 0 len - -, f 5;
#X obj 65 324 pack 0 f f f f;
#X obj 65 299 t b f;
#X obj 65 440 outlet;
#X msg 65 353 \$2 \$3 \$4 \$5;
#X floatatom 317 140 5 0 0 1 ms_bar - -, f 5;
#X obj 317 33 inlet info;
#X floatatom 317 97 5 0 0 1 bpm - -, f 5;
#X obj 317 118 expr 1 / $f1 * 60000;
#X obj 317 75 route tempo;
#X msg 380 322 clear;
#X obj 380 233 route start stop pause back;
#N canvas 1391 448 454 471 pipe_any 0;
#X obj 87 44 inlet any;
#X obj 272 43 inlet reset;
#X obj 272 153 text define \$0-buf;
#X msg 272 105 clear;
#X obj 169 44 inlet params;
#X obj 87 427 outlet piped_list;
#X obj 120 213 f;
#X obj 148 214 + 1;
#X msg 136 189 0;
#X obj 87 259 pipe;
#X obj 87 237 swap;
#X msg 87 215 \$4;
#X obj 87 281 text get \$0-buf;
#X obj 106 140 list append;
#X msg 148 239 clear;
#X obj 87 92 t a a b;
#X obj 106 165 text set \$0-buf 1e+008;
#X obj 352 43 inlet stop;
#X obj 87 306 list split 3;
#X obj 87 351 list append;
#X obj 121 327 list split 1;
#X connect 0 0 15 0;
#X connect 1 0 8 0;
#X connect 1 0 3 0;
#X connect 3 0 2 0;
#X connect 4 0 13 1;
#X connect 6 0 7 0;
#X connect 6 0 10 1;
#X connect 7 0 6 1;
#X connect 8 0 6 1;
#X connect 9 0 12 0;
#X connect 10 0 9 0;
#X connect 10 1 9 1;
#X connect 11 0 10 0;
#X connect 12 0 18 0;
#X connect 13 0 16 0;
#X connect 14 0 9 0;
#X connect 15 0 11 0;
#X connect 15 1 13 0;
#X connect 15 2 6 0;
#X connect 17 0 14 0;
#X connect 17 0 3 0;
#X connect 18 0 19 0;
#X connect 18 1 20 0;
#X connect 19 0 5 0;
#X connect 20 1 19 1;
#X restore 65 388 pd pipe_any;
#X obj 65 62 t a a b;
#X obj 479 30 inlet reset;
#X obj 92 83 list split 6;
#X connect 0 0 30 0;
#X connect 1 0 7 0;
#X connect 1 1 2 0;
#X connect 1 2 3 0;
#X connect 1 3 4 0;
#X connect 1 4 6 0;
#X connect 1 5 5 0;
#X connect 2 0 10 0;
#X connect 3 0 12 0;
#X connect 4 0 14 0;
#X connect 5 0 18 1;
#X connect 6 0 18 3;
#X connect 7 0 8 0;
#X connect 8 0 9 0;
#X connect 9 0 16 0;
#X connect 10 0 11 0;
#X connect 11 0 13 0;
#X connect 12 0 11 1;
#X connect 13 0 17 0;
#X connect 14 0 15 0;
#X connect 15 0 13 1;
#X connect 16 0 19 0;
#X connect 17 0 18 2;
#X connect 18 0 21 0;
#X connect 19 0 18 0;
#X connect 19 1 18 4;
#X connect 21 0 29 0;
#X connect 22 0 14 1;
#X connect 22 0 12 1;
#X connect 22 0 10 1;
#X connect 22 0 8 1;
#X connect 23 0 26 0;
#X connect 24 0 25 0;
#X connect 25 0 22 0;
#X connect 26 0 24 0;
#X connect 26 1 28 0;
#X connect 27 0 29 3;
#X connect 28 0 27 0;
#X connect 28 1 27 0;
#X connect 28 2 27 0;
#X connect 28 3 27 0;
#X connect 29 0 20 0;
#X connect 30 0 1 0;
#X connect 30 1 32 0;
#X connect 31 0 29 2;
#X connect 32 1 29 1;
#X restore 185 356 pd calc_pos_and_len;
#X obj 185 472 outlet;
#X scalar text 414 412 \; \;;
#X scalar text 377 437 \; \;;
#X obj 425 461 outlet metro_bars;
#X symbolatom 468 152 14 0 0 0 - - -, f 14;
#X obj 468 173 s \$0-mem_sym;
#X msg 468 130 symbol \$1-memory;
#X floatatom 425 347 5 0 0 0 - - -, f 5;
#X floatatom 462 347 5 0 0 0 - - -, f 5;
#X floatatom 499 347 5 0 0 0 - - -, f 5;
#X obj 425 425 spigot;
#X obj 614 365 sel 0;
#X obj 468 108 route dollar_null size_change pointer;
#X obj 614 341 t a;
#N canvas 2019 159 346 557 calculate_position 1;
#X obj 78 29 inlet memory;
#X obj 78 365 outlet pos;
#N canvas 1444 529 356 317 micro2midi 0;
#X obj 109 18 inlet;
#X obj 207 18 inlet micro;
#X obj 109 257 outlet;
#X obj 138 68 /;
#X obj 138 90 int;
#X obj 216 112 *;
#X floatatom 216 134 5 0 0 0 - - -, f 5;
#X obj 109 47 t f f;
#X obj 138 112 + 1;
#X obj 109 155 expr $f1 - $f2 + 1;
#X obj 109 199 pack f f;
#X connect 0 0 7 0;
#X connect 1 0 5 1;
#X connect 1 0 3 1;
#X connect 3 0 4 0;
#X connect 4 0 5 0;
#X connect 4 0 8 0;
#X connect 5 0 6 0;
#X connect 6 0 9 1;
#X connect 7 0 9 0;
#X connect 7 1 3 0;
#X connect 8 0 10 1;
#X connect 9 0 10 0;
#X connect 10 0 2 0;
#X restore 78 305 pd micro2midi;
#X msg 78 158 1;
#X msg 110 158 0;
#X obj 241 345 outlet stop;
#X obj 191 117 bng 15 250 50 0 empty empty empty 17 7 0 10 -262144
-1 -1;
#N canvas 1935 90 991 655 metro 1;
#X obj 111 38 inlet start_stop;
#X msg 114 262 stop;
#X obj 115 333 delay;
#X obj 126 394 text sequence \$0-timer;
#N canvas 1303 297 502 658 set_timer_text 0;
#X obj 173 207 text define \$0-timer;
#X obj 108 189 until;
#X obj 108 211 f;
#X obj 139 212 + 1;
#X msg 125 164 0;
#X obj 108 141 t f b f b;
#X msg 159 164 clear;
#X floatatom 109 118 5 0 0 0 - - -, f 5;
#N canvas 1371 390 491 434 calc_amount_beats 0;
#X obj 78 32 inlet amount_bars;
#X obj 213 32 inlet micro;
#X obj 78 94 *;
#X floatatom 78 116 5 0 0 0 - - -, f 5;
#X obj 78 72 t b f;
#X obj 78 155 outlet;
#X connect 0 0 4 0;
#X connect 1 0 2 0;
#X connect 2 0 3 0;
#X connect 3 0 5 0;
#X connect 4 0 2 0;
#X connect 4 1 2 1;
#X restore 109 85 pd calc_amount_beats;
#X obj 109 33 inlet amount_bars;
#X obj 227 33 inlet micro;
#X obj 108 258 text set \$0-timer 1e+008;
#X connect 1 0 2 0;
#X connect 2 0 3 0;
#X connect 2 0 11 0;
#X connect 3 0 2 1;
#X connect 4 0 2 1;
#X connect 5 0 1 0;
#X connect 5 1 4 0;
#X connect 5 3 6 0;
#X connect 6 0 0 0;
#X connect 7 0 5 0;
#X connect 8 0 7 0;
#X connect 9 0 8 0;
#X connect 10 0 8 1;
#X restore 454 342 pd set_timer_text;
#X msg 115 355 step;
#X obj 240 69 route tempo amount_bars micro, f 30;
#X floatatom 240 92 5 0 0 0 bpm - -, f 5;
#X floatatom 240 149 5 0 0 3 ms - #0-ms, f 5;
#X obj 240 129 expr 1 / $f1 * 60000;
#X obj 240 38 inlet;
#X floatatom 302 92 5 0 0 3 bars - #0-bars, f 5;
#X floatatom 356 92 5 0 0 3 micro - #0-micro, f 5;
#X obj 145 591 outlet pos_cut_ms_micro;
#X obj 326 591 outlet stop;
#X msg 326 546 0;
#X obj 111 172 sel 1 0 2 3;
#N canvas 2914 154 810 518 positions 0;
#X obj 41 44 inlet pointer_start;
#X obj 201 44 inlet amount_bars;
#X obj 317 44 inlet loop_start;
#X obj 428 45 inlet loop_end;
#X obj 535 45 inlet ms;
#X obj 598 45 inlet micro;
#N canvas 995 402 487 508 pointer_start_pos 0;
#X obj 88 131 bng 15 250 50 0 empty empty empty 17 7 0 10 -262144 -1
-1;
#N canvas 498 445 400 443 calc_cutoff_start 0;
#X obj 83 35 inlet midi;
#X obj 189 36 inlet ms_bpm;
#X obj 178 241 / 100;
#X obj 178 263 *;
#X obj 178 163 t b f;
#X floatatom 178 285 5 0 0 0 - - -, f 5;
#X floatatom 178 193 5 0 0 0 - - -, f 5;
#X obj 83 81 unpack f f f;
#X floatatom 152 105 5 0 0 0 - - -, f 5;
#X obj 83 388 outlet;
#X obj 151 127 t f f;
#X floatatom 178 327 5 0 0 0 - - -, f 5;
#X obj 189 81 t b f;
#X obj 294 36 inlet micro;
#N canvas 1237 501 356 207 midi2micro 0;
#X obj 109 18 inlet;
#X obj 207 18 inlet micro;
#X obj 109 48 unpack f f;
#X obj 110 70 - 1;
#X obj 162 70 - 1;
#X floatatom 110 92 5 0 0 0 - - -, f 5;
#X floatatom 162 92 5 0 0 0 - - -, f 5;
#X obj 110 113 *;
#X obj 110 135 +;
#X obj 110 157 outlet;
#X connect 0 0 2 0;
#X connect 1 0 7 1;
#X connect 2 0 3 0;
#X connect 2 1 4 0;
#X connect 3 0 5 0;
#X connect 4 0 6 0;
#X connect 5 0 7 0;
#X connect 6 0 8 1;
#X connect 7 0 8 0;
#X connect 8 0 9 0;
#X restore 83 202 pd midi2micro;
#X obj 83 160 pack f f;
#X obj 83 356 pack f f f;
#X connect 0 0 7 0;
#X connect 1 0 12 0;
#X connect 2 0 3 0;
#X connect 3 0 5 0;
#X connect 4 0 6 0;
#X connect 4 1 3 1;
#X connect 5 0 11 0;
#X connect 6 0 2 0;
#X connect 7 0 15 0;
#X connect 7 1 15 1;
#X connect 7 2 8 0;
#X connect 8 0 10 0;
#X connect 10 0 16 1;
#X connect 10 1 4 0;
#X connect 11 0 16 2;
#X connect 12 0 8 0;
#X connect 12 1 6 0;
#X connect 13 0 14 1;
#X connect 14 0 16 0;
#X connect 15 0 14 0;
#X connect 16 0 9 0;
#X restore 131 109 pd calc_cutoff_start;
#X floatatom 189 86 5 0 0 0 ms - -, f 5;
#X floatatom 131 151 5 0 0 0 - - -, f 5;
#X floatatom 167 151 5 0 0 0 - - -, f 5;
#X floatatom 207 151 5 0 0 0 - - -, f 5;
#X obj 131 131 unpack f f f;
#X obj 146 210 f;
#X obj 88 201 f;
#X obj 88 15 inlet trigger;
#X obj 298 15 inlet ms;
#X obj 355 15 inlet micro;
#X obj 175 15 inlet pointer_start;
#X obj 88 151 t b b;
#X obj 88 280 outlet text_seq;
#X obj 88 245 pack f f f;
#X text 95 306 delay cut pos;
#X connect 0 0 13 0;
#X connect 1 0 6 0;
#X connect 2 0 1 1;
#X connect 3 0 8 1;
#X connect 4 0 15 1;
#X connect 5 0 7 1;
#X connect 6 0 3 0;
#X connect 6 1 4 0;
#X connect 6 2 5 0;
#X connect 7 0 15 2;
#X connect 8 0 15 0;
#X connect 9 0 0 0;
#X connect 10 0 2 0;
#X connect 11 0 1 2;
#X connect 12 0 1 0;
#X connect 13 0 8 0;
#X connect 13 1 7 0;
#X connect 15 0 14 0;
#X restore 41 168 pd pointer_start_pos;
#X floatatom 308 113 5 0 0 0 - - -, f 5;
#X floatatom 265 114 5 0 0 0 - - -, f 5;
#N canvas 2898 421 590 507 calc_cutoff_end 0;
#X obj 145 38 inlet midi;
#X obj 303 39 inlet ms_bpm;
#X floatatom 241 245 5 0 0 0 - - -, f 5;
#X floatatom 396 155 5 0 0 0 - - -, f 5;
#X obj 145 94 unpack f f f;
#X floatatom 214 118 5 0 0 0 - - -, f 5;
#X obj 145 303 outlet;
#X obj 303 90 t b f;
#X obj 424 38 inlet micro;
#N canvas 1925 571 356 253 midi2micro 0;
#X obj 109 18 inlet;
#X obj 207 18 inlet micro;
#X obj 109 48 unpack f f;
#X obj 110 70 - 1;
#X obj 162 70 - 1;
#X floatatom 110 92 5 0 0 0 - - -, f 5;
#X floatatom 162 92 5 0 0 0 - - -, f 5;
#X obj 110 113 *;
#X obj 110 135 +;
#X obj 110 179 outlet;
#X connect 0 0 2 0;
#X connect 1 0 7 1;
#X connect 2 0 3 0;
#X connect 2 1 4 0;
#X connect 3 0 5 0;
#X connect 4 0 6 0;
#X connect 5 0 7 0;
#X connect 6 0 8 1;
#X connect 7 0 8 0;
#X connect 8 0 9 0;
#X restore 145 193 pd midi2micro;
#X obj 145 151 pack f f;
#X obj 145 264 pack f f f;
#X obj 47 39 inlet trigger;
#X obj 145 60 list;
#X obj 214 140 t f f b;
#X obj 242 179 expr $f2 - $f1 * ($f2/100);
#X connect 0 0 13 0;
#X connect 1 0 7 0;
#X connect 2 0 11 2;
#X connect 3 0 15 1;
#X connect 4 0 10 0;
#X connect 4 1 10 1;
#X connect 4 2 5 0;
#X connect 5 0 14 0;
#X connect 7 0 5 0;
#X connect 7 1 3 0;
#X connect 8 0 9 1;
#X connect 9 0 11 0;
#X connect 10 0 9 0;
#X connect 11 0 6 0;
#X connect 12 0 13 0;
#X connect 13 0 4 0;
#X connect 14 0 11 1;
#X connect 14 1 15 0;
#X connect 14 2 3 0;
#X connect 15 0 2 0;
#X restore 428 168 pd calc_cutoff_end;
#N canvas 2086 461 487 485 loop_start_pos 0;
#X obj 88 131 bng 15 250 50 0 empty empty empty 17 7 0 10 -262144 -1
-1;
#N canvas 1299 429 400 489 calc_cutoff_start 0;
#X obj 83 35 inlet midi;
#X obj 189 36 inlet ms_bpm;
#X obj 178 232 / 100;
#X obj 178 254 *;
#X obj 178 163 t b f;
#X floatatom 178 276 5 0 0 0 - - -, f 5;
#X floatatom 178 193 5 0 0 0 - - -, f 5;
#X obj 83 81 unpack f f f;
#X floatatom 152 105 5 0 0 0 - - -, f 5;
#X obj 83 388 outlet;
#X obj 151 127 t f f;
#X floatatom 178 327 5 0 0 0 - - -, f 5;
#X obj 189 81 t b f;
#X obj 294 36 inlet micro;
#N canvas 1237 501 356 207 midi2micro 0;
#X obj 109 18 inlet;
#X obj 207 18 inlet micro;
#X obj 109 48 unpack f f;
#X obj 110 70 - 1;
#X obj 162 70 - 1;
#X floatatom 110 92 5 0 0 0 - - -, f 5;
#X floatatom 162 92 5 0 0 0 - - -, f 5;
#X obj 110 113 *;
#X obj 110 135 +;
#X obj 110 157 outlet;
#X connect 0 0 2 0;
#X connect 1 0 7 1;
#X connect 2 0 3 0;
#X connect 2 1 4 0;
#X connect 3 0 5 0;
#X connect 4 0 6 0;
#X connect 5 0 7 0;
#X connect 6 0 8 1;
#X connect 7 0 8 0;
#X connect 8 0 9 0;
#X restore 83 202 pd midi2micro;
#X obj 83 160 pack f f;
#X obj 83 356 pack f f f;
#X connect 0 0 7 0;
#X connect 1 0 12 0;
#X connect 2 0 3 0;
#X connect 3 0 5 0;
#X connect 4 0 6 0;
#X connect 4 1 3 1;
#X connect 5 0 11 0;
#X connect 6 0 2 0;
#X connect 7 0 15 0;
#X connect 7 1 15 1;
#X connect 7 2 8 0;
#X connect 8 0 10 0;
#X connect 10 0 16 1;
#X connect 10 1 4 0;
#X connect 11 0 16 2;
#X connect 12 0 8 0;
#X connect 12 1 6 0;
#X connect 13 0 14 1;
#X connect 14 0 16 0;
#X connect 15 0 14 0;
#X connect 16 0 9 0;
#X restore 131 109 pd calc_cutoff_start;
#X floatatom 189 86 5 0 0 0 ms - -, f 5;
#X floatatom 131 151 5 0 0 0 - - -, f 5;
#X floatatom 167 151 5 0 0 0 - - -, f 5;
#X floatatom 207 151 5 0 0 0 - - -, f 5;
#X obj 131 131 unpack f f f;
#X obj 88 209 f;
#X obj 148 211 f;
#X obj 88 15 inlet trigger;
#X obj 298 15 inlet ms;
#X obj 355 15 inlet micro;
#X obj 175 15 inlet pointer_start;
#X obj 88 151 t b b;
#X obj 88 280 outlet text_seq;
#X obj 88 245 pack f f f;
#X text 95 306 delay cut pos;
#X connect 0 0 13 0;
#X connect 1 0 6 0;
#X connect 2 0 1 1;
#X connect 3 0 7 1;
#X connect 4 0 15 1;
#X connect 5 0 8 1;
#X connect 6 0 3 0;
#X connect 6 1 4 0;
#X connect 6 2 5 0;
#X connect 7 0 15 0;
#X connect 8 0 15 2;
#X connect 9 0 0 0;
#X connect 10 0 2 0;
#X connect 11 0 1 2;
#X connect 12 0 1 0;
#X connect 13 0 7 0;
#X connect 13 1 8 0;
#X connect 15 0 14 0;
#X restore 311 168 pd loop_start_pos;
#N canvas 2218 487 487 462 pointer_end_pos 0;
#X obj 88 15 inlet trigger;
#X obj 286 15 inlet micro;
#X obj 88 236 outlet text_seq;
#X text 95 262 delay cut pos;
#X obj 88 211 list;
#X obj 175 15 inlet amount_bars;
#X obj 109 109 *;
#X obj 110 77 t b f;
#X floatatom 109 131 5 0 0 0 - - -, f 5;
#X obj 110 185 pack f 0 0;
#X obj 368 16 inlet ms;
#X connect 0 0 4 0;
#X connect 1 0 7 0;
#X connect 4 0 2 0;
#X connect 5 0 6 0;
#X connect 6 0 8 0;
#X connect 7 0 6 0;
#X connect 7 1 6 1;
#X connect 8 0 9 0;
#X connect 9 0 4 1;
#X connect 10 0 9 2;
#X restore 176 168 pd pointer_end_pos;
#X obj 41 119 t b b;
#X obj 401 115 t b b;
#X obj 311 222 list append;
#X obj 41 224 list append;
#X obj 41 70 t b a;
#X obj 201 68 t b a;
#X obj 317 69 t b a;
#X obj 429 69 t b a;
#X obj 39 310 t a;
#X obj 39 338 s \$0-positions;
#X obj 138 338 s \$0-start-pos;
#X obj 682 45 inlet selection;
#X obj 682 138 hradio 15 0 0 2 empty empty empty 0 -8 0 10 -262144
-1 -1 0;
#X obj 682 158 sel 0 1;
#X obj 309 270 list;
#X obj 311 244 t b a;
#X obj 39 273 list;
#X obj 41 247 t b a;
#X obj 309 334 s \$0-loop-pos;
#X connect 0 0 16 0;
#X connect 1 0 17 0;
#X connect 2 0 18 0;
#X connect 3 0 19 0;
#X connect 4 0 8 0;
#X connect 5 0 7 0;
#X connect 6 0 15 0;
#X connect 7 0 6 3;
#X connect 7 0 9 3;
#X connect 7 0 10 3;
#X connect 7 0 11 2;
#X connect 8 0 6 2;
#X connect 8 0 9 2;
#X connect 8 0 10 2;
#X connect 8 0 11 3;
#X connect 9 0 14 1;
#X connect 10 0 14 0;
#X connect 11 0 15 1;
#X connect 12 0 6 0;
#X connect 12 1 11 0;
#X connect 13 0 10 0;
#X connect 13 1 9 0;
#X connect 14 0 27 0;
#X connect 15 0 29 0;
#X connect 16 0 12 0;
#X connect 16 1 6 1;
#X connect 17 0 12 0;
#X connect 17 1 11 1;
#X connect 18 0 13 0;
#X connect 18 1 10 1;
#X connect 19 0 13 0;
#X connect 19 1 9 1;
#X connect 20 0 21 0;
#X connect 20 0 22 0;
#X connect 23 0 24 0;
#X connect 24 0 25 0;
#X connect 25 0 28 0;
#X connect 25 1 26 0;
#X connect 26 0 30 0;
#X connect 26 0 20 0;
#X connect 27 0 26 0;
#X connect 27 1 26 1;
#X connect 28 0 20 0;
#X connect 29 0 28 0;
#X connect 29 1 28 1;
#X restore 417 210 pd positions;
#X obj 616 166 hradio 15 0 0 2 empty empty empty 0 -8 0 10 -262144
-1 -1 0;
#N canvas 1125 171 795 801 end_pos 0;
#X obj 336 150 unpack f f f;
#X floatatom 336 177 5 0 0 0 - - -, f 5;
#X floatatom 380 177 5 0 0 0 - - -, f 5;
#X floatatom 417 177 5 0 0 0 - - -, f 5;
#X obj 178 561 outlet to_outlet;
#X obj 509 561 outlet to_restart;
#X obj 509 452 delay;
#X obj 72 35 inlet delay;
#X obj 72 561 outlet to_delay;
#X obj 649 561 outlet stop;
#X floatatom 144 118 5 0 0 0 - - -, f 5;
#X obj 336 108 list split 3;
#X obj 479 150 unpack f f f;
#X floatatom 479 177 5 0 0 0 - - -, f 5;
#X floatatom 516 177 5 0 0 0 - - -, f 5;
#X floatatom 553 177 5 0 0 0 - - -, f 5;
#X floatatom 72 273 5 0 0 0 - - -, f 5;
#X obj 214 336 ==;
#X obj 161 361 demux . .;
#X msg 161 397 \$1 0;
#X obj 214 398 pack f f;
#X obj 367 338 ==;
#X obj 316 363 demux . .;
#X obj 509 522 spigot;
#X obj 557 520 tgl 15 0 empty \$0-loop_on loop_on -10 -10 0 10 -262144
-1 -1 0 1;
#X obj 161 174 t f f f;
#X obj 367 397 pack f 0 f;
#X obj 161 452 pack f f f;
#X obj 524 346 ==;
#X obj 524 368 sel 1;
#X obj 524 390 f;
#X obj 72 247 expr if($f2 == $f3 \, $f1 -$f4 \, $f1);
#X obj 99 297 >=;
#X obj 72 320 demux;
#X obj 509 427 -;
#X obj 137 490 list;
#X obj 137 468 t b;
#X obj 649 509 spigot;
#X obj 683 464 tgl 15 0 empty \$0-loop_on loop_on -10 -10 0 10 -262144
-1 -1 0 1;
#X obj 683 484 == 0;
#X msg 317 397 \$1 0 100;
#X obj 336 71 r \$0-start-pos;
#X obj 395 496 r \$0-positions;
#X obj 374 521 list;
#X obj 374 561 s \$0-start-pos;
#X obj 509 475 t b b;
#X floatatom 467 453 5 0 0 0 - - -, f 5;
#X obj 635 80 inlet stop;
#X obj 635 102 bng 15 250 50 0 empty empty empty 17 7 0 10 -262144
-1 -1;
#X obj 602 353 spigot;
#X obj 650 351 tgl 15 0 empty \$0-loop_on loop_on -10 -10 0 10 -262144
-1 -1 0 1;
#X msg 603 376 1;
#X obj 603 398 t b f;
#X msg 605 480 0;
#X floatatom 87 156 5 0 0 2 ms #0-ms -, f 5;
#X obj 72 182 f;
#X obj 72 94 t b f;
#X connect 0 0 1 0;
#X connect 0 1 2 0;
#X connect 0 2 3 0;
#X connect 1 0 17 1;
#X connect 1 0 31 2;
#X connect 2 0 20 1;
#X connect 3 0 31 3;
#X connect 6 0 45 0;
#X connect 7 0 56 0;
#X connect 10 0 25 0;
#X connect 10 0 31 1;
#X connect 10 0 32 0;
#X connect 11 0 0 0;
#X connect 11 1 12 0;
#X connect 12 0 13 0;
#X connect 12 1 14 0;
#X connect 12 2 15 0;
#X connect 13 0 21 1;
#X connect 13 0 28 1;
#X connect 13 0 32 1;
#X connect 14 0 26 2;
#X connect 15 0 30 1;
#X connect 16 0 33 0;
#X connect 16 0 36 0;
#X connect 17 0 18 1;
#X connect 18 0 19 0;
#X connect 18 1 20 0;
#X connect 19 0 27 0;
#X connect 20 0 27 0;
#X connect 21 0 22 1;
#X connect 22 0 40 0;
#X connect 22 1 26 0;
#X connect 23 0 5 0;
#X connect 24 0 23 1;
#X connect 25 0 18 0;
#X connect 25 1 22 0;
#X connect 25 2 21 0;
#X connect 25 2 17 0;
#X connect 25 2 28 0;
#X connect 26 0 27 0;
#X connect 27 0 35 1;
#X connect 28 0 29 0;
#X connect 29 0 30 0;
#X connect 30 0 34 1;
#X connect 31 0 16 0;
#X connect 32 0 33 1;
#X connect 33 0 8 0;
#X connect 33 1 34 0;
#X connect 34 0 6 0;
#X connect 34 0 46 0;
#X connect 35 0 4 0;
#X connect 36 0 35 0;
#X connect 37 0 9 0;
#X connect 38 0 39 0;
#X connect 39 0 37 1;
#X connect 40 0 27 0;
#X connect 41 0 11 0;
#X connect 42 0 43 1;
#X connect 43 0 44 0;
#X connect 45 0 23 0;
#X connect 45 0 43 0;
#X connect 45 1 53 0;
#X connect 47 0 48 0;
#X connect 48 0 49 0;
#X connect 49 0 51 0;
#X connect 50 0 49 1;
#X connect 51 0 52 0;
#X connect 52 0 5 0;
#X connect 52 1 9 0;
#X connect 53 0 37 0;
#X connect 54 0 55 1;
#X connect 55 0 31 0;
#X connect 56 0 55 0;
#X connect 56 1 10 0;
#X restore 125 459 pd end_pos;
#X floatatom 514 187 5 0 0 2 micro #0-micro -, f 5;
#X floatatom 432 187 5 0 0 2 bars #0-bars -, f 5;
#X floatatom 244 535 5 0 0 2 micro #0-micro -, f 5;
#X floatatom 553 321 5 0 0 2 micro #0-micro -, f 5;
#X floatatom 454 320 5 0 0 2 bars #0-bars -, f 5;
#X floatatom 474 187 5 0 0 2 ms #0-ms -, f 5;
#X floatatom 205 534 5 0 0 2 ms #0-ms -, f 5;
#X obj 683 143 tgl 15 0 \$0-loop_on empty loop_on -9 20 0 10 -262144
-1 -1 0 1;
#X obj 417 119 route pointer_start loop_start loop_end loop_bounds
loop;
#X obj 145 562 pack f f f f f;
#N canvas 2004 398 332 555 set_start_pos_bar 0;
#X obj 84 39 inlet trigger;
#X floatatom 84 246 5 0 0 0 - - -, f 5;
#X obj 84 139 list;
#X obj 84 395 outlet to_seq;
#X obj 244 205 *;
#X obj 245 173 t b f;
#X floatatom 245 147 5 0 0 2 micro #0-micro -, f 5;
#X floatatom 207 146 5 0 0 2 bars #0-bars -, f 5;
#X floatatom 244 250 5 0 0 0 - - -, f 5;
#X obj 84 312 min;
#X obj 244 227 - 1;
#X msg 84 362 line \$1 \, step;
#X msg 84 161 \$1;
#X obj 105 111 r \$0-start-pos;
#X obj 189 395 outlet to_seq;
#X msg 189 362 line \$1;
#X connect 0 0 2 0;
#X connect 1 0 9 0;
#X connect 2 0 12 0;
#X connect 4 0 10 0;
#X connect 5 0 4 0;
#X connect 5 1 4 1;
#X connect 6 0 5 0;
#X connect 7 0 4 0;
#X connect 8 0 9 1;
#X connect 9 0 11 0;
#X connect 9 0 15 0;
#X connect 10 0 8 0;
#X connect 11 0 3 0;
#X connect 12 0 1 0;
#X connect 13 0 2 1;
#X connect 15 0 14 0;
#X restore 163 358 pd set_start_pos_bar;
#N canvas 558 350 340 469 calc_pause 0;
#X obj 152 40 inlet seq;
#X obj 152 150 timer;
#X obj 152 124 t b b;
#X floatatom 152 172 14 0 0 0 - - -, f 14;
#X floatatom 238 123 5 0 0 0 - - -, f 5;
#X obj 78 41 inlet pause;
#X obj 78 92 t b b;
#X obj 78 198 f;
#X floatatom 238 228 5 0 0 2 ms #0-ms -, f 5;
#X obj 97 253 expr int(99 / $f2 * $f1);
#X floatatom 97 275 5 0 0 0 - - -, f 5;
#X obj 78 335 pack f f f;
#X obj 78 220 t b f f;
#X obj 78 304 f;
#X obj 78 358 s \$0-start-pos;
#X msg 238 100 \$1;
#X connect 0 0 2 0;
#X connect 0 0 15 0;
#X connect 1 0 3 0;
#X connect 2 0 1 0;
#X connect 2 1 1 1;
#X connect 3 0 7 1;
#X connect 4 0 13 1;
#X connect 5 0 6 0;
#X connect 6 0 7 0;
#X connect 6 1 2 0;
#X connect 7 0 12 0;
#X connect 8 0 9 1;
#X connect 9 0 10 0;
#X connect 10 0 11 1;
#X connect 11 0 14 0;
#X connect 12 0 13 0;
#X connect 12 1 9 0;
#X connect 12 2 11 2;
#X connect 13 0 11 0;
#X connect 15 0 4 0;
#X restore 40 424 pd calc_pause;
#X obj 199 218 r \$0-positions;
#X obj 178 243 list;
#X obj 178 268 s \$0-start-pos;
#X obj 278 267 s \$0-start-pos;
#X msg 278 244 0 0 0;
#X msg 75 262 stop;
#X obj 622 378 r \$0-positions;
#X obj 622 405 unpack f f f;
#X floatatom 658 429 5 0 0 0 - - -, f 5;
#X floatatom 621 429 5 0 0 0 - - -, f 5;
#X floatatom 695 429 5 0 0 0 - - -, f 5;
#X obj 441 506 unpack f f f;
#X floatatom 441 533 5 0 0 0 - - -, f 5;
#X floatatom 485 533 5 0 0 0 - - -, f 5;
#X floatatom 522 533 5 0 0 0 - - -, f 5;
#X obj 441 464 list split 3;
#X obj 441 427 r \$0-start-pos;
#X obj 582 505 unpack f f f;
#X floatatom 582 532 5 0 0 0 - - -, f 5;
#X floatatom 619 532 5 0 0 0 - - -, f 5;
#X floatatom 656 532 5 0 0 0 - - -, f 5;
#X obj 737 445 unpack f f f;
#X floatatom 737 472 5 0 0 0 - - -, f 5;
#X floatatom 781 472 5 0 0 0 - - -, f 5;
#X floatatom 818 472 5 0 0 0 - - -, f 5;
#X obj 737 403 list split 3;
#X obj 878 444 unpack f f f;
#X floatatom 878 471 5 0 0 0 - - -, f 5;
#X floatatom 915 471 5 0 0 0 - - -, f 5;
#X floatatom 952 471 5 0 0 0 - - -, f 5;
#X connect 0 0 16 0;
#X connect 1 0 2 0;
#X connect 1 0 15 0;
#X connect 1 0 31 0;
#X connect 2 0 5 0;
#X connect 3 0 19 0;
#X connect 3 0 31 1;
#X connect 3 1 15 0;
#X connect 3 1 19 1;
#X connect 5 0 3 0;
#X connect 6 0 7 0;
#X connect 6 1 11 0;
#X connect 6 2 12 0;
#X connect 6 3 28 0;
#X connect 7 0 9 0;
#X connect 9 0 8 0;
#X connect 10 0 6 0;
#X connect 15 0 14 0;
#X connect 16 0 30 0;
#X connect 16 1 33 0;
#X connect 16 1 37 0;
#X connect 16 2 1 0;
#X connect 16 3 36 0;
#X connect 18 0 17 6;
#X connect 19 0 2 0;
#X connect 19 1 29 0;
#X connect 19 2 30 0;
#X connect 19 3 14 0;
#X connect 20 0 17 5;
#X connect 21 0 17 1;
#X connect 22 0 29 4;
#X connect 23 0 4 1;
#X connect 24 0 4 0;
#X connect 25 0 17 4;
#X connect 26 0 29 3;
#X connect 28 0 17 0;
#X connect 28 1 17 2;
#X connect 28 2 17 3;
#X connect 28 3 18 0;
#X connect 28 4 27 0;
#X connect 29 0 13 0;
#X connect 30 0 3 0;
#X connect 32 0 33 1;
#X connect 33 0 34 0;
#X connect 36 0 35 0;
#X connect 37 0 2 0;
#X connect 38 0 39 0;
#X connect 38 0 57 0;
#X connect 39 0 41 0;
#X connect 39 1 40 0;
#X connect 39 2 42 0;
#X connect 43 0 44 0;
#X connect 43 1 45 0;
#X connect 43 2 46 0;
#X connect 47 0 43 0;
#X connect 47 1 49 0;
#X connect 48 0 47 0;
#X connect 49 0 50 0;
#X connect 49 1 51 0;
#X connect 49 2 52 0;
#X connect 53 0 54 0;
#X connect 53 1 55 0;
#X connect 53 2 56 0;
#X connect 57 0 53 0;
#X connect 57 1 58 0;
#X connect 58 0 59 0;
#X connect 58 1 60 0;
#X connect 58 2 61 0;
#X restore 78 249 pd metro;
#X obj 78 197 t f f;
#X obj 78 108 bng 15 250 50 0 empty empty start 17 7 0 10 -262144 -1
-1;
#X obj 153 115 bng 15 250 50 0 empty empty empty 17 7 0 10 -262144
-1 -1;
#X obj 78 78 route play stop pause back;
#X obj 78 276 unpack f f f f f;
#X obj 78 333 pack f f f f f;
#X msg 142 158 2;
#X msg 174 158 3;
#X connect 0 0 11 0;
#X connect 2 0 13 0;
#X connect 3 0 8 0;
#X connect 4 0 8 0;
#X connect 6 0 15 0;
#X connect 7 0 12 0;
#X connect 7 1 5 0;
#X connect 8 0 7 0;
#X connect 8 1 5 0;
#X connect 9 0 3 0;
#X connect 10 0 14 0;
#X connect 11 0 9 0;
#X connect 11 1 4 0;
#X connect 11 2 10 0;
#X connect 11 3 6 0;
#X connect 11 4 7 1;
#X connect 12 0 2 0;
#X connect 12 1 13 2;
#X connect 12 2 13 3;
#X connect 12 3 13 4;
#X connect 12 4 2 1;
#X connect 13 0 1 0;
#X connect 14 0 8 0;
#X connect 15 0 8 0;
#X restore 185 203 pd calculate_position;
#X obj 185 435 spigot;
#X obj 425 320 unpack f f f f;
#X obj 425 368 pack f f f f;
#X floatatom 537 347 5 0 0 0 - - -, f 5;
#X msg 425 389 pos_pointer pos \$1 \$2 \$3 \$4;
#X msg 614 389 pos_pointer stop 0 0 0 0;
#X obj 218 417 tgl 15 0 empty empty empty 17 7 0 10 -262144 -1 -1 3
3;
#X msg 185 268 \$2 \$1 \$3 \$4;
#X msg 425 296 \$2 \$1 \$3 \$5;
#X obj 185 125 t a a;
#N canvas 411 507 333 277 filter_muted 0;
#X obj 110 13 inlet;
#X obj 110 219 outlet;
#X obj 188 79 r \$0-mute_sym;
#X symbolatom 188 101 10 0 0 0 - - -, f 10;
#X obj 143 132 text get;
#X msg 143 108 0 \$1;
#X obj 143 157 == 0;
#X obj 110 185 spigot;
#X obj 110 47 t a a;
#X connect 0 0 8 0;
#X connect 2 0 3 0;
#X connect 3 0 4 3;
#X connect 4 0 6 0;
#X connect 5 0 4 0;
#X connect 6 0 7 1;
#X connect 7 0 1 0;
#X connect 8 0 7 0;
#X connect 8 1 5 0;
#X restore 185 393 pd filter_muted;
#X symbolatom 356 156 14 0 0 0 - - -, f 14;
#X msg 356 134 symbol \$1-muted;
#X obj 356 177 s \$0-mute_sym;
#X connect 0 0 17 0;
#X connect 0 0 29 0;
#X connect 2 0 4 0;
#X connect 2 1 4 2;
#X connect 4 0 30 0;
#X connect 9 0 10 0;
#X connect 11 0 9 0;
#X connect 12 0 22 0;
#X connect 13 0 22 1;
#X connect 14 0 22 2;
#X connect 15 0 8 0;
#X connect 16 0 25 0;
#X connect 17 0 11 0;
#X connect 17 0 32 0;
#X connect 17 1 2 1;
#X connect 17 2 18 0;
#X connect 18 0 16 0;
#X connect 18 0 15 1;
#X connect 19 0 27 0;
#X connect 19 0 28 0;
#X connect 19 1 26 0;
#X connect 19 1 18 0;
#X connect 20 0 5 0;
#X connect 21 0 12 0;
#X connect 21 1 13 0;
#X connect 21 2 14 0;
#X connect 21 3 23 0;
#X connect 22 0 24 0;
#X connect 23 0 22 3;
#X connect 24 0 15 0;
#X connect 25 0 8 0;
#X connect 26 0 20 1;
#X connect 27 0 2 0;
#X connect 28 0 21 0;
#X connect 29 0 19 0;
#X connect 29 1 4 1;
#X connect 30 0 20 0;
#X connect 31 0 33 0;
#X connect 32 0 31 0;
