#N canvas 843 139 970 557 10;
#N canvas 436 46 450 300 header 0;
#X obj 101 103 cnv 15 30 15 empty empty Le 2 8 0 14 -262144 -66577
0;
#X obj 122 103 cnv 15 30 15 empty empty chorus 2 8 0 14 -262144 -66577
0;
#X coords 0 -1 1 1 466 20 2 100 100;
#X restore 12 9 pd header;
#X text 15 33 Blah blah blah, f 76;
#X obj 23 259 delwrite~ \$0-delay 1000;
#X obj 169 108 osc~ 0.05;
#X obj 169 133 *~ 10;
#X obj 249 133 *~ 10;
#X obj 169 158 +~ 11;
#X obj 249 158 +~ 21;
#X obj 249 108 osc~ 0.08;
#X obj 329 133 *~ 10;
#X obj 409 133 *~ 10;
#X obj 329 108 osc~ 0.13;
#X obj 329 158 +~ 13;
#X obj 409 108 osc~ 0.21;
#X obj 409 158 +~ 34;
#X obj 499 133 *~ 10;
#X obj 499 158 +~ 55;
#X obj 499 108 osc~ 0.03;
#X obj 579 158 +~ 87;
#X obj 579 108 osc~ 0.015;
#X obj 669 108 osc~ 0.12;
#X obj 669 158 +~ 67;
#X obj 389 317 /~ 8;
#X obj 669 133 *~ 5;
#X obj 579 133 *~ 15;
#X obj 169 186 vd~ \$0-delay;
#X obj 249 186 vd~ \$0-delay;
#X obj 329 186 vd~ \$0-delay;
#X obj 409 186 vd~ \$0-delay;
#X obj 499 186 vd~ \$0-delay;
#X obj 579 186 vd~ \$0-delay;
#X obj 669 186 vd~ \$0-delay;
#X obj 23 172 *~ 0.1;
#X obj 61 145 nbx 5 14 -1e+037 1e+037 0 0 empty empty empty 0 -8 0
10 -262144 -1 -1 0 256 0;
#X obj 316 442 outlet~;
#X obj 23 110 inlet~;
#X connect 3 0 4 0;
#X connect 4 0 6 0;
#X connect 5 0 7 0;
#X connect 6 0 25 0;
#X connect 7 0 26 0;
#X connect 8 0 5 0;
#X connect 9 0 12 0;
#X connect 10 0 14 0;
#X connect 11 0 9 0;
#X connect 12 0 27 0;
#X connect 13 0 10 0;
#X connect 14 0 28 0;
#X connect 15 0 16 0;
#X connect 16 0 29 0;
#X connect 17 0 15 0;
#X connect 18 0 30 0;
#X connect 19 0 24 0;
#X connect 20 0 23 0;
#X connect 21 0 31 0;
#X connect 22 0 34 0;
#X connect 23 0 21 0;
#X connect 24 0 18 0;
#X connect 25 0 22 0;
#X connect 26 0 22 0;
#X connect 27 0 22 0;
#X connect 28 0 22 0;
#X connect 29 0 22 0;
#X connect 30 0 22 0;
#X connect 31 0 22 0;
#X connect 32 0 2 0;
#X connect 32 0 34 0;
#X connect 33 0 32 1;
#X connect 35 0 32 0;
