#N canvas 500 458 713 460 10;
#X obj 233 102 cnv 15 118 30 empty empty hp 1 6 0 14 -233017 -132097
0;
#X msg 332 150 bypass \$1;
#X obj 332 106 tgl 12 1 empty empty byp 0 17 0 10 -262144 -1 -131073
0 1;
#X obj 488 48 nbx 5 14 20 20000 0 0 \$0-Hz empty empty 0 -8 0 10 -228856
-1 -1 20 256 0;
#X obj 176 24 inlet~ sig;
#X obj 375 374 outlet;
#X obj 176 374 outlet~ sig;
#X obj 488 25 r \$0-freq;
#X obj 425 48 nbx 5 14 0 20000 0 0 \$0-Hz empty empty 0 -8 0 10 -228856
-1 -1 12.5023 256 0;
#X obj 425 25 r \$0-res;
#X obj 254 24 loadbang;
#X obj 254 46 \$1;
#X obj 284 46 \$2;
#N canvas 1199 279 237 341 label 0;
#X obj 45 24 inlet;
#X obj 45 172 int;
#X obj 45 265 outlet;
#X obj 45 150 * 10000;
#X obj 45 194 / 10000;
#X msg 45 238 label \$1;
#N canvas 587 359 234 305 f2s 0;
#X msg 51 45 symbol \$1a;
#X obj 51 66 list fromsymbol;
#X obj 51 169 list tosymbol;
#X obj 51 88 t a a;
#X obj 108 106 list length;
#X obj 108 128 - 1;
#X obj 51 148 list split;
#X obj 51 17 inlet;
#X obj 51 230 outlet;
#X connect 0 0 1 0;
#X connect 1 0 3 0;
#X connect 2 0 8 0;
#X connect 3 0 6 0;
#X connect 3 1 4 0;
#X connect 4 0 5 0;
#X connect 5 0 6 1;
#X connect 6 0 2 0;
#X connect 7 0 0 0;
#X restore 45 216 pd f2s;
#X obj 45 52 t f f;
#X obj 45 105 spigot;
#X obj 124 105 spigot;
#X obj 77 78 < 10;
#X obj 157 81 > 10;
#X obj 124 173 int;
#X obj 124 151 * 1000;
#X obj 124 195 / 1000;
#X connect 0 0 7 0;
#X connect 1 0 4 0;
#X connect 3 0 1 0;
#X connect 4 0 6 0;
#X connect 5 0 2 0;
#X connect 6 0 5 0;
#X connect 7 0 8 0;
#X connect 7 0 9 0;
#X connect 7 1 10 0;
#X connect 7 1 11 0;
#X connect 8 0 3 0;
#X connect 9 0 13 0;
#X connect 10 0 8 1;
#X connect 11 0 9 1;
#X connect 12 0 14 0;
#X connect 13 0 12 0;
#X connect 14 0 6 0;
#X restore 425 69 pd label;
#X msg 356 46 0.857;
#X msg 314 46 120.3;
#N canvas 316 395 373 447 label 0;
#X obj 45 24 inlet;
#X obj 45 195 int;
#X obj 45 304 outlet;
#X obj 45 173 * 10;
#X obj 45 217 / 10;
#X obj 158 124 > 100;
#X obj 45 46 t f f;
#X obj 78 124 < 100;
#X obj 45 151 spigot;
#X obj 125 170 int;
#X obj 125 148 spigot;
#N canvas 587 359 234 305 f2s 0;
#X msg 51 45 symbol \$1a;
#X obj 51 66 list fromsymbol;
#X obj 51 169 list tosymbol;
#X obj 51 88 t a a;
#X obj 108 106 list length;
#X obj 108 128 - 1;
#X obj 51 148 list split;
#X obj 51 17 inlet;
#X obj 51 230 outlet;
#X connect 0 0 1 0;
#X connect 1 0 3 0;
#X connect 2 0 8 0;
#X connect 3 0 6 0;
#X connect 3 1 4 0;
#X connect 4 0 5 0;
#X connect 5 0 6 1;
#X connect 6 0 2 0;
#X connect 7 0 0 0;
#X restore 45 251 pd f2s;
#X msg 45 280 label \$1;
#X connect 0 0 6 0;
#X connect 1 0 4 0;
#X connect 3 0 1 0;
#X connect 4 0 11 0;
#X connect 5 0 10 1;
#X connect 6 0 8 0;
#X connect 6 0 10 0;
#X connect 6 1 5 0;
#X connect 6 1 7 0;
#X connect 7 0 8 1;
#X connect 8 0 3 0;
#X connect 9 0 11 0;
#X connect 10 0 9 0;
#X connect 11 0 12 0;
#X connect 12 0 2 0;
#X restore 488 69 pd label;
#X obj 235 120 nbx 1 11 0 7 0 1 empty empty empty 0 -8 0 10 -262144
-1 -1 0 256 0;
#X obj 375 276 list prepend;
#X obj 270 104 mknob 15 300 0.001 100 1 0 \$0-res empty 12.502 -10
20 0 9 -262144 -1 -1 24500 1;
#X obj 251 109 cnv 10 17 9 empty empty res 0 0 0 10 -233017 -66577
0;
#X obj 308 104 mknob 15 300 20 20000 1 0 \$0-freq empty 20 -5 20 0
9 -262144 -1 -1 0 1;
#X obj 288 109 cnv 10 17 9 empty empty frq 0 0 0 10 -233017 -66577
0;
#X obj 411 185 ../else/bicoeff highpass 1000 0.1;
#X obj 334 21 inlet bypass;
#X obj 176 249 biquad~;
#X connect 1 0 18 0;
#X connect 2 0 1 0;
#X connect 3 0 16 0;
#X connect 3 0 23 0;
#X connect 4 0 25 0;
#X connect 7 0 3 0;
#X connect 8 0 13 0;
#X connect 8 0 23 1;
#X connect 9 0 8 0;
#X connect 10 0 11 0;
#X connect 10 0 12 0;
#X connect 11 0 21 0;
#X connect 12 0 19 0;
#X connect 13 0 19 0;
#X connect 14 0 19 0;
#X connect 15 0 21 0;
#X connect 16 0 21 0;
#X connect 17 0 18 1;
#X connect 18 0 5 0;
#X connect 23 0 18 0;
#X connect 23 0 25 0;
#X connect 24 0 2 0;
#X connect 25 0 6 0;
#X coords 0 -1 1 1 120 32 2 232 101;
