#N canvas 950 322 620 498 10;
#X obj 161 104 cnv 15 148 30 empty empty hs 1 6 0 14 -233017 -132097
0;
#X obj 291 108 tgl 12 1 empty empty byp 0 17 0 10 -262144 -1 -131073
0 1;
#X obj 385 34 nbx 5 14 20 20000 0 0 \$0-Hz empty empty 0 -8 0 10 -228856
-1 -1 450.962 256 0;
#X obj 104 5 inlet~ sig;
#X obj 303 376 outlet;
#X obj 104 376 outlet~ sig;
#X obj 385 11 r \$0-freq;
#X obj 449 33 nbx 5 14 0 20000 0 0 \$0-Hz empty empty 0 -8 0 10 -228856
-1 -1 1 256 0;
#N canvas 1199 279 237 341 label 0;
#X obj 45 24 inlet;
#X obj 45 172 int;
#X obj 45 265 outlet;
#X msg 45 238 label \$1;
#N canvas 587 359 234 305 f2s 0;
#X msg 51 45 symbol \$1a;
#X obj 51 66 list fromsymbol;
#X obj 51 169 list tosymbol;
#X obj 51 88 t a a;
#X obj 108 106 list length;
#X obj 108 128 - 1;
#X obj 51 148 list split;
#X obj 51 17 inlet;
#X obj 51 230 outlet;
#X connect 0 0 1 0;
#X connect 1 0 3 0;
#X connect 2 0 8 0;
#X connect 3 0 6 0;
#X connect 3 1 4 0;
#X connect 4 0 5 0;
#X connect 5 0 6 1;
#X connect 6 0 2 0;
#X connect 7 0 0 0;
#X restore 45 216 pd f2s;
#X obj 46 150 * 100;
#X obj 45 194 / 100;
#X connect 0 0 5 0;
#X connect 1 0 6 0;
#X connect 3 0 2 0;
#X connect 4 0 3 0;
#X connect 5 0 1 0;
#X connect 6 0 4 0;
#X restore 449 54 pd label;
#N canvas 316 395 373 447 label 0;
#X obj 45 24 inlet;
#X obj 45 195 int;
#X obj 45 304 outlet;
#X obj 45 173 * 10;
#X obj 45 217 / 10;
#X obj 158 124 > 100;
#X obj 45 46 t f f;
#X obj 78 124 < 100;
#X obj 45 151 spigot;
#X obj 125 170 int;
#X obj 125 148 spigot;
#N canvas 587 359 234 305 f2s 0;
#X msg 51 45 symbol \$1a;
#X obj 51 66 list fromsymbol;
#X obj 51 169 list tosymbol;
#X obj 51 88 t a a;
#X obj 108 106 list length;
#X obj 108 128 - 1;
#X obj 51 148 list split;
#X obj 51 17 inlet;
#X obj 51 230 outlet;
#X connect 0 0 1 0;
#X connect 1 0 3 0;
#X connect 2 0 8 0;
#X connect 3 0 6 0;
#X connect 3 1 4 0;
#X connect 4 0 5 0;
#X connect 5 0 6 1;
#X connect 6 0 2 0;
#X connect 7 0 0 0;
#X restore 45 251 pd f2s;
#X msg 45 280 label \$1;
#X connect 0 0 6 0;
#X connect 1 0 4 0;
#X connect 3 0 1 0;
#X connect 4 0 11 0;
#X connect 5 0 10 1;
#X connect 6 0 8 0;
#X connect 6 0 10 0;
#X connect 6 1 5 0;
#X connect 6 1 7 0;
#X connect 7 0 8 1;
#X connect 8 0 3 0;
#X connect 9 0 11 0;
#X connect 10 0 9 0;
#X connect 11 0 12 0;
#X connect 12 0 2 0;
#X restore 385 55 pd label;
#X obj 163 122 nbx 1 11 0 7 0 1 empty empty empty 0 -8 0 10 -262144
-1 -1 1 256 0;
#X obj 303 278 list prepend;
#X obj 235 106 mknob 15 200 0.1 1 0 0 \$0-slope empty 1 -4 20 0 9 -262144
-1 -1 19900 1;
#X obj 216 111 cnv 10 17 9 empty empty slo 0 0 0 10 -233017 -66577
0;
#X obj 199 106 mknob 15 300 20 20000 1 0 \$0-freq empty 450 -5 20 0
9 -262144 -1 -1 13486 1;
#X obj 179 111 cnv 10 17 9 empty empty frq 0 0 0 10 -233017 -66577
0;
#X obj 522 34 nbx 5 14 -24 20 0 0 \$0-Hz empty empty 0 -8 0 10 -228856
-1 -1 -9.69889 256 0;
#N canvas 316 395 373 447 label 0;
#X obj 45 24 inlet;
#X obj 45 195 int;
#X obj 45 304 outlet;
#X obj 45 173 * 10;
#X obj 45 217 / 10;
#X obj 45 46 t f f;
#N canvas 587 359 234 305 f2s 0;
#X msg 51 45 symbol \$1a;
#X obj 51 66 list fromsymbol;
#X obj 51 169 list tosymbol;
#X obj 51 88 t a a;
#X obj 108 106 list length;
#X obj 108 128 - 1;
#X obj 51 148 list split;
#X obj 51 17 inlet;
#X obj 51 230 outlet;
#X connect 0 0 1 0;
#X connect 1 0 3 0;
#X connect 2 0 8 0;
#X connect 3 0 6 0;
#X connect 3 1 4 0;
#X connect 4 0 5 0;
#X connect 5 0 6 1;
#X connect 6 0 2 0;
#X connect 7 0 0 0;
#X restore 45 251 pd f2s;
#X msg 45 280 label \$1;
#X connect 0 0 5 0;
#X connect 1 0 4 0;
#X connect 3 0 1 0;
#X connect 4 0 6 0;
#X connect 5 0 3 0;
#X connect 6 0 7 0;
#X connect 7 0 2 0;
#X restore 522 55 pd label;
#X obj 522 11 r \$0-gain;
#X obj 272 106 mknob 15 200 -24 24 0 0 \$0-gain empty -9.6 -10 20 0
9 -262144 -1 -1 5929 1;
#X obj 253 111 cnv 10 17 9 empty empty gai 0 0 0 10 -233017 -66577
0;
#X obj 449 10 r \$0-slope;
#X obj 176 4 loadbang;
#X obj 176 26 \$1;
#X obj 203 26 \$2;
#X obj 230 26 \$3;
#X obj 231 4 bng 15 250 50 0 empty empty empty 17 7 0 10 -262144 -1
-1;
#X msg 257 26 3146;
#X msg 290 26 0.52;
#X msg 323 26 8.12;
#X msg 263 180 bypass \$1;
#X obj 302 218 ../else/bicoeff highshelf 1000 0.1 12;
#X obj 291 4 inlet bypass;
#X obj 104 250 biquad~;
#X connect 1 0 30 0;
#X connect 2 0 9 0;
#X connect 2 0 31 0;
#X connect 3 0 33 0;
#X connect 6 0 2 0;
#X connect 7 0 8 0;
#X connect 7 0 31 1;
#X connect 8 0 12 0;
#X connect 9 0 14 0;
#X connect 10 0 11 1;
#X connect 11 0 4 0;
#X connect 16 0 17 0;
#X connect 16 0 31 2;
#X connect 17 0 19 0;
#X connect 18 0 16 0;
#X connect 21 0 7 0;
#X connect 22 0 23 0;
#X connect 22 0 24 0;
#X connect 22 0 25 0;
#X connect 23 0 14 0;
#X connect 24 0 12 0;
#X connect 25 0 19 0;
#X connect 26 0 25 0;
#X connect 26 0 24 0;
#X connect 26 0 23 0;
#X connect 27 0 14 0;
#X connect 28 0 12 0;
#X connect 29 0 19 0;
#X connect 30 0 11 0;
#X connect 31 0 11 0;
#X connect 31 0 33 0;
#X connect 32 0 1 0;
#X connect 33 0 5 0;
#X coords 0 -1 1 1 150 32 2 160 103;
