#N canvas 667 338 705 547 10;
#X obj 193 157 cnv 15 148 30 empty empty eq 1 6 0 14 -233017 -132097
0;
#X obj 323 161 tgl 12 1 empty empty byp 0 17 0 10 -262144 -1 -131073
1 1;
#X obj 417 79 nbx 5 14 20 20000 0 0 \$0-Hz empty empty 0 -8 0 10 -228856
-1 -1 991.931 256 0;
#X obj 136 79 inlet~ sig;
#X obj 335 429 outlet;
#X obj 136 429 outlet~ sig;
#X obj 417 56 r \$0-freq;
#X obj 481 78 nbx 5 14 0.1 10 0 0 \$0-Hz empty empty 0 -8 0 10 -228856
-1 -1 2.18 256 0;
#N canvas 1199 279 237 341 label 0;
#X obj 45 24 inlet;
#X obj 45 172 int;
#X obj 45 265 outlet;
#X msg 45 238 label \$1;
#N canvas 587 359 234 305 f2s 0;
#X msg 51 45 symbol \$1a;
#X obj 51 66 list fromsymbol;
#X obj 51 169 list tosymbol;
#X obj 51 88 t a a;
#X obj 108 106 list length;
#X obj 108 128 - 1;
#X obj 51 148 list split;
#X obj 51 17 inlet;
#X obj 51 230 outlet;
#X connect 0 0 1 0;
#X connect 1 0 3 0;
#X connect 2 0 8 0;
#X connect 3 0 6 0;
#X connect 3 1 4 0;
#X connect 4 0 5 0;
#X connect 5 0 6 1;
#X connect 6 0 2 0;
#X connect 7 0 0 0;
#X restore 45 216 pd f2s;
#X obj 46 150 * 100;
#X obj 45 194 / 100;
#X connect 0 0 5 0;
#X connect 1 0 6 0;
#X connect 3 0 2 0;
#X connect 4 0 3 0;
#X connect 5 0 1 0;
#X connect 6 0 4 0;
#X restore 481 99 pd label;
#N canvas 316 395 373 447 label 0;
#X obj 45 24 inlet;
#X obj 45 195 int;
#X obj 45 304 outlet;
#X obj 45 173 * 10;
#X obj 45 217 / 10;
#X obj 158 124 > 100;
#X obj 45 46 t f f;
#X obj 78 124 < 100;
#X obj 45 151 spigot;
#X obj 125 170 int;
#X obj 125 148 spigot;
#N canvas 587 359 234 305 f2s 0;
#X msg 51 45 symbol \$1a;
#X obj 51 66 list fromsymbol;
#X obj 51 169 list tosymbol;
#X obj 51 88 t a a;
#X obj 108 106 list length;
#X obj 108 128 - 1;
#X obj 51 148 list split;
#X obj 51 17 inlet;
#X obj 51 230 outlet;
#X connect 0 0 1 0;
#X connect 1 0 3 0;
#X connect 2 0 8 0;
#X connect 3 0 6 0;
#X connect 3 1 4 0;
#X connect 4 0 5 0;
#X connect 5 0 6 1;
#X connect 6 0 2 0;
#X connect 7 0 0 0;
#X restore 45 251 pd f2s;
#X msg 45 280 label \$1;
#X connect 0 0 6 0;
#X connect 1 0 4 0;
#X connect 3 0 1 0;
#X connect 4 0 11 0;
#X connect 5 0 10 1;
#X connect 6 0 8 0;
#X connect 6 0 10 0;
#X connect 6 1 5 0;
#X connect 6 1 7 0;
#X connect 7 0 8 1;
#X connect 8 0 3 0;
#X connect 9 0 11 0;
#X connect 10 0 9 0;
#X connect 11 0 12 0;
#X connect 12 0 2 0;
#X restore 417 100 pd label;
#X obj 195 175 nbx 1 11 0 7 0 1 empty empty empty 0 -8 0 10 -262144
-1 -1 2 256 0;
#X obj 335 331 list prepend;
#X obj 267 159 mknob 15 200 0.1 10 0 0 \$0-res empty 2.17 -4 20 0 9
-262144 -1 -1 4181 1;
#X obj 248 164 cnv 10 17 9 empty empty res 0 0 0 10 -233017 -66577
0;
#X obj 231 159 mknob 15 300 20 20000 1 0 \$0-freq empty 991 -5 20 0
9 -262144 -1 -1 16898 1;
#X obj 211 164 cnv 10 17 9 empty empty frq 0 0 0 10 -233017 -66577
0;
#X obj 554 79 nbx 5 14 -24 20 0 0 \$0-Hz empty empty 0 -8 0 10 -228856
-1 -1 20 256 0;
#N canvas 316 395 373 447 label 0;
#X obj 45 24 inlet;
#X obj 45 195 int;
#X obj 45 304 outlet;
#X obj 45 173 * 10;
#X obj 45 217 / 10;
#X obj 45 46 t f f;
#N canvas 587 359 234 305 f2s 0;
#X msg 51 45 symbol \$1a;
#X obj 51 66 list fromsymbol;
#X obj 51 169 list tosymbol;
#X obj 51 88 t a a;
#X obj 108 106 list length;
#X obj 108 128 - 1;
#X obj 51 148 list split;
#X obj 51 17 inlet;
#X obj 51 230 outlet;
#X connect 0 0 1 0;
#X connect 1 0 3 0;
#X connect 2 0 8 0;
#X connect 3 0 6 0;
#X connect 3 1 4 0;
#X connect 4 0 5 0;
#X connect 5 0 6 1;
#X connect 6 0 2 0;
#X connect 7 0 0 0;
#X restore 45 251 pd f2s;
#X msg 45 280 label \$1;
#X connect 0 0 5 0;
#X connect 1 0 4 0;
#X connect 3 0 1 0;
#X connect 4 0 6 0;
#X connect 5 0 3 0;
#X connect 6 0 7 0;
#X connect 7 0 2 0;
#X restore 554 100 pd label;
#X obj 554 56 r \$0-gain;
#X obj 304 159 mknob 15 200 -24 24 0 0 \$0-gain empty 20 -10 20 0 9
-262144 -1 -1 18242 1;
#X obj 285 164 cnv 10 17 9 empty empty gai 0 0 0 10 -233017 -66577
0;
#X obj 208 57 loadbang;
#X obj 208 79 \$1;
#X obj 235 79 \$2;
#X obj 262 79 \$3;
#X obj 263 57 bng 15 250 50 0 empty empty empty 17 7 0 10 -262144 -1
-1;
#X obj 481 55 r \$0-res;
#X msg 289 79 552;
#X msg 322 79 2.59;
#X msg 355 79 -9.4;
#X msg 305 235 bypass \$1;
#X obj 335 263 ../else/bicoeff eq 1000 0.1 12;
#X obj 323 28 inlet bypass;
#X obj 136 303 biquad~;
#X connect 1 0 30 0;
#X connect 2 0 9 0;
#X connect 2 0 31 0;
#X connect 3 0 33 0;
#X connect 6 0 2 0;
#X connect 7 0 8 0;
#X connect 7 0 31 1;
#X connect 8 0 12 0;
#X connect 9 0 14 0;
#X connect 10 0 11 1;
#X connect 11 0 4 0;
#X connect 16 0 17 0;
#X connect 16 0 31 2;
#X connect 17 0 19 0;
#X connect 18 0 16 0;
#X connect 21 0 22 0;
#X connect 21 0 23 0;
#X connect 21 0 24 0;
#X connect 22 0 14 0;
#X connect 23 0 12 0;
#X connect 24 0 19 0;
#X connect 25 0 24 0;
#X connect 25 0 23 0;
#X connect 25 0 22 0;
#X connect 26 0 7 0;
#X connect 27 0 14 0;
#X connect 28 0 12 0;
#X connect 29 0 19 0;
#X connect 30 0 11 0;
#X connect 31 0 11 0;
#X connect 31 0 33 0;
#X connect 32 0 1 0;
#X connect 33 0 5 0;
#X coords 0 -1 1 1 150 32 2 192 156;
