#N canvas 114 427 638 488 10;
#X obj 251 127 cnv 15 118 30 empty empty bp 1 6 0 14 -233017 -132097
0;
#X msg 378 197 bypass \$1;
#X obj 350 131 tgl 12 1 empty empty byp 0 17 0 10 -262144 -1 -131073
0 1;
#X obj 506 73 nbx 5 14 20 20000 0 0 \$0-Hz empty empty 0 -8 0 10 -228856
-1 -1 654.757 256 0;
#X obj 194 49 inlet~ sig;
#X obj 393 399 outlet;
#X obj 194 399 outlet~ sig;
#X obj 506 50 r \$0-freq;
#X obj 443 73 nbx 5 14 0.1 100 0 0 \$0-Hz empty empty 0 -8 0 10 -228856
-1 -1 1.38489 256 0;
#X obj 443 50 r \$0-res;
#X obj 272 49 loadbang;
#X obj 272 71 \$1;
#X obj 302 71 \$2;
#N canvas 1199 279 237 341 label 0;
#X obj 45 24 inlet;
#X obj 45 172 int;
#X obj 45 265 outlet;
#X obj 45 150 * 10000;
#X obj 45 194 / 10000;
#X msg 45 238 label \$1;
#N canvas 587 359 234 305 f2s 0;
#X msg 51 45 symbol \$1a;
#X obj 51 66 list fromsymbol;
#X obj 51 169 list tosymbol;
#X obj 51 88 t a a;
#X obj 108 106 list length;
#X obj 108 128 - 1;
#X obj 51 148 list split;
#X obj 51 17 inlet;
#X obj 51 230 outlet;
#X connect 0 0 1 0;
#X connect 1 0 3 0;
#X connect 2 0 8 0;
#X connect 3 0 6 0;
#X connect 3 1 4 0;
#X connect 4 0 5 0;
#X connect 5 0 6 1;
#X connect 6 0 2 0;
#X connect 7 0 0 0;
#X restore 45 216 pd f2s;
#X obj 45 52 t f f;
#X obj 45 105 spigot;
#X obj 124 105 spigot;
#X obj 77 78 < 10;
#X obj 157 81 > 10;
#X obj 124 173 int;
#X obj 124 151 * 1000;
#X obj 124 195 / 1000;
#X connect 0 0 7 0;
#X connect 1 0 4 0;
#X connect 3 0 1 0;
#X connect 4 0 6 0;
#X connect 5 0 2 0;
#X connect 6 0 5 0;
#X connect 7 0 8 0;
#X connect 7 0 9 0;
#X connect 7 1 10 0;
#X connect 7 1 11 0;
#X connect 8 0 3 0;
#X connect 9 0 13 0;
#X connect 10 0 8 1;
#X connect 11 0 9 1;
#X connect 12 0 14 0;
#X connect 13 0 12 0;
#X connect 14 0 6 0;
#X restore 443 94 pd label;
#X msg 374 71 0.857;
#X msg 332 71 120.3;
#N canvas 316 395 373 447 label 0;
#X obj 45 24 inlet;
#X obj 45 195 int;
#X obj 45 304 outlet;
#X obj 45 173 * 10;
#X obj 45 217 / 10;
#X obj 158 124 > 100;
#X obj 45 46 t f f;
#X obj 78 124 < 100;
#X obj 45 151 spigot;
#X obj 125 170 int;
#X obj 125 148 spigot;
#N canvas 587 359 234 305 f2s 0;
#X msg 51 45 symbol \$1a;
#X obj 51 66 list fromsymbol;
#X obj 51 169 list tosymbol;
#X obj 51 88 t a a;
#X obj 108 106 list length;
#X obj 108 128 - 1;
#X obj 51 148 list split;
#X obj 51 17 inlet;
#X obj 51 230 outlet;
#X connect 0 0 1 0;
#X connect 1 0 3 0;
#X connect 2 0 8 0;
#X connect 3 0 6 0;
#X connect 3 1 4 0;
#X connect 4 0 5 0;
#X connect 5 0 6 1;
#X connect 6 0 2 0;
#X connect 7 0 0 0;
#X restore 45 251 pd f2s;
#X msg 45 280 label \$1;
#X connect 0 0 6 0;
#X connect 1 0 4 0;
#X connect 3 0 1 0;
#X connect 4 0 11 0;
#X connect 5 0 10 1;
#X connect 6 0 8 0;
#X connect 6 0 10 0;
#X connect 6 1 5 0;
#X connect 6 1 7 0;
#X connect 7 0 8 1;
#X connect 8 0 3 0;
#X connect 9 0 11 0;
#X connect 10 0 9 0;
#X connect 11 0 12 0;
#X connect 12 0 2 0;
#X restore 506 94 pd label;
#X obj 253 145 nbx 1 11 0 7 0 1 empty empty empty 0 -8 0 10 -262144
-1 -1 6 256 0;
#X obj 393 301 list prepend;
#X obj 288 129 mknob 15 100 0.01 100 1 0 \$0-res empty 1.3848 -10 20
0 9 -262144 -1 -1 5300 1;
#X obj 269 134 cnv 10 17 9 empty empty res 0 0 0 10 -233017 -66577
0;
#X obj 326 129 mknob 15 300 20 20000 1 0 \$0-freq empty 654 -5 20 0
9 -262144 -1 -1 15100 1;
#X obj 306 134 cnv 10 17 9 empty empty frq 0 0 0 10 -233017 -66577
0;
#X obj 350 170 t f f;
#X obj 350 222 sel 0;
#X obj 194 273 ../else/bandpass~ 100 0.1;
#X obj 393 272 ../else/bicoeff bandpass 100 0.1;
#X obj 349 30 inlet bypass;
#X connect 1 0 18 0;
#X connect 1 0 25 0;
#X connect 2 0 23 0;
#X connect 3 0 16 0;
#X connect 3 0 25 1;
#X connect 3 0 26 0;
#X connect 4 0 25 0;
#X connect 7 0 3 0;
#X connect 8 0 13 0;
#X connect 8 0 25 2;
#X connect 8 0 26 1;
#X connect 9 0 8 0;
#X connect 10 0 11 0;
#X connect 10 0 12 0;
#X connect 11 0 21 0;
#X connect 12 0 19 0;
#X connect 13 0 19 0;
#X connect 14 0 19 0;
#X connect 15 0 21 0;
#X connect 16 0 21 0;
#X connect 17 0 18 1;
#X connect 18 0 5 0;
#X connect 23 0 24 0;
#X connect 23 1 1 0;
#X connect 24 0 26 0;
#X connect 25 0 6 0;
#X connect 26 0 18 0;
#X connect 27 0 2 0;
#X coords 0 -1 1 1 120 32 2 250 126;
