#N canvas 1054 144 866 807 10;
#X obj 339 212 +~ 1;
#X obj 339 239 *~ 0.5;
#X obj 337 115 delwrite~ \$0-delay1 5000;
#X obj 339 535 vd~ \$0-delay1, f 16;
#N canvas 0 22 450 300 rep 0;
#X obj 119 16 inlet~;
#X obj 164 96 tgl 15 0 empty empty empty 17 7 0 10 -262144 -1 -1 1
1;
#X obj 164 45 loadbang;
#X obj 164 70 f 1;
#X obj 119 149 tabwrite~ \$0-LFO1;
#X obj 164 119 metro 100;
#X obj 236 15 block~ 4096 1 0.125;
#X connect 0 0 4 0;
#X connect 1 0 5 0;
#X connect 2 0 3 0;
#X connect 3 0 1 0;
#X connect 5 0 4 0;
#X restore 339 269 pd rep;
#N canvas 0 22 450 300 (subpatch) 0;
#X array \$0-LFO1 4096 float 0 black black;
#X coords 0 1 4095 0 150 98 1;
#X restore 353 398 graph;
#X text 335 139 Low Frequency Oscillator;
#X text 475 535 x[n-t];
#X text 413 373 t (ms);
#X text 467 267 Depth (ms);
#X text 274 575 x[n];
#X obj 339 600 *~ 1;
#X text 352 633 y[n] = x[n] + ax[n-t];
#X text 428 574 Feedback (0-1);
#X obj 339 185 osc~ 1;
#X text 382 600 ax[n-t];
#X text 395 160 Rate (Hz);
#X text 484 307 Shift (ms);
#X obj 310 632 +~, f 4;
#X obj 339 163 nbx 5 14 -1e+037 1e+037 0 0 empty \$0-rate empty 0 -8
0 10 -262144 -1 -1 6.16 256 0;
#X obj 408 271 nbx 5 14 0 1e+037 0 0 empty \$0-depth empty 0 -8 0 10
-262144 -1 -1 1.74 256 0;
#X obj 424 311 nbx 5 14 0 1e+037 0 0 empty \$0-shift empty 0 -8 0 10
-262144 -1 -1 0.2801 256 0;
#X obj 368 576 nbx 5 14 0 1 0 0 empty \$0-feedback empty 0 -8 0 10
-262144 -1 -1 1 256 0;
#X obj 339 298 *~ 1, f 9;
#X obj 339 338 +~ 0.001, f 11;
#X obj 311 56 inlet~;
#X obj 182 263 loadbang;
#X msg 182 288 1;
#X obj 181 313 s \$0-rate;
#X obj 142 338 s \$0-depth;
#X obj 104 365 s \$0-shift;
#X msg 63 361 1;
#X obj 63 391 s \$0-feedback;
#X msg 104 335 0.0001;
#X msg 142 313 1;
#X obj 310 718 outlet~;
#X text 54 731 by Pierre Guillot;
#X text 56 753 https://forum.pdpatchrepo.info/topic/9942/phaser-chorus-flanger/2
;
#X obj 619 72 inlet depth;
#X connect 0 0 1 0;
#X connect 1 0 4 0;
#X connect 1 0 23 0;
#X connect 3 0 11 0;
#X connect 11 0 18 1;
#X connect 14 0 0 0;
#X connect 18 0 35 0;
#X connect 19 0 14 0;
#X connect 20 0 23 1;
#X connect 21 0 24 1;
#X connect 22 0 11 1;
#X connect 23 0 24 0;
#X connect 24 0 3 0;
#X connect 25 0 2 0;
#X connect 25 0 18 0;
#X connect 26 0 27 0;
#X connect 26 0 34 0;
#X connect 26 0 33 0;
#X connect 26 0 31 0;
#X connect 27 0 28 0;
#X connect 31 0 32 0;
#X connect 33 0 30 0;
#X connect 34 0 29 0;
#X connect 38 0 20 0;
