#N canvas 306 297 674 575 10;
#X msg 34 221 ratio 0.5;
#X msg 33 203 treshold 10;
#X msg 33 185 limit 98;
#X obj 188 365 *~;
#X obj 245 360 *~;
#X obj 207 306 limiter~ 50 1;
#X obj 262 339 z~ 64;
#X obj 188 345 z~ 64;
#X text 318 340 just a small delay of 64 samples;
#X obj 189 31 inlet~;
#X obj 249 32 inlet~;
#X obj 188 433 outlet~;
#X obj 245 432 outlet~;
#X msg 315 189 limit \$1;
#X msg 314 213 treshold \$1;
#X msg 310 263 ratio \$1;
#X floatatom 353 108 5 0 0 0 limit - -, f 5;
#X floatatom 353 125 5 0 0 0 thresh - -, f 5;
#X floatatom 353 142 5 0 0 0 ratio/10 - -, f 5;
#X obj 313 242 / 10;
#X obj 602 105 loadbang;
#X msg 562 129 98;
#X msg 562 155 10;
#X msg 562 179 5;
#X connect 3 0 11 0;
#X connect 4 0 12 0;
#X connect 5 0 4 0;
#X connect 5 0 3 1;
#X connect 6 0 4 1;
#X connect 7 0 3 0;
#X connect 9 0 7 0;
#X connect 9 0 5 0;
#X connect 10 0 6 0;
#X connect 10 0 5 1;
#X connect 13 0 5 0;
#X connect 14 0 5 0;
#X connect 15 0 5 0;
#X connect 16 0 13 0;
#X connect 17 0 14 0;
#X connect 18 0 19 0;
#X connect 19 0 15 0;
#X connect 20 0 21 0;
#X connect 20 0 22 0;
#X connect 20 0 23 0;
#X connect 21 0 16 0;
#X connect 22 0 17 0;
#X connect 23 0 18 0;
#X coords 0 -1 1 1 89 56 2 299 106;
