#N canvas 1952 112 894 863 10;
#X obj 532 224 +~ 1;
#X obj 532 251 *~ 0.5;
#N canvas 0 22 450 300 rep 0;
#X obj 119 16 inlet~;
#X obj 164 96 tgl 15 0 empty empty empty 17 7 0 10 -262144 -1 -1 1
1;
#X obj 164 45 loadbang;
#X obj 164 70 f 1;
#X obj 119 149 tabwrite~ \$0-LFO1;
#X obj 164 119 metro 100;
#X obj 236 15 block~ 4096 1 0.125;
#X connect 0 0 4 0;
#X connect 1 0 5 0;
#X connect 2 0 3 0;
#X connect 3 0 1 0;
#X connect 5 0 4 0;
#X restore 532 281 pd rep;
#N canvas 0 22 450 300 (subpatch) 0;
#X array \$0-LFO1 4096 float 0 black black;
#X coords 0 1 4095 0 150 98 1;
#X restore 546 410 graph;
#X text 528 151 Low Frequency Oscillator;
#X text 668 547 x[n-t];
#X text 606 385 t (ms);
#X text 660 279 Depth (ms);
#X text 467 587 x[n];
#X obj 532 612 *~ 1;
#X text 545 645 y[n] = x[n] + ax[n-t];
#X text 621 586 Feedback (0-1);
#X obj 532 197 osc~ 1;
#X text 575 612 ax[n-t];
#X text 588 172 Rate (Hz);
#X text 677 324 Shift (ms);
#X obj 503 644 +~, f 4;
#X obj 189 528 loadbang;
#X obj 532 175 nbx 5 14 -1e+037 1e+037 0 0 empty \$0-rate empty 0 -8
0 10 -262144 -1 -1 1.72 256 0;
#X msg 189 553 1;
#X obj 188 578 s \$0-rate;
#X obj 601 283 nbx 5 14 0 1e+037 0 0 empty \$0-depth empty 0 -8 0 10
-262144 -1 -1 0.29 256 0;
#X obj 149 603 s \$0-depth;
#X obj 617 323 nbx 5 14 0 1e+037 0 0 empty \$0-shift empty 0 -8 0 10
-262144 -1 -1 0.6001 256 0;
#X obj 111 630 s \$0-shift;
#X msg 70 626 1;
#X obj 70 656 s \$0-feedback;
#X obj 561 588 nbx 5 14 0 1 0 0 empty \$0-feedback empty 0 -8 0 10
-262144 -1 -1 0.1875 256 0;
#X msg 110 440 \; pd dsp 1;
#X msg 110 500 \; pd dsp 0;
#X msg 111 600 0.0001;
#X msg 149 578 1;
#N canvas 0 22 622 635 apset~ 0;
#N canvas 0 22 450 300 ap~ 0;
#X obj 127 160 rpole~;
#X obj 127 135 rzero_rev~;
#X obj 127 92 inlet~;
#X obj 127 185 outlet~;
#X obj 204 92 inlet~;
#X connect 0 0 3 0;
#X connect 1 0 0 0;
#X connect 2 0 1 0;
#X connect 4 0 1 1;
#X connect 4 0 0 1;
#X restore 155 36 pd ap~;
#N canvas 0 22 450 300 ap~ 0;
#X obj 127 160 rpole~;
#X obj 127 135 rzero_rev~;
#X obj 127 92 inlet~;
#X obj 127 185 outlet~;
#X obj 204 92 inlet~;
#X connect 0 0 3 0;
#X connect 1 0 0 0;
#X connect 2 0 1 0;
#X connect 4 0 1 1;
#X connect 4 0 0 1;
#X restore 155 66 pd ap~;
#N canvas 0 22 450 300 ap~ 0;
#X obj 127 160 rpole~;
#X obj 127 135 rzero_rev~;
#X obj 127 92 inlet~;
#X obj 127 185 outlet~;
#X obj 204 92 inlet~;
#X connect 0 0 3 0;
#X connect 1 0 0 0;
#X connect 2 0 1 0;
#X connect 4 0 1 1;
#X connect 4 0 0 1;
#X restore 155 96 pd ap~;
#N canvas 0 22 450 300 ap~ 0;
#X obj 127 160 rpole~;
#X obj 127 135 rzero_rev~;
#X obj 127 92 inlet~;
#X obj 127 185 outlet~;
#X obj 204 92 inlet~;
#X connect 0 0 3 0;
#X connect 1 0 0 0;
#X connect 2 0 1 0;
#X connect 4 0 1 1;
#X connect 4 0 0 1;
#X restore 155 126 pd ap~;
#N canvas 0 22 450 300 ap~ 0;
#X obj 127 160 rpole~;
#X obj 127 135 rzero_rev~;
#X obj 127 92 inlet~;
#X obj 127 185 outlet~;
#X obj 204 92 inlet~;
#X connect 0 0 3 0;
#X connect 1 0 0 0;
#X connect 2 0 1 0;
#X connect 4 0 1 1;
#X connect 4 0 0 1;
#X restore 155 156 pd ap~;
#N canvas 0 22 450 300 ap~ 0;
#X obj 127 160 rpole~;
#X obj 127 135 rzero_rev~;
#X obj 127 92 inlet~;
#X obj 127 185 outlet~;
#X obj 204 92 inlet~;
#X connect 0 0 3 0;
#X connect 1 0 0 0;
#X connect 2 0 1 0;
#X connect 4 0 1 1;
#X connect 4 0 0 1;
#X restore 155 186 pd ap~;
#N canvas 0 22 450 300 ap~ 0;
#X obj 127 160 rpole~;
#X obj 127 135 rzero_rev~;
#X obj 127 92 inlet~;
#X obj 127 185 outlet~;
#X obj 204 92 inlet~;
#X connect 0 0 3 0;
#X connect 1 0 0 0;
#X connect 2 0 1 0;
#X connect 4 0 1 1;
#X connect 4 0 0 1;
#X restore 155 216 pd ap~;
#N canvas 0 22 450 300 ap~ 0;
#X obj 127 160 rpole~;
#X obj 127 135 rzero_rev~;
#X obj 127 92 inlet~;
#X obj 127 185 outlet~;
#X obj 204 92 inlet~;
#X connect 0 0 3 0;
#X connect 1 0 0 0;
#X connect 2 0 1 0;
#X connect 4 0 1 1;
#X connect 4 0 0 1;
#X restore 155 246 pd ap~;
#N canvas 0 22 450 300 ap~ 0;
#X obj 127 160 rpole~;
#X obj 127 135 rzero_rev~;
#X obj 127 92 inlet~;
#X obj 127 185 outlet~;
#X obj 204 92 inlet~;
#X connect 0 0 3 0;
#X connect 1 0 0 0;
#X connect 2 0 1 0;
#X connect 4 0 1 1;
#X connect 4 0 0 1;
#X restore 155 276 pd ap~;
#N canvas 0 22 450 300 ap~ 0;
#X obj 127 160 rpole~;
#X obj 127 135 rzero_rev~;
#X obj 127 92 inlet~;
#X obj 127 185 outlet~;
#X obj 204 92 inlet~;
#X connect 0 0 3 0;
#X connect 1 0 0 0;
#X connect 2 0 1 0;
#X connect 4 0 1 1;
#X connect 4 0 0 1;
#X restore 155 306 pd ap~;
#N canvas 0 22 450 300 ap~ 0;
#X obj 127 160 rpole~;
#X obj 127 135 rzero_rev~;
#X obj 127 92 inlet~;
#X obj 127 185 outlet~;
#X obj 204 92 inlet~;
#X connect 0 0 3 0;
#X connect 1 0 0 0;
#X connect 2 0 1 0;
#X connect 4 0 1 1;
#X connect 4 0 0 1;
#X restore 155 336 pd ap~;
#N canvas 0 22 450 300 ap~ 0;
#X obj 127 160 rpole~;
#X obj 127 135 rzero_rev~;
#X obj 127 92 inlet~;
#X obj 127 185 outlet~;
#X obj 204 92 inlet~;
#X connect 0 0 3 0;
#X connect 1 0 0 0;
#X connect 2 0 1 0;
#X connect 4 0 1 1;
#X connect 4 0 0 1;
#X restore 155 366 pd ap~;
#N canvas 0 22 450 300 ap~ 0;
#X obj 127 160 rpole~;
#X obj 127 135 rzero_rev~;
#X obj 127 92 inlet~;
#X obj 127 185 outlet~;
#X obj 204 92 inlet~;
#X connect 0 0 3 0;
#X connect 1 0 0 0;
#X connect 2 0 1 0;
#X connect 4 0 1 1;
#X connect 4 0 0 1;
#X restore 155 396 pd ap~;
#N canvas 0 22 450 300 ap~ 0;
#X obj 127 160 rpole~;
#X obj 127 135 rzero_rev~;
#X obj 127 92 inlet~;
#X obj 127 185 outlet~;
#X obj 204 92 inlet~;
#X connect 0 0 3 0;
#X connect 1 0 0 0;
#X connect 2 0 1 0;
#X connect 4 0 1 1;
#X connect 4 0 0 1;
#X restore 155 426 pd ap~;
#N canvas 0 22 450 300 ap~ 0;
#X obj 127 160 rpole~;
#X obj 127 135 rzero_rev~;
#X obj 127 92 inlet~;
#X obj 127 185 outlet~;
#X obj 204 92 inlet~;
#X connect 0 0 3 0;
#X connect 1 0 0 0;
#X connect 2 0 1 0;
#X connect 4 0 1 1;
#X connect 4 0 0 1;
#X restore 155 456 pd ap~;
#N canvas 0 22 450 300 ap~ 0;
#X obj 127 160 rpole~;
#X obj 127 135 rzero_rev~;
#X obj 127 92 inlet~;
#X obj 127 185 outlet~;
#X obj 204 92 inlet~;
#X connect 0 0 3 0;
#X connect 1 0 0 0;
#X connect 2 0 1 0;
#X connect 4 0 1 1;
#X connect 4 0 0 1;
#X restore 155 486 pd ap~;
#X obj 155 6 inlet~;
#X obj 225 6 inlet~;
#X obj 155 511 outlet~;
#X connect 0 0 1 0;
#X connect 1 0 2 0;
#X connect 2 0 3 0;
#X connect 3 0 4 0;
#X connect 4 0 5 0;
#X connect 5 0 6 0;
#X connect 6 0 7 0;
#X connect 7 0 8 0;
#X connect 8 0 9 0;
#X connect 9 0 10 0;
#X connect 10 0 11 0;
#X connect 11 0 12 0;
#X connect 12 0 13 0;
#X connect 13 0 14 0;
#X connect 14 0 15 0;
#X connect 15 0 18 0;
#X connect 16 0 0 0;
#X connect 17 0 0 1;
#X connect 17 0 1 1;
#X connect 17 0 2 1;
#X connect 17 0 3 1;
#X connect 17 0 4 1;
#X connect 17 0 5 1;
#X connect 17 0 6 1;
#X connect 17 0 7 1;
#X connect 17 0 8 1;
#X connect 17 0 9 1;
#X connect 17 0 10 1;
#X connect 17 0 11 1;
#X connect 17 0 12 1;
#X connect 17 0 13 1;
#X connect 17 0 14 1;
#X connect 17 0 15 1;
#X restore 532 548 pd apset~;
#X obj 532 310 *~ 0.3, f 9;
#X obj 532 350 +~ 0.6, f 11;
#X obj 600 524 clip~ 0 1;
#X text 74 160 The all-pass filters alter the phases of the different
frequency components in the signal depending on the rate (Hz) \, the
depth (ms) and the shift (ms) of the LFO and the feedback coefficient
a (0-1)., f 50;
#X text 74 71 The all-pass filter can be created with an one zero filter
(y[n] = -a[n] * x[n] + x[n-1]) and a pole filter (y[n] = x[n] + a[n]
* y[n-1]) and the coefficient is driven by a LFO (low frequency oscillator).
, f 46;
#X text 74 20 The phaser is an effect unit where the original signal
is mixed with a version of itself filtered by a set of variable all-pass
filters., f 70;
#X text 74 350 The phaser is a famous guitar effect that can be found
in several music like "Another Brick In The Wall (Part 3)" from the
Pink Floyd or more recently in "Paranoid Android" from Radiohead.,
f 52;
#X text 73 250 The number of all-pass filters determines the number
of notches affecting the sound. This example uses 16 all-pass filters
resulting in 8 notches. Other implementations can use much more filters
(or less) and the output can be fed back to the input., f 48;
#X obj 503 98 inlet~;
#X obj 503 761 outlet~;
#X obj 727 131 inlet;
#X obj 767 389 line~;
#X msg 767 344 \$1 10;
#X obj 740 592 *~;
#X connect 0 0 1 0;
#X connect 1 0 2 0;
#X connect 1 0 33 0;
#X connect 12 0 0 0;
#X connect 16 0 42 0;
#X connect 17 0 19 0;
#X connect 17 0 31 0;
#X connect 17 0 30 0;
#X connect 17 0 25 0;
#X connect 18 0 12 0;
#X connect 19 0 20 0;
#X connect 21 0 33 1;
#X connect 23 0 34 1;
#X connect 25 0 26 0;
#X connect 27 0 9 1;
#X connect 30 0 24 0;
#X connect 31 0 22 0;
#X connect 32 0 9 0;
#X connect 32 0 46 0;
#X connect 33 0 34 0;
#X connect 34 0 35 0;
#X connect 35 0 32 1;
#X connect 41 0 16 0;
#X connect 41 0 32 0;
#X connect 43 0 45 0;
#X connect 44 0 46 1;
#X connect 45 0 44 0;
#X connect 46 0 16 1;
