#N canvas 473 61 740 805 12;
#X declare -lib Gem;
#X obj 470 217 +~ 1;
#X obj 470 244 *~ 0.5;
#X obj 441 754 dac~;
#N canvas 0 22 450 300 rep 0;
#X obj 119 16 inlet~;
#X obj 164 96 tgl 15 0 empty empty empty 17 7 0 10 -262144 -1 -1 1
1;
#X obj 164 45 loadbang;
#X obj 164 70 f 1;
#X obj 119 149 tabwrite~ \$0-LFO1;
#X obj 164 119 metro 100;
#X obj 236 15 block~ 4096 1 0.125;
#X connect 0 0 4 0;
#X connect 1 0 5 0;
#X connect 2 0 3 0;
#X connect 3 0 1 0;
#X connect 5 0 4 0;
#X restore 470 274 pd rep;
#N canvas 0 22 450 300 (subpatch) 0;
#X array \$0-LFO1 4096 float 0;
#X coords 0 1 4095 0 150 98 2 0 0;
#X restore 484 403 graph;
#X text 466 144 Low Frequency Oscillator;
#X text 606 540 x[n-t];
#X text 544 378 t (ms);
#X text 598 272 Depth (ms);
#X text 405 580 x[n];
#X obj 470 605 *~ 1;
#X text 483 638 y[n] = x[n] + ax[n-t];
#X text 559 579 Feedback (0-1);
#X obj 470 190 osc~ 1;
#X text 513 605 ax[n-t];
#X text 526 165 Rate (Hz);
#X text 615 312 Shift (ms);
#X obj 441 637 +~, f 4;
#X obj 441 91 noise~;
#X obj 127 521 loadbang;
#X obj 470 168 nbx 5 14 -1e+37 1e+37 0 0 empty \$0-rate empty 0 -8
0 10 -262144 -1 -1 1 256;
#X msg 127 546 1;
#X obj 126 571 s \$0-rate;
#X obj 539 276 nbx 5 14 0 1e+37 0 0 empty \$0-depth empty 0 -8 0 10
-262144 -1 -1 1 256;
#X obj 87 596 s \$0-depth;
#X obj 555 316 nbx 5 14 0 1e+37 0 0 empty \$0-shift empty 0 -8 0 10
-262144 -1 -1 0.0001 256;
#X obj 49 623 s \$0-shift;
#X msg 8 619 1;
#X obj 8 649 s \$0-feedback;
#X obj 499 581 nbx 5 14 0 1 0 0 empty \$0-feedback empty 0 -8 0 10
-262144 -1 -1 1 256;
#N canvas 701 72 675 754 sonogram~ 0;
#X obj 49 8 inlet~;
#X obj 49 91 *~;
#X obj 80 91 *~;
#X obj 49 58 rfft~;
#X obj 49 173 clip~ 0 1;
#X obj 49 149 /~ 511;
#N canvas 300 485 450 300 hueToRgb 0;
#X obj 138 53 inlet~;
#X obj 103 131 -~ 0.666666;
#X obj 103 182 clip~ 0 1;
#X obj 103 156 *~ 3;
#X obj 199 157 *~ 3;
#X obj 199 208 wrap~;
#X obj 199 183 clip~ 1e-05 1.00001;
#X obj 199 132 -~ 0.333333;
#X obj 377 139 *~ 3;
#X obj 377 189 wrap~;
#X obj 377 164 clip~ 1e-05 1.00001;
#X obj 103 207 outlet~;
#X obj 198 237 outlet~;
#X obj 377 237 outlet~;
#X connect 0 0 1 0;
#X connect 0 0 7 0;
#X connect 0 0 8 0;
#X connect 1 0 3 0;
#X connect 2 0 11 0;
#X connect 3 0 2 0;
#X connect 4 0 6 0;
#X connect 5 0 12 0;
#X connect 6 0 5 0;
#X connect 7 0 4 0;
#X connect 8 0 10 0;
#X connect 9 0 13 0;
#X connect 10 0 9 0;
#X restore 49 207 pd hueToRgb;
#X obj 49 119 *~ 1;
#N canvas 664 328 564 367 gemrendering 0;
#X obj 27 30 gemhead;
#X obj 120 17 inlet~;
#X obj 191 17 inlet~;
#X obj 261 17 inlet~;
#X obj 47 196 rotateXYZ 0 0 90;
#X obj 47 257 translateXYZ 1.5 0 0;
#X obj 27 136 pix_sig2pix~ 512 512;
#X obj 27 295 square 3;
#X obj 321 17 inlet~;
#X obj 27 171 pix_texture;
#X obj 47 226 scaleXYZ 2 1 1;
#X obj 381 10 block~ 262144 128;
#X connect 0 0 6 0;
#X connect 1 0 6 0;
#X connect 2 0 6 1;
#X connect 3 0 6 2;
#X connect 4 0 10 0;
#X connect 5 0 7 0;
#X connect 6 0 9 0;
#X connect 8 0 6 3;
#X connect 9 0 4 0;
#X connect 10 0 5 0;
#X restore 49 275 pd gemrendering;
#X obj 49 33 *~ 1;
#X obj 266 147 sel 1 0;
#X obj 364 225 gemwin;
#X msg 496 228 destroy;
#X msg 367 184 create \, 1;
#X obj 224 37 loadbang;
#X obj 266 67 bng 15 250 50 0 empty empty empty 17 7 0 10 -262144 -1
-1;
#X obj 202 214 switch~ 512 4 1;
#X obj 204 104 tgl 15 0 empty empty empty 17 7 0 10 -262144 -1 -1 1
1;
#X obj 228 104 hsl 96 15 1 10 0 0 empty empty empty -2 -8 0 10 -262144
-1 -1 0 1;
#X obj 224 62 f 0;
#X obj 361 38 declare -lib Gem;
#X connect 0 0 9 0;
#X connect 1 0 7 0;
#X connect 2 0 7 0;
#X connect 3 0 1 0;
#X connect 3 0 1 1;
#X connect 3 1 2 0;
#X connect 3 1 2 1;
#X connect 4 0 6 0;
#X connect 5 0 4 0;
#X connect 6 0 8 0;
#X connect 6 1 8 1;
#X connect 6 2 8 2;
#X connect 7 0 5 0;
#X connect 9 0 3 0;
#X connect 10 0 13 0;
#X connect 10 1 12 0;
#X connect 12 0 11 0;
#X connect 13 0 11 0;
#X connect 14 0 19 0;
#X connect 15 0 19 0;
#X connect 17 0 16 0;
#X connect 17 0 10 0;
#X connect 18 0 9 1;
#X connect 19 0 17 0;
#X coords 0 -1 1 1 130 24 2 200 100;
#X restore 470 669 pd sonogram~;
#X msg 48 433 \; pd dsp 1;
#X msg 48 493 \; pd dsp 0;
#X msg 49 593 0.0001;
#X msg 87 571 1;
#N canvas 0 22 622 635 apset~ 0;
#N canvas 0 22 450 300 ap~ 0;
#X obj 127 160 rpole~;
#X obj 127 135 rzero_rev~;
#X obj 127 92 inlet~;
#X obj 127 185 outlet~;
#X obj 204 92 inlet~;
#X connect 0 0 3 0;
#X connect 1 0 0 0;
#X connect 2 0 1 0;
#X connect 4 0 1 1;
#X connect 4 0 0 1;
#X restore 155 36 pd ap~;
#N canvas 0 22 450 300 ap~ 0;
#X obj 127 160 rpole~;
#X obj 127 135 rzero_rev~;
#X obj 127 92 inlet~;
#X obj 127 185 outlet~;
#X obj 204 92 inlet~;
#X connect 0 0 3 0;
#X connect 1 0 0 0;
#X connect 2 0 1 0;
#X connect 4 0 1 1;
#X connect 4 0 0 1;
#X restore 155 66 pd ap~;
#N canvas 0 22 450 300 ap~ 0;
#X obj 127 160 rpole~;
#X obj 127 135 rzero_rev~;
#X obj 127 92 inlet~;
#X obj 127 185 outlet~;
#X obj 204 92 inlet~;
#X connect 0 0 3 0;
#X connect 1 0 0 0;
#X connect 2 0 1 0;
#X connect 4 0 1 1;
#X connect 4 0 0 1;
#X restore 155 96 pd ap~;
#N canvas 0 22 450 300 ap~ 0;
#X obj 127 160 rpole~;
#X obj 127 135 rzero_rev~;
#X obj 127 92 inlet~;
#X obj 127 185 outlet~;
#X obj 204 92 inlet~;
#X connect 0 0 3 0;
#X connect 1 0 0 0;
#X connect 2 0 1 0;
#X connect 4 0 1 1;
#X connect 4 0 0 1;
#X restore 155 126 pd ap~;
#N canvas 0 22 450 300 ap~ 0;
#X obj 127 160 rpole~;
#X obj 127 135 rzero_rev~;
#X obj 127 92 inlet~;
#X obj 127 185 outlet~;
#X obj 204 92 inlet~;
#X connect 0 0 3 0;
#X connect 1 0 0 0;
#X connect 2 0 1 0;
#X connect 4 0 1 1;
#X connect 4 0 0 1;
#X restore 155 156 pd ap~;
#N canvas 0 22 450 300 ap~ 0;
#X obj 127 160 rpole~;
#X obj 127 135 rzero_rev~;
#X obj 127 92 inlet~;
#X obj 127 185 outlet~;
#X obj 204 92 inlet~;
#X connect 0 0 3 0;
#X connect 1 0 0 0;
#X connect 2 0 1 0;
#X connect 4 0 1 1;
#X connect 4 0 0 1;
#X restore 155 186 pd ap~;
#N canvas 0 22 450 300 ap~ 0;
#X obj 127 160 rpole~;
#X obj 127 135 rzero_rev~;
#X obj 127 92 inlet~;
#X obj 127 185 outlet~;
#X obj 204 92 inlet~;
#X connect 0 0 3 0;
#X connect 1 0 0 0;
#X connect 2 0 1 0;
#X connect 4 0 1 1;
#X connect 4 0 0 1;
#X restore 155 216 pd ap~;
#N canvas 0 22 450 300 ap~ 0;
#X obj 127 160 rpole~;
#X obj 127 135 rzero_rev~;
#X obj 127 92 inlet~;
#X obj 127 185 outlet~;
#X obj 204 92 inlet~;
#X connect 0 0 3 0;
#X connect 1 0 0 0;
#X connect 2 0 1 0;
#X connect 4 0 1 1;
#X connect 4 0 0 1;
#X restore 155 246 pd ap~;
#N canvas 0 22 450 300 ap~ 0;
#X obj 127 160 rpole~;
#X obj 127 135 rzero_rev~;
#X obj 127 92 inlet~;
#X obj 127 185 outlet~;
#X obj 204 92 inlet~;
#X connect 0 0 3 0;
#X connect 1 0 0 0;
#X connect 2 0 1 0;
#X connect 4 0 1 1;
#X connect 4 0 0 1;
#X restore 155 276 pd ap~;
#N canvas 0 22 450 300 ap~ 0;
#X obj 127 160 rpole~;
#X obj 127 135 rzero_rev~;
#X obj 127 92 inlet~;
#X obj 127 185 outlet~;
#X obj 204 92 inlet~;
#X connect 0 0 3 0;
#X connect 1 0 0 0;
#X connect 2 0 1 0;
#X connect 4 0 1 1;
#X connect 4 0 0 1;
#X restore 155 306 pd ap~;
#N canvas 0 22 450 300 ap~ 0;
#X obj 127 160 rpole~;
#X obj 127 135 rzero_rev~;
#X obj 127 92 inlet~;
#X obj 127 185 outlet~;
#X obj 204 92 inlet~;
#X connect 0 0 3 0;
#X connect 1 0 0 0;
#X connect 2 0 1 0;
#X connect 4 0 1 1;
#X connect 4 0 0 1;
#X restore 155 336 pd ap~;
#N canvas 0 22 450 300 ap~ 0;
#X obj 127 160 rpole~;
#X obj 127 135 rzero_rev~;
#X obj 127 92 inlet~;
#X obj 127 185 outlet~;
#X obj 204 92 inlet~;
#X connect 0 0 3 0;
#X connect 1 0 0 0;
#X connect 2 0 1 0;
#X connect 4 0 1 1;
#X connect 4 0 0 1;
#X restore 155 366 pd ap~;
#N canvas 0 22 450 300 ap~ 0;
#X obj 127 160 rpole~;
#X obj 127 135 rzero_rev~;
#X obj 127 92 inlet~;
#X obj 127 185 outlet~;
#X obj 204 92 inlet~;
#X connect 0 0 3 0;
#X connect 1 0 0 0;
#X connect 2 0 1 0;
#X connect 4 0 1 1;
#X connect 4 0 0 1;
#X restore 155 396 pd ap~;
#N canvas 0 22 450 300 ap~ 0;
#X obj 127 160 rpole~;
#X obj 127 135 rzero_rev~;
#X obj 127 92 inlet~;
#X obj 127 185 outlet~;
#X obj 204 92 inlet~;
#X connect 0 0 3 0;
#X connect 1 0 0 0;
#X connect 2 0 1 0;
#X connect 4 0 1 1;
#X connect 4 0 0 1;
#X restore 155 426 pd ap~;
#N canvas 0 22 450 300 ap~ 0;
#X obj 127 160 rpole~;
#X obj 127 135 rzero_rev~;
#X obj 127 92 inlet~;
#X obj 127 185 outlet~;
#X obj 204 92 inlet~;
#X connect 0 0 3 0;
#X connect 1 0 0 0;
#X connect 2 0 1 0;
#X connect 4 0 1 1;
#X connect 4 0 0 1;
#X restore 155 456 pd ap~;
#N canvas 0 22 450 300 ap~ 0;
#X obj 127 160 rpole~;
#X obj 127 135 rzero_rev~;
#X obj 127 92 inlet~;
#X obj 127 185 outlet~;
#X obj 204 92 inlet~;
#X connect 0 0 3 0;
#X connect 1 0 0 0;
#X connect 2 0 1 0;
#X connect 4 0 1 1;
#X connect 4 0 0 1;
#X restore 155 486 pd ap~;
#X obj 155 6 inlet~;
#X obj 225 6 inlet~;
#X obj 155 511 outlet~;
#X connect 0 0 1 0;
#X connect 1 0 2 0;
#X connect 2 0 3 0;
#X connect 3 0 4 0;
#X connect 4 0 5 0;
#X connect 5 0 6 0;
#X connect 6 0 7 0;
#X connect 7 0 8 0;
#X connect 8 0 9 0;
#X connect 9 0 10 0;
#X connect 10 0 11 0;
#X connect 11 0 12 0;
#X connect 12 0 13 0;
#X connect 13 0 14 0;
#X connect 14 0 15 0;
#X connect 15 0 18 0;
#X connect 16 0 0 0;
#X connect 17 0 0 1;
#X connect 17 0 1 1;
#X connect 17 0 2 1;
#X connect 17 0 3 1;
#X connect 17 0 4 1;
#X connect 17 0 5 1;
#X connect 17 0 6 1;
#X connect 17 0 7 1;
#X connect 17 0 8 1;
#X connect 17 0 9 1;
#X connect 17 0 10 1;
#X connect 17 0 11 1;
#X connect 17 0 12 1;
#X connect 17 0 13 1;
#X connect 17 0 14 1;
#X connect 17 0 15 1;
#X restore 470 541 pd apset~;
#X obj 470 303 *~ 0.3, f 9;
#X obj 470 343 +~ 0.6, f 11;
#X obj 538 517 clip~ 0 1;
#X text 12 153 The all-pass filters alter the phases of the different
frequency components in the signal depending on the rate (Hz) \, the
depth (ms) and the shift (ms) of the LFO and the feedback coefficient
a (0-1)., f 50;
#X text 12 64 The all-pass filter can be created with an one zero filter
(y[n] = -a[n] * x[n] + x[n-1]) and a pole filter (y[n] = x[n] + a[n]
* y[n-1]) and the coefficient is driven by a LFO (low frequency oscillator).
, f 46;
#X text 12 13 The phaser is an effect unit where the original signal
is mixed with a version of itself filtered by a set of variable all-pass
filters., f 70;
#X text 12 343 The phaser is a famous guitar effect that can be found
in several music like "Another Brick In The Wall (Part 3)" from the
Pink Floyd or more recently in "Paranoid Android" from Radiohead.,
f 52;
#X text 11 243 The number of all-pass filters determines the number
of notches affecting the sound. This example uses 16 all-pass filters
resulting in 8 notches. Other implementations can use much more filters
(or less) and the output can be fed back to the input., f 48;
#X connect 0 0 1 0;
#X connect 1 0 3 0;
#X connect 1 0 36 0;
#X connect 10 0 17 1;
#X connect 13 0 0 0;
#X connect 17 0 30 0;
#X connect 17 0 2 0;
#X connect 17 0 2 1;
#X connect 18 0 17 0;
#X connect 18 0 35 0;
#X connect 19 0 21 0;
#X connect 19 0 34 0;
#X connect 19 0 33 0;
#X connect 19 0 27 0;
#X connect 20 0 13 0;
#X connect 21 0 22 0;
#X connect 23 0 36 1;
#X connect 25 0 37 1;
#X connect 27 0 28 0;
#X connect 29 0 10 1;
#X connect 33 0 26 0;
#X connect 34 0 24 0;
#X connect 35 0 10 0;
#X connect 36 0 37 0;
#X connect 37 0 38 0;
#X connect 38 0 35 1;
