#N canvas 401 156 1059 632 10;
#X obj 137 24 cnv 15 170 75 empty empty empty 20 12 0 14 -101184 -66577
0;
#X msg 158 306 start;
#X msg 210 306 stop;
#X msg 470 430 stop;
#X obj 147 75 bng 15 250 50 0 empty empty stop 0 -8 0 10 -262144 -1
-1;
#X obj 176 36 hradio 15 0 0 8 empty empty record 0 -8 0 10 -262144
-1 -1 0;
#X obj 177 63 hradio 15 0 0 8 empty empty play 0 -8 0 10 -262144 -1
-1 3;
#X obj 451 533 outlet~;
#X obj 326 13 inlet~;
#X obj 147 36 vradio 15 0 1 2 empty empty adc~ 0 -8 0 10 -262144 -1
-1 0;
#X obj 37 222 adc~ 1 2 3 4;
#X obj 38 325 *~;
#X obj 53 256 * -1;
#X obj 53 278 + 1;
#X floatatom 53 300 5 0 0 0 - - -;
#X obj 326 308 *~;
#X obj 502 481 t b b;
#X obj 203 434 writesf~ 2;
#X obj 98 325 *~;
#X obj 113 258 * -1;
#X obj 113 280 + 1;
#X floatatom 113 302 5 0 0 0 - - -;
#X obj 375 308 *~;
#X obj 375 13 inlet~;
#X obj 451 453 readsf~ 2;
#X obj 502 533 outlet~;
#X symbolatom 178 81 18 0 0 0 - - -;
#X obj 46 20 loadbang;
#X obj 19 118 t b b f;
#X obj 158 257 t b a;
#X obj 158 235 pack 0 s f;
#X msg 185 278 open temp/\$2\$3.wav;
#X obj 423 193 t b b f;
#X obj 424 375 t b a;
#X obj 423 241 pack 0 s f;
#X msg 424 429 start;
#X msg 451 403 open temp/\$2\$3.wav;
#X msg 46 45 set temp;
#X obj 447 13 inlet;
#X obj 447 35 symbol;
#X obj 481 310 ../tools/file_exists/filexist;
#X obj 480 334 tgl 15 0 empty empty empty 17 7 0 10 -262144 -1 -1 1
1;
#X obj 424 266 t a a;
#X obj 424 348 spigot;
#X obj 480 355 sel 0;
#X obj 480 377 print file does not exist;
#X msg 481 288 symbol ../diverse/temp/\$2\$3.wav;
#X msg 563 126 symbol C:/Users/xgr/Dropbox/PurrData/diverse/temp/\$2\$3.wav
;
#X msg 600 174 symbol H:/Dropbox/PurrData/diverse/temp/\$2\$3.wav;
#X connect 1 0 17 0;
#X connect 2 0 17 0;
#X connect 3 0 24 0;
#X connect 4 0 2 0;
#X connect 4 0 3 0;
#X connect 5 0 28 0;
#X connect 6 0 32 0;
#X connect 8 0 15 0;
#X connect 9 0 12 0;
#X connect 9 0 15 1;
#X connect 9 0 22 1;
#X connect 9 0 19 0;
#X connect 10 0 11 0;
#X connect 10 1 18 0;
#X connect 11 0 17 0;
#X connect 12 0 13 0;
#X connect 13 0 14 0;
#X connect 14 0 11 1;
#X connect 15 0 17 0;
#X connect 16 0 34 0;
#X connect 18 0 17 1;
#X connect 19 0 20 0;
#X connect 20 0 21 0;
#X connect 21 0 18 1;
#X connect 22 0 17 1;
#X connect 23 0 22 0;
#X connect 24 0 7 0;
#X connect 24 1 25 0;
#X connect 24 2 16 0;
#X connect 26 0 30 1;
#X connect 26 0 34 1;
#X connect 27 0 37 0;
#X connect 28 0 30 0;
#X connect 28 1 26 0;
#X connect 28 2 30 2;
#X connect 29 0 1 0;
#X connect 29 1 31 0;
#X connect 30 0 29 0;
#X connect 31 0 17 0;
#X connect 32 0 34 0;
#X connect 32 1 26 0;
#X connect 32 2 34 2;
#X connect 33 0 35 0;
#X connect 33 1 36 0;
#X connect 34 0 42 0;
#X connect 35 0 24 0;
#X connect 36 0 24 0;
#X connect 37 0 26 0;
#X connect 38 0 39 0;
#X connect 39 0 26 0;
#X connect 40 0 41 0;
#X connect 41 0 43 1;
#X connect 41 0 44 0;
#X connect 42 0 43 0;
#X connect 42 1 46 0;
#X connect 42 1 47 0;
#X connect 42 1 48 0;
#X connect 43 0 33 0;
#X connect 44 0 45 0;
#X connect 48 0 40 0;
#X coords 0 -1 1 1 172 77 2 136 23;
