#N canvas 2016 71 1030 670 10;
#X obj 92 84 inlet;
#X obj 92 162 sel 0;
#X obj 149 305 t b;
#X obj 473 115 inlet;
#X obj 408 377 del \$2;
#X obj 451 455 pack 0 \$3;
#X msg 92 193 stop;
#X obj 579 467 pack 0 \$5;
#X text 450 173 attack;
#X text 530 177 decay;
#X text 584 178 sustain;
#X text 661 178 release;
#X obj 237 434 f 1;
#X obj 92 131 t f f;
#X text 88 59 trigger/peak;
#X text 68 23 ADSR ENVELOPE \, more or less from pd doc \, message-version
;
#X obj 238 464 pack 0 \$1;
#X obj 516 379 * \$4;
#X obj 450 426 f;
#X obj 441 320 expr pow($f1 \, 4) * 10000;
#X obj 502 292 expr pow($f1 \, 4) * 10000;
#X obj 633 269 expr pow($f1 \, 4) * 10000;
#X obj 473 147 unpack f f f f;
#X floatatom 693 223 5 0 0 0 - - -, f 5;
#X floatatom 659 223 5 0 0 0 - - -, f 5;
#X floatatom 763 222 5 0 0 0 - - -, f 5;
#X floatatom 729 222 5 0 0 0 - - -, f 5;
#X obj 92 106 t f f;
#X obj 449 504 line;
#X obj 449 570 line~;
#X obj 449 622 outlet~;
#X msg 449 542 \$1 7;
#X obj 449 592 *~;
#X connect 0 0 27 0;
#X connect 1 0 6 0;
#X connect 1 0 7 0;
#X connect 1 1 2 0;
#X connect 2 0 4 0;
#X connect 2 0 12 0;
#X connect 3 0 22 0;
#X connect 4 0 18 0;
#X connect 5 0 28 0;
#X connect 6 0 4 0;
#X connect 7 0 28 0;
#X connect 12 0 16 0;
#X connect 13 0 1 0;
#X connect 13 1 12 1;
#X connect 13 1 17 0;
#X connect 16 0 28 0;
#X connect 17 0 18 1;
#X connect 18 0 5 0;
#X connect 19 0 4 1;
#X connect 19 0 16 1;
#X connect 20 0 5 1;
#X connect 21 0 7 1;
#X connect 22 0 19 0;
#X connect 22 0 24 0;
#X connect 22 1 20 0;
#X connect 22 1 23 0;
#X connect 22 2 17 1;
#X connect 22 2 26 0;
#X connect 22 3 21 0;
#X connect 22 3 25 0;
#X connect 27 0 13 0;
#X connect 28 0 31 0;
#X connect 29 0 32 0;
#X connect 29 0 32 1;
#X connect 31 0 29 0;
#X connect 32 0 30 0;
