#N canvas 946 321 656 662 10;
#X obj 106 491 outlet~;
#X obj 106 140 phasor~;
#X obj 106 101 inlet~;
#X obj 217 101 inlet;
#X text 106 75 freq;
#X text 218 75 params;
#X obj 264 101 inlet;
#X text 264 58 fm operator with parametric wavform and feedback;
#X text 260 75 fb amt;
#X obj 496 108 samplerate~;
#X obj 496 131 t b f;
#X msg 496 154 1000;
#X obj 496 177 /;
#X obj 496 85 loadbang;
#X text 496 200 1 sample delay;
#X obj 160 101 inlet~;
#X obj 106 179 +~;
#X text 151 75 phase mod;
#X obj 576 107 bng 15 250 50 0 empty empty empty 17 7 0 10 -262144
-1 -1;
#X floatatom 558 139 5 0 0 0 - - -, f 5;
#N canvas 1073 101 750 724 inner 1;
#X obj 158 337 cos~;
#X obj 158 274 *~;
#X obj 158 316 +~;
#X obj 158 295 clip~;
#X obj 158 358 *~;
#X obj 158 379 -~;
#X obj 211 229 unpack f f f f f f;
#X obj 158 188 +~;
#X obj 214 156 *~;
#X obj 158 227 wrap~;
#X obj 214 134 delread~ \$0-fmop1 0;
#X obj 223 437 delwrite~ \$0-fmop1 1;
#X obj 158 59 inlet~;
#X obj 158 470 outlet~;
#X obj 350 69 inlet params;
#X obj 233 76 inlet fb_amt;
#X obj 442 76 inlet smp_time;
#X obj 543 78 inlet on;
#X floatatom 261 102 5 0 0 0 - - -, f 5;
#X connect 0 0 4 0;
#X connect 1 0 3 0;
#X connect 2 0 0 0;
#X connect 3 0 2 0;
#X connect 4 0 5 0;
#X connect 5 0 11 0;
#X connect 5 0 13 0;
#X connect 6 0 3 1;
#X connect 6 1 3 2;
#X connect 6 2 2 1;
#X connect 6 3 1 1;
#X connect 6 4 4 1;
#X connect 6 5 5 1;
#X connect 7 0 9 0;
#X connect 8 0 7 1;
#X connect 9 0 1 0;
#X connect 10 0 8 0;
#X connect 12 0 7 0;
#X connect 14 0 6 0;
#X connect 15 0 8 1;
#X connect 15 0 18 0;
#X connect 16 0 10 0;
#X restore 106 323 pd inner;
#X connect 1 0 16 0;
#X connect 2 0 1 0;
#X connect 3 0 20 2;
#X connect 6 0 20 1;
#X connect 9 0 10 0;
#X connect 9 0 19 0;
#X connect 10 0 11 0;
#X connect 10 1 12 1;
#X connect 11 0 12 0;
#X connect 12 0 20 3;
#X connect 13 0 9 0;
#X connect 15 0 16 1;
#X connect 16 0 20 0;
#X connect 18 0 9 0;
#X connect 20 0 0 0;
