#N canvas 2083 134 1568 922 10;
#X obj 776 557 mtof;
#X obj 117 59 clip 0 1;
#X obj 775 757 *~;
#X obj 775 807 outlet~;
#X obj 195 447 *;
#X obj 776 613 abs_fm_op1;
#X obj 714 420 *~;
#X obj 195 675 *~;
#X obj 729 337 *;
#X obj 1106 340 / 128;
#X obj 1106 364 *;
#X obj 729 357 +;
#X obj 473 605 abs_fm_op1;
#X obj 492 538 *~;
#X obj 507 436 *;
#X obj 507 455 +;
#X obj 475 748 *~;
#X obj 469 383 *;
#X obj 794 477 *~;
#X obj 809 390 *;
#X obj 809 411 +;
#X obj 729 377 +;
#X obj 809 432 +;
#X obj 507 474 +;
#X obj 252 446 +;
#X obj 890 528 +;
#X obj 582 526 +;
#X obj 165 310 +;
#X obj 209 311 +;
#X obj 165 333 mtof;
#X obj 210 334 mtof;
#X obj 228 292 * -1;
#X obj 490 712 abs_adsr2m;
#X obj 790 724 abs_adsr2m;
#X obj 210 646 abs_adsr2m;
#X text 342 8 3op fm voice;
#X obj 1009 72 inlet;
#X obj 206 31 inlet;
#X obj 195 807 outlet~;
#X obj 475 807 outlet~;
#X obj 507 417 t b f;
#X obj 809 369 t b f;
#X obj 729 317 t b f;
#X obj 212 403 t b f;
#X obj 468 354 t b f;
#N canvas 2525 148 778 423 opwaveformselect 0;
#X obj 96 51 inlet;
#X obj 130 115 select 0 1 2 3 4;
#X msg 80 136 0 1 0 1 1 0;
#X msg 100 161 0.5 1.5 0 2 1 0;
#X msg 136 211 0 0.5 0.75 1 2 1;
#X msg 115 189 0 0.5 0.75 0.5 2 1;
#X msg 174 231 0.5 1 0 1 1 0;
#X obj 107 270 outlet;
#X text 160 270 waveform parameters;
#X text 140 50 int 0..4 (sine \, ...);
#X floatatom 291 79 5 0 0 0 - - -, f 5;
#X obj 333 142 pack f f f f f f;
#X floatatom 379 73 5 0 0 0 - - -, f 5;
#X obj 379 94 t b f;
#X msg 285 176 \$1 1 0 \$4 1 0;
#X obj 504 198 cos~;
#X obj 504 135 *~;
#X obj 504 177 +~;
#X obj 504 156 clip~;
#X obj 504 219 *~;
#X obj 504 240 -~;
#X obj 557 90 unpack f f f f f f;
#X msg 278 231 0 1 0 3 1 0;
#X msg 299 251 0 2 1.5 5 0.4 0;
#X connect 0 0 1 0;
#X connect 1 0 2 0;
#X connect 1 1 3 0;
#X connect 1 2 5 0;
#X connect 1 3 4 0;
#X connect 1 4 6 0;
#X connect 2 0 7 0;
#X connect 3 0 7 0;
#X connect 4 0 7 0;
#X connect 5 0 7 0;
#X connect 6 0 7 0;
#X connect 10 0 11 0;
#X connect 11 0 14 0;
#X connect 12 0 13 0;
#X connect 13 0 10 0;
#X connect 13 1 11 3;
#X connect 14 0 7 0;
#X connect 15 0 19 0;
#X connect 16 0 18 0;
#X connect 17 0 15 0;
#X connect 18 0 17 0;
#X connect 19 0 20 0;
#X connect 21 0 18 1;
#X connect 21 1 18 2;
#X connect 21 2 17 1;
#X connect 21 3 16 1;
#X connect 21 4 19 1;
#X connect 21 5 20 1;
#X connect 22 0 7 0;
#X connect 23 0 7 0;
#X restore 207 516 pd opwaveformselect;
#N canvas 1 77 450 300 opwaveformselect 0;
#X obj 144 76 inlet;
#X obj 130 115 select 0 1 2 3 4;
#X msg 80 136 0 1 0 1 1 0;
#X msg 100 161 0.5 1.5 0 2 1 0;
#X msg 136 211 0 0.5 0.75 1 2 1;
#X msg 115 189 0 0.5 0.75 0.5 2 1;
#X msg 174 231 0.5 1 0 1 1 0;
#X obj 107 270 outlet;
#X text 160 270 waveform parameters;
#X text 188 75 int 0..4 (sine \, ...);
#X connect 0 0 1 0;
#X connect 1 0 2 0;
#X connect 1 1 3 0;
#X connect 1 2 5 0;
#X connect 1 3 4 0;
#X connect 1 4 6 0;
#X connect 2 0 7 0;
#X connect 3 0 7 0;
#X connect 4 0 7 0;
#X connect 5 0 7 0;
#X connect 6 0 7 0;
#X restore 816 590 pd opwaveformselect;
#N canvas 1 77 450 300 opwaveformselect 0;
#X obj 144 76 inlet;
#X obj 130 115 select 0 1 2 3 4;
#X msg 80 136 0 1 0 1 1 0;
#X msg 100 161 0.5 1.5 0 2 1 0;
#X msg 136 211 0 0.5 0.75 1 2 1;
#X msg 115 189 0 0.5 0.75 0.5 2 1;
#X msg 174 231 0.5 1 0 1 1 0;
#X obj 107 270 outlet;
#X text 160 270 waveform parameters;
#X text 188 75 int 0..4 (sine \, ...);
#X connect 0 0 1 0;
#X connect 1 0 2 0;
#X connect 1 1 3 0;
#X connect 1 2 5 0;
#X connect 1 3 4 0;
#X connect 1 4 6 0;
#X connect 2 0 7 0;
#X connect 3 0 7 0;
#X connect 4 0 7 0;
#X connect 5 0 7 0;
#X connect 6 0 7 0;
#X restore 512 583 pd opwaveformselect;
#X text 551 609 operator 2;
#X text 428 8 op1->op2 \, op2+op1->op3;
#X text 212 594 operatoor1;
#X obj 507 512 clip~ 0 1;
#X obj 507 493 sig~;
#X obj 729 397 sig~;
#X obj 809 454 sig~;
#X obj 1209 383 *;
#X obj 1209 358 / 2;
#N canvas 2153 383 476 499 msg_lfo 0;
#X obj 88 142 metro 5;
#X obj 88 174 float;
#X obj 88 220 + 1;
#X obj 134 206 / 200;
#X obj 130 176 wrap;
#X obj 88 265 cos;
#X obj 88 241 * 6.28319;
#X obj 88 379 outlet;
#X obj 158 85 inlet;
#X obj 88 54 loadbang;
#X text 172 57 freq;
#X msg 88 83 1;
#X obj 158 115 expr pow($f1 \, 4) * 25 + 0.1;
#X connect 0 0 1 0;
#X connect 1 0 2 0;
#X connect 2 0 4 0;
#X connect 2 0 6 0;
#X connect 3 0 2 1;
#X connect 4 0 1 1;
#X connect 5 0 7 0;
#X connect 6 0 5 0;
#X connect 8 0 12 0;
#X connect 9 0 11 0;
#X connect 11 0 0 0;
#X connect 12 0 3 0;
#X restore 1209 254 pd msg_lfo;
#X obj 1209 332 +;
#X obj 1209 306 t b f;
#X obj 1209 280 *;
#X obj 1293 285 *;
#X obj 1329 316 +;
#X obj 1329 292 t b f;
#X text 1054 67 3x adsr \, 3x waveform \, keytrack \, lfo freq \, fm-amt
\, fb-amt;
#X obj 582 548 clip 0 0.25;
#X obj 889 549 clip 0 0.25;
#X obj 252 468 clip 0 0.25;
#X obj 1116 143 unpack f f f;
#X obj 1199 140 unpack f f f f;
#X obj 1009 94 list trim;
#X obj 205 52 list trim;
#X obj 205 74 route detune rat fb fm;
#X obj 1120 189 pack f f f f f f f;
#X obj 1121 210 unpack f f f f f f f;
#X obj 729 167 expr pow($f1 \, 4);
#X obj 808 142 expr pow($f1 \, 4);
#X obj 507 112 expr pow($f1 \, 4);
#X obj 349 206 expr pow($f1 \, 2);
#X obj 581 177 expr pow($f1 \, 2);
#X obj 890 114 expr pow($f1 \, 2);
#X obj 1329 356 s \$0-fb_mod;
#X obj 582 482 r \$0-fb_mod;
#X obj 582 504 t b f;
#X obj 252 402 r \$0-fb_mod;
#X obj 252 424 t b f;
#X obj 892 482 r \$0-fb_mod;
#X obj 892 506 t b f;
#X obj 1208 405 s \$0-msg_lfo;
#X obj 545 437 r \$0-msg_lfo;
#X obj 545 458 t b f;
#X obj 849 389 r \$0-msg_lfo;
#X obj 850 410 t b f;
#X obj 762 339 r \$0-msg_lfo;
#X obj 763 360 t b f;
#X obj 117 82 s \$0-gate;
#X obj 210 625 r \$0-gate;
#X obj 790 703 r \$0-gate;
#X obj 490 689 r \$0-gate;
#X obj 232 229 expr pow($f1 \, 2) * 0.5;
#X obj 205 201 t b f;
#X obj 165 286 t f;
#X obj 1106 388 s \$0-pitch_cent;
#X obj 545 417 r \$0-pitch_cent;
#X obj 767 318 r \$0-pitch_cent;
#X obj 849 368 r \$0-pitch_cent;
#X obj 1121 236 s \$0-wave0;
#X obj 207 495 r \$0-wave0;
#X obj 1129 258 s \$0-wave1;
#X obj 512 563 r \$0-wave1;
#X obj 1137 281 s \$0-wave2;
#X obj 816 569 r \$0-wave2;
#X obj 37 59 s \$0-pitch;
#X obj 165 261 r \$0-pitch;
#X obj 775 535 r \$0-pitch;
#X obj 1106 316 r \$0-pitch;
#X obj 995 194 s \$0-adsr0;
#X obj 1017 215 s \$0-adsr1;
#X obj 1044 239 s \$0-adsr2;
#X obj 277 625 r \$0-adsr0;
#X obj 552 689 r \$0-adsr1;
#X obj 847 691 r \$0-adsr2;
#X obj 237 98 unpack f f;
#X floatatom 468 174 5 0 0 2 rat2 - -, f 5;
#X floatatom 261 178 5 0 0 2 rat1 - -, f 5;
#X obj 350 107 unpack f f f;
#X floatatom 349 177 5 0 0 2 fb1 - -, f 5;
#X floatatom 582 157 5 0 0 2 fb2 - -, f 5;
#X floatatom 890 90 5 0 0 2 fb3 - -, f 5;
#X obj 37 35 inlet pitch;
#X obj 117 35 inlet gate;
#X obj 509 51 unpack f f f;
#X floatatom 507 92 5 0 0 2 fm0 - -, f 5;
#X floatatom 808 120 5 0 0 2 fm2 - -, f 5;
#X floatatom 729 144 5 0 0 2 fm1 - -, f 5;
#X obj 1009 115 route adsr0 adsr1 adsr2 wave ktLfoFmFb trigger mod
;
#X obj 1313 145 unpack f f;
#X floatatom 1315 198 5 0 0 2 fma_mod - -, f 5;
#X floatatom 1370 196 5 0 0 2 fb_mod - -, f 5;
#X obj 1453 72 inlet voices;
#X obj 195 779 *~;
#X obj 475 779 *~;
#X obj 775 779 *~;
#X obj 1453 578 pipe 10;
#X obj 1511 539 loadbang;
#X obj 1511 561 bng 15 250 50 0 empty empty empty 17 7 0 10 -262144
-1 -1;
#X floatatom 1511 603 5 0 0 0 - - -, f 5;
#X floatatom 1453 600 5 0 0 0 - - -, f 5;
#X obj 1512 581 float \$1;
#X msg 1482 683 0;
#X obj 1505 755 switch~;
#X msg 1453 683 1;
#X obj 1429 762 line~;
#X obj 1453 658 sel 1;
#X msg 1429 740 \$1 5;
#X obj 1505 711 pipe 5;
#X obj 1505 734 tgl 15 0 empty empty empty 17 7 0 10 -262144 -1 -1
1 1;
#X obj 1453 626 >=;
#X obj 195 540 abs_fm_op1;
#X floatatom 439 588 5 0 0 0 - - -, f 5;
#X obj 1329 336 expr pow($f1 \, 4) * 0.25;
#X obj 1453 491 t f b;
#X connect 0 0 5 0;
#X connect 1 0 95 0;
#X connect 2 0 142 0;
#X connect 4 0 158 0;
#X connect 5 0 2 0;
#X connect 6 0 5 1;
#X connect 7 0 6 0;
#X connect 7 0 13 0;
#X connect 7 0 140 0;
#X connect 8 0 11 0;
#X connect 9 0 10 0;
#X connect 10 0 102 0;
#X connect 11 0 21 0;
#X connect 12 0 16 0;
#X connect 13 0 12 1;
#X connect 14 0 15 0;
#X connect 15 0 23 0;
#X connect 16 0 18 0;
#X connect 16 0 141 0;
#X connect 17 0 12 0;
#X connect 18 0 5 1;
#X connect 19 0 20 0;
#X connect 20 0 22 0;
#X connect 21 0 53 0;
#X connect 22 0 54 0;
#X connect 23 0 52 0;
#X connect 24 0 67 0;
#X connect 25 0 66 0;
#X connect 26 0 65 0;
#X connect 27 0 29 0;
#X connect 28 0 30 0;
#X connect 29 0 17 0;
#X connect 30 0 4 0;
#X connect 31 0 28 1;
#X connect 32 0 16 1;
#X connect 33 0 2 1;
#X connect 34 0 7 1;
#X connect 36 0 70 0;
#X connect 37 0 71 0;
#X connect 40 0 14 0;
#X connect 40 1 15 1;
#X connect 40 1 14 1;
#X connect 41 0 19 0;
#X connect 41 1 20 1;
#X connect 41 1 19 1;
#X connect 42 0 8 0;
#X connect 42 1 11 1;
#X connect 42 1 8 1;
#X connect 43 0 4 0;
#X connect 43 1 4 1;
#X connect 44 0 17 0;
#X connect 44 1 17 1;
#X connect 45 0 158 2;
#X connect 46 0 5 2;
#X connect 47 0 12 2;
#X connect 51 0 13 1;
#X connect 52 0 51 0;
#X connect 53 0 6 1;
#X connect 54 0 18 1;
#X connect 55 0 88 0;
#X connect 56 0 55 1;
#X connect 56 0 55 0;
#X connect 57 0 60 0;
#X connect 57 0 61 0;
#X connect 58 0 56 0;
#X connect 59 0 58 0;
#X connect 59 1 58 1;
#X connect 60 0 59 0;
#X connect 61 0 62 0;
#X connect 62 0 160 0;
#X connect 63 0 62 0;
#X connect 63 1 62 1;
#X connect 65 0 12 3;
#X connect 66 0 5 3;
#X connect 67 0 158 3;
#X connect 68 0 73 0;
#X connect 68 1 73 1;
#X connect 68 2 73 2;
#X connect 69 0 73 3;
#X connect 69 1 73 4;
#X connect 69 2 73 5;
#X connect 69 3 73 6;
#X connect 70 0 135 0;
#X connect 71 0 72 0;
#X connect 72 0 100 0;
#X connect 72 1 122 0;
#X connect 72 2 125 0;
#X connect 72 3 131 0;
#X connect 73 0 74 0;
#X connect 74 0 106 0;
#X connect 74 1 108 0;
#X connect 74 2 110 0;
#X connect 74 3 10 1;
#X connect 74 4 57 0;
#X connect 74 5 60 1;
#X connect 74 6 61 1;
#X connect 75 0 42 0;
#X connect 76 0 41 0;
#X connect 77 0 40 0;
#X connect 78 0 24 0;
#X connect 79 0 26 0;
#X connect 80 0 25 0;
#X connect 82 0 83 0;
#X connect 83 0 26 0;
#X connect 83 1 26 1;
#X connect 84 0 85 0;
#X connect 85 0 24 0;
#X connect 85 1 24 1;
#X connect 86 0 87 0;
#X connect 87 0 25 0;
#X connect 87 1 25 1;
#X connect 89 0 90 0;
#X connect 90 0 23 0;
#X connect 90 1 23 1;
#X connect 91 0 92 0;
#X connect 92 0 22 0;
#X connect 92 1 22 1;
#X connect 93 0 94 0;
#X connect 94 0 21 0;
#X connect 94 1 21 1;
#X connect 96 0 34 0;
#X connect 97 0 33 0;
#X connect 98 0 32 0;
#X connect 99 0 31 0;
#X connect 99 0 27 1;
#X connect 100 0 28 0;
#X connect 100 0 27 0;
#X connect 100 1 99 0;
#X connect 101 0 27 0;
#X connect 101 0 28 0;
#X connect 103 0 14 0;
#X connect 104 0 8 0;
#X connect 105 0 19 0;
#X connect 107 0 45 0;
#X connect 109 0 47 0;
#X connect 109 0 159 0;
#X connect 111 0 46 0;
#X connect 113 0 101 0;
#X connect 114 0 0 0;
#X connect 115 0 9 0;
#X connect 119 0 34 1;
#X connect 120 0 32 1;
#X connect 121 0 33 1;
#X connect 122 0 124 0;
#X connect 122 1 123 0;
#X connect 123 0 44 0;
#X connect 124 0 43 0;
#X connect 125 0 126 0;
#X connect 125 1 127 0;
#X connect 125 2 128 0;
#X connect 126 0 78 0;
#X connect 127 0 79 0;
#X connect 128 0 80 0;
#X connect 129 0 112 0;
#X connect 130 0 1 0;
#X connect 131 0 132 0;
#X connect 131 1 133 0;
#X connect 131 2 134 0;
#X connect 132 0 77 0;
#X connect 133 0 76 0;
#X connect 134 0 75 0;
#X connect 135 0 116 0;
#X connect 135 1 117 0;
#X connect 135 2 118 0;
#X connect 135 3 68 0;
#X connect 135 4 69 0;
#X connect 135 5 73 0;
#X connect 135 6 136 0;
#X connect 136 0 137 0;
#X connect 136 1 138 0;
#X connect 137 0 58 0;
#X connect 138 0 63 0;
#X connect 139 0 161 0;
#X connect 140 0 38 0;
#X connect 141 0 39 0;
#X connect 142 0 3 0;
#X connect 143 0 147 0;
#X connect 144 0 145 0;
#X connect 145 0 148 0;
#X connect 146 0 157 1;
#X connect 147 0 157 0;
#X connect 148 0 146 0;
#X connect 149 0 154 0;
#X connect 149 0 155 0;
#X connect 151 0 154 0;
#X connect 151 0 156 0;
#X connect 152 0 142 1;
#X connect 152 0 141 1;
#X connect 152 0 140 1;
#X connect 153 0 151 0;
#X connect 153 1 149 0;
#X connect 154 0 152 0;
#X connect 155 0 156 0;
#X connect 156 0 150 0;
#X connect 157 0 153 0;
#X connect 158 0 7 0;
#X connect 160 0 81 0;
#X connect 161 0 143 0;
#X connect 161 1 145 0;
