#N canvas 652 138 432 390 10;
#X obj 198 38 inlet~;
#X obj 280 38 inlet~;
#X obj 198 279 outlet~;
#X obj 280 279 outlet~;
#X obj 137 119 ../analyse/peak_meter;
#X obj 198 164 ../effects/limiter_zexy;
#X obj 198 220 pd_outlet;
#X connect 0 0 5 0;
#X connect 1 0 5 1;
#X connect 5 0 4 0;
#X connect 5 0 6 0;
#X connect 5 0 2 0;
#X connect 5 1 4 1;
#X connect 5 1 6 1;
#X connect 5 1 3 0;
#X coords 0 -1 1 1 150 137 2 137 119;
