#N canvas 908 133 529 677 10;
#X obj 84 56 inlet values;
#X obj 252 54 inlet nr;
#X floatatom 252 156 5 0 0 0 - - -, f 5;
#X msg 251 259 line 0;
#X obj 124 336 f;
#X obj 150 337 + 1;
#X obj 124 358 ==;
#X obj 224 237 t b b;
#X obj 283 232 text define \$0-txt_tmp;
#X obj 224 307 t a b;
#X msg 261 438 1500;
#X obj 261 415 loadbang;
#X obj 226 463 text set \$0-txt_tmp;
#X obj 111 168 t b 0 a;
#X obj 124 400 list;
#X obj 124 380 sel 1;
#X obj 124 422 list trim;
#X msg 283 209 clear;
#X obj 84 78 t b a;
#X msg 111 517 line 0;
#X obj 84 541 text sequence \$0-txt_tmp;
#X obj 84 495 t b b b;
#X msg 272 539 clear;
#X obj 224 285 text sequence;
#X obj 84 620 outlet set;
#X obj 272 619 outlet clear;
#X obj 365 53 inlet txt_obj_name;
#X connect 0 0 18 0;
#X connect 1 0 2 0;
#X connect 2 0 6 1;
#X connect 3 0 23 0;
#X connect 4 0 5 0;
#X connect 4 0 6 0;
#X connect 5 0 4 1;
#X connect 6 0 15 0;
#X connect 7 0 23 0;
#X connect 7 1 3 0;
#X connect 9 0 12 0;
#X connect 9 1 4 0;
#X connect 10 0 12 1;
#X connect 11 0 10 0;
#X connect 13 0 7 0;
#X connect 13 1 4 1;
#X connect 13 2 14 1;
#X connect 13 2 17 0;
#X connect 14 0 16 0;
#X connect 15 0 14 0;
#X connect 16 0 12 0;
#X connect 17 0 8 0;
#X connect 18 0 21 0;
#X connect 18 1 13 0;
#X connect 19 0 20 0;
#X connect 20 0 24 0;
#X connect 21 0 20 0;
#X connect 21 1 19 0;
#X connect 21 2 22 0;
#X connect 22 0 25 0;
#X connect 23 0 9 0;
#X connect 26 0 23 1;
